  0
SECTION
  2
HEADER
  9
$ANGBASE
  50
0.0
  9
$ANGDIR
  70
1
  9
$MEASUREMENT
  70
1
  0
ENDSEC
  0
SECTION
  2
TABLES
  0
TABLE
  2
LTYPE
  70
4
  0
LTYPE
  5
40F
  2
CONTINUOUS
  70
0
  3
Solid line
  72
65
  73
0
  40
0.0
  0
LTYPE
  5
410
  2
DASHDOT
 70
0
  3
Dash Dot ____ _ ____ _
 72
65
 73
4
 40
2.0
 49
1.25
 49
-0.25
 49
0.25
 49
-0.25
  0
LTYPE
  5
411
  2
DASHED
 70
0
  3
Dashed __ __ __ __ __
 72
65
 73
2
 40
0.75
 49
0.5
 49
-0.25
  0
LTYPE
  5
43B
  2
DOTTED
 70
0
  3
Dotted .  .  .  .
 72
65
 73
2
 40
0.2
 49
0.0
 49
-0.2
  0
ENDTAB
  0
TABLE
  2
STYLE
  70
4
  0
STYLE
  2
KICAD
  70
0
  40
0
  41
1
  42
1
  50
0
  71
0
  3
isocp.shx
  0
STYLE
  2
KICADB
  70
0
  40
0
  41
1
  42
1
  50
0
  71
0
  3
isocp.shx
  0
STYLE
  2
KICADI
  70
0
  40
0
  41
1
  42
1
  50
15
  71
0
  3
isocp.shx
  0
STYLE
  2
KICADBI
  70
0
  40
0
  41
1
  42
1
  50
15
  71
0
  3
isocp.shx
  0
ENDTAB
  0
TABLE
  2
LAYER
  70
1
  0
LAYER
  2
BLACK
  70
0
  62
7
  6
CONTINUOUS
  0
ENDTAB
  0
ENDSEC
  0
SECTION
  2
ENTITIES
0
LINE
8
BLACK
6
CONTINUOUS
10
-52.182742999999995
20
-31.9140879999999996
11
-52.0025639999999996
21
-31.9796669999999992
0
LINE
8
BLACK
6
CONTINUOUS
10
-52.0025639999999996
20
-31.9796669999999992
11
-51.836509999999997
21
-32.0755389999999991
0
LINE
8
BLACK
6
CONTINUOUS
10
-51.836509999999997
20
-32.0755389999999991
11
-51.689627999999999
21
-32.1987869999999958
0
LINE
8
BLACK
6
CONTINUOUS
10
-51.689627999999999
20
-32.1987869999999958
11
-51.6896269999999944
21
-32.1987880000000004
0
LINE
8
BLACK
6
CONTINUOUS
10
-51.6896269999999944
20
-32.1987880000000004
11
-42.285105999999999
21
-41.6033079999999984
0
LINE
8
BLACK
6
CONTINUOUS
10
-42.285105999999999
20
-41.6033079999999984
11
-42.2850859999999997
21
-41.6033319999999947
0
LINE
8
BLACK
6
CONTINUOUS
10
-42.2850859999999997
20
-41.6033319999999947
11
-42.1618579999999952
21
-41.7501910000000009
0
LINE
8
BLACK
6
CONTINUOUS
10
-42.1618579999999952
20
-41.7501910000000009
11
-42.0659859999999952
21
-41.9162449999999964
0
LINE
8
BLACK
6
CONTINUOUS
10
-42.0659859999999952
20
-41.9162449999999964
11
-42.0004069999999956
21
-42.096423999999999
0
LINE
8
BLACK
6
CONTINUOUS
10
-42.0004069999999956
20
-42.096423999999999
11
-41.9671109999999956
21
-42.2852539999999948
0
LINE
8
BLACK
6
CONTINUOUS
10
-41.9671109999999956
20
-42.2852539999999948
11
-41.9671109999999956
21
-42.4769959999999998
0
LINE
8
BLACK
6
CONTINUOUS
10
-41.9671109999999956
20
-42.4769959999999998
11
-42.0004069999999956
21
-42.6658259999999956
0
LINE
8
BLACK
6
CONTINUOUS
10
-42.0004069999999956
20
-42.6658259999999956
11
-42.0659859999999952
21
-42.8460049999999981
0
LINE
8
BLACK
6
CONTINUOUS
10
-42.0659859999999952
20
-42.8460049999999981
11
-42.1618579999999952
21
-43.0120590000000007
0
LINE
8
BLACK
6
CONTINUOUS
10
-42.1618579999999952
20
-43.0120590000000007
11
-42.2850859999999997
21
-43.1589169999999953
0
LINE
8
BLACK
6
CONTINUOUS
10
-42.2850859999999997
20
-43.1589169999999953
11
-42.285105999999999
21
-43.1589419999999961
0
LINE
8
BLACK
6
CONTINUOUS
10
-42.285105999999999
20
-43.1589419999999961
11
-51.6896269999999944
21
-52.5634619999999941
0
LINE
8
BLACK
6
CONTINUOUS
10
-51.6896269999999944
20
-52.5634619999999941
11
-51.836509999999997
21
-52.6867109999999954
0
LINE
8
BLACK
6
CONTINUOUS
10
-51.836509999999997
20
-52.6867109999999954
11
-52.0025639999999996
21
-52.7825829999999954
0
LINE
8
BLACK
6
CONTINUOUS
10
-52.0025639999999996
20
-52.7825829999999954
11
-52.182742999999995
21
-52.848161999999995
0
LINE
8
BLACK
6
CONTINUOUS
10
-52.182742999999995
20
-52.848161999999995
11
-52.3715729999999979
21
-52.881457999999995
0
LINE
8
BLACK
6
CONTINUOUS
10
-52.3715729999999979
20
-52.881457999999995
11
-52.5633149999999958
21
-52.881457999999995
0
LINE
8
BLACK
6
CONTINUOUS
10
-52.5633149999999958
20
-52.881457999999995
11
-52.7521449999999987
21
-52.848161999999995
0
LINE
8
BLACK
6
CONTINUOUS
10
-52.7521449999999987
20
-52.848161999999995
11
-52.9323239999999942
21
-52.7825829999999954
0
LINE
8
BLACK
6
CONTINUOUS
10
-52.9323239999999942
20
-52.7825829999999954
11
-53.0983779999999967
21
-52.6867109999999954
0
LINE
8
BLACK
6
CONTINUOUS
10
-53.0983779999999967
20
-52.6867109999999954
11
-53.2452359999999985
21
-52.5634820000000005
0
LINE
8
BLACK
6
CONTINUOUS
10
-53.2452359999999985
20
-52.5634820000000005
11
-53.2452609999999993
21
-52.5634629999999987
0
LINE
8
BLACK
6
CONTINUOUS
10
-53.2452609999999993
20
-52.5634629999999987
11
-62.6497809999999973
21
-43.1589419999999961
0
LINE
8
BLACK
6
CONTINUOUS
10
-62.6497809999999973
20
-43.1589419999999961
11
-62.7730299999999986
21
-43.0120590000000007
0
LINE
8
BLACK
6
CONTINUOUS
10
-62.7730299999999986
20
-43.0120590000000007
11
-62.8689019999999985
21
-42.8460049999999981
0
LINE
8
BLACK
6
CONTINUOUS
10
-62.8689019999999985
20
-42.8460049999999981
11
-62.9344809999999981
21
-42.6658259999999956
0
LINE
8
BLACK
6
CONTINUOUS
10
-62.9344809999999981
20
-42.6658259999999956
11
-62.9677769999999981
21
-42.4769959999999998
0
LINE
8
BLACK
6
CONTINUOUS
10
-62.9677769999999981
20
-42.4769959999999998
11
-62.9677769999999981
21
-42.2852539999999948
0
LINE
8
BLACK
6
CONTINUOUS
10
-62.9677769999999981
20
-42.2852539999999948
11
-62.9344809999999981
21
-42.096423999999999
0
LINE
8
BLACK
6
CONTINUOUS
10
-62.9344809999999981
20
-42.096423999999999
11
-62.8689019999999985
21
-41.9162449999999964
0
LINE
8
BLACK
6
CONTINUOUS
10
-62.8689019999999985
20
-41.9162449999999964
11
-62.7730299999999986
21
-41.7501910000000009
0
LINE
8
BLACK
6
CONTINUOUS
10
-62.7730299999999986
20
-41.7501910000000009
11
-62.6497809999999973
21
-41.6033079999999984
0
LINE
8
BLACK
6
CONTINUOUS
10
-62.6497809999999973
20
-41.6033079999999984
11
-53.2452609999999993
21
-32.1987869999999958
0
LINE
8
BLACK
6
CONTINUOUS
10
-53.2452609999999993
20
-32.1987869999999958
11
-53.2452359999999985
21
-32.1987669999999966
0
LINE
8
BLACK
6
CONTINUOUS
10
-53.2452359999999985
20
-32.1987669999999966
11
-53.0983779999999967
21
-32.0755389999999991
0
LINE
8
BLACK
6
CONTINUOUS
10
-53.0983779999999967
20
-32.0755389999999991
11
-52.9323239999999942
21
-31.9796669999999992
0
LINE
8
BLACK
6
CONTINUOUS
10
-52.9323239999999942
20
-31.9796669999999992
11
-52.7521449999999987
21
-31.9140879999999996
0
LINE
8
BLACK
6
CONTINUOUS
10
-52.7521449999999987
20
-31.9140879999999996
11
-52.5633149999999958
21
-31.8807919999999996
0
LINE
8
BLACK
6
CONTINUOUS
10
-52.5633149999999958
20
-31.8807919999999996
11
-52.3715729999999979
21
-31.8807919999999996
0
LINE
8
BLACK
6
CONTINUOUS
10
-52.3715729999999979
20
-31.8807919999999996
11
-52.182742999999995
21
-31.9140879999999996
0
LINE
8
BLACK
6
CONTINUOUS
10
-61.1648569999999978
20
-42.3811249999999973
11
-52.4674429999999958
21
-51.0785379999999947
0
LINE
8
BLACK
6
CONTINUOUS
10
-52.4674429999999958
20
-51.0785379999999947
11
-43.7700299999999984
21
-42.3811249999999973
0
LINE
8
BLACK
6
CONTINUOUS
10
-43.7700299999999984
20
-42.3811249999999973
11
-52.4674429999999958
21
-33.6837109999999953
0
LINE
8
BLACK
6
CONTINUOUS
10
-52.4674429999999958
20
-33.6837109999999953
11
-61.1648569999999978
21
-42.3811249999999973
0
LINE
8
BLACK
6
CONTINUOUS
10
-32.885584999999999
20
-19.2023759999999974
11
-32.7003759999999986
21
-19.2520019999999974
0
LINE
8
BLACK
6
CONTINUOUS
10
-32.7003759999999986
20
-19.2520019999999974
11
-32.5265979999999999
21
-19.3330359999999999
0
LINE
8
BLACK
6
CONTINUOUS
10
-32.5265979999999999
20
-19.3330359999999999
11
-32.3695319999999995
21
-19.4430160000000001
0
LINE
8
BLACK
6
CONTINUOUS
10
-32.3695319999999995
20
-19.4430160000000001
11
-32.2339500000000001
21
-19.5785979999999995
0
LINE
8
BLACK
6
CONTINUOUS
10
-32.2339500000000001
20
-19.5785979999999995
11
-32.1239840000000001
21
-19.7356449999999981
0
LINE
8
BLACK
6
CONTINUOUS
10
-32.1239840000000001
20
-19.7356449999999981
11
-32.1239709999999974
21
-19.7356639999999999
0
LINE
8
BLACK
6
CONTINUOUS
10
-32.1239709999999974
20
-19.7356639999999999
11
-32.1239699999999999
21
-19.7356639999999999
0
LINE
8
BLACK
6
CONTINUOUS
10
-32.1239699999999999
20
-19.7356639999999999
11
-32.1239699999999999
21
-19.7356649999999973
0
LINE
8
BLACK
6
CONTINUOUS
10
-32.1239699999999999
20
-19.7356649999999973
11
-25.4739719999999998
21
-31.2537979999999997
0
LINE
8
BLACK
6
CONTINUOUS
10
-25.4739719999999998
20
-31.2537979999999997
11
-25.4739719999999998
21
-31.2537999999999982
0
LINE
8
BLACK
6
CONTINUOUS
10
-25.4739719999999998
20
-31.2537999999999982
11
-25.3929379999999973
21
-31.4275789999999979
0
LINE
8
BLACK
6
CONTINUOUS
10
-25.3929379999999973
20
-31.4275789999999979
11
-25.3433109999999999
21
-31.6127879999999983
0
LINE
8
BLACK
6
CONTINUOUS
10
-25.3433109999999999
20
-31.6127879999999983
11
-25.3265989999999981
21
-31.8038019999999975
0
LINE
8
BLACK
6
CONTINUOUS
10
-25.3265989999999981
20
-31.8038019999999975
11
-25.3433109999999999
21
-31.9948149999999991
0
LINE
8
BLACK
6
CONTINUOUS
10
-25.3433109999999999
20
-31.9948149999999991
11
-25.3929379999999973
21
-32.1800250000000005
0
LINE
8
BLACK
6
CONTINUOUS
10
-25.3929379999999973
20
-32.1800250000000005
11
-25.4739719999999998
21
-32.3538029999999992
0
LINE
8
BLACK
6
CONTINUOUS
10
-25.4739719999999998
20
-32.3538029999999992
11
-25.583952
21
-32.510869999999997
0
LINE
8
BLACK
6
CONTINUOUS
10
-25.583952
20
-32.510869999999997
11
-25.7195350000000005
21
-32.6464519999999965
0
LINE
8
BLACK
6
CONTINUOUS
10
-25.7195350000000005
20
-32.6464519999999965
11
-25.8765769999999975
21
-32.756413000000002
0
LINE
8
BLACK
6
CONTINUOUS
10
-25.8765769999999975
20
-32.756413000000002
11
-25.8765989999999988
21
-32.7564289999999971
0
LINE
8
BLACK
6
CONTINUOUS
10
-25.8765989999999988
20
-32.7564289999999971
11
-37.3947299999999956
21
-39.4064249999999987
0
LINE
8
BLACK
6
CONTINUOUS
10
-37.3947299999999956
20
-39.4064249999999987
11
-37.3947369999999992
21
-39.4064300000000003
0
LINE
8
BLACK
6
CONTINUOUS
10
-37.3947369999999992
20
-39.4064300000000003
11
-37.3947369999999992
21
-39.4064289999999957
0
LINE
8
BLACK
6
CONTINUOUS
10
-37.3947369999999992
20
-39.4064289999999957
11
-37.3947519999999969
21
-39.4064349999999948
0
LINE
8
BLACK
6
CONTINUOUS
10
-37.3947519999999969
20
-39.4064349999999948
11
-37.5685149999999979
21
-39.4874629999999982
0
LINE
8
BLACK
6
CONTINUOUS
10
-37.5685149999999979
20
-39.4874629999999982
11
-37.7537239999999983
21
-39.5370890000000017
0
LINE
8
BLACK
6
CONTINUOUS
10
-37.7537239999999983
20
-39.5370890000000017
11
-37.9447359999999989
21
-39.553801
0
LINE
8
BLACK
6
CONTINUOUS
10
-37.9447359999999989
20
-39.553801
11
-38.1357479999999995
21
-39.5370899999999992
0
LINE
8
BLACK
6
CONTINUOUS
10
-38.1357479999999995
20
-39.5370899999999992
11
-38.3209569999999999
21
-39.4874639999999957
0
LINE
8
BLACK
6
CONTINUOUS
10
-38.3209569999999999
20
-39.4874639999999957
11
-38.4947349999999986
21
-39.4064300000000003
0
LINE
8
BLACK
6
CONTINUOUS
10
-38.4947349999999986
20
-39.4064300000000003
11
-38.651800999999999
21
-39.2964519999999951
0
LINE
8
BLACK
6
CONTINUOUS
10
-38.651800999999999
20
-39.2964519999999951
11
-38.7873829999999984
21
-39.1608699999999956
0
LINE
8
BLACK
6
CONTINUOUS
10
-38.7873829999999984
20
-39.1608699999999956
11
-38.8973629999999986
21
-39.0038049999999998
0
LINE
8
BLACK
6
CONTINUOUS
10
-38.8973629999999986
20
-39.0038049999999998
11
-38.8973650000000006
21
-39.0037990000000008
0
LINE
8
BLACK
6
CONTINUOUS
10
-38.8973650000000006
20
-39.0037990000000008
11
-45.5473639999999946
21
-27.4856639999999999
0
LINE
8
BLACK
6
CONTINUOUS
10
-45.5473639999999946
20
-27.4856639999999999
11
-45.5473649999999992
21
-27.4856589999999983
0
LINE
8
BLACK
6
CONTINUOUS
10
-45.5473649999999992
20
-27.4856589999999983
11
-45.6283969999999997
21
-27.3118899999999982
0
LINE
8
BLACK
6
CONTINUOUS
10
-45.6283969999999997
20
-27.3118899999999982
11
-45.6780249999999981
21
-27.1266800000000003
0
LINE
8
BLACK
6
CONTINUOUS
10
-45.6780249999999981
20
-27.1266800000000003
11
-45.6947369999999964
21
-26.9356659999999977
0
LINE
8
BLACK
6
CONTINUOUS
10
-45.6947369999999964
20
-26.9356659999999977
11
-45.6780259999999956
21
-26.7446529999999996
0
LINE
8
BLACK
6
CONTINUOUS
10
-45.6780259999999956
20
-26.7446529999999996
11
-45.6283989999999946
21
-26.5594429999999981
0
LINE
8
BLACK
6
CONTINUOUS
10
-45.6283989999999946
20
-26.5594429999999981
11
-45.5473649999999992
21
-26.3856639999999985
0
LINE
8
BLACK
6
CONTINUOUS
10
-45.5473649999999992
20
-26.3856639999999985
11
-45.4373859999999965
21
-26.2285969999999971
0
LINE
8
BLACK
6
CONTINUOUS
10
-45.4373859999999965
20
-26.2285969999999971
11
-45.3018029999999996
21
-26.0930140000000002
0
LINE
8
BLACK
6
CONTINUOUS
10
-45.3018029999999996
20
-26.0930140000000002
11
-45.1447359999999946
21
-25.9830349999999974
0
LINE
8
BLACK
6
CONTINUOUS
10
-45.1447359999999946
20
-25.9830349999999974
11
-45.1447319999999976
21
-25.9830329999999989
0
LINE
8
BLACK
6
CONTINUOUS
10
-45.1447319999999976
20
-25.9830329999999989
11
-33.6266049999999979
21
-19.3330389999999994
0
LINE
8
BLACK
6
CONTINUOUS
10
-33.6266049999999979
20
-19.3330389999999994
11
-33.6265989999999988
21
-19.3330349999999989
0
LINE
8
BLACK
6
CONTINUOUS
10
-33.6265989999999988
20
-19.3330349999999989
11
-33.6265980000000013
21
-19.3330349999999989
0
LINE
8
BLACK
6
CONTINUOUS
10
-33.6265980000000013
20
-19.3330349999999989
11
-33.6265829999999966
21
-19.3330289999999998
0
LINE
8
BLACK
6
CONTINUOUS
10
-33.6265829999999966
20
-19.3330289999999998
11
-33.4528210000000001
21
-19.2520019999999974
0
LINE
8
BLACK
6
CONTINUOUS
10
-33.4528210000000001
20
-19.2520019999999974
11
-33.2676109999999952
21
-19.202375
0
LINE
8
BLACK
6
CONTINUOUS
10
-33.2676109999999952
20
-19.202375
11
-33.0765979999999971
21
-19.1856639999999992
0
LINE
8
BLACK
6
CONTINUOUS
10
-33.0765979999999971
20
-19.1856639999999992
11
-32.885584999999999
21
-19.2023759999999974
0
LINE
8
BLACK
6
CONTINUOUS
10
-43.9117239999999995
20
-27.1186759999999971
11
-37.761724000000001
21
-37.770787999999996
0
LINE
8
BLACK
6
CONTINUOUS
10
-37.761724000000001
20
-37.770787999999996
11
-27.1096109999999975
21
-31.6207879999999975
0
LINE
8
BLACK
6
CONTINUOUS
10
-27.1096109999999975
20
-31.6207879999999975
11
-33.2596109999999996
21
-20.9686749999999975
0
LINE
8
BLACK
6
CONTINUOUS
10
-33.2596109999999996
20
-20.9686749999999975
11
-43.9117239999999995
21
-27.1186759999999971
0
LINE
8
BLACK
6
CONTINUOUS
10
-65.6531269999999978
20
-18.4437029999999993
11
-65.4729480000000024
21
-18.5092819999999989
0
LINE
8
BLACK
6
CONTINUOUS
10
-65.4729480000000024
20
-18.5092819999999989
11
-65.3068939999999998
21
-18.6051539999999989
0
LINE
8
BLACK
6
CONTINUOUS
10
-65.3068939999999998
20
-18.6051539999999989
11
-65.1600109999999972
21
-18.7284030000000001
0
LINE
8
BLACK
6
CONTINUOUS
10
-65.1600109999999972
20
-18.7284030000000001
11
-55.7554909999999992
21
-28.1329229999999981
0
LINE
8
BLACK
6
CONTINUOUS
10
-55.7554909999999992
20
-28.1329229999999981
11
-55.7554739999999995
21
-28.1329429999999974
0
LINE
8
BLACK
6
CONTINUOUS
10
-55.7554739999999995
20
-28.1329429999999974
11
-55.632241999999998
21
-28.2798069999999981
0
LINE
8
BLACK
6
CONTINUOUS
10
-55.632241999999998
20
-28.2798069999999981
11
-55.536369999999998
21
-28.4458609999999972
0
LINE
8
BLACK
6
CONTINUOUS
10
-55.536369999999998
20
-28.4458609999999972
11
-55.4707909999999984
21
-28.6260399999999997
0
LINE
8
BLACK
6
CONTINUOUS
10
-55.4707909999999984
20
-28.6260399999999997
11
-55.4374949999999984
21
-28.8148699999999991
0
LINE
8
BLACK
6
CONTINUOUS
10
-55.4374949999999984
20
-28.8148699999999991
11
-55.4374949999999984
21
-29.006611999999997
0
LINE
8
BLACK
6
CONTINUOUS
10
-55.4374949999999984
20
-29.006611999999997
11
-55.4707909999999984
21
-29.1954419999999999
0
LINE
8
BLACK
6
CONTINUOUS
10
-55.4707909999999984
20
-29.1954419999999999
11
-55.536369999999998
21
-29.3756209999999989
0
LINE
8
BLACK
6
CONTINUOUS
10
-55.536369999999998
20
-29.3756209999999989
11
-55.632241999999998
21
-29.5416749999999979
0
LINE
8
BLACK
6
CONTINUOUS
10
-55.632241999999998
20
-29.5416749999999979
11
-55.7554699999999954
21
-29.6885329999999996
0
LINE
8
BLACK
6
CONTINUOUS
10
-55.7554699999999954
20
-29.6885329999999996
11
-55.7554899999999947
21
-29.6885579999999969
0
LINE
8
BLACK
6
CONTINUOUS
10
-55.7554899999999947
20
-29.6885579999999969
11
-65.1600109999999972
21
-39.0930779999999984
0
LINE
8
BLACK
6
CONTINUOUS
10
-65.1600109999999972
20
-39.0930779999999984
11
-65.3068939999999998
21
-39.2163269999999997
0
LINE
8
BLACK
6
CONTINUOUS
10
-65.3068939999999998
20
-39.2163269999999997
11
-65.4729480000000024
21
-39.3121989999999997
0
LINE
8
BLACK
6
CONTINUOUS
10
-65.4729480000000024
20
-39.3121989999999997
11
-65.6531269999999978
21
-39.3777779999999993
0
LINE
8
BLACK
6
CONTINUOUS
10
-65.6531269999999978
20
-39.3777779999999993
11
-65.8419569999999936
21
-39.4110739999999993
0
LINE
8
BLACK
6
CONTINUOUS
10
-65.8419569999999936
20
-39.4110739999999993
11
-66.0336989999999986
21
-39.4110739999999993
0
LINE
8
BLACK
6
CONTINUOUS
10
-66.0336989999999986
20
-39.4110739999999993
11
-66.2225289999999944
21
-39.3777779999999993
0
LINE
8
BLACK
6
CONTINUOUS
10
-66.2225289999999944
20
-39.3777779999999993
11
-66.4027080000000041
21
-39.3121989999999997
0
LINE
8
BLACK
6
CONTINUOUS
10
-66.4027080000000041
20
-39.3121989999999997
11
-66.5687619999999924
21
-39.2163269999999997
0
LINE
8
BLACK
6
CONTINUOUS
10
-66.5687619999999924
20
-39.2163269999999997
11
-66.7156200000000013
21
-39.0930979999999977
0
LINE
8
BLACK
6
CONTINUOUS
10
-66.7156200000000013
20
-39.0930979999999977
11
-66.715644999999995
21
-39.0930789999999959
0
LINE
8
BLACK
6
CONTINUOUS
10
-66.715644999999995
20
-39.0930789999999959
11
-76.1201650000000001
21
-29.6885579999999969
0
LINE
8
BLACK
6
CONTINUOUS
10
-76.1201650000000001
20
-29.6885579999999969
11
-76.2434140000000014
21
-29.5416749999999979
0
LINE
8
BLACK
6
CONTINUOUS
10
-76.2434140000000014
20
-29.5416749999999979
11
-76.3392860000000013
21
-29.3756209999999989
0
LINE
8
BLACK
6
CONTINUOUS
10
-76.3392860000000013
20
-29.3756209999999989
11
-76.4048650000000009
21
-29.1954419999999999
0
LINE
8
BLACK
6
CONTINUOUS
10
-76.4048650000000009
20
-29.1954419999999999
11
-76.4381609999999938
21
-29.006611999999997
0
LINE
8
BLACK
6
CONTINUOUS
10
-76.4381609999999938
20
-29.006611999999997
11
-76.4381609999999938
21
-28.8148699999999991
0
LINE
8
BLACK
6
CONTINUOUS
10
-76.4381609999999938
20
-28.8148699999999991
11
-76.4048650000000009
21
-28.6260399999999997
0
LINE
8
BLACK
6
CONTINUOUS
10
-76.4048650000000009
20
-28.6260399999999997
11
-76.3392860000000013
21
-28.4458609999999972
0
LINE
8
BLACK
6
CONTINUOUS
10
-76.3392860000000013
20
-28.4458609999999972
11
-76.2434140000000014
21
-28.2798069999999981
0
LINE
8
BLACK
6
CONTINUOUS
10
-76.2434140000000014
20
-28.2798069999999981
11
-76.1201650000000001
21
-28.1329239999999992
0
LINE
8
BLACK
6
CONTINUOUS
10
-76.1201650000000001
20
-28.1329239999999992
11
-76.1201640000000026
21
-28.1329229999999981
0
LINE
8
BLACK
6
CONTINUOUS
10
-76.1201640000000026
20
-28.1329229999999981
11
-66.7156459999999925
21
-18.7284030000000001
0
LINE
8
BLACK
6
CONTINUOUS
10
-66.7156459999999925
20
-18.7284030000000001
11
-66.7156250000000028
21
-18.7283860000000004
0
LINE
8
BLACK
6
CONTINUOUS
10
-66.7156250000000028
20
-18.7283860000000004
11
-66.5687619999999924
21
-18.6051539999999989
0
LINE
8
BLACK
6
CONTINUOUS
10
-66.5687619999999924
20
-18.6051539999999989
11
-66.4027080000000041
21
-18.5092819999999989
0
LINE
8
BLACK
6
CONTINUOUS
10
-66.4027080000000041
20
-18.5092819999999989
11
-66.2225289999999944
21
-18.4437029999999993
0
LINE
8
BLACK
6
CONTINUOUS
10
-66.2225289999999944
20
-18.4437029999999993
11
-66.0336989999999986
21
-18.4104069999999993
0
LINE
8
BLACK
6
CONTINUOUS
10
-66.0336989999999986
20
-18.4104069999999993
11
-65.8419569999999936
21
-18.4104069999999993
0
LINE
8
BLACK
6
CONTINUOUS
10
-65.8419569999999936
20
-18.4104069999999993
11
-65.6531269999999978
21
-18.4437029999999993
0
LINE
8
BLACK
6
CONTINUOUS
10
-74.6352409999999935
20
-28.910739999999997
11
-65.9378269999999986
21
-37.608153999999999
0
LINE
8
BLACK
6
CONTINUOUS
10
-65.9378269999999986
20
-37.608153999999999
11
-57.2404139999999941
21
-28.910739999999997
0
LINE
8
BLACK
6
CONTINUOUS
10
-57.2404139999999941
20
-28.910739999999997
11
-65.9378269999999986
21
-20.2133259999999986
0
LINE
8
BLACK
6
CONTINUOUS
10
-65.9378269999999986
20
-20.2133259999999986
11
-74.6352409999999935
21
-28.910739999999997
0
LINE
8
BLACK
6
CONTINUOUS
10
-10.9907399999999988
20
-11.970046
11
-10.8195560000000004
21
-12.022848999999999
0
LINE
8
BLACK
6
CONTINUOUS
10
-10.8195560000000004
20
-12.022848999999999
11
-10.6644129999999997
21
-12.1124209999999994
0
LINE
8
BLACK
6
CONTINUOUS
10
-10.6644129999999997
20
-12.1124209999999994
11
-10.572258999999999
21
-12.197927
0
LINE
8
BLACK
6
CONTINUOUS
10
-10.572258999999999
20
-12.197927
11
-10.4521319999999989
21
-12.2349809999999994
0
LINE
8
BLACK
6
CONTINUOUS
10
-10.4521319999999989
20
-12.2349809999999994
11
-10.2969899999999992
21
-12.3245529999999999
0
LINE
8
BLACK
6
CONTINUOUS
10
-10.2969899999999992
20
-12.3245529999999999
11
-10.1656689999999994
21
-12.4464009999999998
0
LINE
8
BLACK
6
CONTINUOUS
10
-10.1656689999999994
20
-12.4464009999999998
11
-10.0647539999999989
21
-12.5944159999999989
0
LINE
8
BLACK
6
CONTINUOUS
10
-10.0647539999999989
20
-12.5944159999999989
11
-9.9993049999999997
21
-12.761175999999999
0
LINE
8
BLACK
6
CONTINUOUS
10
-9.9993049999999997
20
-12.761175999999999
11
-6.5570119999999994
21
-25.6079879999999989
0
LINE
8
BLACK
6
CONTINUOUS
10
-6.5570119999999994
20
-25.6079879999999989
11
-6.5570059999999994
21
-25.6080269999999999
0
LINE
8
BLACK
6
CONTINUOUS
10
-6.5570059999999994
20
-25.6080269999999999
11
-6.5237169999999995
21
-25.7968179999999982
0
LINE
8
BLACK
6
CONTINUOUS
10
-6.5237169999999995
20
-25.7968179999999982
11
-6.5237169999999995
21
-25.9885609999999971
0
LINE
8
BLACK
6
CONTINUOUS
10
-6.5237169999999995
20
-25.9885609999999971
11
-6.5570119999999994
21
-26.177389999999999
0
LINE
8
BLACK
6
CONTINUOUS
10
-6.5570119999999994
20
-26.177389999999999
11
-6.622592
21
-26.357568999999998
0
LINE
8
BLACK
6
CONTINUOUS
10
-6.622592
20
-26.357568999999998
11
-6.7184629999999999
21
-26.5236229999999971
0
LINE
8
BLACK
6
CONTINUOUS
10
-6.7184629999999999
20
-26.5236229999999971
11
-6.8417129999999995
21
-26.6705069999999971
0
LINE
8
BLACK
6
CONTINUOUS
10
-6.8417129999999995
20
-26.6705069999999971
11
-6.9885959999999994
21
-26.7937569999999994
0
LINE
8
BLACK
6
CONTINUOUS
10
-6.9885959999999994
20
-26.7937569999999994
11
-7.1546499999999993
21
-26.8896279999999983
0
LINE
8
BLACK
6
CONTINUOUS
10
-7.1546499999999993
20
-26.8896279999999983
11
-7.3348069999999996
21
-26.9551999999999978
0
LINE
8
BLACK
6
CONTINUOUS
10
-7.3348069999999996
20
-26.9551999999999978
11
-7.334829
21
-26.9552079999999989
0
LINE
8
BLACK
6
CONTINUOUS
10
-7.334829
20
-26.9552079999999989
11
-7.334829
21
-26.955209
0
LINE
8
BLACK
6
CONTINUOUS
10
-7.334829
20
-26.955209
11
-7.3348309999999994
21
-26.955209
0
LINE
8
BLACK
6
CONTINUOUS
10
-7.3348309999999994
20
-26.955209
11
-20.1816390000000006
21
-30.3975009999999983
0
LINE
8
BLACK
6
CONTINUOUS
10
-20.1816390000000006
20
-30.3975009999999983
11
-20.1816420000000001
21
-30.3975019999999994
0
LINE
8
BLACK
6
CONTINUOUS
10
-20.1816420000000001
20
-30.3975019999999994
11
-20.1816420000000001
21
-30.3975009999999983
0
LINE
8
BLACK
6
CONTINUOUS
10
-20.1816420000000001
20
-30.3975009999999983
11
-20.1816429999999976
21
-30.3975019999999994
0
LINE
8
BLACK
6
CONTINUOUS
10
-20.1816429999999976
20
-30.3975019999999994
11
-20.1816749999999985
21
-30.3975059999999999
0
LINE
8
BLACK
6
CONTINUOUS
10
-20.1816749999999985
20
-30.3975059999999999
11
-20.3704719999999995
21
-30.4307969999999983
0
LINE
8
BLACK
6
CONTINUOUS
10
-20.3704719999999995
20
-30.4307969999999983
11
-20.5622149999999984
21
-30.4307969999999983
0
LINE
8
BLACK
6
CONTINUOUS
10
-20.5622149999999984
20
-30.4307969999999983
11
-20.7510440000000003
21
-30.3975019999999994
0
LINE
8
BLACK
6
CONTINUOUS
10
-20.7510440000000003
20
-30.3975019999999994
11
-20.9312229999999992
21
-30.3319219999999987
0
LINE
8
BLACK
6
CONTINUOUS
10
-20.9312229999999992
20
-30.3319219999999987
11
-21.0972769999999983
21
-30.2360509999999998
0
LINE
8
BLACK
6
CONTINUOUS
10
-21.0972769999999983
20
-30.2360509999999998
11
-21.2441609999999983
21
-30.1128009999999975
0
LINE
8
BLACK
6
CONTINUOUS
10
-21.2441609999999983
20
-30.1128009999999975
11
-21.3674110000000006
21
-29.9659179999999985
0
LINE
8
BLACK
6
CONTINUOUS
10
-21.3674110000000006
20
-29.9659179999999985
11
-21.4632819999999995
21
-29.7998639999999995
0
LINE
8
BLACK
6
CONTINUOUS
10
-21.4632819999999995
20
-29.7998639999999995
11
-21.528853999999999
21
-29.6197059999999972
0
LINE
8
BLACK
6
CONTINUOUS
10
-21.528853999999999
20
-29.6197059999999972
11
-21.5288629999999976
21
-29.6196839999999995
0
LINE
8
BLACK
6
CONTINUOUS
10
-21.5288629999999976
20
-29.6196839999999995
11
-24.9711560000000006
21
-16.7728699999999975
0
LINE
8
BLACK
6
CONTINUOUS
10
-24.9711560000000006
20
-16.7728699999999975
11
-24.9711579999999991
21
-16.7728560000000009
0
LINE
8
BLACK
6
CONTINUOUS
10
-24.9711579999999991
20
-16.7728560000000009
11
-25.0044509999999995
21
-16.5840390000000006
0
LINE
8
BLACK
6
CONTINUOUS
10
-25.0044509999999995
20
-16.5840390000000006
11
-25.0044509999999995
21
-16.3922969999999992
0
LINE
8
BLACK
6
CONTINUOUS
10
-25.0044509999999995
20
-16.3922969999999992
11
-24.9711549999999995
21
-16.2034680000000009
0
LINE
8
BLACK
6
CONTINUOUS
10
-24.9711549999999995
20
-16.2034680000000009
11
-24.9055749999999989
21
-16.0232889999999983
0
LINE
8
BLACK
6
CONTINUOUS
10
-24.9055749999999989
20
-16.0232889999999983
11
-24.809704
21
-15.8572349999999993
0
LINE
8
BLACK
6
CONTINUOUS
10
-24.809704
20
-15.8572349999999993
11
-24.6864539999999977
21
-15.7103519999999985
0
LINE
8
BLACK
6
CONTINUOUS
10
-24.6864539999999977
20
-15.7103519999999985
11
-24.5395709999999987
21
-15.587102999999999
0
LINE
8
BLACK
6
CONTINUOUS
10
-24.5395709999999987
20
-15.587102999999999
11
-24.3735169999999997
21
-15.4912320000000001
0
LINE
8
BLACK
6
CONTINUOUS
10
-24.3735169999999997
20
-15.4912320000000001
11
-24.1933599999999984
21
-15.4256589999999996
0
LINE
8
BLACK
6
CONTINUOUS
10
-24.1933599999999984
20
-15.4256589999999996
11
-24.1933389999999982
21
-15.4256509999999984
0
LINE
8
BLACK
6
CONTINUOUS
10
-24.1933389999999982
20
-15.4256509999999984
11
-24.1933359999999986
21
-15.4256499999999992
0
LINE
8
BLACK
6
CONTINUOUS
10
-24.1933359999999986
20
-15.4256499999999992
11
-11.3465249999999997
21
-11.9833579999999991
0
LINE
8
BLACK
6
CONTINUOUS
10
-11.3465249999999997
20
-11.9833579999999991
11
-11.1693819999999988
21
-11.9566590000000001
0
LINE
8
BLACK
6
CONTINUOUS
10
-11.1693819999999988
20
-11.9566590000000001
11
-10.9907399999999988
21
-11.970046
0
LINE
8
BLACK
6
CONTINUOUS
10
-23.2962639999999972
20
-16.8417229999999982
11
-20.1127900000000004
21
-28.7226099999999995
0
LINE
8
BLACK
6
CONTINUOUS
10
-20.1127900000000004
20
-28.7226099999999995
11
-8.2319029999999991
21
-25.5391359999999992
0
LINE
8
BLACK
6
CONTINUOUS
10
-8.2319029999999991
20
-25.5391359999999992
11
-11.4153769999999994
21
-13.6582489999999996
0
LINE
8
BLACK
6
CONTINUOUS
10
-11.4153769999999994
20
-13.6582489999999996
11
-23.2962639999999972
21
-16.8417229999999982
0
LINE
8
BLACK
6
CONTINUOUS
10
-50.2172379999999947
20
-25.4668889999999983
11
-49.945374000000001
21
-25.5260299999999987
0
LINE
8
BLACK
6
CONTINUOUS
10
-49.945374000000001
20
-25.5260299999999987
11
-49.6846929999999958
21
-25.6232589999999973
0
LINE
8
BLACK
6
CONTINUOUS
10
-49.6846929999999958
20
-25.6232589999999973
11
-49.4405019999999951
21
-25.7565969999999993
0
LINE
8
BLACK
6
CONTINUOUS
10
-49.4405019999999951
20
-25.7565969999999993
11
-49.2177739999999986
21
-25.923328999999999
0
LINE
8
BLACK
6
CONTINUOUS
10
-49.2177739999999986
20
-25.923328999999999
11
-49.0210399999999993
21
-26.1200629999999983
0
LINE
8
BLACK
6
CONTINUOUS
10
-49.0210399999999993
20
-26.1200629999999983
11
-48.8543079999999961
21
-26.3427909999999983
0
LINE
8
BLACK
6
CONTINUOUS
10
-48.8543079999999961
20
-26.3427909999999983
11
-48.7209700000000012
21
-26.586981999999999
0
LINE
8
BLACK
6
CONTINUOUS
10
-48.7209700000000012
20
-26.586981999999999
11
-48.6237409999999954
21
-26.8476629999999972
0
LINE
8
BLACK
6
CONTINUOUS
10
-48.6237409999999954
20
-26.8476629999999972
11
-48.5645999999999987
21
-27.1195269999999979
0
LINE
8
BLACK
6
CONTINUOUS
10
-48.5645999999999987
20
-27.1195269999999979
11
-48.5447519999999955
21
-27.397040999999998
0
LINE
8
BLACK
6
CONTINUOUS
10
-48.5447519999999955
20
-27.397040999999998
11
-48.5645999999999987
21
-27.674554999999998
0
LINE
8
BLACK
6
CONTINUOUS
10
-48.5645999999999987
20
-27.674554999999998
11
-48.6237409999999954
21
-27.9464189999999988
0
LINE
8
BLACK
6
CONTINUOUS
10
-48.6237409999999954
20
-27.9464189999999988
11
-48.7209700000000012
21
-28.207099999999997
0
LINE
8
BLACK
6
CONTINUOUS
10
-48.7209700000000012
20
-28.207099999999997
11
-48.8543079999999961
21
-28.4512909999999977
0
LINE
8
BLACK
6
CONTINUOUS
10
-48.8543079999999961
20
-28.4512909999999977
11
-49.0210399999999993
21
-28.6740189999999977
0
LINE
8
BLACK
6
CONTINUOUS
10
-49.0210399999999993
20
-28.6740189999999977
11
-49.2177739999999986
21
-28.870752999999997
0
LINE
8
BLACK
6
CONTINUOUS
10
-49.2177739999999986
20
-28.870752999999997
11
-49.4405019999999951
21
-29.0374850000000002
0
LINE
8
BLACK
6
CONTINUOUS
10
-49.4405019999999951
20
-29.0374850000000002
11
-49.6846929999999958
21
-29.1708229999999986
0
LINE
8
BLACK
6
CONTINUOUS
10
-49.6846929999999958
20
-29.1708229999999986
11
-49.945374000000001
21
-29.2680519999999973
0
LINE
8
BLACK
6
CONTINUOUS
10
-49.945374000000001
20
-29.2680519999999973
11
-50.2172379999999947
21
-29.3271929999999976
0
LINE
8
BLACK
6
CONTINUOUS
10
-50.2172379999999947
20
-29.3271929999999976
11
-50.4947519999999983
21
-29.3470409999999973
0
LINE
8
BLACK
6
CONTINUOUS
10
-50.4947519999999983
20
-29.3470409999999973
11
-50.7722659999999948
21
-29.3271929999999976
0
LINE
8
BLACK
6
CONTINUOUS
10
-50.7722659999999948
20
-29.3271929999999976
11
-51.0441299999999956
21
-29.2680519999999973
0
LINE
8
BLACK
6
CONTINUOUS
10
-51.0441299999999956
20
-29.2680519999999973
11
-51.3048110000000008
21
-29.1708229999999986
0
LINE
8
BLACK
6
CONTINUOUS
10
-51.3048110000000008
20
-29.1708229999999986
11
-51.5490019999999944
21
-29.0374850000000002
0
LINE
8
BLACK
6
CONTINUOUS
10
-51.5490019999999944
20
-29.0374850000000002
11
-51.771729999999998
21
-28.870752999999997
0
LINE
8
BLACK
6
CONTINUOUS
10
-51.771729999999998
20
-28.870752999999997
11
-51.9684639999999973
21
-28.6740189999999977
0
LINE
8
BLACK
6
CONTINUOUS
10
-51.9684639999999973
20
-28.6740189999999977
11
-52.1351960000000005
21
-28.4512909999999977
0
LINE
8
BLACK
6
CONTINUOUS
10
-52.1351960000000005
20
-28.4512909999999977
11
-52.2685339999999954
21
-28.207099999999997
0
LINE
8
BLACK
6
CONTINUOUS
10
-52.2685339999999954
20
-28.207099999999997
11
-52.3657630000000012
21
-27.9464189999999988
0
LINE
8
BLACK
6
CONTINUOUS
10
-52.3657630000000012
20
-27.9464189999999988
11
-52.4249039999999979
21
-27.674554999999998
0
LINE
8
BLACK
6
CONTINUOUS
10
-52.4249039999999979
20
-27.674554999999998
11
-52.4447520000000011
21
-27.397040999999998
0
LINE
8
BLACK
6
CONTINUOUS
10
-52.4447520000000011
20
-27.397040999999998
11
-52.4249039999999979
21
-27.1195269999999979
0
LINE
8
BLACK
6
CONTINUOUS
10
-52.4249039999999979
20
-27.1195269999999979
11
-52.3657630000000012
21
-26.8476629999999972
0
LINE
8
BLACK
6
CONTINUOUS
10
-52.3657630000000012
20
-26.8476629999999972
11
-52.2685339999999954
21
-26.586981999999999
0
LINE
8
BLACK
6
CONTINUOUS
10
-52.2685339999999954
20
-26.586981999999999
11
-52.1351960000000005
21
-26.3427909999999983
0
LINE
8
BLACK
6
CONTINUOUS
10
-52.1351960000000005
20
-26.3427909999999983
11
-51.9684639999999973
21
-26.1200629999999983
0
LINE
8
BLACK
6
CONTINUOUS
10
-51.9684639999999973
20
-26.1200629999999983
11
-51.771729999999998
21
-25.923328999999999
0
LINE
8
BLACK
6
CONTINUOUS
10
-51.771729999999998
20
-25.923328999999999
11
-51.5490019999999944
21
-25.7565969999999993
0
LINE
8
BLACK
6
CONTINUOUS
10
-51.5490019999999944
20
-25.7565969999999993
11
-51.3048110000000008
21
-25.6232589999999973
0
LINE
8
BLACK
6
CONTINUOUS
10
-51.3048110000000008
20
-25.6232589999999973
11
-51.0441299999999956
21
-25.5260299999999987
0
LINE
8
BLACK
6
CONTINUOUS
10
-51.0441299999999956
20
-25.5260299999999987
11
-50.7722659999999948
21
-25.4668889999999983
0
LINE
8
BLACK
6
CONTINUOUS
10
-50.7722659999999948
20
-25.4668889999999983
11
-50.4947519999999983
21
-25.4470409999999987
0
LINE
8
BLACK
6
CONTINUOUS
10
-50.4947519999999983
20
-25.4470409999999987
11
-50.2172379999999947
21
-25.4668889999999983
0
LINE
8
BLACK
6
CONTINUOUS
10
-50.8317709999999963
20
-27.5065449999999991
11
-50.7814379999999943
21
-27.6053299999999986
0
LINE
8
BLACK
6
CONTINUOUS
10
-50.7814379999999943
20
-27.6053299999999986
11
-50.7030409999999989
21
-27.6837269999999975
0
LINE
8
BLACK
6
CONTINUOUS
10
-50.7030409999999989
20
-27.6837269999999975
11
-50.6042559999999995
21
-27.7340599999999995
0
LINE
8
BLACK
6
CONTINUOUS
10
-50.6042559999999995
20
-27.7340599999999995
11
-50.4947519999999983
21
-27.7514039999999973
0
LINE
8
BLACK
6
CONTINUOUS
10
-50.4947519999999983
20
-27.7514039999999973
11
-50.3852479999999971
21
-27.7340599999999995
0
LINE
8
BLACK
6
CONTINUOUS
10
-50.3852479999999971
20
-27.7340599999999995
11
-50.2864629999999977
21
-27.6837269999999975
0
LINE
8
BLACK
6
CONTINUOUS
10
-50.2864629999999977
20
-27.6837269999999975
11
-50.2080659999999952
21
-27.6053299999999986
0
LINE
8
BLACK
6
CONTINUOUS
10
-50.2080659999999952
20
-27.6053299999999986
11
-50.1577330000000003
21
-27.5065449999999991
0
LINE
8
BLACK
6
CONTINUOUS
10
-50.1577330000000003
20
-27.5065449999999991
11
-50.140388999999999
21
-27.397040999999998
0
LINE
8
BLACK
6
CONTINUOUS
10
-50.140388999999999
20
-27.397040999999998
11
-50.1577330000000003
21
-27.2875370000000004
0
LINE
8
BLACK
6
CONTINUOUS
10
-50.1577330000000003
20
-27.2875370000000004
11
-50.2080659999999952
21
-27.1887519999999974
0
LINE
8
BLACK
6
CONTINUOUS
10
-50.2080659999999952
20
-27.1887519999999974
11
-50.2864629999999977
21
-27.1103549999999984
0
LINE
8
BLACK
6
CONTINUOUS
10
-50.2864629999999977
20
-27.1103549999999984
11
-50.3852479999999971
21
-27.060022
0
LINE
8
BLACK
6
CONTINUOUS
10
-50.3852479999999971
20
-27.060022
11
-50.4947519999999983
21
-27.0426779999999987
0
LINE
8
BLACK
6
CONTINUOUS
10
-50.4947519999999983
20
-27.0426779999999987
11
-50.6042559999999995
21
-27.060022
0
LINE
8
BLACK
6
CONTINUOUS
10
-50.6042559999999995
20
-27.060022
11
-50.7030409999999989
21
-27.1103549999999984
0
LINE
8
BLACK
6
CONTINUOUS
10
-50.7030409999999989
20
-27.1103549999999984
11
-50.7814379999999943
21
-27.1887519999999974
0
LINE
8
BLACK
6
CONTINUOUS
10
-50.7814379999999943
20
-27.1887519999999974
11
-50.8317709999999963
21
-27.2875370000000004
0
LINE
8
BLACK
6
CONTINUOUS
10
-50.8317709999999963
20
-27.2875370000000004
11
-50.8491149999999976
21
-27.397040999999998
0
LINE
8
BLACK
6
CONTINUOUS
10
-50.8491149999999976
20
-27.397040999999998
11
-50.8317709999999963
21
-27.5065449999999991
0
LINE
8
BLACK
6
CONTINUOUS
10
-42.4105849999999975
20
-2.7045919999999999
11
-42.2253759999999971
21
-2.7542179999999998
0
LINE
8
BLACK
6
CONTINUOUS
10
-42.2253759999999971
20
-2.7542179999999998
11
-42.0515979999999985
21
-2.8352519999999997
0
LINE
8
BLACK
6
CONTINUOUS
10
-42.0515979999999985
20
-2.8352519999999997
11
-41.8945319999999981
21
-2.9452319999999999
0
LINE
8
BLACK
6
CONTINUOUS
10
-41.8945319999999981
20
-2.9452319999999999
11
-41.7589499999999987
21
-3.0808139999999997
0
LINE
8
BLACK
6
CONTINUOUS
10
-41.7589499999999987
20
-3.0808139999999997
11
-41.6489839999999987
21
-3.2378609999999997
0
LINE
8
BLACK
6
CONTINUOUS
10
-41.6489839999999987
20
-3.2378609999999997
11
-41.648970999999996
21
-3.2378799999999996
0
LINE
8
BLACK
6
CONTINUOUS
10
-41.648970999999996
20
-3.2378799999999996
11
-41.6489699999999985
21
-3.2378799999999996
0
LINE
8
BLACK
6
CONTINUOUS
10
-41.6489699999999985
20
-3.2378799999999996
11
-41.6489699999999985
21
-3.2378809999999998
0
LINE
8
BLACK
6
CONTINUOUS
10
-41.6489699999999985
20
-3.2378809999999998
11
-34.9989719999999949
21
-14.7560139999999986
0
LINE
8
BLACK
6
CONTINUOUS
10
-34.9989719999999949
20
-14.7560139999999986
11
-34.9989719999999949
21
-14.7560159999999989
0
LINE
8
BLACK
6
CONTINUOUS
10
-34.9989719999999949
20
-14.7560159999999989
11
-34.9179379999999995
21
-14.9297949999999986
0
LINE
8
BLACK
6
CONTINUOUS
10
-34.9179379999999995
20
-14.9297949999999986
11
-34.8683109999999985
21
-15.115003999999999
0
LINE
8
BLACK
6
CONTINUOUS
10
-34.8683109999999985
20
-15.115003999999999
11
-34.8515990000000002
21
-15.3060179999999999
0
LINE
8
BLACK
6
CONTINUOUS
10
-34.8515990000000002
20
-15.3060179999999999
11
-34.8683109999999985
21
-15.4970309999999998
0
LINE
8
BLACK
6
CONTINUOUS
10
-34.8683109999999985
20
-15.4970309999999998
11
-34.9179379999999995
21
-15.6822409999999994
0
LINE
8
BLACK
6
CONTINUOUS
10
-34.9179379999999995
20
-15.6822409999999994
11
-34.9989719999999949
21
-15.8560189999999999
0
LINE
8
BLACK
6
CONTINUOUS
10
-34.9989719999999949
20
-15.8560189999999999
11
-35.1089519999999951
21
-16.0130859999999977
0
LINE
8
BLACK
6
CONTINUOUS
10
-35.1089519999999951
20
-16.0130859999999977
11
-35.2445349999999991
21
-16.1486680000000007
0
LINE
8
BLACK
6
CONTINUOUS
10
-35.2445349999999991
20
-16.1486680000000007
11
-35.4015769999999961
21
-16.2586289999999991
0
LINE
8
BLACK
6
CONTINUOUS
10
-35.4015769999999961
20
-16.2586289999999991
11
-35.4015989999999974
21
-16.2586449999999978
0
LINE
8
BLACK
6
CONTINUOUS
10
-35.4015989999999974
20
-16.2586449999999978
11
-46.9197269999999946
21
-22.9086389999999973
0
LINE
8
BLACK
6
CONTINUOUS
10
-46.9197269999999946
20
-22.9086389999999973
11
-46.9197309999999987
21
-22.9086420000000004
0
LINE
8
BLACK
6
CONTINUOUS
10
-46.9197309999999987
20
-22.9086420000000004
11
-46.9197309999999987
21
-22.9086409999999994
0
LINE
8
BLACK
6
CONTINUOUS
10
-46.9197309999999987
20
-22.9086409999999994
11
-46.9197369999999978
21
-22.9086449999999999
0
LINE
8
BLACK
6
CONTINUOUS
10
-46.9197369999999978
20
-22.9086449999999999
11
-46.9197769999999963
21
-22.9086619999999996
0
LINE
8
BLACK
6
CONTINUOUS
10
-46.9197769999999963
20
-22.9086619999999996
11
-47.0935089999999974
21
-22.9896770000000004
0
LINE
8
BLACK
6
CONTINUOUS
10
-47.0935089999999974
20
-22.9896770000000004
11
-47.2787189999999953
21
-23.0393059999999998
0
LINE
8
BLACK
6
CONTINUOUS
10
-47.2787189999999953
20
-23.0393059999999998
11
-47.4697339999999954
21
-23.0560179999999981
0
LINE
8
BLACK
6
CONTINUOUS
10
-47.4697339999999954
20
-23.0560179999999981
11
-47.6607479999999981
21
-23.0393069999999973
0
LINE
8
BLACK
6
CONTINUOUS
10
-47.6607479999999981
20
-23.0393069999999973
11
-47.845957999999996
21
-22.9896799999999999
0
LINE
8
BLACK
6
CONTINUOUS
10
-47.845957999999996
20
-22.9896799999999999
11
-48.0197369999999992
21
-22.9086459999999974
0
LINE
8
BLACK
6
CONTINUOUS
10
-48.0197369999999992
20
-22.9086459999999974
11
-48.1768049999999945
21
-22.7986659999999972
0
LINE
8
BLACK
6
CONTINUOUS
10
-48.1768049999999945
20
-22.7986659999999972
11
-48.3123879999999986
21
-22.6630819999999993
0
LINE
8
BLACK
6
CONTINUOUS
10
-48.3123879999999986
20
-22.6630819999999993
11
-48.4223670000000013
21
-22.5060140000000004
0
LINE
8
BLACK
6
CONTINUOUS
10
-48.4223670000000013
20
-22.5060140000000004
11
-48.4223689999999962
21
-22.5060079999999978
0
LINE
8
BLACK
6
CONTINUOUS
10
-48.4223689999999962
20
-22.5060079999999978
11
-55.0723640000000003
21
-10.9878799999999988
0
LINE
8
BLACK
6
CONTINUOUS
10
-55.0723640000000003
20
-10.9878799999999988
11
-55.0723649999999978
21
-10.9878749999999989
0
LINE
8
BLACK
6
CONTINUOUS
10
-55.0723649999999978
20
-10.9878749999999989
11
-55.1533969999999982
21
-10.8141059999999989
0
LINE
8
BLACK
6
CONTINUOUS
10
-55.1533969999999982
20
-10.8141059999999989
11
-55.2030249999999967
21
-10.6288959999999992
0
LINE
8
BLACK
6
CONTINUOUS
10
-55.2030249999999967
20
-10.6288959999999992
11
-55.219736999999995
21
-10.4378820000000001
0
LINE
8
BLACK
6
CONTINUOUS
10
-55.219736999999995
20
-10.4378820000000001
11
-55.2030259999999942
21
-10.2468690000000002
0
LINE
8
BLACK
6
CONTINUOUS
10
-55.2030259999999942
20
-10.2468690000000002
11
-55.1533990000000003
21
-10.0616589999999988
0
LINE
8
BLACK
6
CONTINUOUS
10
-55.1533990000000003
20
-10.0616589999999988
11
-55.0723649999999978
21
-9.8878799999999991
0
LINE
8
BLACK
6
CONTINUOUS
10
-55.0723649999999978
20
-9.8878799999999991
11
-54.9623859999999951
21
-9.7308129999999995
0
LINE
8
BLACK
6
CONTINUOUS
10
-54.9623859999999951
20
-9.7308129999999995
11
-54.8268029999999982
21
-9.595229999999999
0
LINE
8
BLACK
6
CONTINUOUS
10
-54.8268029999999982
20
-9.595229999999999
11
-54.6697360000000003
21
-9.4852509999999999
0
LINE
8
BLACK
6
CONTINUOUS
10
-54.6697360000000003
20
-9.4852509999999999
11
-54.6697319999999962
21
-9.4852489999999996
0
LINE
8
BLACK
6
CONTINUOUS
10
-54.6697319999999962
20
-9.4852489999999996
11
-43.1516049999999964
21
-2.8352550000000001
0
LINE
8
BLACK
6
CONTINUOUS
10
-43.1516049999999964
20
-2.8352550000000001
11
-43.1515989999999974
21
-2.835251
0
LINE
8
BLACK
6
CONTINUOUS
10
-43.1515989999999974
20
-2.835251
11
-43.1515979999999999
21
-2.835251
0
LINE
8
BLACK
6
CONTINUOUS
10
-43.1515979999999999
20
-2.835251
11
-43.1515829999999951
21
-2.835245
0
LINE
8
BLACK
6
CONTINUOUS
10
-43.1515829999999951
20
-2.835245
11
-42.9778209999999987
21
-2.7542179999999998
0
LINE
8
BLACK
6
CONTINUOUS
10
-42.9778209999999987
20
-2.7542179999999998
11
-42.7926110000000008
21
-2.7045909999999997
0
LINE
8
BLACK
6
CONTINUOUS
10
-42.7926110000000008
20
-2.7045909999999997
11
-42.6015979999999956
21
-2.6878799999999998
0
LINE
8
BLACK
6
CONTINUOUS
10
-42.6015979999999956
20
-2.6878799999999998
11
-42.4105849999999975
21
-2.7045919999999999
0
LINE
8
BLACK
6
CONTINUOUS
10
-53.4367239999999981
20
-10.6208919999999996
11
-47.2867239999999995
21
-21.2730040000000002
0
LINE
8
BLACK
6
CONTINUOUS
10
-47.2867239999999995
20
-21.2730040000000002
11
-36.6346109999999996
21
-15.1230039999999999
0
LINE
8
BLACK
6
CONTINUOUS
10
-36.6346109999999996
20
-15.1230039999999999
11
-42.7846109999999982
21
-4.4708909999999999
0
LINE
8
BLACK
6
CONTINUOUS
10
-42.7846109999999982
20
-4.4708909999999999
11
-53.4367239999999981
21
-10.6208919999999996
0
LINE
8
BLACK
6
CONTINUOUS
10
8.4127279999999995
20
57.5525499999999965
11
10.8532409999999988
21
57.4874930000000006
0
LINE
8
BLACK
6
CONTINUOUS
10
10.8532409999999988
20
57.4874930000000006
11
13.2924559999999996
21
57.3846999999999952
0
LINE
8
BLACK
6
CONTINUOUS
10
13.2924559999999996
20
57.3846999999999952
11
15.7297889999999985
21
57.2441959999999952
0
LINE
8
BLACK
6
CONTINUOUS
10
15.7297889999999985
20
57.2441959999999952
11
18.1646579999999993
21
57.0660139999999956
0
LINE
8
BLACK
6
CONTINUOUS
10
18.1646579999999993
20
57.0660139999999956
11
20.5964810000000007
21
56.8501969999999943
0
LINE
8
BLACK
6
CONTINUOUS
10
20.5964810000000007
20
56.8501969999999943
11
23.0246739999999974
21
56.5967979999999997
0
LINE
8
BLACK
6
CONTINUOUS
10
23.0246739999999974
20
56.5967979999999997
11
25.4486579999999982
21
56.3058750000000003
0
LINE
8
BLACK
6
CONTINUOUS
10
25.4486579999999982
20
56.3058750000000003
11
27.8678539999999977
21
55.9774989999999946
0
LINE
8
BLACK
6
CONTINUOUS
10
27.8678539999999977
20
55.9774989999999946
11
30.281680999999999
21
55.6117489999999961
0
LINE
8
BLACK
6
CONTINUOUS
10
30.281680999999999
20
55.6117489999999961
11
32.6895629999999997
21
55.2087119999999985
0
LINE
8
BLACK
6
CONTINUOUS
10
32.6895629999999997
20
55.2087119999999985
11
35.0909240000000011
21
54.7684840000000008
0
LINE
8
BLACK
6
CONTINUOUS
10
35.0909240000000011
20
54.7684840000000008
11
37.4851899999999958
21
54.291170000000001
0
LINE
8
BLACK
6
CONTINUOUS
10
37.4851899999999958
20
54.291170000000001
11
39.8717869999999976
21
53.7768859999999975
0
LINE
8
BLACK
6
CONTINUOUS
10
39.8717869999999976
20
53.7768859999999975
11
42.2501460000000009
21
53.2257529999999974
0
LINE
8
BLACK
6
CONTINUOUS
10
42.2501460000000009
20
53.2257529999999974
11
44.6196959999999976
21
52.6379039999999989
0
LINE
8
BLACK
6
CONTINUOUS
10
44.6196959999999976
20
52.6379039999999989
11
46.9798720000000003
21
52.0134789999999967
0
LINE
8
BLACK
6
CONTINUOUS
10
46.9798720000000003
20
52.0134789999999967
11
49.3301079999999956
21
51.3526279999999957
0
LINE
8
BLACK
6
CONTINUOUS
10
49.3301079999999956
20
51.3526279999999957
11
51.6698430000000002
21
50.6555079999999975
0
LINE
8
BLACK
6
CONTINUOUS
10
51.6698430000000002
20
50.6555079999999975
11
53.9985169999999997
21
49.9222869999999972
0
LINE
8
BLACK
6
CONTINUOUS
10
53.9985169999999997
20
49.9222869999999972
11
56.3155730000000005
21
49.1531389999999959
0
LINE
8
BLACK
6
CONTINUOUS
10
56.3155730000000005
20
49.1531389999999959
11
58.6204569999999947
21
48.3482500000000002
0
LINE
8
BLACK
6
CONTINUOUS
10
58.6204569999999947
20
48.3482500000000002
11
60.9126069999999942
21
47.5078129999999987
0
LINE
8
BLACK
6
CONTINUOUS
10
60.9126069999999942
20
47.5078129999999987
11
60.9126169999999973
21
47.5078109999999967
0
LINE
8
BLACK
6
CONTINUOUS
10
60.9126169999999973
20
47.5078109999999967
11
60.9126249999999985
21
47.5078059999999951
0
LINE
8
BLACK
6
CONTINUOUS
10
60.9126249999999985
20
47.5078059999999951
11
63.1103609999999975
21
46.6639020000000002
0
LINE
8
BLACK
6
CONTINUOUS
10
63.1103609999999975
20
46.6639020000000002
11
65.2952760000000012
21
45.787312
0
LINE
8
BLACK
6
CONTINUOUS
10
65.2952760000000012
20
45.787312
11
67.4668750000000017
21
44.8782360000000011
0
LINE
8
BLACK
6
CONTINUOUS
10
67.4668750000000017
20
44.8782360000000011
11
69.6246749999999963
21
43.9368750000000006
0
LINE
8
BLACK
6
CONTINUOUS
10
69.6246749999999963
20
43.9368750000000006
11
71.7681970000000007
21
42.9634399999999985
0
LINE
8
BLACK
6
CONTINUOUS
10
71.7681970000000007
20
42.9634399999999985
11
73.8969629999999995
21
41.9581459999999993
0
LINE
8
BLACK
6
CONTINUOUS
10
73.8969629999999995
20
41.9581459999999993
11
76.0105009999999908
21
40.9212179999999961
0
LINE
8
BLACK
6
CONTINUOUS
10
76.0105009999999908
20
40.9212179999999961
11
78.1083399999999983
21
39.8528850000000006
0
LINE
8
BLACK
6
CONTINUOUS
10
78.1083399999999983
20
39.8528850000000006
11
80.1900129999999933
21
38.753385999999999
0
LINE
8
BLACK
6
CONTINUOUS
10
80.1900129999999933
20
38.753385999999999
11
80.1900139999999908
21
38.7533880000000011
0
LINE
8
BLACK
6
CONTINUOUS
10
80.1900139999999908
20
38.7533880000000011
11
80.1900320000000022
21
38.7533749999999984
0
LINE
8
BLACK
6
CONTINUOUS
10
80.1900320000000022
20
38.7533749999999984
11
80.1900529999999918
21
38.7533669999999972
0
LINE
8
BLACK
6
CONTINUOUS
10
80.1900529999999918
20
38.7533669999999972
11
80.3951739999999972
21
38.6245440000000002
0
LINE
8
BLACK
6
CONTINUOUS
10
80.3951739999999972
20
38.6245440000000002
11
80.5811429999999973
21
38.4693490000000011
0
LINE
8
BLACK
6
CONTINUOUS
10
80.5811429999999973
20
38.4693490000000011
11
80.7445929999999947
21
38.2905930000000012
0
LINE
8
BLACK
6
CONTINUOUS
10
80.7445929999999947
20
38.2905930000000012
11
80.8825649999999996
21
38.091510999999997
0
LINE
8
BLACK
6
CONTINUOUS
10
80.8825649999999996
20
38.091510999999997
11
80.9925609999999949
21
37.8757079999999959
0
LINE
8
BLACK
6
CONTINUOUS
10
80.9925609999999949
20
37.8757079999999959
11
81.0725879999999961
21
37.6470909999999961
0
LINE
8
BLACK
6
CONTINUOUS
10
81.0725879999999961
20
37.6470909999999961
11
81.1211989999999901
21
37.4097999999999971
0
LINE
8
BLACK
6
CONTINUOUS
10
81.1211989999999901
20
37.4097999999999971
11
81.1375129999999984
21
37.1681309999999954
0
LINE
8
BLACK
6
CONTINUOUS
10
81.1375129999999984
20
37.1681309999999954
11
81.1375019999999978
21
37.1681309999999954
0
LINE
8
BLACK
6
CONTINUOUS
10
81.1375019999999978
20
37.1681309999999954
11
81.1374979999999937
21
37.1680999999999955
0
LINE
8
BLACK
6
CONTINUOUS
10
81.1374979999999937
20
37.1680999999999955
11
81.1375019999999978
21
37.1680729999999997
0
LINE
8
BLACK
6
CONTINUOUS
10
81.1375019999999978
20
37.1680729999999997
11
81.1375019999999978
21
-20.3057890000000008
0
LINE
8
BLACK
6
CONTINUOUS
10
81.1375019999999978
20
-20.3057890000000008
11
81.1221039999999931
21
-20.540737
0
LINE
8
BLACK
6
CONTINUOUS
10
81.1221039999999931
20
-20.540737
11
81.0761710000000022
21
-20.7716659999999997
0
LINE
8
BLACK
6
CONTINUOUS
10
81.0761710000000022
20
-20.7716659999999997
11
81.0004879999999901
21
-20.9946230000000007
0
LINE
8
BLACK
6
CONTINUOUS
10
81.0004879999999901
20
-20.9946230000000007
11
80.8963519999999932
21
-21.2057939999999974
0
LINE
8
BLACK
6
CONTINUOUS
10
80.8963519999999932
20
-21.2057939999999974
11
80.7655419999999964
21
-21.401565999999999
0
LINE
8
BLACK
6
CONTINUOUS
10
80.7655419999999964
20
-21.401565999999999
11
80.6102989999999977
21
-21.5785889999999974
0
LINE
8
BLACK
6
CONTINUOUS
10
80.6102989999999977
20
-21.5785889999999974
11
80.4332769999999897
21
-21.7338339999999981
0
LINE
8
BLACK
6
CONTINUOUS
10
80.4332769999999897
20
-21.7338339999999981
11
80.2375059999999962
21
-21.8646439999999984
0
LINE
8
BLACK
6
CONTINUOUS
10
80.2375059999999962
20
-21.8646439999999984
11
80.0263360000000006
21
-21.9687829999999984
0
LINE
8
BLACK
6
CONTINUOUS
10
80.0263360000000006
20
-21.9687829999999984
11
79.8033789999999925
21
-22.0444669999999974
0
LINE
8
BLACK
6
CONTINUOUS
10
79.8033789999999925
20
-22.0444669999999974
11
79.5724519999999984
21
-22.0904019999999974
0
LINE
8
BLACK
6
CONTINUOUS
10
79.5724519999999984
20
-22.0904019999999974
11
79.3375039999999956
21
-22.1058020000000006
0
LINE
8
BLACK
6
CONTINUOUS
10
79.3375039999999956
20
-22.1058020000000006
11
79.3375039999999956
21
-22.1057939999999995
0
LINE
8
BLACK
6
CONTINUOUS
10
79.3375039999999956
20
-22.1057939999999995
11
79.3375020000000006
21
-22.1057929999999985
0
LINE
8
BLACK
6
CONTINUOUS
10
79.3375020000000006
20
-22.1057929999999985
11
79.3375020000000006
21
-22.1057939999999995
0
LINE
8
BLACK
6
CONTINUOUS
10
79.3375020000000006
20
-22.1057939999999995
11
35.9516109999999998
21
-22.1057939999999995
0
LINE
8
BLACK
6
CONTINUOUS
10
35.9516109999999998
20
-22.1057939999999995
11
35.9516059999999982
21
-22.1057929999999985
0
LINE
8
BLACK
6
CONTINUOUS
10
35.9516059999999982
20
-22.1057929999999985
11
35.9516020000000012
21
-22.1057939999999995
0
LINE
8
BLACK
6
CONTINUOUS
10
35.9516020000000012
20
-22.1057939999999995
11
35.9516020000000012
21
-22.1058109999999992
0
LINE
8
BLACK
6
CONTINUOUS
10
35.9516020000000012
20
-22.1058109999999992
11
35.9199270000000013
21
-22.1058109999999992
0
LINE
8
BLACK
6
CONTINUOUS
10
35.9199270000000013
20
-22.1058109999999992
11
35.8596769999999978
21
-22.1253859999999989
0
LINE
8
BLACK
6
CONTINUOUS
10
35.8596769999999978
20
-22.1253859999999989
11
35.8084249999999997
21
-22.1626219999999989
0
LINE
8
BLACK
6
CONTINUOUS
10
35.8084249999999997
20
-22.1626219999999989
11
35.7711879999999951
21
-22.2138740000000006
0
LINE
8
BLACK
6
CONTINUOUS
10
35.7711879999999951
20
-22.2138740000000006
11
35.7516109999999969
21
-22.2741240000000005
0
LINE
8
BLACK
6
CONTINUOUS
10
35.7516109999999969
20
-22.2741240000000005
11
35.7516109999999969
21
-22.3057939999999988
0
LINE
8
BLACK
6
CONTINUOUS
10
35.7516109999999969
20
-22.3057939999999988
11
35.7516109999999969
21
-27.8756219999999999
0
LINE
8
BLACK
6
CONTINUOUS
10
35.7516109999999969
20
-27.8756219999999999
11
35.7516099999999994
21
-27.8756299999999975
0
LINE
8
BLACK
6
CONTINUOUS
10
35.7516099999999994
20
-27.8756299999999975
11
35.7516109999999969
21
-27.8756399999999971
0
LINE
8
BLACK
6
CONTINUOUS
10
35.7516109999999969
20
-27.8756399999999971
11
35.7362070000000003
21
-28.1105829999999983
0
LINE
8
BLACK
6
CONTINUOUS
10
35.7362070000000003
20
-28.1105829999999983
11
35.6902690000000007
21
-28.341505999999999
0
LINE
8
BLACK
6
CONTINUOUS
10
35.6902690000000007
20
-28.341505999999999
11
35.6145840000000007
21
-28.5644569999999973
0
LINE
8
BLACK
6
CONTINUOUS
10
35.6145840000000007
20
-28.5644569999999973
11
35.5104449999999972
21
-28.7756229999999995
0
LINE
8
BLACK
6
CONTINUOUS
10
35.5104449999999972
20
-28.7756229999999995
11
35.3796359999999979
21
-28.9713889999999985
0
LINE
8
BLACK
6
CONTINUOUS
10
35.3796359999999979
20
-28.9713889999999985
11
35.2243929999999992
21
-29.1484069999999988
0
LINE
8
BLACK
6
CONTINUOUS
10
35.2243929999999992
20
-29.1484069999999988
11
35.0473730000000003
21
-29.303647999999999
0
LINE
8
BLACK
6
CONTINUOUS
10
35.0473730000000003
20
-29.303647999999999
11
34.8516049999999993
21
-29.4344549999999998
0
LINE
8
BLACK
6
CONTINUOUS
10
34.8516049999999993
20
-29.4344549999999998
11
34.6404390000000006
21
-29.5385910000000003
0
LINE
8
BLACK
6
CONTINUOUS
10
34.6404390000000006
20
-29.5385910000000003
11
34.4174870000000013
21
-29.6142749999999992
0
LINE
8
BLACK
6
CONTINUOUS
10
34.4174870000000013
20
-29.6142749999999992
11
34.1865629999999996
21
-29.6602099999999993
0
LINE
8
BLACK
6
CONTINUOUS
10
34.1865629999999996
20
-29.6602099999999993
11
33.9518309999999985
21
-29.6755969999999998
0
LINE
8
BLACK
6
CONTINUOUS
10
33.9518309999999985
20
-29.6755969999999998
11
33.9516199999999984
21
-29.6756199999999986
0
LINE
8
BLACK
6
CONTINUOUS
10
33.9516199999999984
20
-29.6756199999999986
11
33.9516199999999984
21
-29.6756219999999971
0
LINE
8
BLACK
6
CONTINUOUS
10
33.9516199999999984
20
-29.6756219999999971
11
33.9516149999999968
21
-29.6756209999999996
0
LINE
8
BLACK
6
CONTINUOUS
10
33.9516149999999968
20
-29.6756209999999996
11
33.9516109999999998
21
-29.6756219999999971
0
LINE
8
BLACK
6
CONTINUOUS
10
33.9516109999999998
20
-29.6756219999999971
11
5.4266109999999994
21
-29.6756219999999971
0
LINE
8
BLACK
6
CONTINUOUS
10
5.4266109999999994
20
-29.6756219999999971
11
5.4266109999999994
21
-29.6756229999999981
0
LINE
8
BLACK
6
CONTINUOUS
10
5.4266109999999994
20
-29.6756229999999981
11
4.6111519999999997
21
-29.6756229999999981
0
LINE
8
BLACK
6
CONTINUOUS
10
4.6111519999999997
20
-29.6756229999999981
11
2.9806679999999997
21
-29.7132939999999977
0
LINE
8
BLACK
6
CONTINUOUS
10
2.9806679999999997
20
-29.7132939999999977
11
1.3514899999999999
21
-29.7886150000000001
0
LINE
8
BLACK
6
CONTINUOUS
10
1.3514899999999999
20
-29.7886150000000001
11
-0.275514
21
-29.9015469999999972
0
LINE
8
BLACK
6
CONTINUOUS
10
-0.275514
20
-29.9015469999999972
11
-1.899475
21
-30.0520289999999974
0
LINE
8
BLACK
6
CONTINUOUS
10
-1.899475
20
-30.0520289999999974
11
-3.5195269999999996
21
-30.2399810000000002
0
LINE
8
BLACK
6
CONTINUOUS
10
-3.5195269999999996
20
-30.2399810000000002
11
-5.1348060000000002
21
-30.4653029999999987
0
LINE
8
BLACK
6
CONTINUOUS
10
-5.1348060000000002
20
-30.4653029999999987
11
-6.7444489999999995
21
-30.7278739999999999
0
LINE
8
BLACK
6
CONTINUOUS
10
-6.7444489999999995
20
-30.7278739999999999
11
-8.3475979999999996
21
-31.0275549999999996
0
LINE
8
BLACK
6
CONTINUOUS
10
-8.3475979999999996
20
-31.0275549999999996
11
-9.9433969999999992
21
-31.3641839999999981
0
LINE
8
BLACK
6
CONTINUOUS
10
-9.9433969999999992
20
-31.3641839999999981
11
-11.530994999999999
21
-31.7375839999999982
0
LINE
8
BLACK
6
CONTINUOUS
10
-11.530994999999999
20
-31.7375839999999982
11
-13.1095449999999989
21
-32.1475539999999995
0
LINE
8
BLACK
6
CONTINUOUS
10
-13.1095449999999989
20
-32.1475539999999995
11
-14.6782039999999991
21
-32.5938760000000016
0
LINE
8
BLACK
6
CONTINUOUS
10
-14.6782039999999991
20
-32.5938760000000016
11
-16.2361359999999983
21
-33.0763120000000015
0
LINE
8
BLACK
6
CONTINUOUS
10
-16.2361359999999983
20
-33.0763120000000015
11
-17.7825089999999975
21
-33.5946039999999968
0
LINE
8
BLACK
6
CONTINUOUS
10
-17.7825089999999975
20
-33.5946039999999968
11
-19.3164969999999983
21
-34.1484749999999977
0
LINE
8
BLACK
6
CONTINUOUS
10
-19.3164969999999983
20
-34.1484749999999977
11
-20.8372840000000004
21
-34.7376310000000004
0
LINE
8
BLACK
6
CONTINUOUS
10
-20.8372840000000004
20
-34.7376310000000004
11
-22.3440559999999984
21
-35.3617559999999997
0
LINE
8
BLACK
6
CONTINUOUS
10
-22.3440559999999984
20
-35.3617559999999997
11
-23.8360099999999981
21
-36.0205190000000002
0
LINE
8
BLACK
6
CONTINUOUS
10
-23.8360099999999981
20
-36.0205190000000002
11
-25.3123499999999986
21
-36.7135660000000001
0
LINE
8
BLACK
6
CONTINUOUS
10
-25.3123499999999986
20
-36.7135660000000001
11
-26.7722879999999996
21
-37.4405289999999979
0
LINE
8
BLACK
6
CONTINUOUS
10
-26.7722879999999996
20
-37.4405289999999979
11
-28.2150459999999974
21
-38.2010199999999998
0
LINE
8
BLACK
6
CONTINUOUS
10
-28.2150459999999974
20
-38.2010199999999998
11
-29.6398529999999987
21
-38.9946319999999957
0
LINE
8
BLACK
6
CONTINUOUS
10
-29.6398529999999987
20
-38.9946319999999957
11
-31.0459490000000002
21
-39.8209419999999952
0
LINE
8
BLACK
6
CONTINUOUS
10
-31.0459490000000002
20
-39.8209419999999952
11
-32.4325839999999985
21
-40.6795100000000005
0
LINE
8
BLACK
6
CONTINUOUS
10
-32.4325839999999985
20
-40.6795100000000005
11
-33.7990169999999992
21
-41.5698779999999957
0
LINE
8
BLACK
6
CONTINUOUS
10
-33.7990169999999992
20
-41.5698779999999957
11
-35.1445209999999975
21
-42.4915689999999984
0
LINE
8
BLACK
6
CONTINUOUS
10
-35.1445209999999975
20
-42.4915689999999984
11
-36.4683759999999992
21
-43.4440929999999952
0
LINE
8
BLACK
6
CONTINUOUS
10
-36.4683759999999992
20
-43.4440929999999952
11
-37.769877000000001
21
-44.4269409999999993
0
LINE
8
BLACK
6
CONTINUOUS
10
-37.769877000000001
20
-44.4269409999999993
11
-39.0483289999999954
21
-45.439588999999998
0
LINE
8
BLACK
6
CONTINUOUS
10
-39.0483289999999954
20
-45.439588999999998
11
-40.3030499999999989
21
-46.4814959999999999
0
LINE
8
BLACK
6
CONTINUOUS
10
-40.3030499999999989
20
-46.4814959999999999
11
-41.5333709999999954
21
-47.5521059999999949
0
LINE
8
BLACK
6
CONTINUOUS
10
-41.5333709999999954
20
-47.5521059999999949
11
-42.7386339999999976
21
-48.6508490000000009
0
LINE
8
BLACK
6
CONTINUOUS
10
-42.7386339999999976
20
-48.6508490000000009
11
-43.9181969999999993
21
-49.7771369999999962
0
LINE
8
BLACK
6
CONTINUOUS
10
-43.9181969999999993
20
-49.7771369999999962
11
-44.4948139999999981
21
-50.353753999999995
0
LINE
8
BLACK
6
CONTINUOUS
10
-44.4948139999999981
20
-50.353753999999995
11
-44.4948139999999981
21
-50.3537529999999975
0
LINE
8
BLACK
6
CONTINUOUS
10
-44.4948139999999981
20
-50.3537529999999975
11
-44.4948149999999956
21
-50.353753999999995
0
LINE
8
BLACK
6
CONTINUOUS
10
-44.4948149999999956
20
-50.353753999999995
11
-51.1946469999999962
21
-57.0535849999999982
0
LINE
8
BLACK
6
CONTINUOUS
10
-51.1946469999999962
20
-57.0535849999999982
11
-51.1946519999999978
21
-57.0535909999999973
0
LINE
8
BLACK
6
CONTINUOUS
10
-51.1946519999999978
20
-57.0535909999999973
11
-51.3716739999999987
21
-57.208833999999996
0
LINE
8
BLACK
6
CONTINUOUS
10
-51.3716739999999987
20
-57.208833999999996
11
-51.5674439999999947
21
-57.3396439999999998
0
LINE
8
BLACK
6
CONTINUOUS
10
-51.5674439999999947
20
-57.3396439999999998
11
-51.7786139999999975
21
-57.4437809999999942
0
LINE
8
BLACK
6
CONTINUOUS
10
-51.7786139999999975
20
-57.4437809999999942
11
-52.001570000000001
21
-57.5194649999999967
0
LINE
8
BLACK
6
CONTINUOUS
10
-52.001570000000001
20
-57.5194649999999967
11
-52.2324969999999951
21
-57.5653989999999993
0
LINE
8
BLACK
6
CONTINUOUS
10
-52.2324969999999951
20
-57.5653989999999993
11
-52.4674440000000004
21
-57.5807979999999944
0
LINE
8
BLACK
6
CONTINUOUS
10
-52.4674440000000004
20
-57.5807979999999944
11
-52.7023909999999987
21
-57.5653989999999993
0
LINE
8
BLACK
6
CONTINUOUS
10
-52.7023909999999987
20
-57.5653989999999993
11
-52.9333179999999999
21
-57.5194649999999967
0
LINE
8
BLACK
6
CONTINUOUS
10
-52.9333179999999999
20
-57.5194649999999967
11
-53.1562739999999962
21
-57.4437809999999942
0
LINE
8
BLACK
6
CONTINUOUS
10
-53.1562739999999962
20
-57.4437809999999942
11
-53.367443999999999
21
-57.3396439999999998
0
LINE
8
BLACK
6
CONTINUOUS
10
-53.367443999999999
20
-57.3396439999999998
11
-53.563213999999995
21
-57.208833999999996
0
LINE
8
BLACK
6
CONTINUOUS
10
-53.563213999999995
20
-57.208833999999996
11
-53.7402359999999959
21
-57.0535909999999973
0
LINE
8
BLACK
6
CONTINUOUS
10
-53.7402359999999959
20
-57.0535909999999973
11
-53.7402370000000005
21
-57.0535899999999998
0
LINE
8
BLACK
6
CONTINUOUS
10
-53.7402370000000005
20
-57.0535899999999998
11
-80.6102860000000021
21
-30.1835379999999986
0
LINE
8
BLACK
6
CONTINUOUS
10
-80.6102860000000021
20
-30.1835379999999986
11
-80.6102920000000012
21
-30.1835339999999981
0
LINE
8
BLACK
6
CONTINUOUS
10
-80.6102920000000012
20
-30.1835339999999981
11
-80.6102920000000012
21
-30.1835329999999971
0
LINE
8
BLACK
6
CONTINUOUS
10
-80.6102920000000012
20
-30.1835329999999971
11
-80.7655359999999973
21
-30.0065119999999972
0
LINE
8
BLACK
6
CONTINUOUS
10
-80.7655359999999973
20
-30.0065119999999972
11
-80.8963459999999941
21
-29.8107410000000002
0
LINE
8
BLACK
6
CONTINUOUS
10
-80.8963459999999941
20
-29.8107410000000002
11
-81.0004840000000002
21
-29.5995709999999974
0
LINE
8
BLACK
6
CONTINUOUS
10
-81.0004840000000002
20
-29.5995709999999974
11
-81.0761669999999981
21
-29.3766149999999975
0
LINE
8
BLACK
6
CONTINUOUS
10
-81.0761669999999981
20
-29.3766149999999975
11
-81.1221019999999982
21
-29.1456879999999998
0
LINE
8
BLACK
6
CONTINUOUS
10
-81.1221019999999982
20
-29.1456879999999998
11
-81.1375010000000003
21
-28.910739999999997
0
LINE
8
BLACK
6
CONTINUOUS
10
-81.1375010000000003
20
-28.910739999999997
11
-81.1221019999999982
21
-28.6757929999999988
0
LINE
8
BLACK
6
CONTINUOUS
10
-81.1221019999999982
20
-28.6757929999999988
11
-81.0761669999999981
21
-28.4448659999999975
0
LINE
8
BLACK
6
CONTINUOUS
10
-81.0761669999999981
20
-28.4448659999999975
11
-81.0004830000000027
21
-28.2219099999999976
0
LINE
8
BLACK
6
CONTINUOUS
10
-81.0004830000000027
20
-28.2219099999999976
11
-80.8963449999999966
21
-28.0107399999999984
0
LINE
8
BLACK
6
CONTINUOUS
10
-80.8963449999999966
20
-28.0107399999999984
11
-80.7655349999999999
21
-27.8149689999999978
0
LINE
8
BLACK
6
CONTINUOUS
10
-80.7655349999999999
20
-27.8149689999999978
11
-80.6103039999999993
21
-27.6379629999999992
0
LINE
8
BLACK
6
CONTINUOUS
10
-80.6103039999999993
20
-27.6379629999999992
11
-80.6102929999999986
21
-27.637948999999999
0
LINE
8
BLACK
6
CONTINUOUS
10
-80.6102929999999986
20
-27.637948999999999
11
-80.6102909999999895
21
-27.6379470000000005
0
LINE
8
BLACK
6
CONTINUOUS
10
-80.6102909999999895
20
-27.6379470000000005
11
-80.6102920000000012
21
-27.6379470000000005
0
LINE
8
BLACK
6
CONTINUOUS
10
-80.6102920000000012
20
-27.6379470000000005
11
-80.6102860000000021
21
-27.6379419999999989
0
LINE
8
BLACK
6
CONTINUOUS
10
-80.6102860000000021
20
-27.6379419999999989
11
-73.9104569999999939
21
-20.9381109999999993
0
LINE
8
BLACK
6
CONTINUOUS
10
-73.9104569999999939
20
-20.9381109999999993
11
-73.9104509999999948
21
-20.9381059999999977
0
LINE
8
BLACK
6
CONTINUOUS
10
-73.9104509999999948
20
-20.9381059999999977
11
-72.44735399999999
21
-19.5015070000000001
0
LINE
8
BLACK
6
CONTINUOUS
10
-72.44735399999999
20
-19.5015070000000001
11
-70.9582419999999985
21
-18.0918789999999987
0
LINE
8
BLACK
6
CONTINUOUS
10
-70.9582419999999985
20
-18.0918789999999987
11
-69.4436189999999982
21
-16.709699999999998
0
LINE
8
BLACK
6
CONTINUOUS
10
-69.4436189999999982
20
-16.709699999999998
11
-67.9039889999999957
21
-15.3554309999999994
0
LINE
8
BLACK
6
CONTINUOUS
10
-67.9039889999999957
20
-15.3554309999999994
11
-66.3398679999999956
21
-14.0295239999999986
0
LINE
8
BLACK
6
CONTINUOUS
10
-66.3398679999999956
20
-14.0295239999999986
11
-64.7517770000000041
21
-12.7324219999999997
0
LINE
8
BLACK
6
CONTINUOUS
10
-64.7517770000000041
20
-12.7324219999999997
11
-63.1402479999999997
21
-11.4645580000000002
0
LINE
8
BLACK
6
CONTINUOUS
10
-63.1402479999999997
20
-11.4645580000000002
11
-61.5058179999999979
21
-10.2263559999999991
0
LINE
8
BLACK
6
CONTINUOUS
10
-61.5058179999999979
20
-10.2263559999999991
11
-59.8490339999999961
21
-9.0182299999999991
0
LINE
8
BLACK
6
CONTINUOUS
10
-59.8490339999999961
20
-9.0182299999999991
11
-58.1704480000000004
21
-7.8405819999999995
0
LINE
8
BLACK
6
CONTINUOUS
10
-58.1704480000000004
20
-7.8405819999999995
11
-56.4706209999999942
21
-6.6938069999999996
0
LINE
8
BLACK
6
CONTINUOUS
10
-56.4706209999999942
20
-6.6938069999999996
11
-54.7501219999999975
21
-5.5782869999999996
0
LINE
8
BLACK
6
CONTINUOUS
10
-54.7501219999999975
20
-5.5782869999999996
11
-53.0095229999999944
21
-4.4943939999999998
0
LINE
8
BLACK
6
CONTINUOUS
10
-53.0095229999999944
20
-4.4943939999999998
11
-51.2494079999999954
21
-3.4424919999999997
0
LINE
8
BLACK
6
CONTINUOUS
10
-51.2494079999999954
20
-3.4424919999999997
11
-49.4703639999999965
21
-2.42293
0
LINE
8
BLACK
6
CONTINUOUS
10
-49.4703639999999965
20
-2.42293
11
-47.6729849999999971
21
-1.4360499999999998
0
LINE
8
BLACK
6
CONTINUOUS
10
-47.6729849999999971
20
-1.4360499999999998
11
-45.8578709999999958
21
-0.482181
0
LINE
8
BLACK
6
CONTINUOUS
10
-45.8578709999999958
20
-0.482181
11
-44.0256279999999975
21
0.438358
0
LINE
8
BLACK
6
CONTINUOUS
10
-44.0256279999999975
20
0.438358
11
-42.1768689999999964
21
1.3252599999999999
0
LINE
8
BLACK
6
CONTINUOUS
10
-42.1768689999999964
20
1.3252599999999999
11
-40.3122109999999978
21
2.1782279999999998
0
LINE
8
BLACK
6
CONTINUOUS
10
-40.3122109999999978
20
2.1782279999999998
11
-38.4322769999999991
21
2.9969779999999999
0
LINE
8
BLACK
6
CONTINUOUS
10
-38.4322769999999991
20
2.9969779999999999
11
-36.537706
21
3.7812299999999999
0
LINE
8
BLACK
6
CONTINUOUS
10
-36.537706
20
3.7812299999999999
11
-36.5376929999999973
21
3.7812379999999997
0
LINE
8
BLACK
6
CONTINUOUS
10
-36.5376929999999973
20
3.7812379999999997
11
-36.5099389999999957
21
3.7923929999999997
0
LINE
8
BLACK
6
CONTINUOUS
10
-36.5099389999999957
20
3.7923929999999997
11
-36.4634309999999999
21
3.8300179999999999
0
LINE
8
BLACK
6
CONTINUOUS
10
-36.4634309999999999
20
3.8300179999999999
11
-36.4299619999999962
21
3.8796019999999998
0
LINE
8
BLACK
6
CONTINUOUS
10
-36.4299619999999962
20
3.8796019999999998
11
-36.4124629999999954
21
3.9368079999999996
0
LINE
8
BLACK
6
CONTINUOUS
10
-36.4124629999999954
20
3.9368079999999996
11
-36.4124979999999994
21
3.9667189999999999
0
LINE
8
BLACK
6
CONTINUOUS
10
-36.4124979999999994
20
3.9667189999999999
11
-36.4124979999999994
21
3.966723
0
LINE
8
BLACK
6
CONTINUOUS
10
-36.4124979999999994
20
3.966723
11
-36.4124979999999994
21
50.5569699999999997
0
LINE
8
BLACK
6
CONTINUOUS
10
-36.4124979999999994
20
50.5569699999999997
11
-36.4124970000000019
21
50.5569709999999972
0
LINE
8
BLACK
6
CONTINUOUS
10
-36.4124970000000019
20
50.5569709999999972
11
-36.3970440000000011
21
50.7923319999999947
0
LINE
8
BLACK
6
CONTINUOUS
10
-36.3970440000000011
20
50.7923319999999947
11
-36.3509479999999954
21
51.0236540000000005
0
LINE
8
BLACK
6
CONTINUOUS
10
-36.3509479999999954
20
51.0236540000000005
11
-36.2749999999999986
21
51.2469619999999964
0
LINE
8
BLACK
6
CONTINUOUS
10
-36.2749999999999986
20
51.2469619999999964
11
-36.1705049999999986
21
51.4584219999999988
0
LINE
8
BLACK
6
CONTINUOUS
10
-36.1705049999999986
20
51.4584219999999988
11
-36.0392569999999992
21
51.654402999999995
0
LINE
8
BLACK
6
CONTINUOUS
10
-36.0392569999999992
20
51.654402999999995
11
-35.8835100000000011
21
51.8315399999999968
0
LINE
8
BLACK
6
CONTINUOUS
10
-35.8835100000000011
20
51.8315399999999968
11
-35.7059379999999962
21
51.9867909999999966
0
LINE
8
BLACK
6
CONTINUOUS
10
-35.7059379999999962
20
51.9867909999999966
11
-35.5095910000000003
21
52.1174910000000011
0
LINE
8
BLACK
6
CONTINUOUS
10
-35.5095910000000003
20
52.1174910000000011
11
-35.2978400000000008
21
52.2213939999999965
0
LINE
8
BLACK
6
CONTINUOUS
10
-35.2978400000000008
20
52.2213939999999965
11
-35.0743280000000013
21
52.2967139999999944
0
LINE
8
BLACK
6
CONTINUOUS
10
-35.0743280000000013
20
52.2967139999999944
11
-35.0743209999999976
21
52.296717000000001
0
LINE
8
BLACK
6
CONTINUOUS
10
-35.0743209999999976
20
52.296717000000001
11
-35.0743209999999976
21
52.2967159999999964
0
LINE
8
BLACK
6
CONTINUOUS
10
-35.0743209999999976
20
52.2967159999999964
11
-35.0743200000000002
21
52.296717000000001
0
LINE
8
BLACK
6
CONTINUOUS
10
-35.0743200000000002
20
52.296717000000001
11
-35.074311999999999
21
52.2967179999999985
0
LINE
8
BLACK
6
CONTINUOUS
10
-35.074311999999999
20
52.2967179999999985
11
-32.7098909999999989
21
52.9048329999999964
0
LINE
8
BLACK
6
CONTINUOUS
10
-32.7098909999999989
20
52.9048329999999964
11
-30.3363389999999988
21
53.4763090000000005
0
LINE
8
BLACK
6
CONTINUOUS
10
-30.3363389999999988
20
53.4763090000000005
11
-27.9542319999999975
21
54.0110099999999989
0
LINE
8
BLACK
6
CONTINUOUS
10
-27.9542319999999975
20
54.0110099999999989
11
-25.5641409999999993
21
54.5088059999999999
0
LINE
8
BLACK
6
CONTINUOUS
10
-25.5641409999999993
20
54.5088059999999999
11
-23.1666369999999979
21
54.969578999999996
0
LINE
8
BLACK
6
CONTINUOUS
10
-23.1666369999999979
20
54.969578999999996
11
-20.7622940000000007
21
55.3932189999999949
0
LINE
8
BLACK
6
CONTINUOUS
10
-20.7622940000000007
20
55.3932189999999949
11
-18.3516869999999983
21
55.7796230000000008
0
LINE
8
BLACK
6
CONTINUOUS
10
-18.3516869999999983
20
55.7796230000000008
11
-15.9353919999999984
21
56.1287009999999995
0
LINE
8
BLACK
6
CONTINUOUS
10
-15.9353919999999984
20
56.1287009999999995
11
-13.5139879999999994
21
56.4403669999999948
0
LINE
8
BLACK
6
CONTINUOUS
10
-13.5139879999999994
20
56.4403669999999948
11
-11.0880530000000004
21
56.7145489999999981
0
LINE
8
BLACK
6
CONTINUOUS
10
-11.0880530000000004
20
56.7145489999999981
11
-8.6581679999999999
21
56.9511800000000008
0
LINE
8
BLACK
6
CONTINUOUS
10
-8.6581679999999999
20
56.9511800000000008
11
-6.2249140000000001
21
57.1502029999999976
0
LINE
8
BLACK
6
CONTINUOUS
10
-6.2249140000000001
20
57.1502029999999976
11
-3.788872
21
57.3115710000000007
0
LINE
8
BLACK
6
CONTINUOUS
10
-3.788872
20
57.3115710000000007
11
-1.350627
21
57.4352449999999948
0
LINE
8
BLACK
6
CONTINUOUS
10
-1.350627
20
57.4352449999999948
11
1.0892389999999998
21
57.5211959999999962
0
LINE
8
BLACK
6
CONTINUOUS
10
1.0892389999999998
20
57.5211959999999962
11
3.5301429999999998
21
57.5694039999999987
0
LINE
8
BLACK
6
CONTINUOUS
10
3.5301429999999998
20
57.5694039999999987
11
5.9715009999999999
21
57.5798559999999995
0
LINE
8
BLACK
6
CONTINUOUS
10
5.9715009999999999
20
57.5798559999999995
11
8.4127279999999995
21
57.5525499999999965
0
LINE
8
BLACK
6
CONTINUOUS
10
2.3410989999999998
20
55.9550079999999994
11
-0.074695
21
55.8886049999999983
0
LINE
8
BLACK
6
CONTINUOUS
10
-0.074695
20
55.8886049999999983
11
-2.4891739999999998
21
55.7848479999999967
0
LINE
8
BLACK
6
CONTINUOUS
10
-2.4891739999999998
20
55.7848479999999967
11
-4.9017590000000002
21
55.6437629999999999
0
LINE
8
BLACK
6
CONTINUOUS
10
-4.9017590000000002
20
55.6437629999999999
11
-7.3118739999999995
21
55.4653829999999957
0
LINE
8
BLACK
6
CONTINUOUS
10
-7.3118739999999995
20
55.4653829999999957
11
-9.7189409999999992
21
55.2497509999999963
0
LINE
8
BLACK
6
CONTINUOUS
10
-9.7189409999999992
20
55.2497509999999963
11
-12.1223859999999988
21
54.9969189999999983
0
LINE
8
BLACK
6
CONTINUOUS
10
-12.1223859999999988
20
54.9969189999999983
11
-14.5216339999999988
21
54.706945999999995
0
LINE
8
BLACK
6
CONTINUOUS
10
-14.5216339999999988
20
54.706945999999995
11
-16.9161099999999998
21
54.3799029999999988
0
LINE
8
BLACK
6
CONTINUOUS
10
-16.9161099999999998
20
54.3799029999999988
11
-19.3052409999999988
21
54.0158679999999976
0
LINE
8
BLACK
6
CONTINUOUS
10
-19.3052409999999988
20
54.0158679999999976
11
-21.6884569999999997
21
53.6149269999999945
0
LINE
8
BLACK
6
CONTINUOUS
10
-21.6884569999999997
20
53.6149269999999945
11
-24.0651869999999981
21
53.1771759999999958
0
LINE
8
BLACK
6
CONTINUOUS
10
-24.0651869999999981
20
53.1771759999999958
11
-26.434863
21
52.7027209999999968
0
LINE
8
BLACK
6
CONTINUOUS
10
-26.434863
20
52.7027209999999968
11
-28.796917999999998
21
52.1916749999999965
0
LINE
8
BLACK
6
CONTINUOUS
10
-28.796917999999998
20
52.1916749999999965
11
-31.1507869999999976
21
51.6441599999999994
0
LINE
8
BLACK
6
CONTINUOUS
10
-31.1507869999999976
20
51.6441599999999994
11
-33.4959069999999954
21
51.0603059999999971
0
LINE
8
BLACK
6
CONTINUOUS
10
-33.4959069999999954
20
51.0603059999999971
11
-34.6638109999999955
21
50.7502749999999949
0
LINE
8
BLACK
6
CONTINUOUS
10
-34.6638109999999955
20
50.7502749999999949
11
-34.6638129999999975
21
50.7502739999999974
0
LINE
8
BLACK
6
CONTINUOUS
10
-34.6638129999999975
20
50.7502739999999974
11
-34.6958039999999954
21
50.7418319999999952
0
LINE
8
BLACK
6
CONTINUOUS
10
-34.6958039999999954
20
50.7418319999999952
11
-34.7508909999999958
21
50.7051629999999989
0
LINE
8
BLACK
6
CONTINUOUS
10
-34.7508909999999958
20
50.7051629999999989
11
-34.7912369999999953
21
50.6527089999999944
0
LINE
8
BLACK
6
CONTINUOUS
10
-34.7912369999999953
20
50.6527089999999944
11
-34.8125450000000001
21
50.5900579999999991
0
LINE
8
BLACK
6
CONTINUOUS
10
-34.8125450000000001
20
50.5900579999999991
11
-34.8124979999999979
21
50.5569709999999972
0
LINE
8
BLACK
6
CONTINUOUS
10
-34.8124979999999979
20
50.5569709999999972
11
-34.8124979999999979
21
50.5569699999999997
0
LINE
8
BLACK
6
CONTINUOUS
10
-34.8124979999999979
20
50.5569699999999997
11
-34.8124979999999979
21
3.966723
0
LINE
8
BLACK
6
CONTINUOUS
10
-34.8124979999999979
20
3.966723
11
-34.8281419999999997
21
3.7299179999999996
0
LINE
8
BLACK
6
CONTINUOUS
10
-34.8281419999999997
20
3.7299179999999996
11
-34.8748039999999975
21
3.4972300000000001
0
LINE
8
BLACK
6
CONTINUOUS
10
-34.8748039999999975
20
3.4972300000000001
11
-34.9516729999999995
21
3.2727029999999999
0
LINE
8
BLACK
6
CONTINUOUS
10
-34.9516729999999995
20
3.2727029999999999
11
-35.0574110000000019
21
3.060241
0
LINE
8
BLACK
6
CONTINUOUS
10
-35.0574110000000019
20
3.060241
11
-35.1901820000000001
21
2.8635349999999997
0
LINE
8
BLACK
6
CONTINUOUS
10
-35.1901820000000001
20
2.8635349999999997
11
-35.3476769999999973
21
2.686007
0
LINE
8
BLACK
6
CONTINUOUS
10
-35.3476769999999973
20
2.686007
11
-35.527158
21
2.5307409999999999
0
LINE
8
BLACK
6
CONTINUOUS
10
-35.527158
20
2.5307409999999999
11
-35.7255059999999958
21
2.4004369999999997
0
LINE
8
BLACK
6
CONTINUOUS
10
-35.7255059999999958
20
2.4004369999999997
11
-35.939270999999998
21
2.297361
0
LINE
8
BLACK
6
CONTINUOUS
10
-35.939270999999998
20
2.297361
11
-35.939270999999998
21
2.2973599999999998
0
LINE
8
BLACK
6
CONTINUOUS
10
-35.939270999999998
20
2.2973599999999998
11
-36.8765829999999966
21
1.9193499999999999
0
LINE
8
BLACK
6
CONTINUOUS
10
-36.8765829999999966
20
1.9193499999999999
11
-38.7370839999999959
21
1.12921
0
LINE
8
BLACK
6
CONTINUOUS
10
-38.7370839999999959
20
1.12921
11
-40.5828349999999958
21
0.305202
0
LINE
8
BLACK
6
CONTINUOUS
10
-40.5828349999999958
20
0.305202
11
-42.413218999999998
21
-0.552399
0
LINE
8
BLACK
6
CONTINUOUS
10
-42.413218999999998
20
-0.552399
11
-44.2276249999999962
21
-1.4433069999999999
0
LINE
8
BLACK
6
CONTINUOUS
10
-44.2276249999999962
20
-1.4433069999999999
11
-46.0254469999999998
21
-2.3672230000000001
0
LINE
8
BLACK
6
CONTINUOUS
10
-46.0254469999999998
20
-2.3672230000000001
11
-47.8060839999999985
21
-3.323839
0
LINE
8
BLACK
6
CONTINUOUS
10
-47.8060839999999985
20
-3.323839
11
-49.5689429999999973
21
-4.312837
0
LINE
8
BLACK
6
CONTINUOUS
10
-49.5689429999999973
20
-4.312837
11
-51.3134329999999963
21
-5.3338839999999994
0
LINE
8
BLACK
6
CONTINUOUS
10
-51.3134329999999963
20
-5.3338839999999994
11
-53.0389729999999986
21
-6.386641
0
LINE
8
BLACK
6
CONTINUOUS
10
-53.0389729999999986
20
-6.386641
11
-54.7449859999999973
21
-7.4707559999999997
0
LINE
8
BLACK
6
CONTINUOUS
10
-54.7449859999999973
20
-7.4707559999999997
11
-56.4309030000000007
21
-8.5858659999999993
0
LINE
8
BLACK
6
CONTINUOUS
10
-56.4309030000000007
20
-8.5858659999999993
11
-58.0961590000000001
21
-9.7316000000000003
0
LINE
8
BLACK
6
CONTINUOUS
10
-58.0961590000000001
20
-9.7316000000000003
11
-59.7401999999999944
21
-10.9075740000000003
0
LINE
8
BLACK
6
CONTINUOUS
10
-59.7401999999999944
20
-10.9075740000000003
11
-61.3624759999999938
21
-12.1133959999999998
0
LINE
8
BLACK
6
CONTINUOUS
10
-61.3624759999999938
20
-12.1133959999999998
11
-62.9624449999999953
21
-13.3486630000000002
0
LINE
8
BLACK
6
CONTINUOUS
10
-62.9624449999999953
20
-13.3486630000000002
11
-64.5395719999999926
21
-14.6129619999999996
0
LINE
8
BLACK
6
CONTINUOUS
10
-64.5395719999999926
20
-14.6129619999999996
11
-66.0933320000000037
21
-15.9058719999999987
0
LINE
8
BLACK
6
CONTINUOUS
10
-66.0933320000000037
20
-15.9058719999999987
11
-67.6232049999999987
21
-17.2269609999999993
0
LINE
8
BLACK
6
CONTINUOUS
10
-67.6232049999999987
20
-17.2269609999999993
11
-69.1286800000000028
21
-18.5757860000000008
0
LINE
8
BLACK
6
CONTINUOUS
10
-69.1286800000000028
20
-18.5757860000000008
11
-70.6092539999999929
21
-19.9518979999999999
0
LINE
8
BLACK
6
CONTINUOUS
10
-70.6092539999999929
20
-19.9518979999999999
11
-72.064432999999994
21
-21.3548379999999973
0
LINE
8
BLACK
6
CONTINUOUS
10
-72.064432999999994
20
-21.3548379999999973
11
-72.7790859999999924
21
-22.0694829999999982
0
LINE
8
BLACK
6
CONTINUOUS
10
-72.7790859999999924
20
-22.0694829999999982
11
-72.7790859999999924
21
-22.0694820000000007
0
LINE
8
BLACK
6
CONTINUOUS
10
-72.7790859999999924
20
-22.0694820000000007
11
-79.4789189999999905
21
-28.7693149999999989
0
LINE
8
BLACK
6
CONTINUOUS
10
-79.4789189999999905
20
-28.7693149999999989
11
-79.4789239999999921
21
-28.7693209999999979
0
LINE
8
BLACK
6
CONTINUOUS
10
-79.4789239999999921
20
-28.7693209999999979
11
-79.4789229999999947
21
-28.769321999999999
0
LINE
8
BLACK
6
CONTINUOUS
10
-79.4789229999999947
20
-28.769321999999999
11
-79.5013220000000018
21
-28.791720999999999
0
LINE
8
BLACK
6
CONTINUOUS
10
-79.5013220000000018
20
-28.791720999999999
11
-79.5300829999999905
21
-28.8481679999999976
0
LINE
8
BLACK
6
CONTINUOUS
10
-79.5300829999999905
20
-28.8481679999999976
11
-79.539993999999993
21
-28.910740999999998
0
LINE
8
BLACK
6
CONTINUOUS
10
-79.539993999999993
20
-28.910740999999998
11
-79.5300829999999905
21
-28.9733139999999985
0
LINE
8
BLACK
6
CONTINUOUS
10
-79.5300829999999905
20
-28.9733139999999985
11
-79.5013220000000018
21
-29.029760999999997
0
LINE
8
BLACK
6
CONTINUOUS
10
-79.5013220000000018
20
-29.029760999999997
11
-79.4789229999999947
21
-29.0521599999999971
0
LINE
8
BLACK
6
CONTINUOUS
10
-79.4789229999999947
20
-29.0521599999999971
11
-79.4789239999999921
21
-29.0521599999999971
0
LINE
8
BLACK
6
CONTINUOUS
10
-79.4789239999999921
20
-29.0521599999999971
11
-79.4789189999999905
21
-29.0521649999999987
0
LINE
8
BLACK
6
CONTINUOUS
10
-79.4789189999999905
20
-29.0521649999999987
11
-52.608865999999999
21
-55.9222189999999983
0
LINE
8
BLACK
6
CONTINUOUS
10
-52.608865999999999
20
-55.9222189999999983
11
-52.586466999999999
21
-55.9446179999999984
0
LINE
8
BLACK
6
CONTINUOUS
10
-52.586466999999999
20
-55.9446179999999984
11
-52.5300179999999983
21
-55.9733799999999988
0
LINE
8
BLACK
6
CONTINUOUS
10
-52.5300179999999983
20
-55.9733799999999988
11
-52.4674440000000004
21
-55.9832909999999941
0
LINE
8
BLACK
6
CONTINUOUS
10
-52.4674440000000004
20
-55.9832909999999941
11
-52.4048699999999954
21
-55.9733799999999988
0
LINE
8
BLACK
6
CONTINUOUS
10
-52.4048699999999954
20
-55.9733799999999988
11
-52.3484209999999948
21
-55.9446179999999984
0
LINE
8
BLACK
6
CONTINUOUS
10
-52.3484209999999948
20
-55.9446179999999984
11
-52.3260219999999947
21
-55.9222189999999983
0
LINE
8
BLACK
6
CONTINUOUS
10
-52.3260219999999947
20
-55.9222189999999983
11
-52.3260159999999956
21
-55.9222139999999968
0
LINE
8
BLACK
6
CONTINUOUS
10
-52.3260159999999956
20
-55.9222139999999968
11
-45.626185999999997
21
-49.2223830000000007
0
LINE
8
BLACK
6
CONTINUOUS
10
-45.626185999999997
20
-49.2223830000000007
11
-45.626179999999998
21
-49.2223779999999991
0
LINE
8
BLACK
6
CONTINUOUS
10
-45.626179999999998
20
-49.2223779999999991
11
-44.4333519999999993
21
-48.0567919999999944
0
LINE
8
BLACK
6
CONTINUOUS
10
-44.4333519999999993
20
-48.0567919999999944
11
-43.2139159999999976
21
-46.9190630000000013
0
LINE
8
BLACK
6
CONTINUOUS
10
-43.2139159999999976
20
-46.9190630000000013
11
-41.9685249999999996
21
-45.8098039999999997
0
LINE
8
BLACK
6
CONTINUOUS
10
-41.9685249999999996
20
-45.8098039999999997
11
-40.6978450000000009
21
-44.7296079999999989
0
LINE
8
BLACK
6
CONTINUOUS
10
-40.6978450000000009
20
-44.7296079999999989
11
-39.402553999999995
21
-43.6790489999999991
0
LINE
8
BLACK
6
CONTINUOUS
10
-39.402553999999995
20
-43.6790489999999991
11
-38.0833429999999993
21
-42.6586889999999954
0
LINE
8
BLACK
6
CONTINUOUS
10
-38.0833429999999993
20
-42.6586889999999954
11
-36.7409150000000011
21
-41.6690719999999999
0
LINE
8
BLACK
6
CONTINUOUS
10
-36.7409150000000011
20
-41.6690719999999999
11
-35.3759879999999995
21
-40.7107269999999986
0
LINE
8
BLACK
6
CONTINUOUS
10
-35.3759879999999995
20
-40.7107269999999986
11
-33.9892889999999994
21
-39.784163999999997
0
LINE
8
BLACK
6
CONTINUOUS
10
-33.9892889999999994
20
-39.784163999999997
11
-32.5815580000000011
21
-38.8898790000000005
0
LINE
8
BLACK
6
CONTINUOUS
10
-32.5815580000000011
20
-38.8898790000000005
11
-31.1535469999999997
21
-38.0283469999999966
0
LINE
8
BLACK
6
CONTINUOUS
10
-31.1535469999999997
20
-38.0283469999999966
11
-29.7060169999999992
21
-37.2000299999999982
0
LINE
8
BLACK
6
CONTINUOUS
10
-29.7060169999999992
20
-37.2000299999999982
11
-28.2397409999999986
21
-36.4053679999999957
0
LINE
8
BLACK
6
CONTINUOUS
10
-28.2397409999999986
20
-36.4053679999999957
11
-26.7555009999999989
21
-35.6447859999999963
0
LINE
8
BLACK
6
CONTINUOUS
10
-26.7555009999999989
20
-35.6447859999999963
11
-25.2540890000000005
21
-34.918689999999998
0
LINE
8
BLACK
6
CONTINUOUS
10
-25.2540890000000005
20
-34.918689999999998
11
-23.736307
21
-34.2274669999999972
0
LINE
8
BLACK
6
CONTINUOUS
10
-23.736307
20
-34.2274669999999972
11
-22.2029630000000004
21
-33.5714860000000002
0
LINE
8
BLACK
6
CONTINUOUS
10
-22.2029630000000004
20
-33.5714860000000002
11
-20.654876999999999
21
-32.9510969999999972
0
LINE
8
BLACK
6
CONTINUOUS
10
-20.654876999999999
20
-32.9510969999999972
11
-19.0928749999999994
21
-32.3666309999999982
0
LINE
8
BLACK
6
CONTINUOUS
10
-19.0928749999999994
20
-32.3666309999999982
11
-17.5177890000000005
21
-31.8183999999999969
0
LINE
8
BLACK
6
CONTINUOUS
10
-17.5177890000000005
20
-31.8183999999999969
11
-15.9304600000000001
21
-31.3066969999999998
0
LINE
8
BLACK
6
CONTINUOUS
10
-15.9304600000000001
20
-31.3066969999999998
11
-14.3317359999999994
21
-30.8317939999999986
0
LINE
8
BLACK
6
CONTINUOUS
10
-14.3317359999999994
20
-30.8317939999999986
11
-12.7224679999999992
21
-30.3939449999999987
0
LINE
8
BLACK
6
CONTINUOUS
10
-12.7224679999999992
20
-30.3939449999999987
11
-11.1035170000000001
21
-29.9933829999999979
0
LINE
8
BLACK
6
CONTINUOUS
10
-11.1035170000000001
20
-29.9933829999999979
11
-9.4757459999999991
21
-29.6303229999999971
0
LINE
8
BLACK
6
CONTINUOUS
10
-9.4757459999999991
20
-29.6303229999999971
11
-7.8400229999999995
21
-29.3049569999999981
0
LINE
8
BLACK
6
CONTINUOUS
10
-7.8400229999999995
20
-29.3049569999999981
11
-6.1972209999999999
21
-29.0174599999999998
0
LINE
8
BLACK
6
CONTINUOUS
10
-6.1972209999999999
20
-29.0174599999999998
11
-4.5482170000000002
21
-28.7679849999999995
0
LINE
8
BLACK
6
CONTINUOUS
10
-4.5482170000000002
20
-28.7679849999999995
11
-2.8938899999999999
21
-28.5566649999999989
0
LINE
8
BLACK
6
CONTINUOUS
10
-2.8938899999999999
20
-28.5566649999999989
11
-1.2351239999999999
21
-28.3836130000000004
0
LINE
8
BLACK
6
CONTINUOUS
10
-1.2351239999999999
20
-28.3836130000000004
11
0.427197
21
-28.2489209999999993
0
LINE
8
BLACK
6
CONTINUOUS
10
0.427197
20
-28.2489209999999993
11
2.0921859999999999
21
-28.1526619999999994
0
LINE
8
BLACK
6
CONTINUOUS
10
2.0921859999999999
20
-28.1526619999999994
11
3.7589539999999997
21
-28.0948849999999979
0
LINE
8
BLACK
6
CONTINUOUS
10
3.7589539999999997
20
-28.0948849999999979
11
5.4266009999999998
21
-28.0756230000000002
0
LINE
8
BLACK
6
CONTINUOUS
10
5.4266009999999998
20
-28.0756230000000002
11
5.4266109999999994
21
-28.0756219999999992
0
LINE
8
BLACK
6
CONTINUOUS
10
5.4266109999999994
20
-28.0756219999999992
11
33.9516020000000012
21
-28.0756219999999992
0
LINE
8
BLACK
6
CONTINUOUS
10
33.9516020000000012
20
-28.0756219999999992
11
33.9516020000000012
21
-28.0756109999999985
0
LINE
8
BLACK
6
CONTINUOUS
10
33.9516020000000012
20
-28.0756109999999985
11
33.9832800000000006
21
-28.0756109999999985
0
LINE
8
BLACK
6
CONTINUOUS
10
33.9832800000000006
20
-28.0756109999999985
11
34.0435349999999985
21
-28.0560319999999983
0
LINE
8
BLACK
6
CONTINUOUS
10
34.0435349999999985
20
-28.0560319999999983
11
34.0947910000000007
21
-28.0187929999999987
0
LINE
8
BLACK
6
CONTINUOUS
10
34.0947910000000007
20
-28.0187929999999987
11
34.1320309999999978
21
-27.9675370000000001
0
LINE
8
BLACK
6
CONTINUOUS
10
34.1320309999999978
20
-27.9675370000000001
11
34.151609999999998
21
-27.9072819999999986
0
LINE
8
BLACK
6
CONTINUOUS
10
34.151609999999998
20
-27.9072819999999986
11
34.1516109999999955
21
-27.8756039999999992
0
LINE
8
BLACK
6
CONTINUOUS
10
34.1516109999999955
20
-27.8756039999999992
11
34.1516109999999955
21
-22.3057939999999988
0
LINE
8
BLACK
6
CONTINUOUS
10
34.1516109999999955
20
-22.3057939999999988
11
34.1516109999999955
21
-22.3057909999999993
0
LINE
8
BLACK
6
CONTINUOUS
10
34.1516109999999955
20
-22.3057909999999993
11
34.1516109999999955
21
-22.3057890000000008
0
LINE
8
BLACK
6
CONTINUOUS
10
34.1516109999999955
20
-22.3057890000000008
11
34.1670119999999997
21
-22.070843
0
LINE
8
BLACK
6
CONTINUOUS
10
34.1670119999999997
20
-22.070843
11
34.2129469999999998
21
-21.8399169999999998
0
LINE
8
BLACK
6
CONTINUOUS
10
34.2129469999999998
20
-21.8399169999999998
11
34.2886319999999998
21
-21.6169619999999973
0
LINE
8
BLACK
6
CONTINUOUS
10
34.2886319999999998
20
-21.6169619999999973
11
34.3927709999999962
21
-21.4057940000000002
0
LINE
8
BLACK
6
CONTINUOUS
10
34.3927709999999962
20
-21.4057940000000002
11
34.5235819999999975
21
-21.2100249999999981
0
LINE
8
BLACK
6
CONTINUOUS
10
34.5235819999999975
20
-21.2100249999999981
11
34.6788260000000008
21
-21.0330049999999993
0
LINE
8
BLACK
6
CONTINUOUS
10
34.6788260000000008
20
-21.0330049999999993
11
34.8558489999999992
21
-20.8777629999999981
0
LINE
8
BLACK
6
CONTINUOUS
10
34.8558489999999992
20
-20.8777629999999981
11
35.0516199999999998
21
-20.7469549999999998
0
LINE
8
BLACK
6
CONTINUOUS
10
35.0516199999999998
20
-20.7469549999999998
11
35.2627899999999954
21
-20.6428200000000004
0
LINE
8
BLACK
6
CONTINUOUS
10
35.2627899999999954
20
-20.6428200000000004
11
35.4857459999999989
21
-20.5671389999999974
0
LINE
8
BLACK
6
CONTINUOUS
10
35.4857459999999989
20
-20.5671389999999974
11
35.7166730000000001
21
-20.5212079999999979
0
LINE
8
BLACK
6
CONTINUOUS
10
35.7166730000000001
20
-20.5212079999999979
11
35.951236999999999
21
-20.5058359999999986
0
LINE
8
BLACK
6
CONTINUOUS
10
35.951236999999999
20
-20.5058359999999986
11
35.9516109999999998
21
-20.5057939999999981
0
LINE
8
BLACK
6
CONTINUOUS
10
35.9516109999999998
20
-20.5057939999999981
11
79.3375020000000006
21
-20.5057939999999981
0
LINE
8
BLACK
6
CONTINUOUS
10
79.3375020000000006
20
-20.5057939999999981
11
79.3375729999999919
21
-20.5058019999999992
0
LINE
8
BLACK
6
CONTINUOUS
10
79.3375729999999919
20
-20.5058019999999992
11
79.3691779999999909
21
-20.5058019999999992
0
LINE
8
BLACK
6
CONTINUOUS
10
79.3691779999999909
20
-20.5058019999999992
11
79.4294309999999939
21
-20.486224
0
LINE
8
BLACK
6
CONTINUOUS
10
79.4294309999999939
20
-20.486224
11
79.4806859999999915
21
-20.4489850000000004
0
LINE
8
BLACK
6
CONTINUOUS
10
79.4806859999999915
20
-20.4489850000000004
11
79.5179249999999911
21
-20.3977299999999993
0
LINE
8
BLACK
6
CONTINUOUS
10
79.5179249999999911
20
-20.3977299999999993
11
79.5375020000000035
21
-20.3374759999999988
0
LINE
8
BLACK
6
CONTINUOUS
10
79.5375020000000035
20
-20.3374759999999988
11
79.5375020000000035
21
-20.3057990000000004
0
LINE
8
BLACK
6
CONTINUOUS
10
79.5375020000000035
20
-20.3057990000000004
11
79.5375020000000035
21
-20.3057960000000008
0
LINE
8
BLACK
6
CONTINUOUS
10
79.5375020000000035
20
-20.3057960000000008
11
79.5375020000000035
21
-20.3057939999999988
0
LINE
8
BLACK
6
CONTINUOUS
10
79.5375020000000035
20
-20.3057939999999988
11
79.5375020000000035
21
37.1680729999999997
0
LINE
8
BLACK
6
CONTINUOUS
10
79.5375020000000035
20
37.1680729999999997
11
79.5375129999999899
21
37.1681779999999975
0
LINE
8
BLACK
6
CONTINUOUS
10
79.5375129999999899
20
37.1681779999999975
11
79.5377039999999909
21
37.2043699999999973
0
LINE
8
BLACK
6
CONTINUOUS
10
79.5377039999999909
20
37.2043699999999973
11
79.5121460000000013
21
37.2724419999999981
0
LINE
8
BLACK
6
CONTINUOUS
10
79.5121460000000013
20
37.2724419999999981
11
79.464297000000002
21
37.3271900000000016
0
LINE
8
BLACK
6
CONTINUOUS
10
79.464297000000002
20
37.3271900000000016
11
79.4322250000000025
21
37.3442189999999954
0
LINE
8
BLACK
6
CONTINUOUS
10
79.4322250000000025
20
37.3442189999999954
11
79.4322239999999908
21
37.3442170000000004
0
LINE
8
BLACK
6
CONTINUOUS
10
79.4322239999999908
20
37.3442170000000004
11
78.4059979999999968
21
37.8960829999999973
0
LINE
8
BLACK
6
CONTINUOUS
10
78.4059979999999968
20
37.8960829999999973
11
76.3373089999999905
21
38.969071999999997
0
LINE
8
BLACK
6
CONTINUOUS
10
76.3373089999999905
20
38.969071999999997
11
74.2528480000000002
21
40.0110919999999979
0
LINE
8
BLACK
6
CONTINUOUS
10
74.2528480000000002
20
40.0110919999999979
11
72.1530779999999936
21
41.0219090000000008
0
LINE
8
BLACK
6
CONTINUOUS
10
72.1530779999999936
20
41.0219090000000008
11
70.0384679999999946
21
42.0013000000000005
0
LINE
8
BLACK
6
CONTINUOUS
10
70.0384679999999946
20
42.0013000000000005
11
67.9094869999999986
21
42.9490470000000002
0
LINE
8
BLACK
6
CONTINUOUS
10
67.9094869999999986
20
42.9490470000000002
11
65.7666090000000025
21
43.8649389999999997
0
LINE
8
BLACK
6
CONTINUOUS
10
65.7666090000000025
20
43.8649389999999997
11
63.6103109999999958
21
44.7487709999999979
0
LINE
8
BLACK
6
CONTINUOUS
10
63.6103109999999958
20
44.7487709999999979
11
61.4410719999999984
21
45.6003479999999968
0
LINE
8
BLACK
6
CONTINUOUS
10
61.4410719999999984
20
45.6003479999999968
11
60.3502200000000002
21
46.0099079999999958
0
LINE
8
BLACK
6
CONTINUOUS
10
60.3502200000000002
20
46.0099079999999958
11
59.2189759999999978
21
46.4346469999999982
0
LINE
8
BLACK
6
CONTINUOUS
10
59.2189759999999978
20
46.4346469999999982
11
56.9436149999999941
21
47.2490219999999965
0
LINE
8
BLACK
6
CONTINUOUS
10
56.9436149999999941
20
47.2490219999999965
11
54.655932
21
48.0281099999999981
0
LINE
8
BLACK
6
CONTINUOUS
10
54.655932
20
48.0281099999999981
11
52.3564739999999986
21
48.7717249999999964
0
LINE
8
BLACK
6
CONTINUOUS
10
52.3564739999999986
20
48.7717249999999964
11
50.0457899999999967
21
49.4796890000000005
0
LINE
8
BLACK
6
CONTINUOUS
10
50.0457899999999967
20
49.4796890000000005
11
47.7244339999999951
21
50.1518329999999963
0
LINE
8
BLACK
6
CONTINUOUS
10
47.7244339999999951
20
50.1518329999999963
11
45.3929599999999951
21
50.7879949999999951
0
LINE
8
BLACK
6
CONTINUOUS
10
45.3929599999999951
20
50.7879949999999951
11
43.0519269999999992
21
51.388024999999999
0
LINE
8
BLACK
6
CONTINUOUS
10
43.0519269999999992
20
51.388024999999999
11
40.7018939999999958
21
51.9517769999999999
0
LINE
8
BLACK
6
CONTINUOUS
10
40.7018939999999958
20
51.9517769999999999
11
38.3434230000000014
21
52.4791179999999997
0
LINE
8
BLACK
6
CONTINUOUS
10
38.3434230000000014
20
52.4791179999999997
11
35.9770789999999963
21
52.9699209999999994
0
LINE
8
BLACK
6
CONTINUOUS
10
35.9770789999999963
20
52.9699209999999994
11
33.6034269999999964
21
53.4240689999999958
0
LINE
8
BLACK
6
CONTINUOUS
10
33.6034269999999964
20
53.4240689999999958
11
31.2230359999999969
21
53.8414529999999942
0
LINE
8
BLACK
6
CONTINUOUS
10
31.2230359999999969
20
53.8414529999999942
11
28.8364750000000001
21
54.2219729999999984
0
LINE
8
BLACK
6
CONTINUOUS
10
28.8364750000000001
20
54.2219729999999984
11
26.4443139999999985
21
54.565538999999994
0
LINE
8
BLACK
6
CONTINUOUS
10
26.4443139999999985
20
54.565538999999994
11
24.0471249999999976
21
54.8720679999999987
0
LINE
8
BLACK
6
CONTINUOUS
10
24.0471249999999976
20
54.8720679999999987
11
21.6454829999999987
21
55.1414860000000004
0
LINE
8
BLACK
6
CONTINUOUS
10
21.6454829999999987
20
55.1414860000000004
11
19.2399609999999974
21
55.3737309999999994
0
LINE
8
BLACK
6
CONTINUOUS
10
19.2399609999999974
20
55.3737309999999994
11
16.8311349999999997
21
55.5687449999999998
0
LINE
8
BLACK
6
CONTINUOUS
10
16.8311349999999997
20
55.5687449999999998
11
14.4195820000000001
21
55.7264819999999972
0
LINE
8
BLACK
6
CONTINUOUS
10
14.4195820000000001
20
55.7264819999999972
11
12.0058769999999999
21
55.846903999999995
0
LINE
8
BLACK
6
CONTINUOUS
10
12.0058769999999999
20
55.846903999999995
11
9.5905989999999992
21
55.9299839999999975
0
LINE
8
BLACK
6
CONTINUOUS
10
9.5905989999999992
20
55.9299839999999975
11
7.1743239999999995
21
55.9756999999999962
0
LINE
8
BLACK
6
CONTINUOUS
10
7.1743239999999995
20
55.9756999999999962
11
4.7576320000000001
21
55.9840419999999952
0
LINE
8
BLACK
6
CONTINUOUS
10
4.7576320000000001
20
55.9840419999999952
11
2.3410989999999998
21
55.9550079999999994
  0
ENDSEC
  0
EOF
