  0
SECTION
  2
HEADER
  9
$ANGBASE
  50
0.0
  9
$ANGDIR
  70
1
  9
$MEASUREMENT
  70
1
  0
ENDSEC
  0
SECTION
  2
TABLES
  0
TABLE
  2
LTYPE
  70
4
  0
LTYPE
  5
40F
  2
CONTINUOUS
  70
0
  3
Solid line
  72
65
  73
0
  40
0.0
  0
LTYPE
  5
410
  2
DASHDOT
 70
0
  3
Dash Dot ____ _ ____ _
 72
65
 73
4
 40
2.0
 49
1.25
 49
-0.25
 49
0.25
 49
-0.25
  0
LTYPE
  5
411
  2
DASHED
 70
0
  3
Dashed __ __ __ __ __
 72
65
 73
2
 40
0.75
 49
0.5
 49
-0.25
  0
LTYPE
  5
43B
  2
DOTTED
 70
0
  3
Dotted .  .  .  .
 72
65
 73
2
 40
0.2
 49
0.0
 49
-0.2
  0
ENDTAB
  0
TABLE
  2
STYLE
  70
4
  0
STYLE
  2
KICAD
  70
0
  40
0
  41
1
  42
1
  50
0
  71
0
  3
isocp.shx
  0
STYLE
  2
KICADB
  70
0
  40
0
  41
1
  42
1
  50
0
  71
0
  3
isocp.shx
  0
STYLE
  2
KICADI
  70
0
  40
0
  41
1
  42
1
  50
15
  71
0
  3
isocp.shx
  0
STYLE
  2
KICADBI
  70
0
  40
0
  41
1
  42
1
  50
15
  71
0
  3
isocp.shx
  0
ENDTAB
  0
TABLE
  2
LAYER
  70
1
  0
LAYER
  2
BLACK
  70
0
  62
7
  6
CONTINUOUS
  0
ENDTAB
  0
ENDSEC
  0
SECTION
  2
ENTITIES
0
LINE
8
BLACK
6
CONTINUOUS
10
-26.8876910000000002
20
8.2535039999999995
11
-26.8876910000000002
21
-5.146496
0
ARC
8
BLACK
10
-46.9676369999999963
20
-52.4672099999999944
40
1.0000010165559834
50
-134.99995949
51
-45.00004051
0
LINE
8
BLACK
6
CONTINUOUS
10
-30.2334909999999972
20
-12.1998289999999994
11
-41.8382310000000004
21
-18.8998290000000004
0
LINE
8
BLACK
6
CONTINUOUS
10
85.8873090000000019
20
40.5822509999999994
11
85.8873090000000019
21
-16.9714959999999984
0
ARC
8
BLACK
10
-7.5376909999999997
20
16.4035039999999981
40
0.3
50
-180.00000000
51
-90.00000000
0
LINE
8
BLACK
6
CONTINUOUS
10
44.2623089999999948
20
35.9535039999999952
11
44.2623089999999948
21
49.3535040000000009
0
ARC
8
BLACK
10
-26.5876909999999995
20
32.9535039999999952
40
0.3
50
-180.00000000
51
-90.00000000
0
ARC
8
BLACK
10
4.2264179999999998
20
-21.7163240000000002
40
0.3
50
-180.00000000
51
-90.00000000
0
LINE
8
BLACK
6
CONTINUOUS
10
-47.1797690000000003
20
-29.3094639999999984
11
-56.654999999999994
21
-38.7846949999999993
0
LINE
8
BLACK
6
CONTINUOUS
10
-60.650152999999996
20
-35.2138050000000007
11
-70.1253839999999968
21
-25.7385749999999973
0
ARC
8
BLACK
10
-39.1632309999999961
20
-23.5330650000000006
40
0.3000003281064872
50
-240.00003618
51
-150.00003618
0
LINE
8
BLACK
6
CONTINUOUS
10
-13.1876909999999992
20
27.6035039999999974
11
-26.5876909999999995
21
27.6035039999999974
0
LINE
8
BLACK
6
CONTINUOUS
10
82.3623089999999962
20
-14.1465059999999987
11
82.3623089999999962
21
-0.746506
0
ARC
8
BLACK
10
-60.4380209999999991
20
-16.0512119999999996
40
0.2999999514133294
50
45.00000000
51
135.00000000
0
ARC
8
BLACK
10
-31.1626859999999972
20
7.3847589999999999
40
0.9999958190847065
50
-68.01947719
51
0.00015653
0
LINE
8
BLACK
6
CONTINUOUS
10
30.2623089999999983
20
11.2535039999999995
11
30.2623089999999983
21
-2.146496
0
LINE
8
BLACK
6
CONTINUOUS
10
44.2623089999999948
20
-2.146496
11
44.2623089999999948
21
11.2535039999999995
0
LINE
8
BLACK
6
CONTINUOUS
10
-60.2258889999999951
20
-35.2138050000000007
11
-50.7506579999999943
21
-25.7385749999999973
0
LINE
8
BLACK
6
CONTINUOUS
10
-13.1876909999999992
20
8.5535040000000002
11
-26.5876909999999995
21
8.5535040000000002
0
LINE
8
BLACK
6
CONTINUOUS
10
6.1623089999999996
20
16.4035039999999981
11
6.1623089999999996
21
29.8035040000000002
0
LINE
8
BLACK
6
CONTINUOUS
10
49.6123089999999962
20
4.603504
11
63.0123089999999948
21
4.603504
0
ARC
8
BLACK
10
63.0123609999999985
20
-14.1465479999999992
40
0.299947504594554
50
-90.01002852
51
0.01002852
0
ARC
8
BLACK
10
63.0123609999999985
20
4.9034509999999996
40
0.299947504594554
50
-90.01002852
51
0.01002852
0
ARC
8
BLACK
10
-69.913252
20
-25.5264430000000004
40
0.2999999514133294
50
-225.00000000
51
-135.00000000
0
ARC
8
BLACK
10
-26.5876909999999995
20
-5.146496
40
0.3
50
-180.00000000
51
-90.00000000
0
ARC
8
BLACK
10
41.5014660000000006
20
-18.971543999999998
40
1.0000480011519446
50
90.00275007
51
179.99724993
0
LINE
8
BLACK
6
CONTINUOUS
10
-7.5376909999999997
20
16.1035040000000009
11
5.8623089999999998
21
16.1035040000000009
0
LINE
8
BLACK
6
CONTINUOUS
10
-74.6155119999999954
20
-24.8193359999999998
11
-67.8803199999999975
21
-18.0841439999999984
0
LINE
8
BLACK
6
CONTINUOUS
10
11.5123090000000001
20
41.6535039999999981
11
24.9123090000000005
21
41.6535039999999981
0
LINE
8
BLACK
6
CONTINUOUS
10
30.5623089999999991
20
16.6035040000000009
11
43.9623089999999976
21
16.6035040000000009
0
LINE
8
BLACK
6
CONTINUOUS
10
84.8873090000000019
20
-17.9714959999999984
11
41.501418000000001
21
-17.9714959999999984
0
ARC
8
BLACK
10
82.0622539999999958
20
-0.74656
40
0.3000545049495175
50
0.01040684
51
89.98959316
0
ARC
8
BLACK
10
30.5623609999999992
20
30.303450999999999
40
0.3000525045929462
50
90.01002501
51
179.98997499
0
ARC
8
BLACK
10
-20.8584910000000008
20
-28.4378049999999973
40
0.3000003281064872
50
-60.00003618
51
29.99996382
0
ARC
8
BLACK
10
24.9122489999999992
20
55.3534439999999961
40
0.3000595058992466
50
0.01136141
51
89.98863859
0
ARC
8
BLACK
10
63.0122489999999971
20
18.3034439999999989
40
0.3000595058992466
50
0.01136141
51
89.98863859
0
ARC
8
BLACK
10
-60.4380209999999991
20
-35.0016729999999967
40
0.2999999514133294
50
-135.00000000
51
-45.00000000
0
ARC
8
BLACK
10
43.9622489999999999
20
30.3034439999999989
40
0.3000595058992466
50
0.01136141
51
89.98863859
0
CIRCLE
8
BLACK
10
-44.9949450000000013
20
-24.0127430000000004
40
1.2
0
ARC
8
BLACK
10
49.6123609999999999
20
-0.746548
40
0.3000525045929462
50
90.01002501
51
179.98997499
0
ARC
8
BLACK
10
84.8871449999999896
20
40.5821529999999981
40
1.0001639246401119
50
0.00558080
51
61.71398785
0
ARC
8
BLACK
10
17.6263679999999994
20
-8.3163739999999997
40
0.3000500041659723
50
0.00954771
51
89.99045229
0
LINE
8
BLACK
6
CONTINUOUS
10
68.3623089999999962
20
18.3034940000000006
11
68.3623089999999962
21
4.9034939999999994
0
LINE
8
BLACK
6
CONTINUOUS
10
30.5623089999999991
20
-2.4464959999999998
11
43.9623089999999976
21
-2.4464959999999998
0
LINE
8
BLACK
6
CONTINUOUS
10
-14.9242469999999994
20
-26.3017000000000003
11
-1.9808399999999999
21
-22.8335249999999981
0
ARC
8
BLACK
10
30.5622989999999994
20
35.9534939999999992
40
0.2999905001504214
50
-180.00181442
51
-89.99818558
0
ARC
8
BLACK
10
10.9253900000000002
20
-96.8935719999999918
40
157.1088560397023741
50
68.73550852
51
70.10658752
0
ARC
8
BLACK
10
68.6622539999999901
20
23.9534389999999995
40
0.2999455049513161
50
-180.01041062
51
-89.98958938
0
ARC
8
BLACK
10
11.5122989999999987
20
41.9534939999999992
40
0.2999905001504214
50
-180.00181442
51
-89.99818558
0
LINE
8
BLACK
6
CONTINUOUS
10
25.2123089999999976
20
22.9035039999999981
11
25.2123089999999976
21
36.3035039999999967
0
LINE
8
BLACK
6
CONTINUOUS
10
5.8623089999999998
20
30.1035039999999974
11
-7.5376909999999997
21
30.1035039999999974
0
LINE
8
BLACK
6
CONTINUOUS
10
82.0623089999999991
20
37.6534939999999949
11
68.6623089999999934
21
37.6534939999999949
0
ARC
8
BLACK
10
-7.5376909999999997
20
48.8535040000000009
40
0.3
50
90.00000000
51
180.00000000
0
ARC
8
BLACK
10
68.6623060000000009
20
18.3034959999999991
40
0.2999975000104167
50
-270.00047747
51
-179.99952253
0
LINE
8
BLACK
6
CONTINUOUS
10
-37.2802739999999986
20
-38.7846949999999993
11
-46.7555049999999994
21
-29.3094639999999984
0
ARC
8
BLACK
10
-2.0584880000000001
20
-22.5437459999999987
40
0.3000017665622949
50
-74.99963347
51
14.99957919
0
ARC
8
BLACK
10
11.5122989999999987
20
22.9034939999999985
40
0.2999905001504214
50
-180.00181442
51
-89.99818558
0
LINE
8
BLACK
6
CONTINUOUS
10
68.6623089999999934
20
4.6034939999999995
11
82.0623089999999991
21
4.6034939999999995
0
LINE
8
BLACK
6
CONTINUOUS
10
-5.6043069999999995
20
-9.3105630000000001
11
-18.5477129999999981
21
-12.7787389999999998
0
LINE
8
BLACK
6
CONTINUOUS
10
-7.8376909999999995
20
10.7535039999999995
11
-7.8376909999999995
21
-2.646496
0
LINE
8
BLACK
6
CONTINUOUS
10
-1.7687079999999999
20
-22.4661019999999994
11
-5.2368839999999999
21
-9.5226959999999998
0
ARC
8
BLACK
10
-73.9084050000000019
20
-25.5264419999999994
40
0.999999955895624
50
-224.99997974
51
-135.00002026
0
LINE
8
BLACK
6
CONTINUOUS
10
-7.5376909999999997
20
35.1535039999999981
11
5.8623089999999998
21
35.1535039999999981
0
ARC
8
BLACK
10
24.9123610000000006
20
22.9034510000000004
40
0.299947504594554
50
-90.01002852
51
0.01002852
0
LINE
8
BLACK
6
CONTINUOUS
10
25.2123089999999976
20
41.9535039999999952
11
25.2123089999999976
21
55.3535040000000009
0
CIRCLE
8
BLACK
10
1.6588999999999998
20
54.649998999999994
40
1.2
0
LINE
8
BLACK
6
CONTINUOUS
10
68.3623089999999962
20
37.3534939999999978
11
68.3623089999999962
21
23.9534939999999992
0
ARC
8
BLACK
10
5.8623209999999997
20
-2.6465079999999999
40
0.2999875002604275
50
-90.00238742
51
0.00238742
0
LINE
8
BLACK
6
CONTINUOUS
10
63.0123089999999948
20
-0.446496
11
49.6123089999999962
21
-0.446496
0
ARC
8
BLACK
10
82.0623059999999924
20
23.9534959999999977
40
0.3000025000104166
50
-89.99952254
51
-0.00047746
0
LINE
8
BLACK
6
CONTINUOUS
10
49.3123089999999991
20
37.3535040000000009
11
49.3123089999999991
21
23.9535039999999988
0
ARC
8
BLACK
10
11.5122989999999987
20
3.853494
40
0.2999905001504214
50
-180.00181442
51
-89.99818558
0
ARC
8
BLACK
10
36.6763679999999965
20
-8.3163739999999997
40
0.3000500041659723
50
0.00954771
51
89.99045229
0
LINE
8
BLACK
6
CONTINUOUS
10
-39.3132309999999947
20
-23.2732569999999974
11
-27.7084909999999986
21
-16.5732569999999981
0
LINE
8
BLACK
6
CONTINUOUS
10
24.9123090000000005
20
17.5535040000000002
11
11.5123090000000001
21
17.5535040000000002
0
LINE
8
BLACK
6
CONTINUOUS
10
49.3123089999999991
20
-0.7464959999999999
11
49.3123089999999991
21
-14.1464959999999991
0
LINE
8
BLACK
6
CONTINUOUS
10
-12.8876910000000002
20
-5.146496
11
-12.8876910000000002
21
8.2535039999999995
0
ARC
8
BLACK
10
-48.6882309999999947
20
-7.0352809999999995
40
0.3000003281064872
50
-240.00003618
51
-150.00003618
0
ARC
8
BLACK
10
5.8623209999999997
20
16.4034909999999989
40
0.2999875002604275
50
-90.00238742
51
0.00238742
0
ARC
8
BLACK
10
43.9622489999999999
20
49.3534439999999961
40
0.3000595058992466
50
0.01136141
51
89.98863859
0
LINE
8
BLACK
6
CONTINUOUS
10
23.2764179999999996
20
-8.0163239999999991
11
36.6764179999999982
21
-8.0163239999999991
0
LINE
8
BLACK
6
CONTINUOUS
10
3.926418
20
-8.3163239999999998
11
3.926418
21
-21.7163240000000002
0
ARC
8
BLACK
10
24.9123610000000006
20
41.9534510000000012
40
0.299947504594554
50
-90.01002852
51
0.01002852
0
LINE
8
BLACK
6
CONTINUOUS
10
-39.5253379999999979
20
-46.4391259999999946
11
-46.2605299999999957
21
-53.1743179999999995
0
ARC
8
BLACK
10
-7.5376909999999997
20
29.8035040000000002
40
0.3
50
90.00000000
51
180.00000000
0
LINE
8
BLACK
6
CONTINUOUS
10
44.2623089999999948
20
16.9035039999999981
11
44.2623089999999948
21
30.3035040000000002
0
LINE
8
BLACK
6
CONTINUOUS
10
11.5123090000000001
20
22.6035039999999974
11
24.9123090000000005
21
22.6035039999999974
0
ARC
8
BLACK
10
68.6622539999999901
20
4.9034389999999997
40
0.2999455049513161
50
-180.01041062
51
-89.98958938
0
LINE
8
BLACK
6
CONTINUOUS
10
63.3123089999999991
20
23.9535039999999988
11
63.3123089999999991
21
37.3535040000000009
0
LINE
8
BLACK
6
CONTINUOUS
10
43.9623089999999976
20
11.5535040000000002
11
30.5623089999999991
21
11.5535040000000002
0
ARC
8
BLACK
10
24.9123610000000006
20
3.8534509999999997
40
0.299947504594554
50
-90.01002852
51
0.01002852
0
ARC
8
BLACK
10
63.0123609999999985
20
23.9534509999999976
40
0.299947504594554
50
-90.01002852
51
0.01002852
0
ARC
8
BLACK
10
-41.988230999999999
20
-18.6400210000000008
40
0.3000003281064872
50
-150.00003618
51
-60.00003618
0
ARC
8
BLACK
10
-29.1626890000000003
20
53.9797209999999978
40
1.0000012530396298
50
104.88074002
51
179.99996156
0
ARC
8
BLACK
10
-13.1876909999999992
20
32.9535039999999952
40
0.3
50
-90.00000000
51
-0.00000000
0
LINE
8
BLACK
6
CONTINUOUS
10
-42.2480389999999986
20
-18.7900209999999994
11
-48.9480389999999943
21
-7.1852809999999998
0
ARC
8
BLACK
10
-27.5584910000000001
20
-16.8330649999999977
40
0.3000003281064872
50
29.99996382
51
119.99996382
0
LINE
8
BLACK
6
CONTINUOUS
10
-12.8876910000000002
20
13.9035039999999999
11
-12.8876910000000002
21
27.3035040000000002
0
ARC
8
BLACK
10
-30.3834909999999994
20
-11.9400209999999998
40
0.3000003281064872
50
-60.00003618
51
29.99996382
0
ARC
8
BLACK
10
11.512321
20
17.2534910000000004
40
0.3000125002604058
50
90.00238722
51
179.99761278
0
LINE
8
BLACK
6
CONTINUOUS
10
63.0123089999999948
20
37.6535039999999981
11
49.6123089999999962
21
37.6535039999999981
0
ARC
8
BLACK
10
-7.5376909999999997
20
35.4535039999999952
40
0.3
50
-180.00000000
51
-90.00000000
0
ARC
8
BLACK
10
30.5623609999999992
20
49.3534509999999997
40
0.3000525045929462
50
90.01002501
51
179.98997499
0
LINE
8
BLACK
6
CONTINUOUS
10
49.6123089999999962
20
23.6535039999999981
11
63.0123089999999948
21
23.6535039999999981
0
LINE
8
BLACK
6
CONTINUOUS
10
-60.2258889999999951
20
-15.8390799999999992
11
-50.7506579999999943
21
-25.314311
0
ARC
8
BLACK
10
39.5013519999999971
20
-24.5412579999999991
40
1.0000660021778562
50
-89.99621873
51
-0.00378127
0
LINE
8
BLACK
6
CONTINUOUS
10
5.8623089999999998
20
11.0535040000000002
11
-7.5376909999999997
21
11.0535040000000002
0
LINE
8
BLACK
6
CONTINUOUS
10
-30.1626909999999988
20
7.3847619999999994
11
-30.1626909999999988
21
53.9797219999999953
0
ARC
8
BLACK
10
-5.526662
20
-9.6003410000000002
40
0.3000000588483275
50
14.99985591
51
104.99985591
0
ARC
8
BLACK
10
24.9122489999999992
20
36.3034439999999989
40
0.3000595058992466
50
0.01136141
51
89.98863859
0
ARC
8
BLACK
10
-26.5876909999999995
20
27.3035040000000002
40
0.3
50
90.00000000
51
180.00000000
0
ARC
8
BLACK
10
82.0623059999999924
20
4.9034959999999996
40
0.3000025000104166
50
-89.99952254
51
-0.00047746
0
ARC
8
BLACK
10
23.2763519999999993
20
-8.3162579999999995
40
0.2999340072615974
50
-270.01260785
51
-179.98739215
0
ARC
8
BLACK
10
5.8622969999999999
20
10.7534919999999996
40
0.3000120002399904
50
0.00229174
51
89.99770826
0
ARC
8
BLACK
10
-13.1876909999999992
20
13.9035039999999999
40
0.3
50
-90.00000000
51
-0.00000000
0
ARC
8
BLACK
10
-46.9676369999999963
20
-48.472057999999997
40
0.2999999514133294
50
-135.00000000
51
-45.00000000
0
LINE
8
BLACK
6
CONTINUOUS
10
-70.1253839999999968
20
-25.314311
11
-60.650152999999996
21
-15.8390799999999992
0
ARC
8
BLACK
10
5.8623209999999997
20
35.4534909999999996
40
0.2999875002604275
50
-90.00238742
51
0.00238742
0
LINE
8
BLACK
6
CONTINUOUS
10
30.2623089999999983
20
30.3035040000000002
11
30.2623089999999983
21
16.9035039999999981
0
LINE
8
BLACK
6
CONTINUOUS
10
11.2123089999999994
20
17.2535039999999995
11
11.2123089999999994
21
3.853504
0
CIRCLE
8
BLACK
10
65.8373089999999905
20
2.0784940000000001
40
1.2
0
ARC
8
BLACK
10
30.5622989999999994
20
16.9034939999999985
40
0.2999905001504214
50
-180.00181442
51
-89.99818558
0
LINE
8
BLACK
6
CONTINUOUS
10
63.3123089999999991
20
-14.1464959999999991
11
63.3123089999999991
21
-0.7464959999999999
0
LINE
8
BLACK
6
CONTINUOUS
10
4.2264179999999998
20
-22.0163239999999973
11
17.6264179999999975
21
-22.0163239999999973
0
ARC
8
BLACK
10
36.6763520000000014
20
-21.7162579999999998
40
0.300066007258403
50
-89.98739770
51
-0.01260230
0
LINE
8
BLACK
6
CONTINUOUS
10
-20.7084909999999986
20
-28.6976129999999969
11
-32.3132310000000018
21
-35.3976129999999998
0
ARC
8
BLACK
10
63.0122489999999971
20
37.3534439999999961
40
0.3000595058992466
50
0.01136141
51
89.98863859
0
LINE
8
BLACK
6
CONTINUOUS
10
43.9623089999999976
20
49.6535039999999981
11
30.5623089999999991
21
49.6535039999999981
0
ARC
8
BLACK
10
23.2763679999999979
20
-21.7163739999999983
40
0.2999500041673612
50
-180.00955089
51
-89.99044911
0
LINE
8
BLACK
6
CONTINUOUS
10
-36.8236829999999955
20
-0.185281
11
-30.1236829999999998
21
-11.7900209999999994
0
LINE
8
BLACK
6
CONTINUOUS
10
30.5623089999999991
20
35.6535039999999981
11
43.9623089999999976
21
35.6535039999999981
0
LINE
8
BLACK
6
CONTINUOUS
10
36.6764179999999982
20
-22.0163239999999973
11
23.2764179999999996
21
-22.0163239999999973
0
LINE
8
BLACK
6
CONTINUOUS
10
-18.7598449999999985
20
-13.1461619999999986
11
-15.2916699999999999
21
-26.0895679999999999
0
ARC
8
BLACK
10
-26.5876909999999995
20
46.3535040000000009
40
0.3
50
90.00000000
51
180.00000000
0
ARC
8
BLACK
10
-32.4632310000000004
20
-35.1378050000000002
40
0.3000003281064872
50
-150.00003618
51
-60.00003618
0
LINE
8
BLACK
6
CONTINUOUS
10
-27.2986830000000005
20
-16.6830649999999991
11
-20.5986829999999976
21
-28.2878049999999988
0
ARC
8
BLACK
10
82.0622539999999958
20
37.3534390000000016
40
0.3000545049495175
50
0.01040684
51
89.98959316
0
ARC
8
BLACK
10
10.926418
20
-96.8908799999999957
40
71.3495569368156879
50
90.00000012
51
135.00000069
0
LINE
8
BLACK
6
CONTINUOUS
10
25.2123089999999976
20
3.853504
11
25.2123089999999976
21
17.2535039999999995
0
LINE
8
BLACK
6
CONTINUOUS
10
39.501418000000001
20
-25.5413239999999995
11
10.926418
21
-25.5413239999999995
0
LINE
8
BLACK
6
CONTINUOUS
10
-32.723039
20
-35.2878049999999988
11
-39.4230389999999957
21
-23.6830649999999991
0
ARC
8
BLACK
10
49.6122990000000001
20
4.9034939999999994
40
0.2999905001504214
50
-180.00181442
51
-89.99818558
0
LINE
8
BLACK
6
CONTINUOUS
10
22.9764179999999989
20
-21.7163240000000002
11
22.9764179999999989
21
-8.3163239999999998
0
LINE
8
BLACK
6
CONTINUOUS
10
-47.6747439999999969
20
-53.1743179999999995
11
-74.6155119999999954
21
-26.233549
0
LINE
8
BLACK
6
CONTINUOUS
10
63.0123089999999948
20
18.6035040000000009
11
49.6123089999999962
21
18.6035040000000009
0
LINE
8
BLACK
6
CONTINUOUS
10
30.2623089999999983
20
49.3535040000000009
11
30.2623089999999983
21
35.9535039999999952
0
ARC
8
BLACK
10
-18.4700679999999977
20
-13.0685149999999997
40
0.2999986099607775
50
-255.00023633
51
-164.99981794
0
ARC
8
BLACK
10
-13.1876909999999992
20
46.3535040000000009
40
0.3
50
-0.00000000
51
90.00000000
0
ARC
8
BLACK
10
-37.0834909999999951
20
-0.335281
40
0.3000003281064872
50
29.99996382
51
119.99996382
0
LINE
8
BLACK
6
CONTINUOUS
10
63.3123089999999991
20
4.9035039999999999
11
63.3123089999999991
21
18.3035040000000002
0
ARC
8
BLACK
10
-46.9676369999999963
20
-29.5215959999999988
40
0.2999999514133294
50
45.00000000
51
135.00000000
0
LINE
8
BLACK
6
CONTINUOUS
10
17.9264179999999982
20
-21.7163240000000002
11
17.9264179999999982
21
-8.3163239999999998
0
LINE
8
BLACK
6
CONTINUOUS
10
6.1623089999999996
20
-2.646496
11
6.1623089999999996
21
10.7535039999999995
0
ARC
8
BLACK
10
5.8622969999999999
20
29.8034919999999985
40
0.3000120002399904
50
0.00229174
51
89.99770826
0
ARC
8
BLACK
10
30.5622989999999994
20
-2.1465049999999999
40
0.2999905001504214
50
-180.00181442
51
-89.99818558
0
ARC
8
BLACK
10
-56.4428679999999972
20
-38.9968269999999961
40
0.2999999514133294
50
-225.00000000
51
-135.00000000
0
LINE
8
BLACK
6
CONTINUOUS
10
17.6264179999999975
20
-8.0163239999999991
11
4.2264179999999998
21
-8.0163239999999991
0
ARC
8
BLACK
10
-13.1876909999999992
20
27.3035040000000002
40
0.3
50
-0.00000000
51
90.00000000
0
ARC
8
BLACK
10
-13.1876909999999992
20
-5.146496
40
0.3
50
-90.00000000
51
-0.00000000
0
ARC
8
BLACK
10
49.6123609999999999
20
18.303450999999999
40
0.3000525045929462
50
90.01002501
51
179.98997499
0
LINE
8
BLACK
6
CONTINUOUS
10
11.2123089999999994
20
36.3035039999999967
11
11.2123089999999994
21
22.9035039999999981
0
LINE
8
BLACK
6
CONTINUOUS
10
-26.5876909999999995
20
32.6535039999999981
11
-13.1876909999999992
21
32.6535039999999981
0
LINE
8
BLACK
6
CONTINUOUS
10
11.5123090000000001
20
3.5535039999999998
11
24.9123090000000005
21
3.5535039999999998
0
LINE
8
BLACK
6
CONTINUOUS
10
-12.8876910000000002
20
32.9535039999999952
11
-12.8876910000000002
21
46.3535040000000009
0
ARC
8
BLACK
10
49.6122990000000001
20
-14.1465049999999994
40
0.2999905001504214
50
-180.00181442
51
-89.99818558
0
ARC
8
BLACK
10
63.0122489999999971
20
-0.746555
40
0.3000595058992466
50
0.01136141
51
89.98863859
0
LINE
8
BLACK
6
CONTINUOUS
10
-13.1876909999999992
20
46.6535039999999981
11
-26.5876909999999995
21
46.6535039999999981
0
LINE
8
BLACK
6
CONTINUOUS
10
68.6623089999999934
20
-14.4465059999999994
11
82.0623089999999991
21
-14.4465059999999994
0
LINE
8
BLACK
6
CONTINUOUS
10
24.9123090000000005
20
55.6535039999999981
11
11.5123090000000001
21
55.6535039999999981
0
LINE
8
BLACK
6
CONTINUOUS
10
40.501418000000001
20
-18.9714959999999984
11
40.501418000000001
21
-24.5413239999999995
0
LINE
8
BLACK
6
CONTINUOUS
10
-7.8376909999999995
20
48.8535040000000009
11
-7.8376909999999995
21
35.4535039999999952
0
ARC
8
BLACK
10
17.6263520000000007
20
-21.7162579999999998
40
0.300066007258403
50
-89.98739770
51
-0.01260230
0
ARC
8
BLACK
10
11.512321
20
55.3534909999999982
40
0.3000125002604058
50
90.00238722
51
179.99761278
0
ARC
8
BLACK
10
10.9264169999999989
20
-96.8908799999999957
40
111.449556630775632
50
111.98063691
51
135.00000024
0
CIRCLE
8
BLACK
10
25.6758999999999986
20
-4.0399989999999999
40
1.2
0
LINE
8
BLACK
6
CONTINUOUS
10
-48.8382310000000004
20
-6.7754729999999999
11
-37.2334910000000008
21
-0.075473
0
ARC
8
BLACK
10
11.512321
20
36.3034910000000011
40
0.3000125002604058
50
90.00238722
51
179.99761278
0
LINE
8
BLACK
6
CONTINUOUS
10
82.0623089999999991
20
-0.446506
11
68.6623089999999934
21
-0.446506
0
LINE
8
BLACK
6
CONTINUOUS
10
49.6123089999999962
20
-14.4464959999999998
11
63.0123089999999948
21
-14.4464959999999998
0
LINE
8
BLACK
6
CONTINUOUS
10
82.0623089999999991
20
18.6034939999999978
11
68.6623089999999934
21
18.6034939999999978
0
LINE
8
BLACK
6
CONTINUOUS
10
-56.654999999999994
20
-39.2089590000000001
11
-47.1797690000000003
21
-48.684190000000001
0
LINE
8
BLACK
6
CONTINUOUS
10
49.3123089999999991
20
18.3035040000000002
11
49.3123089999999991
21
4.9035039999999999
0
LINE
8
BLACK
6
CONTINUOUS
10
82.3623089999999962
20
23.9534939999999992
11
82.3623089999999962
21
37.3534939999999978
0
ARC
8
BLACK
10
-26.5876909999999995
20
8.2535039999999995
40
0.3
50
90.00000000
51
180.00000000
0
ARC
8
BLACK
10
10.9264169999999989
20
-96.8908909999999963
40
157.1059860374583366
50
70.10660713
51
104.88068429
0
ARC
8
BLACK
10
43.9623610000000014
20
-2.1465480000000001
40
0.299947504594554
50
-90.01002852
51
0.01002852
0
ARC
8
BLACK
10
-13.1876909999999992
20
8.2535039999999995
40
0.3
50
-0.00000000
51
90.00000000
0
ARC
8
BLACK
10
-7.5376909999999997
20
10.7535039999999995
40
0.3
50
90.00000000
51
180.00000000
0
LINE
8
BLACK
6
CONTINUOUS
10
68.3623089999999962
20
-0.746506
11
68.3623089999999962
21
-14.1465059999999987
0
ARC
8
BLACK
10
-15.0018919999999998
20
-26.0119209999999974
40
0.3000001882573858
50
-164.99993490
51
-75.00011938
0
LINE
8
BLACK
6
CONTINUOUS
10
43.9623089999999976
20
30.6035039999999974
11
30.5623089999999991
21
30.6035039999999974
0
ARC
8
BLACK
10
68.6623060000000009
20
-0.7465029999999999
40
0.2999975000104167
50
-270.00047747
51
-179.99952253
0
LINE
8
BLACK
6
CONTINUOUS
10
82.3623089999999962
20
4.9034939999999994
11
82.3623089999999962
21
18.3034940000000006
0
ARC
8
BLACK
10
10.9268469999999986
20
-96.8899550000000005
40
157.1049572986050862
50
61.71961451
51
68.73552528
0
ARC
8
BLACK
10
-37.4924059999999955
20
-38.9968269999999961
40
0.2999999514133294
50
-45.00000000
51
45.00000000
0
ARC
8
BLACK
10
-26.5876909999999995
20
13.9035039999999999
40
0.3
50
-180.00000000
51
-90.00000000
0
LINE
8
BLACK
6
CONTINUOUS
10
-26.5876909999999995
20
13.6035039999999992
11
-13.1876909999999992
21
13.6035039999999992
0
LINE
8
BLACK
6
CONTINUOUS
10
68.6623089999999934
20
23.6534939999999985
11
82.0623089999999991
21
23.6534939999999985
0
LINE
8
BLACK
6
CONTINUOUS
10
-7.8376909999999995
20
29.8035040000000002
11
-7.8376909999999995
21
16.4035039999999981
0
LINE
8
BLACK
6
CONTINUOUS
10
11.2123089999999994
20
55.3535040000000009
11
11.2123089999999994
21
41.9535039999999952
0
LINE
8
BLACK
6
CONTINUOUS
10
-26.8876910000000002
20
27.3035040000000002
11
-26.8876910000000002
21
13.9035039999999999
0
ARC
8
BLACK
10
82.0622539999999958
20
18.3034390000000009
40
0.3000545049495175
50
0.01040684
51
89.98959316
0
LINE
8
BLACK
6
CONTINUOUS
10
24.9123090000000005
20
36.6035040000000009
11
11.5123090000000001
21
36.6035040000000009
0
ARC
8
BLACK
10
30.5623609999999992
20
11.2534510000000001
40
0.3000525045929462
50
90.01002501
51
179.98997499
0
ARC
8
BLACK
10
43.9623610000000014
20
16.9034510000000004
40
0.299947504594554
50
-90.01002852
51
0.01002852
0
ARC
8
BLACK
10
43.9623610000000014
20
35.9534510000000012
40
0.299947504594554
50
-90.01002852
51
0.01002852
0
LINE
8
BLACK
6
CONTINUOUS
10
6.1623089999999996
20
35.4535039999999952
11
6.1623089999999996
21
48.8535040000000009
0
ARC
8
BLACK
10
24.9122489999999992
20
17.2534439999999982
40
0.3000595058992466
50
0.01136141
51
89.98863859
0
ARC
8
BLACK
10
4.2263909999999996
20
-8.3162970000000005
40
0.2999730012151093
50
-270.00515708
51
-179.99484292
0
ARC
8
BLACK
10
68.6622539999999901
20
-14.1465599999999991
40
0.2999455049513161
50
-180.01041062
51
-89.98958938
0
ARC
8
BLACK
10
68.6623060000000009
20
37.3534959999999998
40
0.2999975000104167
50
-270.00047747
51
-179.99952253
0
ARC
8
BLACK
10
-7.5376909999999997
20
-2.646496
40
0.3
50
-180.00000000
51
-90.00000000
0
LINE
8
BLACK
6
CONTINUOUS
10
-46.7555049999999994
20
-48.684190000000001
11
-37.2802739999999986
21
-39.2089590000000001
0
ARC
8
BLACK
10
43.9622489999999999
20
11.253444
40
0.3000595058992466
50
0.01136141
51
89.98863859
0
LINE
8
BLACK
6
CONTINUOUS
10
-26.8876910000000002
20
46.3535040000000009
11
-26.8876910000000002
21
32.9535039999999952
0
ARC
8
BLACK
10
49.6123609999999999
20
37.3534509999999997
40
0.3000525045929462
50
90.01002501
51
179.98997499
0
ARC
8
BLACK
10
-50.9627899999999983
20
-25.5264430000000004
40
0.2999999514133294
50
-45.00000000
51
45.00000000
0
CIRCLE
8
BLACK
10
65.8373089999999905
20
40.1784940000000006
40
1.2
0
LINE
8
BLACK
6
CONTINUOUS
10
-7.5376909999999997
20
-2.9464959999999998
11
5.8623089999999998
21
-2.9464959999999998
0
LINE
8
BLACK
6
CONTINUOUS
10
-26.5876909999999995
20
-5.4464959999999998
11
-13.1876909999999992
21
-5.4464959999999998
0
ARC
8
BLACK
10
84.8873609999999985
20
-16.9715479999999985
40
0.9999475013781973
50
-90.00300819
51
0.00300819
0
ARC
8
BLACK
10
49.6122990000000001
20
23.9534939999999992
40
0.2999905001504214
50
-180.00181442
51
-89.99818558
0
ARC
8
BLACK
10
82.0623059999999924
20
-14.1465029999999992
40
0.3000025000104166
50
-89.99952254
51
-0.00047746
0
LINE
8
BLACK
6
CONTINUOUS
10
36.9764179999999953
20
-8.3163239999999998
11
36.9764179999999953
21
-21.7163240000000002
0
LINE
8
BLACK
6
CONTINUOUS
10
5.8623089999999998
20
49.1535039999999981
11
-7.5376909999999997
21
49.1535039999999981
0
ARC
8
BLACK
10
5.8622969999999999
20
48.8534919999999957
40
0.3000120002399904
50
0.00229174
51
89.99770826
  0
ENDSEC
  0
EOF
