  0
SECTION
  2
HEADER
  9
$ANGBASE
  50
0.0
  9
$ANGDIR
  70
1
  9
$MEASUREMENT
  70
1
  0
ENDSEC
  0
SECTION
  2
TABLES
  0
TABLE
  2
LTYPE
  70
4
  0
LTYPE
  5
40F
  2
CONTINUOUS
  70
0
  3
Solid line
  72
65
  73
0
  40
0.0
  0
LTYPE
  5
410
  2
DASHDOT
 70
0
  3
Dash Dot ____ _ ____ _
 72
65
 73
4
 40
2.0
 49
1.25
 49
-0.25
 49
0.25
 49
-0.25
  0
LTYPE
  5
411
  2
DASHED
 70
0
  3
Dashed __ __ __ __ __
 72
65
 73
2
 40
0.75
 49
0.5
 49
-0.25
  0
LTYPE
  5
43B
  2
DOTTED
 70
0
  3
Dotted .  .  .  .
 72
65
 73
2
 40
0.2
 49
0.0
 49
-0.2
  0
ENDTAB
  0
TABLE
  2
STYLE
  70
4
  0
STYLE
  2
KICAD
  70
0
  40
0
  41
1
  42
1
  50
0
  71
0
  3
isocp.shx
  0
STYLE
  2
KICADB
  70
0
  40
0
  41
1
  42
1
  50
0
  71
0
  3
isocp.shx
  0
STYLE
  2
KICADI
  70
0
  40
0
  41
1
  42
1
  50
15
  71
0
  3
isocp.shx
  0
STYLE
  2
KICADBI
  70
0
  40
0
  41
1
  42
1
  50
15
  71
0
  3
isocp.shx
  0
ENDTAB
  0
TABLE
  2
LAYER
  70
1
  0
LAYER
  2
BLACK
  70
0
  62
7
  6
CONTINUOUS
  0
ENDTAB
  0
ENDSEC
  0
SECTION
  2
ENTITIES
0
LINE
8
BLACK
6
CONTINUOUS
10
14.1364099999999997
20
60.432348999999995
11
16.5842039999999997
21
60.3633469999999974
0
LINE
8
BLACK
6
CONTINUOUS
10
16.5842039999999997
20
60.3633469999999974
11
19.0306269999999991
21
60.2562619999999995
0
LINE
8
BLACK
6
CONTINUOUS
10
19.0306269999999991
20
60.2562619999999995
11
21.4750879999999995
21
60.1111199999999997
0
LINE
8
BLACK
6
CONTINUOUS
10
21.4750879999999995
20
60.1111199999999997
11
23.916993999999999
21
59.9279569999999993
0
LINE
8
BLACK
6
CONTINUOUS
10
23.916993999999999
20
59.9279569999999993
11
26.3557539999999975
21
59.7068149999999989
0
LINE
8
BLACK
6
CONTINUOUS
10
26.3557539999999975
20
59.7068149999999989
11
28.7907779999999995
21
59.4477499999999992
0
LINE
8
BLACK
6
CONTINUOUS
10
28.7907779999999995
20
59.4477499999999992
11
31.2214749999999981
21
59.1508240000000001
0
LINE
8
BLACK
6
CONTINUOUS
10
31.2214749999999981
20
59.1508240000000001
11
33.6472569999999962
21
58.8161079999999998
0
LINE
8
BLACK
6
CONTINUOUS
10
33.6472569999999962
20
58.8161079999999998
11
36.0675370000000015
21
58.4436839999999975
0
LINE
8
BLACK
6
CONTINUOUS
10
36.0675370000000015
20
58.4436839999999975
11
38.4817279999999968
21
58.0336420000000004
0
LINE
8
BLACK
6
CONTINUOUS
10
38.4817279999999968
20
58.0336420000000004
11
40.889246
21
57.5860810000000001
0
LINE
8
BLACK
6
CONTINUOUS
10
40.889246
20
57.5860810000000001
11
43.2895079999999979
21
57.1011099999999985
0
LINE
8
BLACK
6
CONTINUOUS
10
43.2895079999999979
20
57.1011099999999985
11
45.6819330000000008
21
56.5788459999999986
0
LINE
8
BLACK
6
CONTINUOUS
10
45.6819330000000008
20
56.5788459999999986
11
48.0659399999999977
21
56.0194159999999997
0
LINE
8
BLACK
6
CONTINUOUS
10
48.0659399999999977
20
56.0194159999999997
11
50.4409530000000004
21
55.4229539999999972
0
LINE
8
BLACK
6
CONTINUOUS
10
50.4409530000000004
20
55.4229539999999972
11
52.8063969999999969
21
54.7896069999999966
0
LINE
8
BLACK
6
CONTINUOUS
10
52.8063969999999969
20
54.7896069999999966
11
55.1616989999999987
21
54.1195260000000005
0
LINE
8
BLACK
6
CONTINUOUS
10
55.1616989999999987
20
54.1195260000000005
11
57.5062879999999979
21
53.4128739999999951
0
LINE
8
BLACK
6
CONTINUOUS
10
57.5062879999999979
20
53.4128739999999951
11
59.8395960000000002
21
52.6698219999999964
0
LINE
8
BLACK
6
CONTINUOUS
10
59.8395960000000002
20
52.6698219999999964
11
62.1610599999999991
21
51.890550999999995
0
LINE
8
BLACK
6
CONTINUOUS
10
62.1610599999999991
20
51.890550999999995
11
64.4701149999999927
21
51.0752489999999995
0
LINE
8
BLACK
6
CONTINUOUS
10
64.4701149999999927
20
51.0752489999999995
11
64.4701189999999968
21
51.0752459999999999
0
LINE
8
BLACK
6
CONTINUOUS
10
64.4701189999999968
20
51.0752459999999999
11
65.6486889999999903
21
50.6434399999999982
0
LINE
8
BLACK
6
CONTINUOUS
10
65.6486889999999903
20
50.6434399999999982
11
66.8237809999999968
21
50.2022440000000003
0
LINE
8
BLACK
6
CONTINUOUS
10
66.8237809999999968
20
50.2022440000000003
11
67.995317
21
49.7516899999999964
0
LINE
8
BLACK
6
CONTINUOUS
10
67.995317
20
49.7516899999999964
11
69.9851269999999914
21
48.9616889999999998
0
LINE
8
BLACK
6
CONTINUOUS
10
69.9851269999999914
20
48.9616889999999998
11
71.9640050000000002
21
48.1446889999999996
0
LINE
8
BLACK
6
CONTINUOUS
10
71.9640050000000002
20
48.1446889999999996
11
73.9315830000000034
21
47.3008419999999958
0
LINE
8
BLACK
6
CONTINUOUS
10
73.9315830000000034
20
47.3008419999999958
11
75.8874989999999912
21
46.430302999999995
0
LINE
8
BLACK
6
CONTINUOUS
10
75.8874989999999912
20
46.430302999999995
11
77.8313909999999964
21
45.5332349999999977
0
LINE
8
BLACK
6
CONTINUOUS
10
77.8313909999999964
20
45.5332349999999977
11
79.7628969999999953
21
44.6098019999999948
0
LINE
8
BLACK
6
CONTINUOUS
10
79.7628969999999953
20
44.6098019999999948
11
81.6816609999999912
21
43.6601759999999999
0
LINE
8
BLACK
6
CONTINUOUS
10
81.6816609999999912
20
43.6601759999999999
11
83.5873279999999994
21
42.6845329999999947
0
LINE
8
BLACK
6
CONTINUOUS
10
83.5873279999999994
20
42.6845329999999947
11
85.47954399999999
21
41.683053000000001
0
LINE
8
BLACK
6
CONTINUOUS
10
85.47954399999999
20
41.683053000000001
11
85.4795429999999925
21
41.683050999999999
0
LINE
8
BLACK
6
CONTINUOUS
10
85.4795429999999925
20
41.683050999999999
11
85.4795510000000007
21
41.6830439999999953
0
LINE
8
BLACK
6
CONTINUOUS
10
85.4795510000000007
20
41.6830439999999953
11
85.4795589999999947
21
41.6830420000000004
0
LINE
8
BLACK
6
CONTINUOUS
10
85.4795589999999947
20
41.6830420000000004
11
85.4795579999999973
21
41.6830420000000004
0
LINE
8
BLACK
6
CONTINUOUS
10
85.4795579999999973
20
41.6830420000000004
11
85.6412789999999973
21
41.5792499999999947
0
LINE
8
BLACK
6
CONTINUOUS
10
85.6412789999999973
20
41.5792499999999947
11
85.7851809999999944
21
41.4518969999999953
0
LINE
8
BLACK
6
CONTINUOUS
10
85.7851809999999944
20
41.4518969999999953
11
85.9078639999999893
21
41.3039950000000005
0
LINE
8
BLACK
6
CONTINUOUS
10
85.9078639999999893
20
41.3039950000000005
11
86.0064299999999946
21
41.1390369999999947
0
LINE
8
BLACK
6
CONTINUOUS
10
86.0064299999999946
20
41.1390369999999947
11
86.0785489999999953
21
40.960920999999999
0
LINE
8
BLACK
6
CONTINUOUS
10
86.0785489999999953
20
40.960920999999999
11
86.1225179999999995
21
40.7738569999999996
0
LINE
8
BLACK
6
CONTINUOUS
10
86.1225179999999995
20
40.7738569999999996
11
86.1372909999999905
21
40.5823409999999996
0
LINE
8
BLACK
6
CONTINUOUS
10
86.1372909999999905
20
40.5823409999999996
11
86.1373059999999953
21
40.582263999999995
0
LINE
8
BLACK
6
CONTINUOUS
10
86.1373059999999953
20
40.582263999999995
11
86.1373090000000019
21
40.582263999999995
0
LINE
8
BLACK
6
CONTINUOUS
10
86.1373090000000019
20
40.582263999999995
11
86.1373069999999927
21
40.5822569999999985
0
LINE
8
BLACK
6
CONTINUOUS
10
86.1373069999999927
20
40.5822569999999985
11
86.1373090000000019
21
40.5822509999999994
0
LINE
8
BLACK
6
CONTINUOUS
10
86.1373090000000019
20
40.5822509999999994
11
86.1373090000000019
21
-16.9714950000000009
0
LINE
8
BLACK
6
CONTINUOUS
10
86.1373090000000019
20
-16.9714950000000009
11
86.1219200000000029
21
-17.167038999999999
0
LINE
8
BLACK
6
CONTINUOUS
10
86.1219200000000029
20
-17.167038999999999
11
86.0761309999999895
21
-17.3577680000000001
0
LINE
8
BLACK
6
CONTINUOUS
10
86.0761309999999895
20
-17.3577680000000001
11
86.0010690000000011
21
-17.5389859999999977
0
LINE
8
BLACK
6
CONTINUOUS
10
86.0010690000000011
20
-17.5389859999999977
11
85.8985830000000021
21
-17.7062309999999989
0
LINE
8
BLACK
6
CONTINUOUS
10
85.8985830000000021
20
-17.7062309999999989
11
85.7711959999999891
21
-17.8553840000000008
0
LINE
8
BLACK
6
CONTINUOUS
10
85.7711959999999891
20
-17.8553840000000008
11
85.6220440000000025
21
-17.9827729999999981
0
LINE
8
BLACK
6
CONTINUOUS
10
85.6220440000000025
20
-17.9827729999999981
11
85.4548009999999891
21
-18.0852620000000002
0
LINE
8
BLACK
6
CONTINUOUS
10
85.4548009999999891
20
-18.0852620000000002
11
85.2735839999999996
21
-18.1603259999999977
0
LINE
8
BLACK
6
CONTINUOUS
10
85.2735839999999996
20
-18.1603259999999977
11
85.082854999999995
21
-18.206118
0
LINE
8
BLACK
6
CONTINUOUS
10
85.082854999999995
20
-18.206118
11
84.8873109999999969
21
-18.2215089999999975
0
LINE
8
BLACK
6
CONTINUOUS
10
84.8873109999999969
20
-18.2215089999999975
11
84.8873109999999969
21
-18.2214959999999984
0
LINE
8
BLACK
6
CONTINUOUS
10
84.8873109999999969
20
-18.2214959999999984
11
84.8873090000000019
21
-18.2214950000000009
0
LINE
8
BLACK
6
CONTINUOUS
10
84.8873090000000019
20
-18.2214950000000009
11
84.8873090000000019
21
-18.2214959999999984
0
LINE
8
BLACK
6
CONTINUOUS
10
84.8873090000000019
20
-18.2214959999999984
11
41.501418000000001
21
-18.2214959999999984
0
LINE
8
BLACK
6
CONTINUOUS
10
41.501418000000001
20
-18.2214959999999984
11
41.501415999999999
21
-18.2214950000000009
0
LINE
8
BLACK
6
CONTINUOUS
10
41.501415999999999
20
-18.2214950000000009
11
41.5014139999999969
21
-18.2214959999999984
0
LINE
8
BLACK
6
CONTINUOUS
10
41.5014139999999969
20
-18.2214959999999984
11
41.5014129999999994
21
-18.2215179999999997
0
LINE
8
BLACK
6
CONTINUOUS
10
41.5014129999999994
20
-18.2215179999999997
11
41.4275459999999995
21
-18.2215169999999986
0
LINE
8
BLACK
6
CONTINUOUS
10
41.4275459999999995
20
-18.2215169999999986
11
41.2826489999999993
21
-18.2503360000000008
0
LINE
8
BLACK
6
CONTINUOUS
10
41.2826489999999993
20
-18.2503360000000008
11
41.1461589999999973
21
-18.30687
0
LINE
8
BLACK
6
CONTINUOUS
10
41.1461589999999973
20
-18.30687
11
41.0233209999999957
21
-18.3889449999999997
0
LINE
8
BLACK
6
CONTINUOUS
10
41.0233209999999957
20
-18.3889449999999997
11
40.9188559999999981
21
-18.4934079999999987
0
LINE
8
BLACK
6
CONTINUOUS
10
40.9188559999999981
20
-18.4934079999999987
11
40.8367769999999979
21
-18.6162449999999993
0
LINE
8
BLACK
6
CONTINUOUS
10
40.8367769999999979
20
-18.6162449999999993
11
40.7802409999999966
21
-18.7527329999999992
0
LINE
8
BLACK
6
CONTINUOUS
10
40.7802409999999966
20
-18.7527329999999992
11
40.751418000000001
21
-18.8976299999999995
0
LINE
8
BLACK
6
CONTINUOUS
10
40.751418000000001
20
-18.8976299999999995
11
40.751418000000001
21
-18.9714950000000009
0
LINE
8
BLACK
6
CONTINUOUS
10
40.751418000000001
20
-18.9714950000000009
11
40.751418000000001
21
-18.9714959999999984
0
LINE
8
BLACK
6
CONTINUOUS
10
40.751418000000001
20
-18.9714959999999984
11
40.751418000000001
21
-24.5413239999999995
0
LINE
8
BLACK
6
CONTINUOUS
10
40.751418000000001
20
-24.5413239999999995
11
40.7514169999999964
21
-24.541325999999998
0
LINE
8
BLACK
6
CONTINUOUS
10
40.7514169999999964
20
-24.541325999999998
11
40.751418000000001
21
-24.5413299999999985
0
LINE
8
BLACK
6
CONTINUOUS
10
40.751418000000001
20
-24.5413299999999985
11
40.7360240000000005
21
-24.7368699999999997
0
LINE
8
BLACK
6
CONTINUOUS
10
40.7360240000000005
20
-24.7368699999999997
11
40.6902319999999946
21
-24.9275950000000002
0
LINE
8
BLACK
6
CONTINUOUS
10
40.6902319999999946
20
-24.9275950000000002
11
40.6151679999999971
21
-25.1088089999999973
0
LINE
8
BLACK
6
CONTINUOUS
10
40.6151679999999971
20
-25.1088089999999973
11
40.5126810000000006
21
-25.2760490000000004
0
LINE
8
BLACK
6
CONTINUOUS
10
40.5126810000000006
20
-25.2760490000000004
11
40.3852939999999947
21
-25.4251989999999992
0
LINE
8
BLACK
6
CONTINUOUS
10
40.3852939999999947
20
-25.4251989999999992
11
40.2361429999999984
21
-25.5525850000000005
0
LINE
8
BLACK
6
CONTINUOUS
10
40.2361429999999984
20
-25.5525850000000005
11
40.0689020000000014
21
-25.6550709999999995
0
LINE
8
BLACK
6
CONTINUOUS
10
40.0689020000000014
20
-25.6550709999999995
11
39.8876879999999971
21
-25.7301339999999996
0
LINE
8
BLACK
6
CONTINUOUS
10
39.8876879999999971
20
-25.7301339999999996
11
39.6969629999999967
21
-25.7759259999999983
0
LINE
8
BLACK
6
CONTINUOUS
10
39.6969629999999967
20
-25.7759259999999983
11
39.5014649999999961
21
-25.7913139999999999
0
LINE
8
BLACK
6
CONTINUOUS
10
39.5014649999999961
20
-25.7913139999999999
11
39.501421999999998
21
-25.7913229999999984
0
LINE
8
BLACK
6
CONTINUOUS
10
39.501421999999998
20
-25.7913229999999984
11
39.501421999999998
21
-25.7913239999999995
0
LINE
8
BLACK
6
CONTINUOUS
10
39.501421999999998
20
-25.7913239999999995
11
39.5014189999999985
21
-25.7913229999999984
0
LINE
8
BLACK
6
CONTINUOUS
10
39.5014189999999985
20
-25.7913229999999984
11
39.501418000000001
21
-25.7913239999999995
0
LINE
8
BLACK
6
CONTINUOUS
10
39.501418000000001
20
-25.7913239999999995
11
10.926418
21
-25.7913239999999995
0
LINE
8
BLACK
6
CONTINUOUS
10
10.926418
20
-25.7913239999999995
11
10.926418
21
-25.7913250000000005
0
LINE
8
BLACK
6
CONTINUOUS
10
10.926418
20
-25.7913250000000005
11
10.1051839999999995
21
-25.7913250000000005
0
LINE
8
BLACK
6
CONTINUOUS
10
10.1051839999999995
20
-25.7913250000000005
11
8.4631530000000001
21
-25.8292619999999999
0
LINE
8
BLACK
6
CONTINUOUS
10
8.4631530000000001
20
-25.8292619999999999
11
6.8224359999999997
21
-25.9051169999999971
0
LINE
8
BLACK
6
CONTINUOUS
10
6.8224359999999997
20
-25.9051169999999971
11
5.18391
21
-26.0188489999999994
0
LINE
8
BLACK
6
CONTINUOUS
10
5.18391
20
-26.0188489999999994
11
3.5484469999999999
21
-26.1703969999999977
0
LINE
8
BLACK
6
CONTINUOUS
10
3.5484469999999999
20
-26.1703969999999977
11
1.916922
21
-26.3596799999999973
0
LINE
8
BLACK
6
CONTINUOUS
10
1.916922
20
-26.3596799999999973
11
0.290203
21
-26.5865979999999986
0
LINE
8
BLACK
6
CONTINUOUS
10
0.290203
20
-26.5865979999999986
11
-1.33084
21
-26.8510279999999995
0
LINE
8
BLACK
6
CONTINUOUS
10
-1.33084
20
-26.8510279999999995
11
-2.9453429999999998
21
-27.1528309999999991
0
LINE
8
BLACK
6
CONTINUOUS
10
-2.9453429999999998
20
-27.1528309999999991
11
-4.5524439999999995
21
-27.4918449999999979
0
LINE
8
BLACK
6
CONTINUOUS
10
-4.5524439999999995
20
-27.4918449999999979
11
-6.1512859999999998
21
-27.8678889999999981
0
LINE
8
BLACK
6
CONTINUOUS
10
-6.1512859999999998
20
-27.8678889999999981
11
-7.741015
21
-28.2807630000000003
0
LINE
8
BLACK
6
CONTINUOUS
10
-7.741015
20
-28.2807630000000003
11
-9.3207839999999997
21
-28.7302459999999975
0
LINE
8
BLACK
6
CONTINUOUS
10
-9.3207839999999997
20
-28.7302459999999975
11
-10.8897490000000001
21
-29.2160979999999988
0
LINE
8
BLACK
6
CONTINUOUS
10
-10.8897490000000001
20
-29.2160979999999988
11
-12.4470729999999996
21
-29.7380609999999983
0
LINE
8
BLACK
6
CONTINUOUS
10
-12.4470729999999996
20
-29.7380609999999983
11
-13.9919259999999994
21
-30.2958549999999995
0
LINE
8
BLACK
6
CONTINUOUS
10
-13.9919259999999994
20
-30.2958549999999995
11
-15.5234829999999988
21
-30.8891829999999992
0
LINE
8
BLACK
6
CONTINUOUS
10
-15.5234829999999988
20
-30.8891829999999992
11
-17.0409259999999989
21
-31.5177289999999992
0
LINE
8
BLACK
6
CONTINUOUS
10
-17.0409259999999989
20
-31.5177289999999992
11
-18.5434470000000005
21
-32.1811569999999989
0
LINE
8
BLACK
6
CONTINUOUS
10
-18.5434470000000005
20
-32.1811569999999989
11
-20.0302429999999987
21
-32.8791129999999967
0
LINE
8
BLACK
6
CONTINUOUS
10
-20.0302429999999987
20
-32.8791129999999967
11
-21.5005209999999991
21
-33.611224
0
LINE
8
BLACK
6
CONTINUOUS
10
-21.5005209999999991
20
-33.611224
11
-22.9534959999999977
21
-34.3770999999999987
0
LINE
8
BLACK
6
CONTINUOUS
10
-22.9534959999999977
20
-34.3770999999999987
11
-24.3883939999999981
21
-35.1763329999999996
0
LINE
8
BLACK
6
CONTINUOUS
10
-24.3883939999999981
20
-35.1763329999999996
11
-25.8044479999999972
21
-36.0084960000000009
0
LINE
8
BLACK
6
CONTINUOUS
10
-25.8044479999999972
20
-36.0084960000000009
11
-27.2009030000000003
21
-36.8731439999999964
0
LINE
8
BLACK
6
CONTINUOUS
10
-27.2009030000000003
20
-36.8731439999999964
11
-28.5770139999999984
21
-37.7698169999999962
0
LINE
8
BLACK
6
CONTINUOUS
10
-28.5770139999999984
20
-37.7698169999999962
11
-29.9320469999999972
21
-38.6980359999999948
0
LINE
8
BLACK
6
CONTINUOUS
10
-29.9320469999999972
20
-38.6980359999999948
11
-31.2652779999999986
21
-39.6573059999999984
0
LINE
8
BLACK
6
CONTINUOUS
10
-31.2652779999999986
20
-39.6573059999999984
11
-32.575997000000001
21
-40.6471149999999994
0
LINE
8
BLACK
6
CONTINUOUS
10
-32.575997000000001
20
-40.6471149999999994
11
-33.8635030000000015
21
-41.6669339999999977
0
LINE
8
BLACK
6
CONTINUOUS
10
-33.8635030000000015
20
-41.6669339999999977
11
-35.1271109999999993
21
-42.7162199999999999
0
LINE
8
BLACK
6
CONTINUOUS
10
-35.1271109999999993
20
-42.7162199999999999
11
-36.3661439999999985
21
-43.7944129999999987
0
LINE
8
BLACK
6
CONTINUOUS
10
-36.3661439999999985
20
-43.7944129999999987
11
-37.5799430000000001
21
-44.900936999999999
0
LINE
8
BLACK
6
CONTINUOUS
10
-37.5799430000000001
20
-44.900936999999999
11
-38.7678599999999989
21
-46.0352029999999957
0
LINE
8
BLACK
6
CONTINUOUS
10
-38.7678599999999989
20
-46.0352029999999957
11
-39.3485609999999966
21
-46.6159029999999959
0
LINE
8
BLACK
6
CONTINUOUS
10
-39.3485609999999966
20
-46.6159029999999959
11
-46.0837529999999944
21
-53.3510950000000008
0
LINE
8
BLACK
6
CONTINUOUS
10
-46.0837529999999944
20
-53.3510950000000008
11
-46.2329049999999953
21
-53.4784819999999996
0
LINE
8
BLACK
6
CONTINUOUS
10
-46.2329049999999953
20
-53.4784819999999996
11
-46.400148999999999
21
-53.5809689999999961
0
LINE
8
BLACK
6
CONTINUOUS
10
-46.400148999999999
20
-53.5809689999999961
11
-46.5813659999999956
21
-53.6560319999999962
0
LINE
8
BLACK
6
CONTINUOUS
10
-46.5813659999999956
20
-53.6560319999999962
11
-46.7720939999999956
21
-53.7018209999999954
0
LINE
8
BLACK
6
CONTINUOUS
10
-46.7720939999999956
20
-53.7018209999999954
11
-46.9676369999999963
21
-53.7172109999999989
0
LINE
8
BLACK
6
CONTINUOUS
10
-46.9676369999999963
20
-53.7172109999999989
11
-47.163179999999997
21
-53.7018209999999954
0
LINE
8
BLACK
6
CONTINUOUS
10
-47.163179999999997
20
-53.7018209999999954
11
-47.353907999999997
21
-53.6560319999999962
0
LINE
8
BLACK
6
CONTINUOUS
10
-47.353907999999997
20
-53.6560319999999962
11
-47.5351250000000007
21
-53.5809689999999961
0
LINE
8
BLACK
6
CONTINUOUS
10
-47.5351250000000007
20
-53.5809689999999961
11
-47.7023689999999974
21
-53.4784819999999996
0
LINE
8
BLACK
6
CONTINUOUS
10
-47.7023689999999974
20
-53.4784819999999996
11
-47.8515209999999982
21
-53.3510950000000008
0
LINE
8
BLACK
6
CONTINUOUS
10
-47.8515209999999982
20
-53.3510950000000008
11
-74.7922889999999967
21
-26.4103259999999977
0
LINE
8
BLACK
6
CONTINUOUS
10
-74.7922889999999967
20
-26.4103259999999977
11
-74.7922949999999958
21
-26.4103159999999981
0
LINE
8
BLACK
6
CONTINUOUS
10
-74.7922949999999958
20
-26.4103159999999981
11
-74.9196759999999955
21
-26.2611740000000005
0
LINE
8
BLACK
6
CONTINUOUS
10
-74.9196759999999955
20
-26.2611740000000005
11
-75.0221629999999919
21
-26.0939300000000003
0
LINE
8
BLACK
6
CONTINUOUS
10
-75.0221629999999919
20
-26.0939300000000003
11
-75.097225999999992
21
-25.9127130000000001
0
LINE
8
BLACK
6
CONTINUOUS
10
-75.097225999999992
20
-25.9127130000000001
11
-75.1430149999999912
21
-25.7219850000000001
0
LINE
8
BLACK
6
CONTINUOUS
10
-75.1430149999999912
20
-25.7219850000000001
11
-75.1584050000000019
21
-25.5264419999999994
0
LINE
8
BLACK
6
CONTINUOUS
10
-75.1584050000000019
20
-25.5264419999999994
11
-75.1430160000000029
21
-25.3308989999999987
0
LINE
8
BLACK
6
CONTINUOUS
10
-75.1430160000000029
20
-25.3308989999999987
11
-75.097225999999992
21
-25.1401709999999987
0
LINE
8
BLACK
6
CONTINUOUS
10
-75.097225999999992
20
-25.1401709999999987
11
-75.0221629999999919
21
-24.9589549999999996
0
LINE
8
BLACK
6
CONTINUOUS
10
-75.0221629999999919
20
-24.9589549999999996
11
-74.919676999999993
21
-24.7917109999999994
0
LINE
8
BLACK
6
CONTINUOUS
10
-74.919676999999993
20
-24.7917109999999994
11
-74.7922889999999967
21
-24.6425589999999985
0
LINE
8
BLACK
6
CONTINUOUS
10
-74.7922889999999967
20
-24.6425589999999985
11
-68.0570969999999988
21
-17.9073670000000007
0
LINE
8
BLACK
6
CONTINUOUS
10
-68.0570969999999988
20
-17.9073670000000007
11
-68.0570900000000023
21
-17.9073619999999991
0
LINE
8
BLACK
6
CONTINUOUS
10
-68.0570900000000023
20
-17.9073619999999991
11
-66.6016099999999938
21
-16.4782219999999988
0
LINE
8
BLACK
6
CONTINUOUS
10
-66.6016099999999938
20
-16.4782219999999988
11
-65.1202699999999908
21
-15.0758939999999999
0
LINE
8
BLACK
6
CONTINUOUS
10
-65.1202699999999908
20
-15.0758939999999999
11
-63.6135679999999937
21
-13.7008499999999991
0
LINE
8
BLACK
6
CONTINUOUS
10
-63.6135679999999937
20
-13.7008499999999991
11
-62.0820089999999993
21
-12.3535489999999992
0
LINE
8
BLACK
6
CONTINUOUS
10
-62.0820089999999993
20
-12.3535489999999992
11
-60.526100999999997
21
-11.03444
0
LINE
8
BLACK
6
CONTINUOUS
10
-60.526100999999997
20
-11.03444
11
-58.9463650000000001
21
-9.7439640000000001
0
LINE
8
BLACK
6
CONTINUOUS
10
-58.9463650000000001
20
-9.7439640000000001
11
-57.3433259999999976
21
-8.4825499999999998
0
LINE
8
BLACK
6
CONTINUOUS
10
-57.3433259999999976
20
-8.4825499999999998
11
-55.7175209999999979
21
-7.2506199999999996
0
LINE
8
BLACK
6
CONTINUOUS
10
-55.7175209999999979
20
-7.2506199999999996
11
-54.0694899999999947
21
-6.048584
0
LINE
8
BLACK
6
CONTINUOUS
10
-54.0694899999999947
20
-6.048584
11
-52.3997839999999968
21
-4.876843
0
LINE
8
BLACK
6
CONTINUOUS
10
-52.3997839999999968
20
-4.876843
11
-50.7089590000000001
21
-3.7357879999999999
0
LINE
8
BLACK
6
CONTINUOUS
10
-50.7089590000000001
20
-3.7357879999999999
11
-48.9975789999999947
21
-2.6257999999999999
0
LINE
8
BLACK
6
CONTINUOUS
10
-48.9975789999999947
20
-2.6257999999999999
11
-47.2662149999999954
21
-1.547248
0
LINE
8
BLACK
6
CONTINUOUS
10
-47.2662149999999954
20
-1.547248
11
-45.5154449999999997
21
-0.5004919999999999
0
LINE
8
BLACK
6
CONTINUOUS
10
-45.5154449999999997
20
-0.5004919999999999
11
-43.7458509999999947
21
0.514119
0
LINE
8
BLACK
6
CONTINUOUS
10
-43.7458509999999947
20
0.514119
11
-41.9580249999999992
21
1.496246
0
LINE
8
BLACK
6
CONTINUOUS
10
-41.9580249999999992
20
1.496246
11
-40.1525630000000007
21
2.4455610000000001
0
LINE
8
BLACK
6
CONTINUOUS
10
-40.1525630000000007
20
2.4455610000000001
11
-38.3300659999999951
21
3.3617489999999997
0
LINE
8
BLACK
6
CONTINUOUS
10
-38.3300659999999951
20
3.3617489999999997
11
-36.4911419999999964
21
4.2445040000000001
0
LINE
8
BLACK
6
CONTINUOUS
10
-36.4911419999999964
20
4.2445040000000001
11
-34.6364049999999963
21
5.0935309999999996
0
LINE
8
BLACK
6
CONTINUOUS
10
-34.6364049999999963
20
5.0935309999999996
11
-32.7664729999999977
21
5.9085469999999995
0
LINE
8
BLACK
6
CONTINUOUS
10
-32.7664729999999977
20
5.9085469999999995
11
-30.881969999999999
21
6.6892800000000001
0
LINE
8
BLACK
6
CONTINUOUS
10
-30.881969999999999
20
6.6892800000000001
11
-30.881964
21
6.6892809999999994
0
LINE
8
BLACK
6
CONTINUOUS
10
-30.881964
20
6.6892809999999994
11
-30.8129659999999994
21
6.7171919999999998
0
LINE
8
BLACK
6
CONTINUOUS
10
-30.8129659999999994
20
6.7171919999999998
11
-30.6885639999999995
21
6.7989619999999995
0
LINE
8
BLACK
6
CONTINUOUS
10
-30.6885639999999995
20
6.7989619999999995
11
-30.5826630000000002
21
6.9035909999999996
0
LINE
8
BLACK
6
CONTINUOUS
10
-30.5826630000000002
20
6.9035909999999996
11
-30.4993949999999998
21
7.0269959999999996
0
LINE
8
BLACK
6
CONTINUOUS
10
-30.4993949999999998
20
7.0269959999999996
11
-30.4420099999999998
21
7.1643609999999995
0
LINE
8
BLACK
6
CONTINUOUS
10
-30.4420099999999998
20
7.1643609999999995
11
-30.4127469999999995
21
7.3103259999999999
0
LINE
8
BLACK
6
CONTINUOUS
10
-30.4127469999999995
20
7.3103259999999999
11
-30.4126909999999988
21
7.3847609999999992
0
LINE
8
BLACK
6
CONTINUOUS
10
-30.4126909999999988
20
7.3847609999999992
11
-30.4126909999999988
21
7.3847629999999995
0
LINE
8
BLACK
6
CONTINUOUS
10
-30.4126909999999988
20
7.3847629999999995
11
-30.4126909999999988
21
53.9797219999999953
0
LINE
8
BLACK
6
CONTINUOUS
10
-30.4126909999999988
20
53.9797219999999953
11
-30.395941999999998
21
54.1836629999999957
0
LINE
8
BLACK
6
CONTINUOUS
10
-30.395941999999998
20
54.1836629999999957
11
-30.3461439999999989
21
54.3821379999999976
0
LINE
8
BLACK
6
CONTINUOUS
10
-30.3461439999999989
20
54.3821379999999976
11
-30.2646319999999989
21
54.5698289999999986
0
LINE
8
BLACK
6
CONTINUOUS
10
-30.2646319999999989
20
54.5698289999999986
11
-30.1535890000000002
21
54.7417060000000006
0
LINE
8
BLACK
6
CONTINUOUS
10
-30.1535890000000002
20
54.7417060000000006
11
-30.0159929999999981
21
54.8931629999999942
0
LINE
8
BLACK
6
CONTINUOUS
10
-30.0159929999999981
20
54.8931629999999942
11
-29.8555289999999971
21
55.0201419999999999
0
LINE
8
BLACK
6
CONTINUOUS
10
-29.8555289999999971
20
55.0201419999999999
11
-29.6764989999999997
21
55.1192399999999978
0
LINE
8
BLACK
6
CONTINUOUS
10
-29.6764989999999997
20
55.1192399999999978
11
-29.4837089999999975
21
55.1877959999999987
0
LINE
8
BLACK
6
CONTINUOUS
10
-29.4837089999999975
20
55.1877959999999987
11
-29.4836999999999989
21
55.1878010000000003
0
LINE
8
BLACK
6
CONTINUOUS
10
-29.4836999999999989
20
55.1878010000000003
11
-27.1122370000000004
21
55.7982269999999971
0
LINE
8
BLACK
6
CONTINUOUS
10
-27.1122370000000004
20
55.7982269999999971
11
-24.7315629999999977
21
56.3716760000000008
0
LINE
8
BLACK
6
CONTINUOUS
10
-24.7315629999999977
20
56.3716760000000008
11
-22.3422529999999995
21
56.9080089999999998
0
LINE
8
BLACK
6
CONTINUOUS
10
-22.3422529999999995
20
56.9080089999999998
11
-19.9448869999999978
21
57.4070949999999982
0
LINE
8
BLACK
6
CONTINUOUS
10
-19.9448869999999978
20
57.4070949999999982
11
-17.5400439999999982
21
57.8688149999999979
0
LINE
8
BLACK
6
CONTINUOUS
10
-17.5400439999999982
20
57.8688149999999979
11
-15.1283069999999995
21
58.293056
0
LINE
8
BLACK
6
CONTINUOUS
10
-15.1283069999999995
20
58.293056
11
-12.7102599999999999
21
58.6797149999999945
0
LINE
8
BLACK
6
CONTINUOUS
10
-12.7102599999999999
20
58.6797149999999945
11
-10.2864899999999988
21
59.028698999999996
0
LINE
8
BLACK
6
CONTINUOUS
10
-10.2864899999999988
20
59.028698999999996
11
-7.8575819999999998
21
59.3399229999999989
0
LINE
8
BLACK
6
CONTINUOUS
10
-7.8575819999999998
20
59.3399229999999989
11
-5.4241250000000001
21
59.613312999999998
0
LINE
8
BLACK
6
CONTINUOUS
10
-5.4241250000000001
20
59.613312999999998
11
-2.9867079999999997
21
59.8488009999999946
0
LINE
8
BLACK
6
CONTINUOUS
10
-2.9867079999999997
20
59.8488009999999946
11
-0.545922
21
60.0463299999999975
0
LINE
8
BLACK
6
CONTINUOUS
10
-0.545922
20
60.0463299999999975
11
1.8976419999999998
21
60.2058539999999951
0
LINE
8
BLACK
6
CONTINUOUS
10
1.8976419999999998
20
60.2058539999999951
11
4.3433929999999998
21
60.3273319999999984
0
LINE
8
BLACK
6
CONTINUOUS
10
4.3433929999999998
20
60.3273319999999984
11
6.7907379999999993
21
60.4107369999999975
0
LINE
8
BLACK
6
CONTINUOUS
10
6.7907379999999993
20
60.4107369999999975
11
9.2390840000000001
21
60.4560469999999981
0
LINE
8
BLACK
6
CONTINUOUS
10
9.2390840000000001
20
60.4560469999999981
11
11.6878399999999996
21
60.4632519999999971
0
LINE
8
BLACK
6
CONTINUOUS
10
11.6878399999999996
20
60.4632519999999971
11
14.1364099999999997
21
60.432348999999995
0
LINE
8
BLACK
6
CONTINUOUS
10
8.023987
20
59.9429829999999981
11
5.5837709999999996
21
59.8788259999999966
0
LINE
8
BLACK
6
CONTINUOUS
10
5.5837709999999996
20
59.8788259999999966
11
3.1448499999999999
21
59.7767039999999952
0
LINE
8
BLACK
6
CONTINUOUS
10
3.1448499999999999
20
59.7767039999999952
11
0.7078129999999999
21
59.6366399999999999
0
LINE
8
BLACK
6
CONTINUOUS
10
0.7078129999999999
20
59.6366399999999999
11
-1.72675
21
59.4586699999999979
0
LINE
8
BLACK
6
CONTINUOUS
10
-1.72675
20
59.4586699999999979
11
-4.1582479999999995
21
59.2428359999999969
0
LINE
8
BLACK
6
CONTINUOUS
10
-4.1582479999999995
20
59.2428359999999969
11
-6.586093
21
58.9891909999999982
0
LINE
8
BLACK
6
CONTINUOUS
10
-6.586093
20
58.9891909999999982
11
-9.0096969999999992
21
58.6977949999999993
0
LINE
8
BLACK
6
CONTINUOUS
10
-9.0096969999999992
20
58.6977949999999993
11
-11.4284730000000003
21
58.3687199999999962
0
LINE
8
BLACK
6
CONTINUOUS
10
-11.4284730000000003
20
58.3687199999999962
11
-13.8418349999999997
21
58.0020449999999954
0
LINE
8
BLACK
6
CONTINUOUS
10
-13.8418349999999997
20
58.0020449999999954
11
-16.2491990000000008
21
57.5978589999999997
0
LINE
8
BLACK
6
CONTINUOUS
10
-16.2491990000000008
20
57.5978589999999997
11
-18.6499819999999978
21
57.1562599999999961
0
LINE
8
BLACK
6
CONTINUOUS
10
-18.6499819999999978
20
57.1562599999999961
11
-21.0436019999999999
21
56.677353999999994
0
LINE
8
BLACK
6
CONTINUOUS
10
-21.0436019999999999
20
56.677353999999994
11
-23.4294790000000006
21
56.1612579999999966
0
LINE
8
BLACK
6
CONTINUOUS
10
-23.4294790000000006
20
56.1612579999999966
11
-25.8070369999999976
21
55.6080970000000008
0
LINE
8
BLACK
6
CONTINUOUS
10
-25.8070369999999976
20
55.6080970000000008
11
-28.1756989999999981
21
55.0180039999999977
0
LINE
8
BLACK
6
CONTINUOUS
10
-28.1756989999999981
20
55.0180039999999977
11
-29.3552959999999992
21
54.7045689999999993
0
LINE
8
BLACK
6
CONTINUOUS
10
-29.3552959999999992
20
54.7045689999999993
11
-29.4233459999999987
21
54.6863959999999949
0
LINE
8
BLACK
6
CONTINUOUS
10
-29.4233459999999987
20
54.6863959999999949
11
-29.5503729999999969
21
54.6255019999999973
0
LINE
8
BLACK
6
CONTINUOUS
10
-29.5503729999999969
20
54.6255019999999973
11
-29.6638389999999994
21
54.5420200000000008
0
LINE
8
BLACK
6
CONTINUOUS
10
-29.6638389999999994
20
54.5420200000000008
11
-29.7597769999999997
21
54.4388709999999989
0
LINE
8
BLACK
6
CONTINUOUS
10
-29.7597769999999997
20
54.4388709999999989
11
-29.8348300000000002
21
54.3196609999999964
0
LINE
8
BLACK
6
CONTINUOUS
10
-29.8348300000000002
20
54.3196609999999964
11
-29.886372999999999
21
54.188561
0
LINE
8
BLACK
6
CONTINUOUS
10
-29.886372999999999
20
54.188561
11
-29.9126029999999972
21
54.0501559999999941
0
LINE
8
BLACK
6
CONTINUOUS
10
-29.9126029999999972
20
54.0501559999999941
11
-29.9126909999999988
21
53.9797219999999953
0
LINE
8
BLACK
6
CONTINUOUS
10
-29.9126909999999988
20
53.9797219999999953
11
-29.9126909999999988
21
7.3847629999999995
0
LINE
8
BLACK
6
CONTINUOUS
10
-29.9126909999999988
20
7.3847629999999995
11
-29.9264279999999978
21
7.1999489999999993
0
LINE
8
BLACK
6
CONTINUOUS
10
-29.9264279999999978
20
7.1999489999999993
11
-29.9673400000000001
21
7.0191969999999992
0
LINE
8
BLACK
6
CONTINUOUS
10
-29.9673400000000001
20
7.0191969999999992
11
-30.0345269999999971
21
6.8464799999999997
0
LINE
8
BLACK
6
CONTINUOUS
10
-30.0345269999999971
20
6.8464799999999997
11
-30.1265109999999972
21
6.6855959999999994
0
LINE
8
BLACK
6
CONTINUOUS
10
-30.1265109999999972
20
6.6855959999999994
11
-30.2412719999999986
21
6.5400789999999995
0
LINE
8
BLACK
6
CONTINUOUS
10
-30.2412719999999986
20
6.5400789999999995
11
-30.3762860000000003
21
6.4131299999999998
0
LINE
8
BLACK
6
CONTINUOUS
10
-30.3762860000000003
20
6.4131299999999998
11
-30.5285859999999971
21
6.3075380000000001
0
LINE
8
BLACK
6
CONTINUOUS
10
-30.5285859999999971
20
6.3075380000000001
11
-30.694823999999997
21
6.2256239999999998
0
LINE
8
BLACK
6
CONTINUOUS
10
-30.694823999999997
20
6.2256239999999998
11
-30.6948289999999986
21
6.2256219999999995
0
LINE
8
BLACK
6
CONTINUOUS
10
-30.6948289999999986
20
6.2256219999999995
11
-31.6364059999999974
21
5.8455719999999998
0
LINE
8
BLACK
6
CONTINUOUS
10
-31.6364059999999974
20
5.8455719999999998
11
-33.5053769999999957
21
5.0512030000000001
0
LINE
8
BLACK
6
CONTINUOUS
10
-33.5053769999999957
20
5.0512030000000001
11
-35.3595289999999949
21
4.2228370000000002
0
LINE
8
BLACK
6
CONTINUOUS
10
-35.3595289999999949
20
4.2228370000000002
11
-37.1982459999999975
21
3.3607499999999999
0
LINE
8
BLACK
6
CONTINUOUS
10
-37.1982459999999975
20
3.3607499999999999
11
-39.0209130000000002
21
2.46523
0
LINE
8
BLACK
6
CONTINUOUS
10
-39.0209130000000002
20
2.46523
11
-40.8269239999999982
21
1.5365759999999999
0
LINE
8
BLACK
6
CONTINUOUS
10
-40.8269239999999982
20
1.5365759999999999
11
-42.615674999999996
21
0.575098
0
LINE
8
BLACK
6
CONTINUOUS
10
-42.615674999999996
20
0.575098
11
-44.386569999999999
21
-0.418885
0
LINE
8
BLACK
6
CONTINUOUS
10
-44.386569999999999
20
-0.418885
11
-46.139019999999995
21
-1.4450399999999999
0
LINE
8
BLACK
6
CONTINUOUS
10
-46.139019999999995
20
-1.4450399999999999
11
-47.8724379999999954
21
-2.5030250000000001
0
LINE
8
BLACK
6
CONTINUOUS
10
-47.8724379999999954
20
-2.5030250000000001
11
-49.5862470000000002
21
-3.5924879999999999
0
LINE
8
BLACK
6
CONTINUOUS
10
-49.5862470000000002
20
-3.5924879999999999
11
-51.2798759999999945
21
-4.7130649999999994
0
LINE
8
BLACK
6
CONTINUOUS
10
-51.2798759999999945
20
-4.7130649999999994
11
-52.9527599999999978
21
-5.8643830000000001
0
LINE
8
BLACK
6
CONTINUOUS
10
-52.9527599999999978
20
-5.8643830000000001
11
-54.6043400000000005
21
-7.0460569999999993
0
LINE
8
BLACK
6
CONTINUOUS
10
-54.6043400000000005
20
-7.0460569999999993
11
-56.234066999999996
21
-8.257693999999999
0
LINE
8
BLACK
6
CONTINUOUS
10
-56.234066999999996
20
-8.257693999999999
11
-57.841395999999996
21
-9.4988879999999991
0
LINE
8
BLACK
6
CONTINUOUS
10
-57.841395999999996
20
-9.4988879999999991
11
-59.4257919999999942
21
-10.769228
0
LINE
8
BLACK
6
CONTINUOUS
10
-59.4257919999999942
20
-10.769228
11
-60.9867259999999973
21
-12.068287999999999
0
LINE
8
BLACK
6
CONTINUOUS
10
-60.9867259999999973
20
-12.068287999999999
11
-62.5236779999999968
21
-13.3956349999999986
0
LINE
8
BLACK
6
CONTINUOUS
10
-62.5236779999999968
20
-13.3956349999999986
11
-64.0361350000000016
21
-14.7508279999999985
0
LINE
8
BLACK
6
CONTINUOUS
10
-64.0361350000000016
20
-14.7508279999999985
11
-65.5235919999999936
21
-16.1334130000000009
0
LINE
8
BLACK
6
CONTINUOUS
10
-65.5235919999999936
20
-16.1334130000000009
11
-66.9855539999999934
21
-17.5429309999999994
0
LINE
8
BLACK
6
CONTINUOUS
10
-66.9855539999999934
20
-17.5429309999999994
11
-67.7035429999999963
21
-18.2609209999999997
0
LINE
8
BLACK
6
CONTINUOUS
10
-67.7035429999999963
20
-18.2609209999999997
11
-74.4387349999999941
21
-24.9961129999999976
0
LINE
8
BLACK
6
CONTINUOUS
10
-74.4387349999999941
20
-24.9961129999999976
11
-74.4387380000000007
21
-24.9961149999999996
0
LINE
8
BLACK
6
CONTINUOUS
10
-74.4387380000000007
20
-24.9961149999999996
11
-74.4909679999999952
21
-25.0483449999999976
0
LINE
8
BLACK
6
CONTINUOUS
10
-74.4909679999999952
20
-25.0483449999999976
11
-74.5730470000000025
21
-25.1711840000000002
0
LINE
8
BLACK
6
CONTINUOUS
10
-74.5730470000000025
20
-25.1711840000000002
11
-74.6295829999999967
21
-25.3076749999999997
0
LINE
8
BLACK
6
CONTINUOUS
10
-74.6295829999999967
20
-25.3076749999999997
11
-74.6584050000000019
21
-25.4525739999999985
0
LINE
8
BLACK
6
CONTINUOUS
10
-74.6584050000000019
20
-25.4525739999999985
11
-74.6584050000000019
21
-25.6003109999999978
0
LINE
8
BLACK
6
CONTINUOUS
10
-74.6584050000000019
20
-25.6003109999999978
11
-74.6295829999999967
21
-25.7452089999999991
0
LINE
8
BLACK
6
CONTINUOUS
10
-74.6295829999999967
20
-25.7452089999999991
11
-74.5730459999999908
21
-25.8816999999999986
0
LINE
8
BLACK
6
CONTINUOUS
10
-74.5730459999999908
20
-25.8816999999999986
11
-74.4909679999999952
21
-26.0045389999999976
0
LINE
8
BLACK
6
CONTINUOUS
10
-74.4909679999999952
20
-26.0045389999999976
11
-74.4387349999999941
21
-26.0567719999999987
0
LINE
8
BLACK
6
CONTINUOUS
10
-74.4387349999999941
20
-26.0567719999999987
11
-47.4979669999999956
21
-52.9975409999999982
0
LINE
8
BLACK
6
CONTINUOUS
10
-47.4979669999999956
20
-52.9975409999999982
11
-47.4457339999999945
21
-53.0497739999999993
0
LINE
8
BLACK
6
CONTINUOUS
10
-47.4457339999999945
20
-53.0497739999999993
11
-47.3228949999999955
21
-53.131851999999995
0
LINE
8
BLACK
6
CONTINUOUS
10
-47.3228949999999955
20
-53.131851999999995
11
-47.186403999999996
21
-53.1883890000000008
0
LINE
8
BLACK
6
CONTINUOUS
10
-47.186403999999996
20
-53.1883890000000008
11
-47.0415059999999983
21
-53.2172109999999989
0
LINE
8
BLACK
6
CONTINUOUS
10
-47.0415059999999983
20
-53.2172109999999989
11
-46.8937679999999943
21
-53.2172109999999989
0
LINE
8
BLACK
6
CONTINUOUS
10
-46.8937679999999943
20
-53.2172109999999989
11
-46.7488699999999966
21
-53.1883890000000008
0
LINE
8
BLACK
6
CONTINUOUS
10
-46.7488699999999966
20
-53.1883890000000008
11
-46.6123789999999971
21
-53.131851999999995
0
LINE
8
BLACK
6
CONTINUOUS
10
-46.6123789999999971
20
-53.131851999999995
11
-46.4895399999999981
21
-53.0497739999999993
0
LINE
8
BLACK
6
CONTINUOUS
10
-46.4895399999999981
20
-53.0497739999999993
11
-46.437306999999997
21
-52.9975409999999982
0
LINE
8
BLACK
6
CONTINUOUS
10
-46.437306999999997
20
-52.9975409999999982
11
-39.7021149999999992
21
-46.2623490000000004
0
LINE
8
BLACK
6
CONTINUOUS
10
-39.7021149999999992
20
-46.2623490000000004
11
-39.7021079999999955
21
-46.2623439999999988
0
LINE
8
BLACK
6
CONTINUOUS
10
-39.7021079999999955
20
-46.2623439999999988
11
-38.5191939999999988
21
-45.1064450000000008
0
LINE
8
BLACK
6
CONTINUOUS
10
-38.5191939999999988
20
-45.1064450000000008
11
-37.3098910000000004
21
-43.9781709999999961
0
LINE
8
BLACK
6
CONTINUOUS
10
-37.3098910000000004
20
-43.9781709999999961
11
-36.0748499999999979
21
-42.8781309999999962
0
LINE
8
BLACK
6
CONTINUOUS
10
-36.0748499999999979
20
-42.8781309999999962
11
-34.8147299999999973
21
-41.8069109999999995
0
LINE
8
BLACK
6
CONTINUOUS
10
-34.8147299999999973
20
-41.8069109999999995
11
-33.5302030000000002
21
-40.7650829999999971
0
LINE
8
BLACK
6
CONTINUOUS
10
-33.5302030000000002
20
-40.7650829999999971
11
-32.2219550000000012
21
-39.7532020000000017
0
LINE
8
BLACK
6
CONTINUOUS
10
-32.2219550000000012
20
-39.7532020000000017
11
-30.8906829999999992
21
-38.771809999999995
0
LINE
8
BLACK
6
CONTINUOUS
10
-30.8906829999999992
20
-38.771809999999995
11
-29.5370989999999978
21
-37.8214279999999974
0
LINE
8
BLACK
6
CONTINUOUS
10
-29.5370989999999978
20
-37.8214279999999974
11
-28.1619239999999991
21
-36.9025660000000002
0
LINE
8
BLACK
6
CONTINUOUS
10
-28.1619239999999991
20
-36.9025660000000002
11
-26.7658919999999974
21
-36.0157120000000006
0
LINE
8
BLACK
6
CONTINUOUS
10
-26.7658919999999974
20
-36.0157120000000006
11
-25.3497469999999971
21
-35.1613399999999956
0
LINE
8
BLACK
6
CONTINUOUS
10
-25.3497469999999971
20
-35.1613399999999956
11
-23.9142469999999996
21
-34.3399059999999992
0
LINE
8
BLACK
6
CONTINUOUS
10
-23.9142469999999996
20
-34.3399059999999992
11
-22.4601559999999978
21
-33.5518479999999997
0
LINE
8
BLACK
6
CONTINUOUS
10
-22.4601559999999978
20
-33.5518479999999997
11
-20.9882509999999982
21
-32.797587
0
LINE
8
BLACK
6
CONTINUOUS
10
-20.9882509999999982
20
-32.797587
11
-19.4993160000000003
21
-32.0775250000000014
0
LINE
8
BLACK
6
CONTINUOUS
10
-19.4993160000000003
20
-32.0775250000000014
11
-17.9941469999999981
21
-31.392045999999997
0
LINE
8
BLACK
6
CONTINUOUS
10
-17.9941469999999981
20
-31.392045999999997
11
-16.4735459999999989
21
-30.7415169999999982
0
LINE
8
BLACK
6
CONTINUOUS
10
-16.4735459999999989
20
-30.7415169999999982
11
-14.938324999999999
21
-30.1262839999999983
0
LINE
8
BLACK
6
CONTINUOUS
10
-14.938324999999999
20
-30.1262839999999983
11
-13.389303
21
-29.5466749999999969
0
LINE
8
BLACK
6
CONTINUOUS
10
-13.389303
20
-29.5466749999999969
11
-11.8273069999999993
21
-29.0030000000000001
0
LINE
8
BLACK
6
CONTINUOUS
10
-11.8273069999999993
20
-29.0030000000000001
11
-10.2531689999999998
21
-28.4955490000000005
0
LINE
8
BLACK
6
CONTINUOUS
10
-10.2531689999999998
20
-28.4955490000000005
11
-8.6677309999999999
21
-28.0245919999999984
0
LINE
8
BLACK
6
CONTINUOUS
10
-8.6677309999999999
20
-28.0245919999999984
11
-7.0718369999999995
21
-27.5903819999999982
0
LINE
8
BLACK
6
CONTINUOUS
10
-7.0718369999999995
20
-27.5903819999999982
11
-5.4663399999999998
21
-27.1931489999999982
0
LINE
8
BLACK
6
CONTINUOUS
10
-5.4663399999999998
20
-27.1931489999999982
11
-3.852096
21
-26.8331049999999998
0
LINE
8
BLACK
6
CONTINUOUS
10
-3.852096
20
-26.8331049999999998
11
-2.2299660000000001
21
-26.5104439999999997
0
LINE
8
BLACK
6
CONTINUOUS
10
-2.2299660000000001
20
-26.5104439999999997
11
-0.600816
21
-26.2253359999999986
0
LINE
8
BLACK
6
CONTINUOUS
10
-0.600816
20
-26.2253359999999986
11
1.034484
21
-25.9779339999999976
0
LINE
8
BLACK
6
CONTINUOUS
10
1.034484
20
-25.9779339999999976
11
2.6750629999999997
21
-25.7683699999999973
0
LINE
8
BLACK
6
CONTINUOUS
10
2.6750629999999997
20
-25.7683699999999973
11
4.3200440000000002
21
-25.5967559999999992
0
LINE
8
BLACK
6
CONTINUOUS
10
4.3200440000000002
20
-25.5967559999999992
11
5.9685509999999997
21
-25.4631829999999972
0
LINE
8
BLACK
6
CONTINUOUS
10
5.9685509999999997
20
-25.4631829999999972
11
7.6197029999999994
21
-25.3677239999999991
0
LINE
8
BLACK
6
CONTINUOUS
10
7.6197029999999994
20
-25.3677239999999991
11
9.2726189999999988
21
-25.3104269999999971
0
LINE
8
BLACK
6
CONTINUOUS
10
9.2726189999999988
20
-25.3104269999999971
11
10.9264119999999991
21
-25.2913250000000005
0
LINE
8
BLACK
6
CONTINUOUS
10
10.9264119999999991
20
-25.2913250000000005
11
10.926418
21
-25.2913239999999995
0
LINE
8
BLACK
6
CONTINUOUS
10
10.926418
20
-25.2913239999999995
11
39.5014139999999969
21
-25.2913239999999995
0
LINE
8
BLACK
6
CONTINUOUS
10
39.5014139999999969
20
-25.2913239999999995
11
39.5014139999999969
21
-25.2913180000000004
0
LINE
8
BLACK
6
CONTINUOUS
10
39.5014139999999969
20
-25.2913180000000004
11
39.5752820000000014
21
-25.2913169999999994
0
LINE
8
BLACK
6
CONTINUOUS
10
39.5752820000000014
20
-25.2913169999999994
11
39.7201790000000017
21
-25.2624929999999992
0
LINE
8
BLACK
6
CONTINUOUS
10
39.7201790000000017
20
-25.2624929999999992
11
39.8566700000000012
21
-25.2059560000000005
0
LINE
8
BLACK
6
CONTINUOUS
10
39.8566700000000012
20
-25.2059560000000005
11
39.9795079999999956
21
-25.1238770000000002
0
LINE
8
BLACK
6
CONTINUOUS
10
39.9795079999999956
20
-25.1238770000000002
11
40.0839739999999978
21
-25.0194119999999991
0
LINE
8
BLACK
6
CONTINUOUS
10
40.0839739999999978
20
-25.0194119999999991
11
40.166052999999998
21
-24.8965739999999975
0
LINE
8
BLACK
6
CONTINUOUS
10
40.166052999999998
20
-24.8965739999999975
11
40.2225919999999988
21
-24.7600839999999991
0
LINE
8
BLACK
6
CONTINUOUS
10
40.2225919999999988
20
-24.7600839999999991
11
40.251415999999999
21
-24.6151859999999978
0
LINE
8
BLACK
6
CONTINUOUS
10
40.251415999999999
20
-24.6151859999999978
11
40.251418000000001
21
-24.5413180000000004
0
LINE
8
BLACK
6
CONTINUOUS
10
40.251418000000001
20
-24.5413180000000004
11
40.251418000000001
21
-18.9714959999999984
0
LINE
8
BLACK
6
CONTINUOUS
10
40.251418000000001
20
-18.9714959999999984
11
40.251418000000001
21
-18.9714950000000009
0
LINE
8
BLACK
6
CONTINUOUS
10
40.251418000000001
20
-18.9714950000000009
11
40.2668079999999975
21
-18.7759529999999977
0
LINE
8
BLACK
6
CONTINUOUS
10
40.2668079999999975
20
-18.7759529999999977
11
40.3125989999999987
21
-18.5852259999999987
0
LINE
8
BLACK
6
CONTINUOUS
10
40.3125989999999987
20
-18.5852259999999987
11
40.3876629999999963
21
-18.4040110000000006
0
LINE
8
BLACK
6
CONTINUOUS
10
40.3876629999999963
20
-18.4040110000000006
11
40.4901499999999999
21
-18.2367689999999989
0
LINE
8
BLACK
6
CONTINUOUS
10
40.4901499999999999
20
-18.2367689999999989
11
40.6175390000000007
21
-18.0876199999999976
0
LINE
8
BLACK
6
CONTINUOUS
10
40.6175390000000007
20
-18.0876199999999976
11
40.766691999999999
21
-17.9602339999999998
0
LINE
8
BLACK
6
CONTINUOUS
10
40.766691999999999
20
-17.9602339999999998
11
40.9339349999999982
21
-17.8577499999999993
0
LINE
8
BLACK
6
CONTINUOUS
10
40.9339349999999982
20
-17.8577499999999993
11
41.1151519999999948
21
-17.7826909999999998
0
LINE
8
BLACK
6
CONTINUOUS
10
41.1151519999999948
20
-17.7826909999999998
11
41.3058799999999948
21
-17.7369039999999991
0
LINE
8
BLACK
6
CONTINUOUS
10
41.3058799999999948
20
-17.7369039999999991
11
41.5012319999999946
21
-17.7215319999999998
0
LINE
8
BLACK
6
CONTINUOUS
10
41.5012319999999946
20
-17.7215319999999998
11
41.501418000000001
21
-17.7214959999999984
0
LINE
8
BLACK
6
CONTINUOUS
10
41.501418000000001
20
-17.7214959999999984
11
84.8873090000000019
21
-17.7214959999999984
0
LINE
8
BLACK
6
CONTINUOUS
10
84.8873090000000019
20
-17.7214959999999984
11
84.8873739999999941
21
-17.721508
0
LINE
8
BLACK
6
CONTINUOUS
10
84.8873739999999941
20
-17.721508
11
84.9611759999999947
21
-17.721508
0
LINE
8
BLACK
6
CONTINUOUS
10
84.9611759999999947
20
-17.721508
11
85.1060749999999899
21
-17.6926850000000009
0
LINE
8
BLACK
6
CONTINUOUS
10
85.1060749999999899
20
-17.6926850000000009
11
85.242566999999994
21
-17.6361469999999976
0
LINE
8
BLACK
6
CONTINUOUS
10
85.242566999999994
20
-17.6361469999999976
11
85.3654069999999905
21
-17.5540669999999999
0
LINE
8
BLACK
6
CONTINUOUS
10
85.3654069999999905
20
-17.5540669999999999
11
85.4698729999999927
21
-17.4495989999999992
0
LINE
8
BLACK
6
CONTINUOUS
10
85.4698729999999927
20
-17.4495989999999992
11
85.5519510000000025
21
-17.3267589999999991
0
LINE
8
BLACK
6
CONTINUOUS
10
85.5519510000000025
20
-17.3267589999999991
11
85.6084879999999941
21
-17.1902659999999976
0
LINE
8
BLACK
6
CONTINUOUS
10
85.6084879999999941
20
-17.1902659999999976
11
85.6373090000000019
21
-17.0453659999999978
0
LINE
8
BLACK
6
CONTINUOUS
10
85.6373090000000019
20
-17.0453659999999978
11
85.6373090000000019
21
-16.9714969999999994
0
LINE
8
BLACK
6
CONTINUOUS
10
85.6373090000000019
20
-16.9714969999999994
11
85.6373090000000019
21
-16.9714950000000009
0
LINE
8
BLACK
6
CONTINUOUS
10
85.6373090000000019
20
-16.9714950000000009
11
85.6373090000000019
21
40.5822379999999967
0
LINE
8
BLACK
6
CONTINUOUS
10
85.6373090000000019
20
40.5822379999999967
11
85.6372969999999896
21
40.5822379999999967
0
LINE
8
BLACK
6
CONTINUOUS
10
85.6372969999999896
20
40.5822379999999967
11
85.6372939999999971
21
40.6497460000000004
0
LINE
8
BLACK
6
CONTINUOUS
10
85.6372939999999971
20
40.6497460000000004
11
85.6131799999999998
21
40.7825920000000011
0
LINE
8
BLACK
6
CONTINUOUS
10
85.6131799999999998
20
40.7825920000000011
11
85.5657329999999945
21
40.9089969999999994
0
LINE
8
BLACK
6
CONTINUOUS
10
85.5657329999999945
20
40.9089969999999994
11
85.4964789999999937
21
41.0248989999999978
0
LINE
8
BLACK
6
CONTINUOUS
10
85.4964789999999937
20
41.0248989999999978
11
85.4076439999999906
21
41.1265730000000005
0
LINE
8
BLACK
6
CONTINUOUS
10
85.4076439999999906
20
41.1265730000000005
11
85.3020819999999986
21
41.2107509999999948
0
LINE
8
BLACK
6
CONTINUOUS
10
85.3020819999999986
20
41.2107509999999948
11
85.2426499999999976
21
41.2427300000000017
0
LINE
8
BLACK
6
CONTINUOUS
10
85.2426499999999976
20
41.2427300000000017
11
85.2426490000000001
21
41.2427309999999991
0
LINE
8
BLACK
6
CONTINUOUS
10
85.2426490000000001
20
41.2427309999999991
11
85.2426329999999979
21
41.2427399999999977
0
LINE
8
BLACK
6
CONTINUOUS
10
85.2426329999999979
20
41.2427399999999977
11
85.2426179999999931
21
41.2427509999999984
0
LINE
8
BLACK
6
CONTINUOUS
10
85.2426179999999931
20
41.2427509999999984
11
84.3029429999999991
21
41.7482959999999963
0
LINE
8
BLACK
6
CONTINUOUS
10
84.3029429999999991
20
41.7482959999999963
11
82.409948
21
42.7337619999999987
0
LINE
8
BLACK
6
CONTINUOUS
10
82.409948
20
42.7337619999999987
11
80.5037209999999988
21
43.6933819999999997
0
LINE
8
BLACK
6
CONTINUOUS
10
80.5037209999999988
20
43.6933819999999997
11
78.584614000000002
21
44.6269780000000011
0
LINE
8
BLACK
6
CONTINUOUS
10
78.584614000000002
20
44.6269780000000011
11
76.6529829999999919
21
45.5343790000000013
0
LINE
8
BLACK
6
CONTINUOUS
10
76.6529829999999919
20
45.5343790000000013
11
74.7091849999999909
21
46.4154149999999959
0
LINE
8
BLACK
6
CONTINUOUS
10
74.7091849999999909
20
46.4154149999999959
11
72.7535809999999969
21
47.2699229999999986
0
LINE
8
BLACK
6
CONTINUOUS
10
72.7535809999999969
20
47.2699229999999986
11
70.786531999999994
21
48.0977460000000008
0
LINE
8
BLACK
6
CONTINUOUS
10
70.786531999999994
20
48.0977460000000008
11
68.808402000000001
21
48.8987309999999979
0
LINE
8
BLACK
6
CONTINUOUS
10
68.808402000000001
20
48.8987309999999979
11
67.8139809999999983
21
49.2857319999999959
0
LINE
8
BLACK
6
CONTINUOUS
10
67.8139809999999983
20
49.2857319999999959
11
67.8139800000000008
21
49.2857319999999959
0
LINE
8
BLACK
6
CONTINUOUS
10
67.8139800000000008
20
49.2857319999999959
11
67.2309690000000018
21
49.5126209999999958
0
LINE
8
BLACK
6
CONTINUOUS
10
67.2309690000000018
20
49.5126209999999958
11
66.061364999999995
21
49.9570869999999942
0
LINE
8
BLACK
6
CONTINUOUS
10
66.061364999999995
20
49.9570869999999942
11
64.8882519999999943
21
50.3922090000000011
0
LINE
8
BLACK
6
CONTINUOUS
10
64.8882519999999943
20
50.3922090000000011
11
64.2999789999999933
21
50.6050849999999954
0
LINE
8
BLACK
6
CONTINUOUS
10
64.2999789999999933
20
50.6050849999999954
11
63.1522799999999975
21
51.0203909999999965
0
LINE
8
BLACK
6
CONTINUOUS
10
63.1522799999999975
20
51.0203909999999965
11
60.8442379999999972
21
51.8151919999999961
0
LINE
8
BLACK
6
CONTINUOUS
10
60.8442379999999972
20
51.8151919999999961
11
58.5241070000000008
21
52.5739809999999963
0
LINE
8
BLACK
6
CONTINUOUS
10
58.5241070000000008
20
52.5739809999999963
11
56.1924489999999963
21
53.2965729999999951
0
LINE
8
BLACK
6
CONTINUOUS
10
56.1924489999999963
20
53.2965729999999951
11
53.8498289999999997
21
53.9827939999999984
0
LINE
8
BLACK
6
CONTINUOUS
10
53.8498289999999997
20
53.9827939999999984
11
51.4968140000000005
21
54.6324769999999944
0
LINE
8
BLACK
6
CONTINUOUS
10
51.4968140000000005
20
54.6324769999999944
11
49.1339739999999949
21
55.2454639999999984
0
LINE
8
BLACK
6
CONTINUOUS
10
49.1339739999999949
20
55.2454639999999984
11
46.7618809999999954
21
55.8216089999999951
0
LINE
8
BLACK
6
CONTINUOUS
10
46.7618809999999954
20
55.8216089999999951
11
44.3811099999999996
21
56.3607699999999952
0
LINE
8
BLACK
6
CONTINUOUS
10
44.3811099999999996
20
56.3607699999999952
11
41.9922359999999983
21
56.8628179999999972
0
LINE
8
BLACK
6
CONTINUOUS
10
41.9922359999999983
20
56.8628179999999972
11
39.5958399999999955
21
57.3276299999999992
0
LINE
8
BLACK
6
CONTINUOUS
10
39.5958399999999955
20
57.3276299999999992
11
37.1924999999999955
21
57.7550949999999972
0
LINE
8
BLACK
6
CONTINUOUS
10
37.1924999999999955
20
57.7550949999999972
11
34.7828000000000017
21
58.1451080000000005
0
LINE
8
BLACK
6
CONTINUOUS
10
34.7828000000000017
20
58.1451080000000005
11
32.3673220000000015
21
58.4975759999999951
0
LINE
8
BLACK
6
CONTINUOUS
10
32.3673220000000015
20
58.4975759999999951
11
29.9466509999999992
21
58.8124129999999994
0
LINE
8
BLACK
6
CONTINUOUS
10
29.9466509999999992
20
58.8124129999999994
11
27.521373999999998
21
59.0895419999999945
0
LINE
8
BLACK
6
CONTINUOUS
10
27.521373999999998
20
59.0895419999999945
11
25.0920789999999982
21
59.3288969999999978
0
LINE
8
BLACK
6
CONTINUOUS
10
25.0920789999999982
20
59.3288969999999978
11
22.6593529999999994
21
59.5304189999999949
0
LINE
8
BLACK
6
CONTINUOUS
10
22.6593529999999994
20
59.5304189999999949
11
20.2237849999999995
21
59.6940600000000003
0
LINE
8
BLACK
6
CONTINUOUS
10
20.2237849999999995
20
59.6940600000000003
11
17.7859659999999984
21
59.819780999999999
0
LINE
8
BLACK
6
CONTINUOUS
10
17.7859659999999984
20
59.819780999999999
11
15.3464859999999987
21
59.9075500000000005
0
LINE
8
BLACK
6
CONTINUOUS
10
15.3464859999999987
20
59.9075500000000005
11
12.9059349999999995
21
59.957345999999994
0
LINE
8
BLACK
6
CONTINUOUS
10
12.9059349999999995
20
59.957345999999994
11
10.4649049999999999
21
59.9691580000000002
0
LINE
8
BLACK
6
CONTINUOUS
10
10.4649049999999999
20
59.9691580000000002
11
8.023987
21
59.9429829999999981
  0
ENDSEC
  0
EOF
