  0
SECTION
  2
HEADER
  9
$ANGBASE
  50
0.0
  9
$ANGDIR
  70
1
  9
$MEASUREMENT
  70
1
  0
ENDSEC
  0
SECTION
  2
TABLES
  0
TABLE
  2
LTYPE
  70
4
  0
LTYPE
  5
40F
  2
CONTINUOUS
  70
0
  3
Solid line
  72
65
  73
0
  40
0.0
  0
LTYPE
  5
410
  2
DASHDOT
 70
0
  3
Dash Dot ____ _ ____ _
 72
65
 73
4
 40
2.0
 49
1.25
 49
-0.25
 49
0.25
 49
-0.25
  0
LTYPE
  5
411
  2
DASHED
 70
0
  3
Dashed __ __ __ __ __
 72
65
 73
2
 40
0.75
 49
0.5
 49
-0.25
  0
LTYPE
  5
43B
  2
DOTTED
 70
0
  3
Dotted .  .  .  .
 72
65
 73
2
 40
0.2
 49
0.0
 49
-0.2
  0
ENDTAB
  0
TABLE
  2
STYLE
  70
4
  0
STYLE
  2
KICAD
  70
0
  40
0
  41
1
  42
1
  50
0
  71
0
  3
isocp.shx
  0
STYLE
  2
KICADB
  70
0
  40
0
  41
1
  42
1
  50
0
  71
0
  3
isocp.shx
  0
STYLE
  2
KICADI
  70
0
  40
0
  41
1
  42
1
  50
15
  71
0
  3
isocp.shx
  0
STYLE
  2
KICADBI
  70
0
  40
0
  41
1
  42
1
  50
15
  71
0
  3
isocp.shx
  0
ENDTAB
  0
TABLE
  2
LAYER
  70
1
  0
LAYER
  2
BLACK
  70
0
  62
7
  6
CONTINUOUS
  0
ENDTAB
  0
ENDSEC
  0
SECTION
  2
ENTITIES
0
LINE
8
BLACK
6
CONTINUOUS
10
14.1644600000000001
20
61.8070629999999994
11
16.6336429999999993
21
61.7374579999999966
0
LINE
8
BLACK
6
CONTINUOUS
10
16.6336429999999993
20
61.7374579999999966
11
19.1014429999999997
21
61.6294380000000004
0
LINE
8
BLACK
6
CONTINUOUS
10
19.1014429999999997
20
61.6294380000000004
11
21.567263999999998
21
61.4830269999999999
0
LINE
8
BLACK
6
CONTINUOUS
10
21.567263999999998
20
61.4830269999999999
11
24.0305079999999975
21
61.2982629999999986
0
LINE
8
BLACK
6
CONTINUOUS
10
24.0305079999999975
20
61.2982629999999986
11
26.4905779999999993
21
61.0751889999999946
0
LINE
8
BLACK
6
CONTINUOUS
10
26.4905779999999993
20
61.0751889999999946
11
28.9468789999999991
21
60.8138599999999983
0
LINE
8
BLACK
6
CONTINUOUS
10
28.9468789999999991
20
60.8138599999999983
11
31.3988160000000001
21
60.5143389999999997
0
LINE
8
BLACK
6
CONTINUOUS
10
31.3988160000000001
20
60.5143389999999997
11
33.8457949999999954
21
60.1766989999999993
0
LINE
8
BLACK
6
CONTINUOUS
10
33.8457949999999954
20
60.1766989999999993
11
36.2872239999999948
21
59.8010209999999987
0
LINE
8
BLACK
6
CONTINUOUS
10
36.2872239999999948
20
59.8010209999999987
11
38.7225109999999972
21
59.3873959999999954
0
LINE
8
BLACK
6
CONTINUOUS
10
38.7225109999999972
20
59.3873959999999954
11
41.1510660000000001
21
58.935924
0
LINE
8
BLACK
6
CONTINUOUS
10
41.1510660000000001
20
58.935924
11
43.5723020000000005
21
58.4467149999999975
0
LINE
8
BLACK
6
CONTINUOUS
10
43.5723020000000005
20
58.4467149999999975
11
45.9856319999999954
21
57.9198880000000003
0
LINE
8
BLACK
6
CONTINUOUS
10
45.9856319999999954
20
57.9198880000000003
11
48.390470999999998
21
57.3555689999999956
0
LINE
8
BLACK
6
CONTINUOUS
10
48.390470999999998
20
57.3555689999999956
11
50.7862369999999999
21
56.753895
0
LINE
8
BLACK
6
CONTINUOUS
10
50.7862369999999999
20
56.753895
11
53.172350999999999
21
56.1150129999999976
0
LINE
8
BLACK
6
CONTINUOUS
10
53.172350999999999
20
56.1150129999999976
11
55.5482329999999962
21
55.4390769999999975
0
LINE
8
BLACK
6
CONTINUOUS
10
55.5482329999999962
20
55.4390769999999975
11
57.9133099999999956
21
54.7262509999999978
0
LINE
8
BLACK
6
CONTINUOUS
10
57.9133099999999956
20
54.7262509999999978
11
60.2670069999999996
21
53.9767060000000001
0
LINE
8
BLACK
6
CONTINUOUS
10
60.2670069999999996
20
53.9767060000000001
11
62.6087549999999951
21
53.1906259999999946
0
LINE
8
BLACK
6
CONTINUOUS
10
62.6087549999999951
20
53.1906259999999946
11
64.9379879999999901
21
52.3681989999999971
0
LINE
8
BLACK
6
CONTINUOUS
10
64.9379879999999901
20
52.3681989999999971
11
64.9380000000000024
21
52.368192999999998
0
LINE
8
BLACK
6
CONTINUOUS
10
64.9380000000000024
20
52.368192999999998
11
66.1268599999999935
21
51.9326170000000005
0
LINE
8
BLACK
6
CONTINUOUS
10
66.1268599999999935
20
51.9326170000000005
11
67.3122209999999939
21
51.4875660000000011
0
LINE
8
BLACK
6
CONTINUOUS
10
67.3122209999999939
20
51.4875660000000011
11
68.4939940000000007
21
51.0330749999999966
0
LINE
8
BLACK
6
CONTINUOUS
10
68.4939940000000007
20
51.0330749999999966
11
68.4939979999999906
21
51.0330719999999971
0
LINE
8
BLACK
6
CONTINUOUS
10
68.4939979999999906
20
51.0330719999999971
11
70.501189999999994
21
50.2361709999999988
0
LINE
8
BLACK
6
CONTINUOUS
10
70.501189999999994
20
50.2361709999999988
11
72.4973600000000005
21
49.4120319999999964
0
LINE
8
BLACK
6
CONTINUOUS
10
72.4973600000000005
20
49.4120319999999964
11
74.4821319999999929
21
48.5608110000000011
0
LINE
8
BLACK
6
CONTINUOUS
10
74.4821319999999929
20
48.5608110000000011
11
76.4551390000000026
21
47.6826650000000001
0
LINE
8
BLACK
6
CONTINUOUS
10
76.4551390000000026
20
47.6826650000000001
11
78.4160159999999991
21
46.7777579999999986
0
LINE
8
BLACK
6
CONTINUOUS
10
78.4160159999999991
20
46.7777579999999986
11
80.3644000000000034
21
45.8462559999999968
0
LINE
8
BLACK
6
CONTINUOUS
10
80.3644000000000034
20
45.8462559999999968
11
82.2999310000000008
21
44.8883319999999983
0
LINE
8
BLACK
6
CONTINUOUS
10
82.2999310000000008
20
44.8883319999999983
11
84.2222500000000025
21
43.9041640000000015
0
LINE
8
BLACK
6
CONTINUOUS
10
84.2222500000000025
20
43.9041640000000015
11
86.1310009999999977
21
42.893932999999997
0
LINE
8
BLACK
6
CONTINUOUS
10
86.1310009999999977
20
42.893932999999997
11
86.1309990000000028
21
42.8939299999999974
0
LINE
8
BLACK
6
CONTINUOUS
10
86.1309990000000028
20
42.8939299999999974
11
86.1310459999999978
21
42.8938989999999976
0
LINE
8
BLACK
6
CONTINUOUS
10
86.1310459999999978
20
42.8938989999999976
11
86.1311019999999985
21
42.8938750000000013
0
LINE
8
BLACK
6
CONTINUOUS
10
86.1311019999999985
20
42.8938750000000013
11
86.372399999999999
21
42.7467589999999973
0
LINE
8
BLACK
6
CONTINUOUS
10
86.372399999999999
20
42.7467589999999973
11
86.5964850000000013
21
42.5745549999999966
0
LINE
8
BLACK
6
CONTINUOUS
10
86.5964850000000013
20
42.5745549999999966
11
86.8007589999999993
21
42.379259999999995
0
LINE
8
BLACK
6
CONTINUOUS
10
86.8007589999999993
20
42.379259999999995
11
86.9828550000000007
21
42.163136999999999
0
LINE
8
BLACK
6
CONTINUOUS
10
86.9828550000000007
20
42.163136999999999
11
87.1406629999999893
21
41.9286919999999981
0
LINE
8
BLACK
6
CONTINUOUS
10
87.1406629999999893
20
41.9286919999999981
11
87.2723529999999954
21
41.6786400000000015
0
LINE
8
BLACK
6
CONTINUOUS
10
87.2723529999999954
20
41.6786400000000015
11
87.3763989999999922
21
41.4158809999999988
0
LINE
8
BLACK
6
CONTINUOUS
10
87.3763989999999922
20
41.4158809999999988
11
87.4515949999999975
21
41.143459
0
LINE
8
BLACK
6
CONTINUOUS
10
87.4515949999999975
20
41.143459
11
87.4970699999999937
21
40.8645330000000016
0
LINE
8
BLACK
6
CONTINUOUS
10
87.4970699999999937
20
40.8645330000000016
11
87.5122849999999914
21
40.5825549999999993
0
LINE
8
BLACK
6
CONTINUOUS
10
87.5122849999999914
20
40.5825549999999993
11
87.5123019999999912
21
40.5823339999999959
0
LINE
8
BLACK
6
CONTINUOUS
10
87.5123019999999912
20
40.5823339999999959
11
87.5123090000000019
21
40.5823339999999959
0
LINE
8
BLACK
6
CONTINUOUS
10
87.5123090000000019
20
40.5823339999999959
11
87.5123049999999978
21
40.5822909999999979
0
LINE
8
BLACK
6
CONTINUOUS
10
87.5123049999999978
20
40.5822909999999979
11
87.5123090000000019
21
40.5822509999999994
0
LINE
8
BLACK
6
CONTINUOUS
10
87.5123090000000019
20
40.5822509999999994
11
87.5123090000000019
21
-16.9714959999999984
0
LINE
8
BLACK
6
CONTINUOUS
10
87.5123090000000019
20
-16.9714959999999984
11
87.5123069999999927
21
-16.9715099999999985
0
LINE
8
BLACK
6
CONTINUOUS
10
87.5123069999999927
20
-16.9715099999999985
11
87.4958049999999901
21
-17.2653959999999991
0
LINE
8
BLACK
6
CONTINUOUS
10
87.4958049999999901
20
-17.2653959999999991
11
87.4464969999999937
21
-17.5556069999999984
0
LINE
8
BLACK
6
CONTINUOUS
10
87.4464969999999937
20
-17.5556069999999984
11
87.3650069999999914
21
-17.8384730000000005
0
LINE
8
BLACK
6
CONTINUOUS
10
87.3650069999999914
20
-17.8384730000000005
11
87.252358000000001
21
-18.110436
0
LINE
8
BLACK
6
CONTINUOUS
10
87.252358000000001
20
-18.110436
11
87.1099669999999975
21
-18.3680759999999985
0
LINE
8
BLACK
6
CONTINUOUS
10
87.1099669999999975
20
-18.3680759999999985
11
86.9396249999999924
21
-18.608153999999999
0
LINE
8
BLACK
6
CONTINUOUS
10
86.9396249999999924
20
-18.608153999999999
11
86.743473999999992
21
-18.8276499999999984
0
LINE
8
BLACK
6
CONTINUOUS
10
86.743473999999992
20
-18.8276499999999984
11
86.5239799999999946
21
-19.0238030000000009
0
LINE
8
BLACK
6
CONTINUOUS
10
86.5239799999999946
20
-19.0238030000000009
11
86.2839049999999901
21
-19.1941489999999995
0
LINE
8
BLACK
6
CONTINUOUS
10
86.2839049999999901
20
-19.1941489999999995
11
86.02626699999999
21
-19.3365429999999989
0
LINE
8
BLACK
6
CONTINUOUS
10
86.02626699999999
20
-19.3365429999999989
11
85.7543050000000022
21
-19.4491949999999996
0
LINE
8
BLACK
6
CONTINUOUS
10
85.7543050000000022
20
-19.4491949999999996
11
85.4714409999999987
21
-19.5306899999999999
0
LINE
8
BLACK
6
CONTINUOUS
10
85.4714409999999987
20
-19.5306899999999999
11
85.1812299999999993
21
-19.5800009999999993
0
LINE
8
BLACK
6
CONTINUOUS
10
85.1812299999999993
20
-19.5800009999999993
11
84.8873239999999925
21
-19.5965089999999975
0
LINE
8
BLACK
6
CONTINUOUS
10
84.8873239999999925
20
-19.5965089999999975
11
84.8873239999999925
21
-19.5964959999999984
0
LINE
8
BLACK
6
CONTINUOUS
10
84.8873239999999925
20
-19.5964959999999984
11
84.8873159999999984
21
-19.5964950000000009
0
LINE
8
BLACK
6
CONTINUOUS
10
84.8873159999999984
20
-19.5964950000000009
11
84.8873090000000019
21
-19.5964959999999984
0
LINE
8
BLACK
6
CONTINUOUS
10
84.8873090000000019
20
-19.5964959999999984
11
42.126418000000001
21
-19.5964959999999984
0
LINE
8
BLACK
6
CONTINUOUS
10
42.126418000000001
20
-19.5964959999999984
11
42.126418000000001
21
-24.5413239999999995
0
LINE
8
BLACK
6
CONTINUOUS
10
42.126418000000001
20
-24.5413239999999995
11
42.126415999999999
21
-24.5413429999999977
0
LINE
8
BLACK
6
CONTINUOUS
10
42.126415999999999
20
-24.5413429999999977
11
42.126418000000001
21
-24.5413630000000005
0
LINE
8
BLACK
6
CONTINUOUS
10
42.126418000000001
20
-24.5413630000000005
11
42.1099059999999952
21
-24.8352639999999987
0
LINE
8
BLACK
6
CONTINUOUS
10
42.1099059999999952
20
-24.8352639999999987
11
42.0605929999999972
21
-25.1254679999999979
0
LINE
8
BLACK
6
CONTINUOUS
10
42.0605929999999972
20
-25.1254679999999979
11
41.9790980000000005
21
-25.4083259999999989
0
LINE
8
BLACK
6
CONTINUOUS
10
41.9790980000000005
20
-25.4083259999999989
11
41.8664459999999963
21
-25.6802809999999972
0
LINE
8
BLACK
6
CONTINUOUS
10
41.8664459999999963
20
-25.6802809999999972
11
41.7240539999999953
21
-25.9379139999999992
0
LINE
8
BLACK
6
CONTINUOUS
10
41.7240539999999953
20
-25.9379139999999992
11
41.5537119999999973
21
-26.1779839999999986
0
LINE
8
BLACK
6
CONTINUOUS
10
41.5537119999999973
20
-26.1779839999999986
11
41.3575620000000015
21
-26.397473999999999
0
LINE
8
BLACK
6
CONTINUOUS
10
41.3575620000000015
20
-26.397473999999999
11
41.1380720000000011
21
-26.5936219999999999
0
LINE
8
BLACK
6
CONTINUOUS
10
41.1380720000000011
20
-26.5936219999999999
11
40.8979999999999961
21
-26.7639619999999994
0
LINE
8
BLACK
6
CONTINUOUS
10
40.8979999999999961
20
-26.7639619999999994
11
40.6403669999999977
21
-26.9063529999999993
0
LINE
8
BLACK
6
CONTINUOUS
10
40.6403669999999977
20
-26.9063529999999993
11
40.3684109999999947
21
-27.0190029999999979
0
LINE
8
BLACK
6
CONTINUOUS
10
40.3684109999999947
20
-27.0190029999999979
11
40.0855519999999999
21
-27.1004959999999997
0
LINE
8
BLACK
6
CONTINUOUS
10
40.0855519999999999
20
-27.1004959999999997
11
39.7953479999999971
21
-27.1498080000000002
0
LINE
8
BLACK
6
CONTINUOUS
10
39.7953479999999971
20
-27.1498080000000002
11
39.5016120000000015
21
-27.1663079999999972
0
LINE
8
BLACK
6
CONTINUOUS
10
39.5016120000000015
20
-27.1663079999999972
11
39.5014469999999989
21
-27.1663209999999999
0
LINE
8
BLACK
6
CONTINUOUS
10
39.5014469999999989
20
-27.1663209999999999
11
39.5014469999999989
21
-27.1663239999999995
0
LINE
8
BLACK
6
CONTINUOUS
10
39.5014469999999989
20
-27.1663239999999995
11
39.5014320000000012
21
-27.1663219999999974
0
LINE
8
BLACK
6
CONTINUOUS
10
39.5014320000000012
20
-27.1663219999999974
11
39.501418000000001
21
-27.1663239999999995
0
LINE
8
BLACK
6
CONTINUOUS
10
39.501418000000001
20
-27.1663239999999995
11
10.926418
21
-27.1663239999999995
0
LINE
8
BLACK
6
CONTINUOUS
10
10.926418
20
-27.1663239999999995
11
10.926418
21
-27.1663250000000005
0
LINE
8
BLACK
6
CONTINUOUS
10
10.926418
20
-27.1663250000000005
11
10.1210649999999998
21
-27.1663250000000005
0
LINE
8
BLACK
6
CONTINUOUS
10
10.1210649999999998
20
-27.1663250000000005
11
8.5107900000000001
21
-27.2035289999999996
0
LINE
8
BLACK
6
CONTINUOUS
10
8.5107900000000001
20
-27.2035289999999996
11
6.9018039999999994
21
-27.2779169999999986
0
LINE
8
BLACK
6
CONTINUOUS
10
6.9018039999999994
20
-27.2779169999999986
11
5.2949649999999995
21
-27.389448999999999
0
LINE
8
BLACK
6
CONTINUOUS
10
5.2949649999999995
20
-27.389448999999999
11
3.6911299999999998
21
-27.538065999999997
0
LINE
8
BLACK
6
CONTINUOUS
10
3.6911299999999998
20
-27.538065999999997
11
2.0911569999999999
21
-27.7236890000000002
0
LINE
8
BLACK
6
CONTINUOUS
10
2.0911569999999999
20
-27.7236890000000002
11
0.4958979999999999
21
-27.9462179999999982
0
LINE
8
BLACK
6
CONTINUOUS
10
0.4958979999999999
20
-27.9462179999999982
11
-1.093796
21
-28.2055349999999976
0
LINE
8
BLACK
6
CONTINUOUS
10
-1.093796
20
-28.2055349999999976
11
-2.677076
21
-28.5015009999999975
0
LINE
8
BLACK
6
CONTINUOUS
10
-2.677076
20
-28.5015009999999975
11
-4.2530969999999995
21
-28.8339590000000001
0
LINE
8
BLACK
6
CONTINUOUS
10
-4.2530969999999995
20
-28.8339590000000001
11
-5.8210179999999996
21
-29.202731
0
LINE
8
BLACK
6
CONTINUOUS
10
-5.8210179999999996
20
-29.202731
11
-7.3800039999999996
21
-29.6076199999999972
0
LINE
8
BLACK
6
CONTINUOUS
10
-7.3800039999999996
20
-29.6076199999999972
11
-8.9292210000000001
21
-30.048409999999997
0
LINE
8
BLACK
6
CONTINUOUS
10
-8.9292210000000001
20
-30.048409999999997
11
-10.4678439999999995
21
-30.5248669999999969
0
LINE
8
BLACK
6
CONTINUOUS
10
-10.4678439999999995
20
-30.5248669999999969
11
-11.9950519999999994
21
-31.0367350000000002
0
LINE
8
BLACK
6
CONTINUOUS
10
-11.9950519999999994
20
-31.0367350000000002
11
-13.5100280000000001
21
-31.5837419999999973
0
LINE
8
BLACK
6
CONTINUOUS
10
-13.5100280000000001
20
-31.5837419999999973
11
-15.0119659999999993
21
-32.1655960000000007
0
LINE
8
BLACK
6
CONTINUOUS
10
-15.0119659999999993
20
-32.1655960000000007
11
-16.5000630000000008
21
-32.7819859999999963
0
LINE
8
BLACK
6
CONTINUOUS
10
-16.5000630000000008
20
-32.7819859999999963
11
-17.9735270000000007
21
-33.4325839999999985
0
LINE
8
BLACK
6
CONTINUOUS
10
-17.9735270000000007
20
-33.4325839999999985
11
-19.4315689999999996
21
-34.1170419999999979
0
LINE
8
BLACK
6
CONTINUOUS
10
-19.4315689999999996
20
-34.1170419999999979
11
-20.8734129999999993
21
-34.8349949999999993
0
LINE
8
BLACK
6
CONTINUOUS
10
-20.8734129999999993
20
-34.8349949999999993
11
-22.2982899999999979
21
-35.5860599999999963
0
LINE
8
BLACK
6
CONTINUOUS
10
-22.2982899999999979
20
-35.5860599999999963
11
-23.7054379999999973
21
-36.3698359999999994
0
LINE
8
BLACK
6
CONTINUOUS
10
-23.7054379999999973
20
-36.3698359999999994
11
-25.0941069999999975
21
-37.1859049999999982
0
LINE
8
BLACK
6
CONTINUOUS
10
-25.0941069999999975
20
-37.1859049999999982
11
-26.4635560000000005
21
-38.0338319999999968
0
LINE
8
BLACK
6
CONTINUOUS
10
-26.4635560000000005
20
-38.0338319999999968
11
-27.8130539999999975
21
-38.9131649999999993
0
LINE
8
BLACK
6
CONTINUOUS
10
-27.8130539999999975
20
-38.9131649999999993
11
-29.141881999999999
21
-39.8234330000000014
0
LINE
8
BLACK
6
CONTINUOUS
10
-29.141881999999999
20
-39.8234330000000014
11
-30.4493299999999998
21
-40.7641509999999982
0
LINE
8
BLACK
6
CONTINUOUS
10
-30.4493299999999998
20
-40.7641509999999982
11
-31.7347000000000001
21
-41.7348179999999971
0
LINE
8
BLACK
6
CONTINUOUS
10
-31.7347000000000001
20
-41.7348179999999971
11
-32.9973069999999993
21
-42.7349150000000009
0
LINE
8
BLACK
6
CONTINUOUS
10
-32.9973069999999993
20
-42.7349150000000009
11
-34.2364770000000007
21
-43.7639089999999982
0
LINE
8
BLACK
6
CONTINUOUS
10
-34.2364770000000007
20
-43.7639089999999982
11
-35.451549
21
-44.8212499999999991
0
LINE
8
BLACK
6
CONTINUOUS
10
-35.451549
20
-44.8212499999999991
11
-36.6418749999999989
21
-45.906374999999997
0
LINE
8
BLACK
6
CONTINUOUS
10
-36.6418749999999989
20
-45.906374999999997
11
-37.8068189999999973
21
-47.0187049999999971
0
LINE
8
BLACK
6
CONTINUOUS
10
-37.8068189999999973
20
-47.0187049999999971
11
-38.3762889999999999
21
-47.5881749999999997
0
LINE
8
BLACK
6
CONTINUOUS
10
-38.3762889999999999
20
-47.5881749999999997
11
-38.3762959999999964
21
-47.5881809999999987
0
LINE
8
BLACK
6
CONTINUOUS
10
-38.3762959999999964
20
-47.5881809999999987
11
-45.1114809999999977
21
-54.3233669999999975
0
LINE
8
BLACK
6
CONTINUOUS
10
-45.1114809999999977
20
-54.3233669999999975
11
-45.111502999999999
21
-54.3233859999999993
0
LINE
8
BLACK
6
CONTINUOUS
10
-45.111502999999999
20
-54.3233859999999993
11
-45.3309769999999972
21
-54.5195189999999954
0
LINE
8
BLACK
6
CONTINUOUS
10
-45.3309769999999972
20
-54.5195189999999954
11
-45.5710529999999991
21
-54.6898629999999955
0
LINE
8
BLACK
6
CONTINUOUS
10
-45.5710529999999991
20
-54.6898629999999955
11
-45.8286930000000012
21
-54.8322549999999964
0
LINE
8
BLACK
6
CONTINUOUS
10
-45.8286930000000012
20
-54.8322549999999964
11
-46.1006549999999962
21
-54.9449049999999986
0
LINE
8
BLACK
6
CONTINUOUS
10
-46.1006549999999962
20
-54.9449049999999986
11
-46.3835199999999972
21
-55.0263969999999958
0
LINE
8
BLACK
6
CONTINUOUS
10
-46.3835199999999972
20
-55.0263969999999958
11
-46.6737299999999991
21
-55.0757059999999967
0
LINE
8
BLACK
6
CONTINUOUS
10
-46.6737299999999991
20
-55.0757059999999967
11
-46.9676369999999963
21
-55.0922109999999989
0
LINE
8
BLACK
6
CONTINUOUS
10
-46.9676369999999963
20
-55.0922109999999989
11
-47.2615440000000007
21
-55.0757059999999967
0
LINE
8
BLACK
6
CONTINUOUS
10
-47.2615440000000007
20
-55.0757059999999967
11
-47.5517539999999954
21
-55.0263969999999958
0
LINE
8
BLACK
6
CONTINUOUS
10
-47.5517539999999954
20
-55.0263969999999958
11
-47.8346189999999964
21
-54.9449049999999986
0
LINE
8
BLACK
6
CONTINUOUS
10
-47.8346189999999964
20
-54.9449049999999986
11
-48.1065809999999985
21
-54.8322549999999964
0
LINE
8
BLACK
6
CONTINUOUS
10
-48.1065809999999985
20
-54.8322549999999964
11
-48.3642210000000006
21
-54.6898629999999955
0
LINE
8
BLACK
6
CONTINUOUS
10
-48.3642210000000006
20
-54.6898629999999955
11
-48.6042969999999954
21
-54.5195189999999954
0
LINE
8
BLACK
6
CONTINUOUS
10
-48.6042969999999954
20
-54.5195189999999954
11
-48.8237919999999974
21
-54.3233669999999975
0
LINE
8
BLACK
6
CONTINUOUS
10
-48.8237919999999974
20
-54.3233669999999975
11
-48.8237929999999949
21
-54.323366
0
LINE
8
BLACK
6
CONTINUOUS
10
-48.8237929999999949
20
-54.323366
11
-75.7645529999999923
21
-27.3826039999999971
0
LINE
8
BLACK
6
CONTINUOUS
10
-75.7645529999999923
20
-27.3826039999999971
11
-75.7645610000000005
21
-27.382597999999998
0
LINE
8
BLACK
6
CONTINUOUS
10
-75.7645610000000005
20
-27.382597999999998
11
-75.764560000000003
21
-27.3825970000000005
0
LINE
8
BLACK
6
CONTINUOUS
10
-75.764560000000003
20
-27.3825970000000005
11
-75.7645610000000005
21
-27.3825970000000005
0
LINE
8
BLACK
6
CONTINUOUS
10
-75.7645610000000005
20
-27.3825970000000005
11
-75.7645819999999901
21
-27.3825709999999987
0
LINE
8
BLACK
6
CONTINUOUS
10
-75.7645819999999901
20
-27.3825709999999987
11
-75.9607129999999984
21
-27.1631029999999996
0
LINE
8
BLACK
6
CONTINUOUS
10
-75.9607129999999984
20
-27.1631029999999996
11
-76.1310560000000009
21
-26.9230260000000001
0
LINE
8
BLACK
6
CONTINUOUS
10
-76.1310560000000009
20
-26.9230260000000001
11
-76.2734480000000019
21
-26.6653869999999991
0
LINE
8
BLACK
6
CONTINUOUS
10
-76.2734480000000019
20
-26.6653869999999991
11
-76.3860990000000015
21
-26.3934250000000006
0
LINE
8
BLACK
6
CONTINUOUS
10
-76.3860990000000015
20
-26.3934250000000006
11
-76.4675909999999988
21
-26.1105599999999995
0
LINE
8
BLACK
6
CONTINUOUS
10
-76.4675909999999988
20
-26.1105599999999995
11
-76.5168989999999951
21
-25.8203499999999977
0
LINE
8
BLACK
6
CONTINUOUS
10
-76.5168989999999951
20
-25.8203499999999977
11
-76.5334050000000019
21
-25.5264430000000004
0
LINE
8
BLACK
6
CONTINUOUS
10
-76.5334050000000019
20
-25.5264430000000004
11
-76.5168999999999926
21
-25.2325359999999996
0
LINE
8
BLACK
6
CONTINUOUS
10
-76.5168999999999926
20
-25.2325359999999996
11
-76.4675909999999988
21
-24.9423259999999978
0
LINE
8
BLACK
6
CONTINUOUS
10
-76.4675909999999988
20
-24.9423259999999978
11
-76.3860990000000015
21
-24.6594610000000003
0
LINE
8
BLACK
6
CONTINUOUS
10
-76.3860990000000015
20
-24.6594610000000003
11
-76.2734489999999994
21
-24.3874979999999972
0
LINE
8
BLACK
6
CONTINUOUS
10
-76.2734489999999994
20
-24.3874979999999972
11
-76.1310569999999984
21
-24.1298589999999997
0
LINE
8
BLACK
6
CONTINUOUS
10
-76.1310569999999984
20
-24.1298589999999997
11
-75.9607139999999958
21
-23.8897829999999978
0
LINE
8
BLACK
6
CONTINUOUS
10
-75.9607139999999958
20
-23.8897829999999978
11
-75.764561999999998
21
-23.6702879999999993
0
LINE
8
BLACK
6
CONTINUOUS
10
-75.764561999999998
20
-23.6702879999999993
11
-75.7645610000000005
21
-23.6702869999999983
0
LINE
8
BLACK
6
CONTINUOUS
10
-75.7645610000000005
20
-23.6702869999999983
11
-69.029367999999991
21
-16.9350950000000005
0
LINE
8
BLACK
6
CONTINUOUS
10
-69.029367999999991
20
-16.9350950000000005
11
-69.0293599999999969
21
-16.9350880000000004
0
LINE
8
BLACK
6
CONTINUOUS
10
-69.0293599999999969
20
-16.9350880000000004
11
-67.555965999999998
21
-15.4883579999999998
0
LINE
8
BLACK
6
CONTINUOUS
10
-67.555965999999998
20
-15.4883579999999998
11
-66.0563899999999933
21
-14.0687669999999994
0
LINE
8
BLACK
6
CONTINUOUS
10
-66.0563899999999933
20
-14.0687669999999994
11
-64.531140999999991
21
-12.6767959999999995
0
LINE
8
BLACK
6
CONTINUOUS
10
-64.531140999999991
20
-12.6767959999999995
11
-62.9807279999999992
21
-11.3129099999999987
0
LINE
8
BLACK
6
CONTINUOUS
10
-62.9807279999999992
20
-11.3129099999999987
11
-61.4056679999999986
21
-9.9775639999999992
0
LINE
8
BLACK
6
CONTINUOUS
10
-61.4056679999999986
20
-9.9775639999999992
11
-59.806484999999995
21
-8.6712019999999992
0
LINE
8
BLACK
6
CONTINUOUS
10
-59.806484999999995
20
-8.6712019999999992
11
-58.1837139999999948
21
-7.3942609999999993
0
LINE
8
BLACK
6
CONTINUOUS
10
-58.1837139999999948
20
-7.3942609999999993
11
-56.5378949999999989
21
-6.1471659999999995
0
LINE
8
BLACK
6
CONTINUOUS
10
-56.5378949999999989
20
-6.1471659999999995
11
-54.8695769999999996
21
-4.9303330000000001
0
LINE
8
BLACK
6
CONTINUOUS
10
-54.8695769999999996
20
-4.9303330000000001
11
-53.1793169999999975
21
-3.7441679999999997
0
LINE
8
BLACK
6
CONTINUOUS
10
-53.1793169999999975
20
-3.7441679999999997
11
-51.4676789999999968
21
-2.589067
0
LINE
8
BLACK
6
CONTINUOUS
10
-51.4676789999999968
20
-2.589067
11
-49.7352319999999963
21
-1.4654149999999999
0
LINE
8
BLACK
6
CONTINUOUS
10
-49.7352319999999963
20
-1.4654149999999999
11
-47.9825549999999978
21
-0.373586
0
LINE
8
BLACK
6
CONTINUOUS
10
-47.9825549999999978
20
-0.373586
11
-46.2102329999999952
21
0.686055
0
LINE
8
BLACK
6
CONTINUOUS
10
-46.2102329999999952
20
0.686055
11
-44.4188559999999981
21
1.7131559999999999
0
LINE
8
BLACK
6
CONTINUOUS
10
-44.4188559999999981
20
1.7131559999999999
11
-42.609021999999996
21
2.7073719999999999
0
LINE
8
BLACK
6
CONTINUOUS
10
-42.609021999999996
20
2.7073719999999999
11
-40.7813349999999986
21
3.668374
0
LINE
8
BLACK
6
CONTINUOUS
10
-40.7813349999999986
20
3.668374
11
-38.9364029999999985
21
4.5958399999999999
0
LINE
8
BLACK
6
CONTINUOUS
10
-38.9364029999999985
20
4.5958399999999999
11
-37.0748430000000013
21
5.4894609999999995
0
LINE
8
BLACK
6
CONTINUOUS
10
-37.0748430000000013
20
5.4894609999999995
11
-35.1972749999999976
21
6.3489389999999997
0
LINE
8
BLACK
6
CONTINUOUS
10
-35.1972749999999976
20
6.3489389999999997
11
-33.3043240000000011
21
7.1739879999999996
0
LINE
8
BLACK
6
CONTINUOUS
10
-33.3043240000000011
20
7.1739879999999996
11
-31.7876909999999988
21
7.8023159999999994
0
LINE
8
BLACK
6
CONTINUOUS
10
-31.7876909999999988
20
7.8023159999999994
11
-31.7876909999999988
21
53.9797219999999953
0
LINE
8
BLACK
6
CONTINUOUS
10
-31.7876909999999988
20
53.9797219999999953
11
-31.7876909999999988
21
53.9797239999999974
0
LINE
8
BLACK
6
CONTINUOUS
10
-31.7876909999999988
20
53.9797239999999974
11
-31.7720389999999995
21
54.2659519999999986
0
LINE
8
BLACK
6
CONTINUOUS
10
-31.7720389999999995
20
54.2659519999999986
11
-31.7252699999999983
21
54.548766999999998
0
LINE
8
BLACK
6
CONTINUOUS
10
-31.7252699999999983
20
54.548766999999998
11
-31.6479419999999969
21
54.8247949999999946
0
LINE
8
BLACK
6
CONTINUOUS
10
-31.6479419999999969
20
54.8247949999999946
11
-31.5409779999999991
21
55.0907470000000004
0
LINE
8
BLACK
6
CONTINUOUS
10
-31.5409779999999991
20
55.0907470000000004
11
-31.4056519999999999
21
55.3434489999999997
0
LINE
8
BLACK
6
CONTINUOUS
10
-31.4056519999999999
20
55.3434489999999997
11
-31.2435779999999994
21
55.5798879999999969
0
LINE
8
BLACK
6
CONTINUOUS
10
-31.2435779999999994
20
55.5798879999999969
11
-31.0566899999999997
21
55.7972459999999941
0
LINE
8
BLACK
6
CONTINUOUS
10
-31.0566899999999997
20
55.7972459999999941
11
-30.8472149999999985
21
55.9929289999999966
0
LINE
8
BLACK
6
CONTINUOUS
10
-30.8472149999999985
20
55.9929289999999966
11
-30.6176519999999996
21
56.1646039999999971
0
LINE
8
BLACK
6
CONTINUOUS
10
-30.6176519999999996
20
56.1646039999999971
11
-30.3707390000000004
21
56.3102249999999955
0
LINE
8
BLACK
6
CONTINUOUS
10
-30.3707390000000004
20
56.3102249999999955
11
-30.1094200000000001
21
56.4280539999999959
0
LINE
8
BLACK
6
CONTINUOUS
10
-30.1094200000000001
20
56.4280539999999959
11
-29.8368389999999977
21
56.5166759999999968
0
LINE
8
BLACK
6
CONTINUOUS
10
-29.8368389999999977
20
56.5166759999999968
11
-29.8368099999999998
21
56.516686
0
LINE
8
BLACK
6
CONTINUOUS
10
-29.8368099999999998
20
56.516686
11
-29.8368099999999998
21
56.5166869999999975
0
LINE
8
BLACK
6
CONTINUOUS
10
-29.8368099999999998
20
56.5166869999999975
11
-29.8368059999999993
21
56.5166869999999975
0
LINE
8
BLACK
6
CONTINUOUS
10
-29.8368059999999993
20
56.5166869999999975
11
-27.4446249999999985
21
57.1324469999999991
0
LINE
8
BLACK
6
CONTINUOUS
10
-27.4446249999999985
20
57.1324469999999991
11
-25.0431479999999986
21
57.7109069999999988
0
LINE
8
BLACK
6
CONTINUOUS
10
-25.0431479999999986
20
57.7109069999999988
11
-22.6329600000000006
21
58.2519259999999974
0
LINE
8
BLACK
6
CONTINUOUS
10
-22.6329600000000006
20
58.2519259999999974
11
-20.2146449999999973
21
58.7553739999999962
0
LINE
8
BLACK
6
CONTINUOUS
10
-20.2146449999999973
20
58.7553739999999962
11
-17.7887880000000003
21
59.2211280000000002
0
LINE
8
BLACK
6
CONTINUOUS
10
-17.7887880000000003
20
59.2211280000000002
11
-15.3559769999999993
21
59.6490759999999938
0
LINE
8
BLACK
6
CONTINUOUS
10
-15.3559769999999993
20
59.6490759999999938
11
-12.9168009999999995
21
60.0391139999999979
0
LINE
8
BLACK
6
CONTINUOUS
10
-12.9168009999999995
20
60.0391139999999979
11
-10.4718509999999991
21
60.3911479999999941
0
LINE
8
BLACK
6
CONTINUOUS
10
-10.4718509999999991
20
60.3911479999999941
11
-8.0217189999999992
21
60.7050909999999959
0
LINE
8
BLACK
6
CONTINUOUS
10
-8.0217189999999992
20
60.7050909999999959
11
-5.5669979999999999
21
60.9808699999999959
0
LINE
8
BLACK
6
CONTINUOUS
10
-5.5669979999999999
20
60.9808699999999959
11
-3.1082829999999997
21
61.2184150000000002
0
LINE
8
BLACK
6
CONTINUOUS
10
-3.1082829999999997
20
61.2184150000000002
11
-0.646169
21
61.4176709999999986
0
LINE
8
BLACK
6
CONTINUOUS
10
-0.646169
20
61.4176709999999986
11
1.8187469999999999
21
61.5785879999999963
0
LINE
8
BLACK
6
CONTINUOUS
10
1.8187469999999999
20
61.5785879999999963
11
4.2858689999999999
21
61.7011289999999946
0
LINE
8
BLACK
6
CONTINUOUS
10
4.2858689999999999
20
61.7011289999999946
11
6.7545999999999999
21
61.7852619999999959
0
LINE
8
BLACK
6
CONTINUOUS
10
6.7545999999999999
20
61.7852619999999959
11
9.2243399999999998
21
61.8309679999999986
0
LINE
8
BLACK
6
CONTINUOUS
10
9.2243399999999998
20
61.8309679999999986
11
11.6944929999999996
21
61.8382359999999949
0
LINE
8
BLACK
6
CONTINUOUS
10
11.6944929999999996
20
61.8382359999999949
11
14.1644600000000001
21
61.8070629999999994
0
LINE
8
BLACK
6
CONTINUOUS
10
8.0494299999999992
20
58.568175999999994
11
5.6306050000000001
21
58.5045819999999992
0
LINE
8
BLACK
6
CONTINUOUS
10
5.6306050000000001
20
58.5045819999999992
11
3.213063
21
58.4033549999999977
0
LINE
8
BLACK
6
CONTINUOUS
10
3.213063
20
58.4033549999999977
11
0.797389
21
58.2645189999999999
0
LINE
8
BLACK
6
CONTINUOUS
10
0.797389
20
58.2645189999999999
11
-1.6158319999999999
21
58.0881089999999958
0
LINE
8
BLACK
6
CONTINUOUS
10
-1.6158319999999999
20
58.0881089999999958
11
-4.0260160000000003
21
57.8741669999999999
0
LINE
8
BLACK
6
CONTINUOUS
10
-4.0260160000000003
20
57.8741669999999999
11
-6.4325779999999995
21
57.6227449999999948
0
LINE
8
BLACK
6
CONTINUOUS
10
-6.4325779999999995
20
57.6227449999999948
11
-8.834937
21
57.3339039999999969
0
LINE
8
BLACK
6
CONTINUOUS
10
-8.834937
20
57.3339039999999969
11
-11.2325099999999996
21
57.007714
0
LINE
8
BLACK
6
CONTINUOUS
10
-11.2325099999999996
20
57.007714
11
-13.6247159999999994
21
56.6442529999999991
0
LINE
8
BLACK
6
CONTINUOUS
10
-13.6247159999999994
20
56.6442529999999991
11
-16.0109770000000005
21
56.2436099999999968
0
LINE
8
BLACK
6
CONTINUOUS
10
-16.0109770000000005
20
56.2436099999999968
11
-18.3907150000000001
21
55.8058809999999994
0
LINE
8
BLACK
6
CONTINUOUS
10
-18.3907150000000001
20
55.8058809999999994
11
-20.7633519999999976
21
55.3311739999999972
0
LINE
8
BLACK
6
CONTINUOUS
10
-20.7633519999999976
20
55.3311739999999972
11
-23.1283150000000006
21
54.8196019999999962
0
LINE
8
BLACK
6
CONTINUOUS
10
-23.1283150000000006
20
54.8196019999999962
11
-25.4850309999999993
21
54.2712900000000005
0
LINE
8
BLACK
6
CONTINUOUS
10
-25.4850309999999993
20
54.2712900000000005
11
-27.832929
21
53.6863699999999966
0
LINE
8
BLACK
6
CONTINUOUS
10
-27.832929
20
53.6863699999999966
11
-28.5376909999999988
21
53.4991050000000001
0
LINE
8
BLACK
6
CONTINUOUS
10
-28.5376909999999988
20
53.4991050000000001
11
-28.5376909999999988
21
7.3847619999999994
0
LINE
8
BLACK
6
CONTINUOUS
10
-28.5376909999999988
20
7.3847619999999994
11
-28.5376909999999988
21
7.3847509999999996
0
LINE
8
BLACK
6
CONTINUOUS
10
-28.5376909999999988
20
7.3847509999999996
11
-28.5529629999999983
21
7.1020159999999999
0
LINE
8
BLACK
6
CONTINUOUS
10
-28.5529629999999983
20
7.1020159999999999
11
-28.5986019999999996
21
6.8225549999999995
0
LINE
8
BLACK
6
CONTINUOUS
10
-28.5986019999999996
20
6.8225549999999995
11
-28.674077999999998
21
6.5496359999999996
0
LINE
8
BLACK
6
CONTINUOUS
10
-28.674077999999998
20
6.5496359999999996
11
-28.7785130000000002
21
6.286435
0
LINE
8
BLACK
6
CONTINUOUS
10
-28.7785130000000002
20
6.286435
11
-28.9106899999999989
21
6.0360139999999998
0
LINE
8
BLACK
6
CONTINUOUS
10
-28.9106899999999989
20
6.0360139999999998
11
-29.0690719999999985
21
5.8012879999999996
0
LINE
8
BLACK
6
CONTINUOUS
10
-29.0690719999999985
20
5.8012879999999996
11
-29.2518169999999991
21
5.5849869999999999
0
LINE
8
BLACK
6
CONTINUOUS
10
-29.2518169999999991
20
5.5849869999999999
11
-29.4567969999999981
21
5.3896289999999993
0
LINE
8
BLACK
6
CONTINUOUS
10
-29.4567969999999981
20
5.3896289999999993
11
-29.6816269999999989
21
5.2174879999999995
0
LINE
8
BLACK
6
CONTINUOUS
10
-29.6816269999999989
20
5.2174879999999995
11
-29.923690999999998
21
5.0705650000000002
0
LINE
8
BLACK
6
CONTINUOUS
10
-29.923690999999998
20
5.0705650000000002
11
-30.1801729999999999
21
4.9505710000000001
0
LINE
8
BLACK
6
CONTINUOUS
10
-30.1801729999999999
20
4.9505710000000001
11
-30.1801729999999999
21
4.9505720000000002
0
LINE
8
BLACK
6
CONTINUOUS
10
-30.1801729999999999
20
4.9505720000000002
11
-31.1101109999999998
21
4.5752199999999998
0
LINE
8
BLACK
6
CONTINUOUS
10
-31.1101109999999998
20
4.5752199999999998
11
-32.9559709999999981
21
3.790673
0
LINE
8
BLACK
6
CONTINUOUS
10
-32.9559709999999981
20
3.790673
11
-34.7871960000000016
21
2.97255
0
LINE
8
BLACK
6
CONTINUOUS
10
-34.7871960000000016
20
2.97255
11
-36.6031769999999952
21
2.1211229999999999
0
LINE
8
BLACK
6
CONTINUOUS
10
-36.6031769999999952
20
2.1211229999999999
11
-38.4033069999999981
21
1.236677
0
LINE
8
BLACK
6
CONTINUOUS
10
-38.4033069999999981
20
1.236677
11
-40.1869859999999974
21
0.319506
0
LINE
8
BLACK
6
CONTINUOUS
10
-40.1869859999999974
20
0.319506
11
-41.9536189999999962
21
-0.630084
0
LINE
8
BLACK
6
CONTINUOUS
10
-41.9536189999999962
20
-0.630084
11
-43.7026169999999965
21
-1.6117759999999999
0
LINE
8
BLACK
6
CONTINUOUS
10
-43.7026169999999965
20
-1.6117759999999999
11
-45.4333969999999994
21
-2.6252429999999998
0
LINE
8
BLACK
6
CONTINUOUS
10
-45.4333969999999994
20
-2.6252429999999998
11
-47.1453810000000004
21
-3.6701459999999999
0
LINE
8
BLACK
6
CONTINUOUS
10
-47.1453810000000004
20
-3.6701459999999999
11
-48.8379989999999964
21
-4.7461370000000001
0
LINE
8
BLACK
6
CONTINUOUS
10
-48.8379989999999964
20
-4.7461370000000001
11
-50.5106859999999998
21
-5.8528579999999994
0
LINE
8
BLACK
6
CONTINUOUS
10
-50.5106859999999998
20
-5.8528579999999994
11
-52.1628839999999983
21
-6.9899399999999998
0
LINE
8
BLACK
6
CONTINUOUS
10
-52.1628839999999983
20
-6.9899399999999998
11
-53.7940419999999975
21
-8.1570020000000003
0
LINE
8
BLACK
6
CONTINUOUS
10
-53.7940419999999975
20
-8.1570020000000003
11
-55.403616999999997
21
-9.3536570000000001
0
LINE
8
BLACK
6
CONTINUOUS
10
-55.403616999999997
20
-9.3536570000000001
11
-56.9910719999999955
21
-10.579504
0
LINE
8
BLACK
6
CONTINUOUS
10
-56.9910719999999955
20
-10.579504
11
-58.5558759999999978
21
-11.8341349999999998
0
LINE
8
BLACK
6
CONTINUOUS
10
-58.5558759999999978
20
-11.8341349999999998
11
-60.0975089999999952
21
-13.1171319999999998
0
LINE
8
BLACK
6
CONTINUOUS
10
-60.0975089999999952
20
-13.1171319999999998
11
-61.6154559999999947
21
-14.4280669999999986
0
LINE
8
BLACK
6
CONTINUOUS
10
-61.6154559999999947
20
-14.4280669999999986
11
-63.1092109999999948
21
-15.7665019999999991
0
LINE
8
BLACK
6
CONTINUOUS
10
-63.1092109999999948
20
-15.7665019999999991
11
-64.5782760000000025
21
-17.1319920000000003
0
LINE
8
BLACK
6
CONTINUOUS
10
-64.5782760000000025
20
-17.1319920000000003
11
-66.022160999999997
21
-18.5240799999999979
0
LINE
8
BLACK
6
CONTINUOUS
10
-66.022160999999997
20
-18.5240799999999979
11
-66.7312709999999925
21
-19.233193
0
LINE
8
BLACK
6
CONTINUOUS
10
-66.7312709999999925
20
-19.233193
11
-66.7312709999999925
21
-19.233191999999999
0
LINE
8
BLACK
6
CONTINUOUS
10
-66.7312709999999925
20
-19.233191999999999
11
-73.0245209999999929
21
-25.5264419999999994
0
LINE
8
BLACK
6
CONTINUOUS
10
-73.0245209999999929
20
-25.5264419999999994
11
-46.9676369999999963
21
-51.583326999999997
0
LINE
8
BLACK
6
CONTINUOUS
10
-46.9676369999999963
20
-51.583326999999997
11
-40.6743929999999949
21
-45.2900840000000002
0
LINE
8
BLACK
6
CONTINUOUS
10
-40.6743929999999949
20
-45.2900840000000002
11
-40.6743869999999959
21
-45.2900769999999966
0
LINE
8
BLACK
6
CONTINUOUS
10
-40.6743869999999959
20
-45.2900769999999966
11
-40.6743859999999984
21
-45.2900769999999966
0
LINE
8
BLACK
6
CONTINUOUS
10
-40.6743859999999984
20
-45.2900769999999966
11
-40.6743769999999998
21
-45.2900700000000001
0
LINE
8
BLACK
6
CONTINUOUS
10
-40.6743769999999998
20
-45.2900700000000001
11
-39.5035719999999984
21
-44.1452469999999977
0
LINE
8
BLACK
6
CONTINUOUS
10
-39.5035719999999984
20
-44.1452469999999977
11
-38.3073660000000018
21
-43.0269750000000002
0
LINE
8
BLACK
6
CONTINUOUS
10
-38.3073660000000018
20
-43.0269750000000002
11
-37.0863689999999977
21
-41.9358259999999987
0
LINE
8
BLACK
6
CONTINUOUS
10
-37.0863689999999977
20
-41.9358259999999987
11
-35.8411959999999965
21
-40.8723469999999978
0
LINE
8
BLACK
6
CONTINUOUS
10
-35.8411959999999965
20
-40.8723469999999978
11
-34.5724739999999997
21
-39.8370759999999962
0
LINE
8
BLACK
6
CONTINUOUS
10
-34.5724739999999997
20
-39.8370759999999962
11
-33.2808419999999998
21
-38.8305329999999955
0
LINE
8
BLACK
6
CONTINUOUS
10
-33.2808419999999998
20
-38.8305329999999955
11
-31.9669499999999971
21
-37.8532249999999948
0
LINE
8
BLACK
6
CONTINUOUS
10
-31.9669499999999971
20
-37.8532249999999948
11
-30.631459999999997
21
-36.9056449999999998
0
LINE
8
BLACK
6
CONTINUOUS
10
-30.631459999999997
20
-36.9056449999999998
11
-29.2750449999999987
21
-35.9882689999999954
0
LINE
8
BLACK
6
CONTINUOUS
10
-29.2750449999999987
20
-35.9882689999999954
11
-27.8983869999999996
21
-35.1015590000000017
0
LINE
8
BLACK
6
CONTINUOUS
10
-27.8983869999999996
20
-35.1015590000000017
11
-26.5021789999999982
21
-34.2459619999999987
0
LINE
8
BLACK
6
CONTINUOUS
10
-26.5021789999999982
20
-34.2459619999999987
11
-25.0871259999999978
21
-33.4219080000000019
0
LINE
8
BLACK
6
CONTINUOUS
10
-25.0871259999999978
20
-33.4219080000000019
11
-23.6539380000000001
21
-32.6298129999999986
0
LINE
8
BLACK
6
CONTINUOUS
10
-23.6539380000000001
20
-32.6298129999999986
11
-22.2033379999999987
21
-31.8700759999999974
0
LINE
8
BLACK
6
CONTINUOUS
10
-22.2033379999999987
20
-31.8700759999999974
11
-20.7360559999999978
21
-31.1430779999999992
0
LINE
8
BLACK
6
CONTINUOUS
10
-20.7360559999999978
20
-31.1430779999999992
11
-19.2528310000000005
21
-30.4491859999999974
0
LINE
8
BLACK
6
CONTINUOUS
10
-19.2528310000000005
20
-30.4491859999999974
11
-17.75441
21
-29.7887500000000003
0
LINE
8
BLACK
6
CONTINUOUS
10
-17.75441
20
-29.7887500000000003
11
-16.2415470000000006
21
-29.1621019999999973
0
LINE
8
BLACK
6
CONTINUOUS
10
-16.2415470000000006
20
-29.1621019999999973
11
-14.7150039999999986
21
-28.5695569999999996
0
LINE
8
BLACK
6
CONTINUOUS
10
-14.7150039999999986
20
-28.5695569999999996
11
-13.1755499999999994
21
-28.0114139999999985
0
LINE
8
BLACK
6
CONTINUOUS
10
-13.1755499999999994
20
-28.0114139999999985
11
-11.6239600000000003
21
-27.4879539999999984
0
LINE
8
BLACK
6
CONTINUOUS
10
-11.6239600000000003
20
-27.4879539999999984
11
-10.0610149999999994
21
-26.9994399999999999
0
LINE
8
BLACK
6
CONTINUOUS
10
-10.0610149999999994
20
-26.9994399999999999
11
-8.4875030000000002
21
-26.5461189999999974
0
LINE
8
BLACK
6
CONTINUOUS
10
-8.4875030000000002
20
-26.5461189999999974
11
-6.9042149999999998
21
-26.1282189999999979
0
LINE
8
BLACK
6
CONTINUOUS
10
-6.9042149999999998
20
-26.1282189999999979
11
-5.3119489999999994
21
-25.7459500000000006
0
LINE
8
BLACK
6
CONTINUOUS
10
-5.3119489999999994
20
-25.7459500000000006
11
-3.711506
21
-25.3995040000000003
0
LINE
8
BLACK
6
CONTINUOUS
10
-3.711506
20
-25.3995040000000003
11
-2.1036920000000001
21
-25.0890559999999994
0
LINE
8
BLACK
6
CONTINUOUS
10
-2.1036920000000001
20
-25.0890559999999994
11
-0.489318
21
-24.8147629999999992
0
LINE
8
BLACK
6
CONTINUOUS
10
-0.489318
20
-24.8147629999999992
11
1.1308049999999998
21
-24.5767619999999987
0
LINE
8
BLACK
6
CONTINUOUS
10
1.1308049999999998
20
-24.5767619999999987
11
2.7558599999999998
21
-24.3751739999999977
0
LINE
8
BLACK
6
CONTINUOUS
10
2.7558599999999998
20
-24.3751739999999977
11
4.3850289999999994
21
-24.2100989999999996
0
LINE
8
BLACK
6
CONTINUOUS
10
4.3850289999999994
20
-24.2100989999999996
11
6.0174919999999998
21
-24.0816209999999984
0
LINE
8
BLACK
6
CONTINUOUS
10
6.0174919999999998
20
-24.0816209999999984
11
7.6524269999999994
21
-23.989805999999998
0
LINE
8
BLACK
6
CONTINUOUS
10
7.6524269999999994
20
-23.989805999999998
11
9.2890099999999993
21
-23.9346969999999999
0
LINE
8
BLACK
6
CONTINUOUS
10
9.2890099999999993
20
-23.9346969999999999
11
10.9264029999999988
21
-23.9163250000000005
0
LINE
8
BLACK
6
CONTINUOUS
10
10.9264029999999988
20
-23.9163250000000005
11
10.926418
21
-23.9163239999999995
0
LINE
8
BLACK
6
CONTINUOUS
10
10.926418
20
-23.9163239999999995
11
38.876418000000001
21
-23.9163239999999995
0
LINE
8
BLACK
6
CONTINUOUS
10
38.876418000000001
20
-23.9163239999999995
11
38.876418000000001
21
-18.9714959999999984
0
LINE
8
BLACK
6
CONTINUOUS
10
38.876418000000001
20
-18.9714959999999984
11
38.876418000000001
21
-18.9714919999999978
0
LINE
8
BLACK
6
CONTINUOUS
10
38.876418000000001
20
-18.9714919999999978
11
38.876418000000001
21
-18.9714889999999983
0
LINE
8
BLACK
6
CONTINUOUS
10
38.876418000000001
20
-18.9714889999999983
11
38.8929249999999982
21
-18.6775819999999975
0
LINE
8
BLACK
6
CONTINUOUS
10
38.8929249999999982
20
-18.6775819999999975
11
38.9422349999999966
21
-18.3873709999999981
0
LINE
8
BLACK
6
CONTINUOUS
10
38.9422349999999966
20
-18.3873709999999981
11
39.0237289999999959
21
-18.1045060000000007
0
LINE
8
BLACK
6
CONTINUOUS
10
39.0237289999999959
20
-18.1045060000000007
11
39.1363819999999976
21
-17.8325439999999986
0
LINE
8
BLACK
6
CONTINUOUS
10
39.1363819999999976
20
-17.8325439999999986
11
39.2787769999999981
21
-17.5749049999999976
0
LINE
8
BLACK
6
CONTINUOUS
10
39.2787769999999981
20
-17.5749049999999976
11
39.4491230000000002
21
-17.3348300000000002
0
LINE
8
BLACK
6
CONTINUOUS
10
39.4491230000000002
20
-17.3348300000000002
11
39.6452779999999976
21
-17.1153370000000002
0
LINE
8
BLACK
6
CONTINUOUS
10
39.6452779999999976
20
-17.1153370000000002
11
39.8647750000000016
21
-16.9191870000000009
0
LINE
8
BLACK
6
CONTINUOUS
10
39.8647750000000016
20
-16.9191870000000009
11
40.104853999999996
21
-16.7488460000000003
0
LINE
8
BLACK
6
CONTINUOUS
10
40.104853999999996
20
-16.7488460000000003
11
40.3624960000000002
21
-16.6064569999999989
0
LINE
8
BLACK
6
CONTINUOUS
10
40.3624960000000002
20
-16.6064569999999989
11
40.6344609999999946
21
-16.4938099999999999
0
LINE
8
BLACK
6
CONTINUOUS
10
40.6344609999999946
20
-16.4938099999999999
11
40.9173279999999977
21
-16.4123219999999996
0
LINE
8
BLACK
6
CONTINUOUS
10
40.9173279999999977
20
-16.4123219999999996
11
41.2075400000000016
21
-16.3630180000000003
0
LINE
8
BLACK
6
CONTINUOUS
10
41.2075400000000016
20
-16.3630180000000003
11
41.5003699999999967
21
-16.3465780000000009
0
LINE
8
BLACK
6
CONTINUOUS
10
41.5003699999999967
20
-16.3465780000000009
11
41.501418000000001
21
-16.3464959999999984
0
LINE
8
BLACK
6
CONTINUOUS
10
41.501418000000001
20
-16.3464959999999984
11
84.2623090000000019
21
-16.3464959999999984
0
LINE
8
BLACK
6
CONTINUOUS
10
84.2623090000000019
20
-16.3464959999999984
11
84.2623090000000019
21
40.208793
0
LINE
8
BLACK
6
CONTINUOUS
10
84.2623090000000019
20
40.208793
11
83.6597239999999971
21
40.532983999999999
0
LINE
8
BLACK
6
CONTINUOUS
10
83.6597239999999971
20
40.532983999999999
11
81.7833229999999958
21
41.5098119999999966
0
LINE
8
BLACK
6
CONTINUOUS
10
81.7833229999999958
20
41.5098119999999966
11
79.8938059999999979
21
42.4610199999999978
0
LINE
8
BLACK
6
CONTINUOUS
10
79.8938059999999979
20
42.4610199999999978
11
77.9915220000000033
21
43.3864319999999992
0
LINE
8
BLACK
6
CONTINUOUS
10
77.9915220000000033
20
43.3864319999999992
11
76.076824000000002
21
44.2858779999999967
0
LINE
8
BLACK
6
CONTINUOUS
10
76.076824000000002
20
44.2858779999999967
11
74.1500659999999954
21
45.1591909999999999
0
LINE
8
BLACK
6
CONTINUOUS
10
74.1500659999999954
20
45.1591909999999999
11
72.2116039999999941
21
46.0062089999999984
0
LINE
8
BLACK
6
CONTINUOUS
10
72.2116039999999941
20
46.0062089999999984
11
70.2617979999999989
21
46.8267749999999978
0
LINE
8
BLACK
6
CONTINUOUS
10
70.2617979999999989
20
46.8267749999999978
11
68.3010089999999934
21
47.6207379999999958
0
LINE
8
BLACK
6
CONTINUOUS
10
68.3010089999999934
20
47.6207379999999958
11
67.3153080000000017
21
48.0043450000000007
0
LINE
8
BLACK
6
CONTINUOUS
10
67.3153080000000017
20
48.0043450000000007
11
67.3153039999999976
21
48.0043469999999957
0
LINE
8
BLACK
6
CONTINUOUS
10
67.3153039999999976
20
48.0043469999999957
11
66.7374039999999979
21
48.2292479999999983
0
LINE
8
BLACK
6
CONTINUOUS
10
66.7374039999999979
20
48.2292479999999983
11
65.5780510000000021
21
48.6698169999999948
0
LINE
8
BLACK
6
CONTINUOUS
10
65.5780510000000021
20
48.6698169999999948
11
64.415222
21
49.1011249999999961
0
LINE
8
BLACK
6
CONTINUOUS
10
64.415222
20
49.1011249999999961
11
63.832105999999996
21
49.3121340000000004
0
LINE
8
BLACK
6
CONTINUOUS
10
63.832105999999996
20
49.3121340000000004
11
63.832105999999996
21
49.3121349999999978
0
LINE
8
BLACK
6
CONTINUOUS
10
63.832105999999996
20
49.3121349999999978
11
62.6944680000000005
21
49.7237999999999971
0
LINE
8
BLACK
6
CONTINUOUS
10
62.6944680000000005
20
49.7237999999999971
11
60.4066580000000002
21
50.5116340000000008
0
LINE
8
BLACK
6
CONTINUOUS
10
60.4066580000000002
20
50.5116340000000008
11
58.1068659999999966
21
51.2637709999999984
0
LINE
8
BLACK
6
CONTINUOUS
10
58.1068659999999966
20
51.2637709999999984
11
55.7956469999999953
21
51.9800289999999947
0
LINE
8
BLACK
6
CONTINUOUS
10
55.7956469999999953
20
51.9800289999999947
11
53.4735629999999986
21
52.6602339999999955
0
LINE
8
BLACK
6
CONTINUOUS
10
53.4735629999999986
20
52.6602339999999955
11
51.1411739999999995
21
53.3042219999999958
0
LINE
8
BLACK
6
CONTINUOUS
10
51.1411739999999995
20
53.3042219999999958
11
48.7990469999999945
21
53.911836000000001
0
LINE
8
BLACK
6
CONTINUOUS
10
48.7990469999999945
20
53.911836000000001
11
46.4477469999999997
21
54.4829299999999961
0
LINE
8
BLACK
6
CONTINUOUS
10
46.4477469999999997
20
54.4829299999999961
11
44.087845999999999
21
55.0173649999999981
0
LINE
8
BLACK
6
CONTINUOUS
10
44.087845999999999
20
55.0173649999999981
11
41.7199129999999982
21
55.5150119999999987
0
LINE
8
BLACK
6
CONTINUOUS
10
41.7199129999999982
20
55.5150119999999987
11
39.3445239999999998
21
55.9757499999999979
0
LINE
8
BLACK
6
CONTINUOUS
10
39.3445239999999998
20
55.9757499999999979
11
36.9622519999999994
21
56.3994669999999942
0
LINE
8
BLACK
6
CONTINUOUS
10
36.9622519999999994
20
56.3994669999999942
11
34.5736739999999969
21
56.786061999999994
0
LINE
8
BLACK
6
CONTINUOUS
10
34.5736739999999969
20
56.786061999999994
11
32.1793709999999962
21
57.1354399999999956
0
LINE
8
BLACK
6
CONTINUOUS
10
32.1793709999999962
20
57.1354399999999956
11
29.7799199999999971
21
57.4475160000000002
0
LINE
8
BLACK
6
CONTINUOUS
10
29.7799199999999971
20
57.4475160000000002
11
27.3759029999999974
21
57.722215999999996
0
LINE
8
BLACK
6
CONTINUOUS
10
27.3759029999999974
20
57.722215999999996
11
24.9679029999999997
21
57.9594729999999956
0
LINE
8
BLACK
6
CONTINUOUS
10
24.9679029999999997
20
57.9594729999999956
11
22.5565019999999983
21
58.1592289999999963
0
LINE
8
BLACK
6
CONTINUOUS
10
22.5565019999999983
20
58.1592289999999963
11
20.1422849999999976
21
58.3214359999999985
0
LINE
8
BLACK
6
CONTINUOUS
10
20.1422849999999976
20
58.3214359999999985
11
17.725835
21
58.4460539999999966
0
LINE
8
BLACK
6
CONTINUOUS
10
17.725835
20
58.4460539999999966
11
15.307739999999999
21
58.5330539999999999
0
LINE
8
BLACK
6
CONTINUOUS
10
15.307739999999999
20
58.5330539999999999
11
12.8885829999999988
21
58.582414
0
LINE
8
BLACK
6
CONTINUOUS
10
12.8885829999999988
20
58.582414
11
10.4689509999999988
21
58.5941219999999987
0
LINE
8
BLACK
6
CONTINUOUS
10
10.4689509999999988
20
58.5941219999999987
11
8.0494299999999992
21
58.568175999999994
  0
ENDSEC
  0
EOF
