  0
SECTION
  2
HEADER
  9
$ANGBASE
  50
0.0
  9
$ANGDIR
  70
1
  9
$MEASUREMENT
  70
1
  0
ENDSEC
  0
SECTION
  2
TABLES
  0
TABLE
  2
LTYPE
  70
4
  0
LTYPE
  5
40F
  2
CONTINUOUS
  70
0
  3
Solid line
  72
65
  73
0
  40
0.0
  0
LTYPE
  5
410
  2
DASHDOT
 70
0
  3
Dash Dot ____ _ ____ _
 72
65
 73
4
 40
2.0
 49
1.25
 49
-0.25
 49
0.25
 49
-0.25
  0
LTYPE
  5
411
  2
DASHED
 70
0
  3
Dashed __ __ __ __ __
 72
65
 73
2
 40
0.75
 49
0.5
 49
-0.25
  0
LTYPE
  5
43B
  2
DOTTED
 70
0
  3
Dotted .  .  .  .
 72
65
 73
2
 40
0.2
 49
0.0
 49
-0.2
  0
ENDTAB
  0
TABLE
  2
STYLE
  70
4
  0
STYLE
  2
KICAD
  70
0
  40
0
  41
1
  42
1
  50
0
  71
0
  3
isocp.shx
  0
STYLE
  2
KICADB
  70
0
  40
0
  41
1
  42
1
  50
0
  71
0
  3
isocp.shx
  0
STYLE
  2
KICADI
  70
0
  40
0
  41
1
  42
1
  50
15
  71
0
  3
isocp.shx
  0
STYLE
  2
KICADBI
  70
0
  40
0
  41
1
  42
1
  50
15
  71
0
  3
isocp.shx
  0
ENDTAB
  0
TABLE
  2
LAYER
  70
1
  0
LAYER
  2
BLACK
  70
0
  62
7
  6
CONTINUOUS
  0
ENDTAB
  0
ENDSEC
  0
SECTION
  2
ENTITIES
0
ARC
8
BLACK
10
0.312499
20
-5.980791
40
0.3000025000104166
50
-89.99952254
51
-0.00047746
0
LINE
8
BLACK
6
CONTINUOUS
10
-12.9874979999999987
20
-6.2807939999999993
11
0.312502
21
-6.2807939999999993
0
ARC
8
BLACK
10
-12.9874979999999987
20
-5.9807939999999995
40
0.3
50
-180.00000000
51
-90.00000000
0
LINE
8
BLACK
6
CONTINUOUS
10
-13.2874979999999994
20
7.3192059999999994
11
-13.2874979999999994
21
-5.9807939999999995
0
ARC
8
BLACK
10
-32.0374979999999994
20
42.9192059999999955
40
0.3
50
90.00000000
51
180.00000000
0
LINE
8
BLACK
6
CONTINUOUS
10
-18.7374979999999987
20
43.2192059999999998
11
-32.0374979999999994
21
43.2192059999999998
0
ARC
8
BLACK
10
-18.7374979999999987
20
42.9192059999999955
40
0.3
50
-0.00000000
51
90.00000000
0
LINE
8
BLACK
6
CONTINUOUS
10
-18.4374979999999979
20
29.6192059999999984
11
-18.4374979999999979
21
42.9192059999999955
0
ARC
8
BLACK
10
-18.7374979999999987
20
29.6192059999999984
40
0.3
50
-90.00000000
51
-0.00000000
0
LINE
8
BLACK
6
CONTINUOUS
10
-32.0374979999999994
20
29.3192059999999977
11
-18.7374979999999987
21
29.3192059999999977
0
LINE
8
BLACK
6
CONTINUOUS
10
57.4625020000000006
20
15.1692059999999991
11
44.1625019999999964
21
15.1692059999999991
0
ARC
8
BLACK
10
25.1124949999999991
20
32.6191990000000018
40
0.2999935000704181
50
-180.00124144
51
-89.99875856
0
ARC
8
BLACK
10
-36.6124939999999981
20
3.9667179999999997
40
0.999996021127335
50
-68.03670697
51
0.00011639
0
LINE
8
BLACK
6
CONTINUOUS
10
24.8125019999999985
20
45.9192059999999955
11
24.8125019999999985
21
32.6192059999999984
0
ARC
8
BLACK
10
25.1124989999999997
20
45.9192079999999976
40
0.2999975000104167
50
-270.00047747
51
-179.99952253
0
LINE
8
BLACK
6
CONTINUOUS
10
38.4125019999999964
20
46.2192059999999998
11
25.1125019999999992
21
46.2192059999999998
0
ARC
8
BLACK
10
38.4124949999999998
20
45.919198999999999
40
0.3000065000704151
50
0.00124138
51
89.99875862
0
LINE
8
BLACK
6
CONTINUOUS
10
38.7125020000000006
20
32.6192059999999984
11
38.7125020000000006
21
45.9192059999999955
0
ARC
8
BLACK
10
38.4124989999999968
20
32.6192080000000004
40
0.3000025000104166
50
-89.99952254
51
-0.00047746
0
LINE
8
BLACK
6
CONTINUOUS
10
25.1125019999999992
20
32.3192060000000012
11
38.4125019999999964
21
32.3192060000000012
0
ARC
8
BLACK
10
-1.2234099999999999
20
-11.7506009999999996
40
0.2999790007350515
50
-270.00401099
51
-179.99598901
0
LINE
8
BLACK
6
CONTINUOUS
10
12.0766109999999998
20
-11.4506219999999992
11
-1.2233889999999998
21
-11.4506219999999992
0
ARC
8
BLACK
10
12.0766139999999993
20
-11.7506189999999986
40
0.2999970000150002
50
-0.00057296
51
90.00057296
0
LINE
8
BLACK
6
CONTINUOUS
10
12.3766109999999987
20
-25.0506220000000006
11
12.3766109999999987
21
-11.7506219999999999
0
LINE
8
BLACK
6
CONTINUOUS
10
-1.2233889999999998
20
-25.3506219999999978
11
12.0766109999999998
21
-25.3506219999999978
0
ARC
8
BLACK
10
-1.2233859999999999
20
-25.0506189999999975
40
0.3000030000149998
50
-179.99942705
51
-90.00057295
0
LINE
8
BLACK
6
CONTINUOUS
10
-1.5233889999999999
20
-11.7506219999999999
11
-1.5233889999999999
21
-25.0506220000000006
0
ARC
8
BLACK
10
-32.0374979999999994
20
4.8192059999999994
40
0.3
50
90.00000000
51
180.00000000
0
LINE
8
BLACK
6
CONTINUOUS
10
-18.7374979999999987
20
5.1192060000000001
11
-32.0374979999999994
21
5.1192060000000001
0
ARC
8
BLACK
10
-18.7374979999999987
20
4.8192059999999994
40
0.3
50
-0.00000000
51
90.00000000
0
LINE
8
BLACK
6
CONTINUOUS
10
-18.4374979999999979
20
-8.4807939999999995
11
-18.4374979999999979
21
4.8192059999999994
0
ARC
8
BLACK
10
-18.7374979999999987
20
-8.4807939999999995
40
0.3
50
-90.00000000
51
-0.00000000
0
LINE
8
BLACK
6
CONTINUOUS
10
-32.0374979999999994
20
-8.7807940000000002
11
-18.7374979999999987
21
-8.7807940000000002
0
ARC
8
BLACK
10
-32.0374979999999994
20
-8.4807939999999995
40
0.3
50
-180.00000000
51
-90.00000000
0
LINE
8
BLACK
6
CONTINUOUS
10
-32.3374979999999965
20
4.8192059999999994
11
-32.3374979999999965
21
-8.4807939999999995
0
ARC
8
BLACK
10
19.3624989999999997
20
38.6192080000000004
40
0.3000025000104166
50
-89.99952254
51
-0.00047746
0
LINE
8
BLACK
6
CONTINUOUS
10
6.0625019999999994
20
38.3192060000000012
11
19.3625019999999992
21
38.3192060000000012
0
LINE
8
BLACK
6
CONTINUOUS
10
76.812501999999995
20
20.6191959999999987
11
76.812501999999995
21
33.9191959999999995
0
ARC
8
BLACK
10
76.5125000000000028
20
33.9191939999999974
40
0.30000150000375
50
0.00028648
51
89.99971352
0
LINE
8
BLACK
6
CONTINUOUS
10
76.5125019999999978
20
34.2191959999999966
11
63.2125020000000006
21
34.2191959999999966
0
ARC
8
BLACK
10
63.2124939999999995
20
33.919202999999996
40
0.2999925000937523
50
-270.00143243
51
-179.99856757
0
LINE
8
BLACK
6
CONTINUOUS
10
62.9125019999999964
20
33.9191959999999995
11
62.9125019999999964
21
20.6191959999999987
0
ARC
8
BLACK
10
63.2124999999999986
20
20.6191940000000002
40
0.29999850000375
50
-180.00028648
51
-89.99971352
0
ARC
8
BLACK
10
76.5124939999999896
20
-17.480795999999998
40
0.3000075000937476
50
-89.99856764
51
-0.00143236
0
ARC
8
BLACK
10
31.1265900000000002
20
-25.0506010000000003
40
0.3000210007349485
50
-89.99598958
51
-0.00401042
0
LINE
8
BLACK
6
CONTINUOUS
10
76.812501999999995
20
-17.4808039999999991
11
76.812501999999995
21
-4.1808040000000002
0
LINE
8
BLACK
6
CONTINUOUS
10
5.7625019999999996
20
13.8192059999999994
11
5.7625019999999996
21
0.5192059999999999
0
ARC
8
BLACK
10
76.5125000000000028
20
-4.1808049999999994
40
0.30000150000375
50
0.00028648
51
89.99971352
0
ARC
8
BLACK
10
6.0624949999999993
20
0.519199
40
0.2999935000704182
50
-180.00124144
51
-89.99875856
0
LINE
8
BLACK
6
CONTINUOUS
10
76.5125019999999978
20
-3.8808039999999999
11
63.2125020000000006
21
-3.8808039999999999
0
LINE
8
BLACK
6
CONTINUOUS
10
6.0625019999999994
20
0.219206
11
19.3625019999999992
21
0.219206
0
ARC
8
BLACK
10
63.2124939999999995
20
-4.180796
40
0.2999925000937523
50
-270.00143243
51
-179.99856757
0
ARC
8
BLACK
10
19.3624989999999997
20
0.519208
40
0.3000025000104166
50
-89.99952254
51
-0.00047746
0
LINE
8
BLACK
6
CONTINUOUS
10
62.9125019999999964
20
-4.1808040000000002
11
62.9125019999999964
21
-17.4808039999999991
0
LINE
8
BLACK
6
CONTINUOUS
10
19.6625019999999999
20
0.5192059999999999
11
19.6625019999999999
21
13.8192059999999994
0
ARC
8
BLACK
10
63.2124999999999986
20
-17.4808050000000001
40
0.29999850000375
50
-180.00028648
51
-89.99971352
0
ARC
8
BLACK
10
19.3624949999999991
20
13.8191989999999993
40
0.3000065000704151
50
0.00124138
51
89.99875862
0
LINE
8
BLACK
6
CONTINUOUS
10
63.2125020000000006
20
-17.7808039999999998
11
76.5125019999999978
21
-17.7808039999999998
0
LINE
8
BLACK
6
CONTINUOUS
10
19.3625019999999992
20
14.1192060000000001
11
6.0625019999999994
21
14.1192060000000001
0
LINE
8
BLACK
6
CONTINUOUS
10
31.1266109999999969
20
-25.3506219999999978
11
17.8266109999999998
21
-25.3506219999999978
0
ARC
8
BLACK
10
6.0624989999999999
20
13.8192079999999997
40
0.2999975000104167
50
-270.00047747
51
-179.99952253
0
ARC
8
BLACK
10
17.8266139999999993
20
-25.0506189999999975
40
0.3000030000149998
50
-179.99942705
51
-90.00057295
0
LINE
8
BLACK
6
CONTINUOUS
10
19.6625019999999999
20
38.6192059999999984
11
19.6625019999999999
21
51.9192059999999955
0
LINE
8
BLACK
6
CONTINUOUS
10
17.5266109999999991
20
-25.0506220000000006
11
17.5266109999999991
21
-11.7506219999999999
0
ARC
8
BLACK
10
19.3624949999999991
20
51.919198999999999
40
0.3000065000704151
50
0.00124138
51
89.99875862
0
ARC
8
BLACK
10
17.8265899999999995
20
-11.7506009999999996
40
0.2999790007350515
50
-270.00401099
51
-179.99598901
0
LINE
8
BLACK
6
CONTINUOUS
10
19.3625019999999992
20
52.2192059999999998
11
6.0625019999999994
21
52.2192059999999998
0
LINE
8
BLACK
6
CONTINUOUS
10
17.8266109999999998
20
-11.4506219999999992
11
31.1266109999999969
21
-11.4506219999999992
0
ARC
8
BLACK
10
6.0624989999999999
20
51.9192079999999976
40
0.2999975000104167
50
-270.00047747
51
-179.99952253
0
ARC
8
BLACK
10
31.126614
20
-11.7506189999999986
40
0.2999970000150002
50
-0.00057296
51
90.00057296
0
LINE
8
BLACK
6
CONTINUOUS
10
5.7625019999999996
20
51.9192059999999955
11
5.7625019999999996
21
38.6192059999999984
0
LINE
8
BLACK
6
CONTINUOUS
10
31.4266109999999976
20
-11.7506219999999999
11
31.4266109999999976
21
-25.0506220000000006
0
ARC
8
BLACK
10
6.0624949999999993
20
38.6191989999999947
40
0.2999935000704181
50
-180.00124144
51
-89.99875856
0
ARC
8
BLACK
10
44.1624989999999968
20
14.8692079999999986
40
0.2999975000104167
50
-270.00047747
51
-179.99952253
0
ARC
8
BLACK
10
44.1624949999999998
20
1.569199
40
0.2999935000704181
50
-180.00124144
51
-89.99875856
0
LINE
8
BLACK
6
CONTINUOUS
10
44.1625019999999964
20
1.2692059999999998
11
57.4625020000000006
21
1.2692059999999998
0
ARC
8
BLACK
10
57.462498999999994
20
1.5692079999999999
40
0.3000025000104166
50
-89.99952254
51
-0.00047746
0
LINE
8
BLACK
6
CONTINUOUS
10
57.7625019999999978
20
1.5692059999999999
11
57.7625019999999978
21
14.8692060000000001
0
ARC
8
BLACK
10
57.462494999999997
20
14.8691990000000001
40
0.3000065000704151
50
0.00124138
51
89.99875862
0
LINE
8
BLACK
6
CONTINUOUS
10
43.8625019999999992
20
-4.1807939999999997
11
43.8625019999999992
21
-17.4807939999999995
0
ARC
8
BLACK
10
44.1624949999999998
20
-17.4807999999999986
40
0.2999935000704181
50
-180.00124144
51
-89.99875856
0
LINE
8
BLACK
6
CONTINUOUS
10
44.1625019999999964
20
-17.7807940000000002
11
57.4625020000000006
21
-17.7807940000000002
0
ARC
8
BLACK
10
57.462498999999994
20
-17.480791
40
0.3000025000104166
50
-89.99952254
51
-0.00047746
0
LINE
8
BLACK
6
CONTINUOUS
10
57.7625019999999978
20
-17.4807939999999995
11
57.7625019999999978
21
-4.1807939999999997
0
ARC
8
BLACK
10
57.462494999999997
20
-4.1807999999999996
40
0.3000065000704151
50
0.00124138
51
89.99875862
0
LINE
8
BLACK
6
CONTINUOUS
10
57.4625020000000006
20
-3.8807939999999999
11
44.1625019999999964
21
-3.8807939999999999
0
ARC
8
BLACK
10
44.1624989999999968
20
-4.1807910000000001
40
0.2999975000104167
50
-270.00047747
51
-179.99952253
0
ARC
8
BLACK
10
-23.9086359999999978
20
-16.4881689999999992
40
0.3000001882573858
50
-254.99993490
51
-165.00011938
0
LINE
8
BLACK
6
CONTINUOUS
10
44.1625019999999964
20
20.3192059999999977
11
57.4625020000000006
21
20.3192059999999977
0
LINE
8
BLACK
6
CONTINUOUS
10
-24.1984150000000007
20
-16.5658150000000006
11
-20.7561219999999977
21
-29.412628999999999
0
ARC
8
BLACK
10
-20.4663439999999994
20
-29.3349829999999976
40
0.3000003176664985
50
-164.99995961
51
-74.99995961
0
LINE
8
BLACK
6
CONTINUOUS
10
-20.388697999999998
20
-29.6247609999999995
11
-7.5418849999999997
21
-26.1824680000000001
0
ARC
8
BLACK
10
-7.6195309999999994
20
-25.8926899999999982
40
0.3000003176664985
50
-74.99995961
51
15.00004039
0
LINE
8
BLACK
6
CONTINUOUS
10
25.1125019999999992
20
13.2692059999999987
11
38.4125019999999964
21
13.2692059999999987
0
LINE
8
BLACK
6
CONTINUOUS
10
38.7125020000000006
20
13.5692059999999994
11
38.7125020000000006
21
26.8692059999999984
0
LINE
8
BLACK
6
CONTINUOUS
10
43.8625019999999992
20
14.8692060000000001
11
43.8625019999999992
21
1.5692059999999999
0
CIRCLE
8
BLACK
10
60.3374939999999995
20
36.794202999999996
40
1.1499999999999999
0
ARC
8
BLACK
10
38.4124949999999998
20
26.8691989999999983
40
0.3000065000704151
50
0.00124138
51
89.99875862
0
LINE
8
BLACK
6
CONTINUOUS
10
38.4125019999999964
20
27.1692059999999991
11
25.1125019999999992
21
27.1692059999999991
0
ARC
8
BLACK
10
25.1124989999999997
20
26.8692080000000004
40
0.2999975000104167
50
-270.00047747
51
-179.99952253
0
LINE
8
BLACK
6
CONTINUOUS
10
24.8125019999999985
20
26.8692059999999984
11
24.8125019999999985
21
13.5692059999999994
0
ARC
8
BLACK
10
25.1124949999999991
20
13.5691989999999993
40
0.2999935000704181
50
-180.00124144
51
-89.99875856
0
LINE
8
BLACK
6
CONTINUOUS
10
62.9125019999999964
20
14.8691959999999987
11
62.9125019999999964
21
1.569196
0
ARC
8
BLACK
10
63.2124999999999986
20
1.569194
40
0.29999850000375
50
-180.00028648
51
-89.99971352
0
LINE
8
BLACK
6
CONTINUOUS
10
63.2125020000000006
20
1.269196
11
76.5125019999999978
21
1.269196
0
ARC
8
BLACK
10
76.5124939999999896
20
1.5692029999999999
40
0.3000075000937476
50
-89.99856764
51
-0.00143236
0
LINE
8
BLACK
6
CONTINUOUS
10
76.812501999999995
20
1.569196
11
76.812501999999995
21
14.8691959999999987
0
ARC
8
BLACK
10
76.5125000000000028
20
14.8691939999999985
40
0.30000150000375
50
0.00028648
51
89.99971352
0
LINE
8
BLACK
6
CONTINUOUS
10
76.5125019999999978
20
15.1691959999999995
11
63.2125020000000006
21
15.1691959999999995
0
ARC
8
BLACK
10
-32.0374979999999994
20
29.6192059999999984
40
0.3
50
-180.00000000
51
-90.00000000
0
ARC
8
BLACK
10
38.4124989999999968
20
13.5692079999999997
40
0.3000025000104166
50
-89.99952254
51
-0.00047746
0
LINE
8
BLACK
6
CONTINUOUS
10
0.312502
20
45.7192059999999998
11
-12.9874979999999987
21
45.7192059999999998
0
LINE
8
BLACK
6
CONTINUOUS
10
24.8125019999999985
20
7.8192059999999994
11
24.8125019999999985
21
-5.4807939999999995
0
LINE
8
BLACK
6
CONTINUOUS
10
38.4125019999999964
20
8.1192060000000001
11
25.1125019999999992
21
8.1192060000000001
0
ARC
8
BLACK
10
76.5124939999999896
20
20.6192029999999988
40
0.3000075000937476
50
-89.99856764
51
-0.00143236
0
LINE
8
BLACK
6
CONTINUOUS
10
57.4625020000000006
20
34.2192059999999998
11
44.1625019999999964
21
34.2192059999999998
0
LINE
8
BLACK
6
CONTINUOUS
10
-32.3374979999999965
20
42.9192059999999955
11
-32.3374979999999965
21
29.6192059999999984
0
ARC
8
BLACK
10
25.1124989999999997
20
7.8192079999999997
40
0.2999975000104167
50
-270.00047747
51
-179.99952253
0
LINE
8
BLACK
6
CONTINUOUS
10
63.2125020000000006
20
20.319195999999998
11
76.5125019999999978
21
20.319195999999998
0
ARC
8
BLACK
10
38.4124949999999998
20
7.8191989999999993
40
0.3000065000704151
50
0.00124138
51
89.99875862
0
LINE
8
BLACK
6
CONTINUOUS
10
38.7125020000000006
20
-5.4807939999999995
11
38.7125020000000006
21
7.8192059999999994
0
ARC
8
BLACK
10
38.4124989999999968
20
-5.480791
40
0.3000025000104166
50
-89.99952254
51
-0.00047746
0
LINE
8
BLACK
6
CONTINUOUS
10
25.1125019999999992
20
-5.7807939999999993
11
38.4125019999999964
21
-5.7807939999999993
0
ARC
8
BLACK
10
25.1124949999999991
20
-5.4807999999999995
40
0.2999935000704181
50
-180.00124144
51
-89.99875856
0
CIRCLE
8
BLACK
10
60.3374929999999949
20
-1.305798
40
1.1499999999999999
0
ARC
8
BLACK
10
63.2124939999999995
20
14.8692029999999988
40
0.2999925000937523
50
-270.00143243
51
-179.99856757
0
LINE
8
BLACK
6
CONTINUOUS
10
-11.1394690000000001
20
-12.756098999999999
11
-23.9862830000000002
21
-16.1983919999999983
0
ARC
8
BLACK
10
-11.0618229999999986
20
-13.0458769999999991
40
0.3000001882573858
50
15.00006510
51
104.99988062
0
LINE
8
BLACK
6
CONTINUOUS
10
-7.3297529999999993
20
-25.8150440000000003
11
-10.7720459999999996
21
-12.9682309999999994
0
ARC
8
BLACK
10
-32.0374979999999994
20
23.8692059999999984
40
0.3
50
90.00000000
51
180.00000000
0
LINE
8
BLACK
6
CONTINUOUS
10
-18.7374979999999987
20
24.1692059999999991
11
-32.0374979999999994
21
24.1692059999999991
0
CIRCLE
8
BLACK
10
20.1760929999999981
20
-7.4242969999999993
40
1.1499999999999999
0
ARC
8
BLACK
10
-18.7374979999999987
20
23.8692059999999984
40
0.3
50
-0.00000000
51
90.00000000
0
LINE
8
BLACK
6
CONTINUOUS
10
-18.4374979999999979
20
10.5692059999999994
11
-18.4374979999999979
21
23.8692059999999984
0
ARC
8
BLACK
10
-18.7374979999999987
20
10.5692059999999994
40
0.3
50
-90.00000000
51
-0.00000000
0
LINE
8
BLACK
6
CONTINUOUS
10
-32.0374979999999994
20
10.2692059999999987
11
-18.7374979999999987
21
10.2692059999999987
0
ARC
8
BLACK
10
-32.0374979999999994
20
10.5692059999999994
40
0.3
50
-180.00000000
51
-90.00000000
0
LINE
8
BLACK
6
CONTINUOUS
10
-32.3374979999999965
20
23.8692059999999984
11
-32.3374979999999965
21
10.5692059999999994
0
ARC
8
BLACK
10
19.3624989999999997
20
19.5692079999999997
40
0.3000025000104166
50
-89.99952254
51
-0.00047746
0
LINE
8
BLACK
6
CONTINUOUS
10
6.0625019999999994
20
19.2692060000000005
11
19.3625019999999992
21
19.2692060000000005
0
ARC
8
BLACK
10
6.0624949999999993
20
19.5691989999999976
40
0.2999935000704181
50
-180.00124144
51
-89.99875856
0
ARC
8
BLACK
10
6.0624989999999999
20
32.8692080000000004
40
0.2999975000104167
50
-270.00047747
51
-179.99952253
0
LINE
8
BLACK
6
CONTINUOUS
10
19.3625019999999992
20
33.1692059999999955
11
6.0625019999999994
21
33.1692059999999955
0
ARC
8
BLACK
10
19.3624949999999991
20
32.8691990000000018
40
0.3000065000704151
50
0.00124138
51
89.99875862
0
CIRCLE
8
BLACK
10
-50.4947519999999983
20
-27.397040999999998
40
1.1499999999999999
0
LINE
8
BLACK
6
CONTINUOUS
10
0.612502
20
32.1192059999999984
11
0.612502
21
45.4192059999999955
0
LINE
8
BLACK
6
CONTINUOUS
10
19.6625019999999999
20
19.5692059999999977
11
19.6625019999999999
21
32.8692059999999984
0
ARC
8
BLACK
10
-12.9874979999999987
20
13.0692059999999994
40
0.3
50
-180.00000000
51
-90.00000000
0
LINE
8
BLACK
6
CONTINUOUS
10
-13.2874979999999994
20
26.3692059999999984
11
-13.2874979999999994
21
13.0692059999999994
0
ARC
8
BLACK
10
-12.9874979999999987
20
26.3692059999999984
40
0.3
50
90.00000000
51
180.00000000
0
LINE
8
BLACK
6
CONTINUOUS
10
0.312502
20
26.6692059999999991
11
-12.9874979999999987
21
26.6692059999999991
0
ARC
8
BLACK
10
0.312495
20
26.3691989999999983
40
0.3000065000704151
50
0.00124138
51
89.99875862
0
LINE
8
BLACK
6
CONTINUOUS
10
0.612502
20
13.0692059999999994
11
0.612502
21
26.3692059999999984
0
ARC
8
BLACK
10
0.312499
20
13.0692079999999997
40
0.3000025000104166
50
-89.99952254
51
-0.00047746
0
LINE
8
BLACK
6
CONTINUOUS
10
-12.9874979999999987
20
12.7692059999999987
11
0.312502
21
12.7692059999999987
0
ARC
8
BLACK
10
-12.9874979999999987
20
32.1192059999999984
40
0.3
50
-180.00000000
51
-90.00000000
0
LINE
8
BLACK
6
CONTINUOUS
10
-13.2874979999999994
20
45.4192059999999955
11
-13.2874979999999994
21
32.1192059999999984
0
ARC
8
BLACK
10
-12.9874979999999987
20
45.4192059999999955
40
0.3
50
90.00000000
51
180.00000000
0
ARC
8
BLACK
10
0.312495
20
45.419198999999999
40
0.3000065000704151
50
0.00124138
51
89.99875862
0
ARC
8
BLACK
10
0.312499
20
32.1192080000000004
40
0.3000025000104166
50
-89.99952254
51
-0.00047746
0
LINE
8
BLACK
6
CONTINUOUS
10
-12.9874979999999987
20
31.8192059999999977
11
0.312502
21
31.8192059999999977
0
ARC
8
BLACK
10
57.462494999999997
20
33.919198999999999
40
0.3000065000704151
50
0.00124138
51
89.99875862
0
LINE
8
BLACK
6
CONTINUOUS
10
57.7625019999999978
20
20.6192059999999984
11
57.7625019999999978
21
33.9192059999999955
0
ARC
8
BLACK
10
57.462498999999994
20
20.6192080000000004
40
0.3000025000104166
50
-89.99952254
51
-0.00047746
0
ARC
8
BLACK
10
12.0765899999999995
20
-25.0506010000000003
40
0.3000210007349485
50
-89.99598958
51
-0.00401042
0
ARC
8
BLACK
10
44.1624949999999998
20
20.6191989999999983
40
0.2999935000704181
50
-180.00124144
51
-89.99875856
0
LINE
8
BLACK
6
CONTINUOUS
10
43.8625019999999992
20
33.9192059999999955
11
43.8625019999999992
21
20.6192059999999984
0
ARC
8
BLACK
10
44.1624989999999968
20
33.9192079999999976
40
0.2999975000104167
50
-270.00047747
51
-179.99952253
0
LINE
8
BLACK
6
CONTINUOUS
10
0.612502
20
-5.9807939999999995
11
0.612502
21
7.3192059999999994
0
ARC
8
BLACK
10
0.312495
20
7.3191989999999993
40
0.3000065000704151
50
0.00124138
51
89.99875862
0
LINE
8
BLACK
6
CONTINUOUS
10
0.312502
20
7.6192059999999993
11
-12.9874979999999987
21
7.6192059999999993
0
ARC
8
BLACK
10
-12.9874979999999987
20
7.3192059999999994
40
0.3
50
90.00000000
51
180.00000000
0
CIRCLE
8
BLACK
10
-3.8409069999999996
20
51.265701
40
1.1499999999999999
0
LINE
8
BLACK
6
CONTINUOUS
10
-66.149959999999993
20
-19.2940879999999986
11
-75.5544799999999981
21
-28.6986089999999976
0
LINE
8
BLACK
6
CONTINUOUS
10
-75.5544799999999981
20
-29.1228729999999985
11
-66.149959999999993
21
-38.5273929999999964
0
LINE
8
BLACK
6
CONTINUOUS
10
-65.7256959999999992
20
-38.5273929999999964
11
-56.3211759999999941
21
-29.1228729999999985
0
LINE
8
BLACK
6
CONTINUOUS
10
-56.3211759999999941
20
-28.6986089999999976
11
-65.7256959999999992
21
-19.2940879999999986
0
LINE
8
BLACK
6
CONTINUOUS
10
-52.2553119999999964
20
-51.9977769999999992
11
-42.8507919999999984
21
-42.5932570000000013
0
LINE
8
BLACK
6
CONTINUOUS
10
-42.8507919999999984
20
-42.1689930000000004
11
-52.2553119999999964
21
-32.7644729999999953
0
LINE
8
BLACK
6
CONTINUOUS
10
-52.6795759999999973
20
-32.7644729999999953
11
-62.0840959999999953
21
-42.1689930000000004
0
LINE
8
BLACK
6
CONTINUOUS
10
-62.0840959999999953
20
-42.5932570000000013
11
-52.6795759999999973
21
-51.9977769999999992
0
LINE
8
BLACK
6
CONTINUOUS
10
-37.7947369999999978
20
-38.7136089999999982
11
-26.2765989999999974
21
-32.0636089999999996
0
LINE
8
BLACK
6
CONTINUOUS
10
-26.1667909999999999
20
-31.6538019999999989
11
-32.816791000000002
21
-20.1356639999999985
0
LINE
8
BLACK
6
CONTINUOUS
10
-33.2265990000000002
20
-20.0258559999999974
11
-44.7447370000000006
21
-26.6758559999999996
0
LINE
8
BLACK
6
CONTINUOUS
10
-44.8545439999999971
20
-27.0856639999999977
11
-38.2045439999999985
21
-38.6038020000000017
0
LINE
8
BLACK
6
CONTINUOUS
10
-35.6917909999999949
20
-15.1560179999999995
11
-42.3417910000000006
21
-3.63788
0
LINE
8
BLACK
6
CONTINUOUS
10
-42.7515989999999988
20
-3.5280719999999999
11
-54.2697369999999992
21
-10.1780720000000002
0
LINE
8
BLACK
6
CONTINUOUS
10
-54.3795439999999957
20
-10.5878800000000002
11
-47.7295439999999971
21
-22.1060179999999988
0
LINE
8
BLACK
6
CONTINUOUS
10
-47.3197369999999964
20
-22.2158249999999988
11
-35.801598999999996
21
-15.5658249999999985
0
ARC
8
BLACK
10
-52.4674440000000004
20
-32.9766049999999993
40
0.2999999514133294
50
45.00000000
51
135.00000000
0
ARC
8
BLACK
10
-43.0629239999999953
20
-42.3811249999999973
40
0.2999999514133294
50
-45.00000000
51
45.00000000
0
ARC
8
BLACK
10
-61.8719639999999984
20
-42.3811249999999973
40
0.2999999514133294
50
-225.00000000
51
-135.00000000
0
ARC
8
BLACK
10
-52.4674440000000004
20
-51.7856449999999953
40
0.2999999514133294
50
-135.00000000
51
-45.00000000
0
ARC
8
BLACK
10
-33.0765990000000016
20
-20.2856640000000006
40
0.3000003281064872
50
29.99996382
51
119.99996382
0
ARC
8
BLACK
10
-37.9447359999999989
20
-38.4538009999999986
40
0.3000001450948552
50
-149.99981024
51
-60.00007113
0
ARC
8
BLACK
10
-44.5947379999999995
20
-26.9356629999999981
40
0.2999990290709114
50
-240.00011888
51
-149.99969259
0
ARC
8
BLACK
10
-26.4265969999999975
20
-31.803801
40
0.2999992120812579
50
-60.00015383
51
30.00001157
0
ARC
8
BLACK
10
-54.1197379999999981
20
-10.4378789999999988
40
0.2999990290709114
50
-240.00011888
51
-149.99969259
0
ARC
8
BLACK
10
-47.469736999999995
20
-21.9560199999999988
40
0.2999979130474081
50
-150.00023653
51
-59.99964484
0
ARC
8
BLACK
10
-35.9515969999999996
20
-15.3060169999999989
40
0.299999212081257
50
-60.00015383
51
30.00001157
0
ARC
8
BLACK
10
-42.6015990000000002
20
-3.7878799999999999
40
0.3000003281064872
50
29.99996382
51
119.99996382
0
ARC
8
BLACK
10
-65.9378279999999961
20
-19.506219999999999
40
0.2999999514133294
50
45.00000000
51
135.00000000
0
ARC
8
BLACK
10
-56.5333079999999981
20
-28.910740999999998
40
0.2999999514133294
50
-45.00000000
51
45.00000000
0
ARC
8
BLACK
10
-65.9378279999999961
20
-38.3152609999999996
40
0.2999999514133294
50
-135.00000000
51
-45.00000000
0
ARC
8
BLACK
10
-75.3423480000000012
20
-28.910740999999998
40
0.2999999514133294
50
-225.00000000
51
-135.00000000
0
LINE
8
BLACK
6
CONTINUOUS
10
5.7625019999999996
20
32.8692059999999984
11
5.7625019999999996
21
19.5692059999999977
0
LINE
8
BLACK
6
CONTINUOUS
10
33.9516109999999998
20
-28.8756219999999999
11
5.4266109999999994
21
-28.8756219999999999
0
ARC
8
BLACK
10
5.4266100000000002
20
-100.2751779999999968
40
71.3995569041713196
50
89.99999985
51
134.99999995
0
LINE
8
BLACK
6
CONTINUOUS
10
-45.0604999999999976
20
-49.7880679999999955
11
-51.7603369999999998
21
-56.4879049999999978
0
LINE
8
BLACK
6
CONTINUOUS
10
-53.174551000000001
20
-56.4879049999999978
11
-80.0446079999999967
21
-29.6178469999999976
0
LINE
8
BLACK
6
CONTINUOUS
10
-80.0446079999999967
20
-28.2036339999999974
11
-73.3447719999999919
21
-21.5037969999999987
0
ARC
8
BLACK
10
5.4266109999999994
20
-100.2751789999999943
40
111.3995577682831737
50
111.96344066
51
135.00000045
0
LINE
8
BLACK
6
CONTINUOUS
10
-35.6124979999999951
20
3.9667209999999997
11
-35.6124979999999951
21
50.5569699999999997
0
ARC
8
BLACK
10
5.4266109999999994
20
-100.2751769999999993
40
157.0559742740027218
50
69.42105400
51
104.86656945
0
ARC
8
BLACK
10
5.4265999999999996
20
-100.2752009999999956
40
157.0560002227664427
50
61.73060599
51
69.42105328
0
LINE
8
BLACK
6
CONTINUOUS
10
80.3375020000000006
20
37.1680729999999997
11
80.3375020000000006
21
-20.3057939999999988
0
LINE
8
BLACK
6
CONTINUOUS
10
79.3375020000000006
20
-21.3057939999999988
11
35.9516109999999998
21
-21.3057939999999988
0
LINE
8
BLACK
6
CONTINUOUS
10
34.9516109999999998
20
-22.3057939999999988
11
34.9516109999999998
21
-27.8756219999999999
0
ARC
8
BLACK
10
-79.3375049999999931
20
-28.910739999999997
40
0.9999971274714993
50
-225.00014180
51
-134.99985820
0
ARC
8
BLACK
10
-52.4674440000000004
20
-55.7807969999999997
40
1.0000010165559834
50
-134.99995949
51
-45.00004051
0
ARC
8
BLACK
10
33.9515899999999959
20
-27.8756009999999996
40
1.0000210002204954
50
-89.99879681
51
-0.00120319
0
ARC
8
BLACK
10
35.9516039999999961
20
-22.3057869999999987
40
0.9999930000245001
50
-270.00040107
51
-179.99959893
0
ARC
8
BLACK
10
79.337498999999994
20
-20.3057909999999993
40
1.000002500003125
50
-89.99985676
51
-0.00014324
0
ARC
8
BLACK
10
79.3375070000000022
20
37.1680769999999967
40
0.9999941367768742
50
-0.00023670
51
61.73079455
0
ARC
8
BLACK
10
-34.6124989999999997
20
50.5569699999999997
40
0.9999988002782298
50
-255.13353647
51
-179.99995758
  0
ENDSEC
  0
EOF
