%TF.GenerationSoftware,KiCad,Pcbnew,7.0.1*%
%TF.CreationDate,2023-04-13T16:00:07+02:00*%
%TF.ProjectId,kicad,6b696361-642e-46b6-9963-61645f706362,rev?*%
%TF.SameCoordinates,Original*%
%TF.FileFunction,Profile,NP*%
%FSLAX46Y46*%
G04 Gerber Fmt 4.6, Leading zero omitted, Abs format (unit mm)*
G04 Created by KiCad (PCBNEW 7.0.1) date 2023-04-13 16:00:07*
%MOMM*%
%LPD*%
G01*
G04 APERTURE LIST*
%TA.AperFunction,Profile*%
%ADD10C,0.200000*%
%TD*%
G04 APERTURE END LIST*
D10*
X209850000Y-74150013D02*
G75*
G03*
X209550000Y-74450010I-9J-299991D01*
G01*
X223250000Y-74150010D02*
X209850000Y-74150010D01*
X223549985Y-74450010D02*
G75*
G03*
X223250000Y-74150010I-299994J6D01*
G01*
X223550000Y-87850010D02*
X223550000Y-74450010D01*
X223250000Y-88150013D02*
G75*
G03*
X223550000Y-87850010I-9J300009D01*
G01*
X209850000Y-88150010D02*
X223250000Y-88150010D01*
X209549985Y-87850010D02*
G75*
G03*
X209850000Y-88150010I300006J6D01*
G01*
X209550000Y-74450010D02*
X209550000Y-87850010D01*
X171449995Y-75850000D02*
G75*
G03*
X171750000Y-76150000I299996J-4D01*
G01*
X171450000Y-62450000D02*
X171450000Y-75850000D01*
X128000000Y-98200000D02*
G75*
G03*
X128300000Y-97900000I0J300000D01*
G01*
X114600000Y-98200000D02*
X128000000Y-98200000D01*
X114300000Y-97900000D02*
G75*
G03*
X114600000Y-98200000I300000J0D01*
G01*
X114300000Y-84500000D02*
X114300000Y-97900000D01*
X166100000Y-51100013D02*
G75*
G03*
X166400000Y-50800000I-9J300009D01*
G01*
X152700000Y-51100000D02*
X166100000Y-51100000D01*
X152399995Y-50800000D02*
G75*
G03*
X152700000Y-51100000I299996J-4D01*
G01*
X152400000Y-37400000D02*
X152400000Y-50800000D01*
X166100000Y-37100000D02*
X152700000Y-37100000D01*
X166399995Y-37400000D02*
G75*
G03*
X166100000Y-37100000I-300004J-4D01*
G01*
X166400000Y-50800000D02*
X166400000Y-37400000D01*
X152700000Y-75200013D02*
G75*
G03*
X152400000Y-75500000I-9J-299991D01*
G01*
X166100000Y-75200000D02*
X152700000Y-75200000D01*
X166399995Y-75500000D02*
G75*
G03*
X166100000Y-75200000I-300004J-4D01*
G01*
X168063591Y-96793503D02*
G75*
G03*
X168063591Y-96793503I-1200000J0D01*
G01*
X166400000Y-88900000D02*
X166400000Y-75500000D01*
X166100000Y-89200013D02*
G75*
G03*
X166400000Y-88900000I-9J300009D01*
G01*
X152700000Y-89200000D02*
X166100000Y-89200000D01*
X152399995Y-88900000D02*
G75*
G03*
X152700000Y-89200000I299996J-4D01*
G01*
X152400000Y-75500000D02*
X152400000Y-88900000D01*
X177864109Y-114769828D02*
X164464109Y-114769828D01*
X177864109Y-114769822D02*
G75*
G03*
X178164109Y-114469828I-18J300018D01*
G01*
X178164109Y-101069828D02*
X178164109Y-114469828D01*
X178164067Y-101069828D02*
G75*
G03*
X177864109Y-100769828I-299976J24D01*
G01*
X164464109Y-100769828D02*
X177864109Y-100769828D01*
X164464109Y-100769822D02*
G75*
G03*
X164164109Y-101069828I-18J-299982D01*
G01*
X164164109Y-114469828D02*
X164164109Y-101069828D01*
X181689109Y-111725000D02*
X181689109Y-117294828D01*
X180689109Y-118294822D02*
G75*
G03*
X181689109Y-117294828I-18J1000018D01*
G01*
X180689109Y-118294828D02*
X152114109Y-118294828D01*
X152114109Y-118294829D02*
G75*
G03*
X101662354Y-139192631I0J-71349556D01*
G01*
X101662353Y-139192630D02*
X94927161Y-145927822D01*
X93512947Y-145927822D02*
G75*
G03*
X94927161Y-145927822I707107J707108D01*
G01*
X93512947Y-145927822D02*
X66572179Y-118987053D01*
X223549985Y-55400010D02*
G75*
G03*
X223250000Y-55100010I-299994J6D01*
G01*
X66572180Y-117572841D02*
G75*
G03*
X66572179Y-118987053I707106J-707106D01*
G01*
X223250000Y-55100010D02*
X209850000Y-55100010D01*
X66572179Y-117572840D02*
X73307371Y-110837648D01*
X209850000Y-55100013D02*
G75*
G03*
X209550000Y-55400010I-9J-299991D01*
G01*
X110399294Y-86296052D02*
G75*
G03*
X73307371Y-110837648I41714817J-103348332D01*
G01*
X209550000Y-55400010D02*
X209550000Y-68800010D01*
X110399294Y-86296052D02*
G75*
G03*
X111025000Y-85368742I-374293J927309D01*
G01*
X209549985Y-68800010D02*
G75*
G03*
X209850000Y-69100010I300006J6D01*
G01*
X111025000Y-85368742D02*
X111025000Y-38773782D01*
X209850000Y-69100010D02*
X223250000Y-69100010D01*
X111768193Y-37807319D02*
G75*
G03*
X111025000Y-38773782I256808J-966464D01*
G01*
X209850000Y-107200010D02*
X223250000Y-107200010D01*
X205572738Y-41913337D02*
G75*
G03*
X111768193Y-37807319I-53458629J-147731059D01*
G01*
X223250000Y-107200013D02*
G75*
G03*
X223550000Y-106900010I-9J300009D01*
G01*
X209092340Y-43234793D02*
G75*
G03*
X205572738Y-41913338I-56979249J-146412311D01*
G01*
X223550000Y-106900010D02*
X223550000Y-93500010D01*
X226548789Y-51290610D02*
G75*
G03*
X209092340Y-43234794I-74434698J-138353894D01*
G01*
X223549985Y-93500010D02*
G75*
G03*
X223250000Y-93200010I-299994J6D01*
G01*
X227074952Y-52171253D02*
G75*
G03*
X226548787Y-51290614I-999961J49D01*
G01*
X223250000Y-93200010D02*
X209850000Y-93200010D01*
X227075000Y-52171253D02*
X227075000Y-109725000D01*
X209850000Y-93200013D02*
G75*
G03*
X209550000Y-93500010I-9J-299991D01*
G01*
X226075000Y-110725013D02*
G75*
G03*
X227075000Y-109725000I-9J1000009D01*
G01*
X209550000Y-93500010D02*
X209550000Y-106900010D01*
X223250000Y-69100013D02*
G75*
G03*
X223550000Y-68800010I-9J300009D01*
G01*
X209549985Y-106900010D02*
G75*
G03*
X209850000Y-107200010I300006J6D01*
G01*
X223550000Y-68800010D02*
X223550000Y-55400010D01*
X164164067Y-114469828D02*
G75*
G03*
X164464109Y-114769828I300024J24D01*
G01*
X128300000Y-97900000D02*
X128300000Y-84500000D01*
X128300000Y-84500000D02*
G75*
G03*
X128000000Y-84200000I-300000J0D01*
G01*
X128000000Y-84200000D02*
X114600000Y-84200000D01*
X114600000Y-84200000D02*
G75*
G03*
X114300000Y-84500000I0J-300000D01*
G01*
X145114109Y-101069828D02*
X145114109Y-114469828D01*
X145114107Y-114469828D02*
G75*
G03*
X145414109Y-114769828I300004J4D01*
G01*
X145414109Y-114769828D02*
X158814109Y-114769828D01*
X158814109Y-114769822D02*
G75*
G03*
X159114109Y-114469828I-18J300018D01*
G01*
X159114109Y-114469828D02*
X159114109Y-101069828D01*
X159114067Y-101069828D02*
G75*
G03*
X158814109Y-100769828I-299976J24D01*
G01*
X145414109Y-100769822D02*
G75*
G03*
X145114109Y-101069828I-18J-299982D01*
G01*
X171750000Y-57100000D02*
X185150000Y-57100000D01*
X185150000Y-57100013D02*
G75*
G03*
X185450000Y-56800000I-9J300009D01*
G01*
X185450000Y-56800000D02*
X185450000Y-43400000D01*
X185449995Y-43400000D02*
G75*
G03*
X185150000Y-43100000I-300004J-4D01*
G01*
X133350000Y-62950000D02*
X133350000Y-76350000D01*
X133350000Y-76350000D02*
G75*
G03*
X133650000Y-76650000I300000J0D01*
G01*
X166400000Y-69850000D02*
X166400000Y-56450000D01*
X166399995Y-56450000D02*
G75*
G03*
X166100000Y-56150000I-300004J-4D01*
G01*
X166100000Y-56150000D02*
X152700000Y-56150000D01*
X152399995Y-69850000D02*
G75*
G03*
X152700000Y-70150000I299996J-4D01*
G01*
X152700000Y-70150000D02*
X166100000Y-70150000D01*
X166100000Y-70150013D02*
G75*
G03*
X166400000Y-69850000I-9J300009D01*
G01*
X114300000Y-65450000D02*
X114300000Y-78850000D01*
X114600000Y-79150000D02*
X128000000Y-79150000D01*
X128000000Y-79150000D02*
G75*
G03*
X128300000Y-78850000I0J300000D01*
G01*
X128300000Y-65450000D02*
G75*
G03*
X128000000Y-65150000I-300000J0D01*
G01*
X128000000Y-65150000D02*
X114600000Y-65150000D01*
X114600000Y-65150000D02*
G75*
G03*
X114300000Y-65450000I0J-300000D01*
G01*
X139418983Y-115219606D02*
X135950807Y-102276200D01*
X135950807Y-102276200D02*
G75*
G03*
X135583384Y-102064067I-289778J-77645D01*
G01*
X135583384Y-102064067D02*
X122639978Y-105532243D01*
X171750000Y-62150013D02*
G75*
G03*
X171450000Y-62450000I-9J-299991D01*
G01*
X128300000Y-78850000D02*
X128300000Y-65450000D01*
X204200000Y-69100013D02*
G75*
G03*
X204500000Y-68800000I-9J300009D01*
G01*
X114300000Y-78850000D02*
G75*
G03*
X114600000Y-79150000I300000J0D01*
G01*
X208225000Y-90675010D02*
G75*
G03*
X208225000Y-90675010I-1200000J0D01*
G01*
X171750000Y-76150000D02*
X185150000Y-76150000D01*
X122427846Y-105899666D02*
X125896021Y-118843072D01*
X152700000Y-56150013D02*
G75*
G03*
X152400000Y-56450000I-9J-299991D01*
G01*
X152700000Y-37100013D02*
G75*
G03*
X152400000Y-37400000I-9J-299991D01*
G01*
X208225000Y-52575010D02*
G75*
G03*
X208225000Y-52575010I-1200000J0D01*
G01*
X122639978Y-105532244D02*
G75*
G03*
X122427846Y-105899666I77644J-289776D01*
G01*
X185450000Y-75850000D02*
X185450000Y-62450000D01*
X182689109Y-110725022D02*
G75*
G03*
X181689109Y-111725000I-18J-999982D01*
G01*
X185150000Y-43100000D02*
X171750000Y-43100000D01*
X185150000Y-62150000D02*
X171750000Y-62150000D01*
X97392746Y-116766247D02*
G75*
G03*
X97392746Y-116766247I-1200000J0D01*
G01*
X185449995Y-62450000D02*
G75*
G03*
X185150000Y-62150000I-300004J-4D01*
G01*
X226075000Y-110725000D02*
X182689109Y-110725000D01*
X185150000Y-76150013D02*
G75*
G03*
X185450000Y-75850000I-9J300009D01*
G01*
X139206851Y-115587028D02*
G75*
G03*
X139418982Y-115219606I-77648J289778D01*
G01*
X126263444Y-119055204D02*
X139206851Y-115587029D01*
X125896021Y-118843072D02*
G75*
G03*
X126263444Y-119055204I289778J77646D01*
G01*
X133650000Y-62650000D02*
G75*
G03*
X133350000Y-62950000I0J-300000D01*
G01*
X147050000Y-62650000D02*
X133650000Y-62650000D01*
X147349995Y-62950000D02*
G75*
G03*
X147050000Y-62650000I-300004J-4D01*
G01*
X147350000Y-76350000D02*
X147350000Y-62950000D01*
X147050000Y-76650013D02*
G75*
G03*
X147350000Y-76350000I-9J300009D01*
G01*
X133650000Y-76650000D02*
X147050000Y-76650000D01*
X133350000Y-57300000D02*
G75*
G03*
X133650000Y-57600000I300000J0D01*
G01*
X133350000Y-43900000D02*
X133350000Y-57300000D01*
X133650000Y-43600000D02*
G75*
G03*
X133350000Y-43900000I0J-300000D01*
G01*
X147050000Y-43600000D02*
X133650000Y-43600000D01*
X147349995Y-43900000D02*
G75*
G03*
X147050000Y-43600000I-300004J-4D01*
G01*
X147350000Y-57300000D02*
X147350000Y-43900000D01*
X147050000Y-57600013D02*
G75*
G03*
X147350000Y-57300000I-9J300009D01*
G01*
X133650000Y-57600000D02*
X147050000Y-57600000D01*
X204499995Y-55400000D02*
G75*
G03*
X204200000Y-55100000I-300004J-4D01*
G01*
X204500000Y-68800000D02*
X204500000Y-55400000D01*
X190800000Y-69100000D02*
X204200000Y-69100000D01*
X190499995Y-68800000D02*
G75*
G03*
X190800000Y-69100000I299996J-4D01*
G01*
X190500000Y-55400000D02*
X190500000Y-68800000D01*
X190800000Y-55100013D02*
G75*
G03*
X190500000Y-55400000I-9J-299991D01*
G01*
X204200000Y-55100000D02*
X190800000Y-55100000D01*
X190800000Y-93200013D02*
G75*
G03*
X190500000Y-93500000I-9J-299991D01*
G01*
X204200000Y-93200000D02*
X190800000Y-93200000D01*
X204499995Y-93500000D02*
G75*
G03*
X204200000Y-93200000I-300004J-4D01*
G01*
X204500000Y-106900000D02*
X204500000Y-93500000D01*
X204200000Y-107200013D02*
G75*
G03*
X204500000Y-106900000I-9J300009D01*
G01*
X190800000Y-107200000D02*
X204200000Y-107200000D01*
X190499995Y-106900000D02*
G75*
G03*
X190800000Y-107200000I299996J-4D01*
G01*
X190500000Y-93500000D02*
X190500000Y-106900000D01*
X204499995Y-74450000D02*
G75*
G03*
X204200000Y-74150000I-300004J-4D01*
G01*
X204500000Y-87850000D02*
X204500000Y-74450000D01*
X204200000Y-88150013D02*
G75*
G03*
X204500000Y-87850000I-9J300009D01*
G01*
X190800000Y-88150000D02*
X204200000Y-88150000D01*
X190499995Y-87850000D02*
G75*
G03*
X190800000Y-88150000I299996J-4D01*
G01*
X190500000Y-74450000D02*
X190500000Y-87850000D01*
X190800000Y-74150013D02*
G75*
G03*
X190500000Y-74450000I-9J-299991D01*
G01*
X204200000Y-74150000D02*
X190800000Y-74150000D01*
X171449995Y-56800000D02*
G75*
G03*
X171750000Y-57100000I299996J-4D01*
G01*
X171450000Y-43400000D02*
X171450000Y-56800000D01*
X171750000Y-43100013D02*
G75*
G03*
X171450000Y-43400000I-9J-299991D01*
G01*
X171449995Y-94900000D02*
G75*
G03*
X171750000Y-95200000I299996J-4D01*
G01*
X171750000Y-95200000D02*
X185150000Y-95200000D01*
X185150000Y-95200013D02*
G75*
G03*
X185450000Y-94900000I-9J300009D01*
G01*
X185450000Y-94900000D02*
X185450000Y-81500000D01*
X185449995Y-81500000D02*
G75*
G03*
X185150000Y-81200000I-300004J-4D01*
G01*
X114300000Y-46400000D02*
X114300000Y-59800000D01*
X114300000Y-59800000D02*
G75*
G03*
X114600000Y-60100000I300000J0D01*
G01*
X114600000Y-60100000D02*
X128000000Y-60100000D01*
X128000000Y-60100000D02*
G75*
G03*
X128300000Y-59800000I0J300000D01*
G01*
X128300000Y-59800000D02*
X128300000Y-46400000D01*
X128300000Y-46400000D02*
G75*
G03*
X128000000Y-46100000I-300000J0D01*
G01*
X128000000Y-46100000D02*
X114600000Y-46100000D01*
X114600000Y-46100000D02*
G75*
G03*
X114300000Y-46400000I0J-300000D01*
G01*
X133350000Y-82000000D02*
X133350000Y-95400000D01*
X133350000Y-95400000D02*
G75*
G03*
X133650000Y-95700000I300000J0D01*
G01*
X133650000Y-95700000D02*
X147050000Y-95700000D01*
X147050000Y-95700013D02*
G75*
G03*
X147350000Y-95400000I-9J300009D01*
G01*
X147350000Y-95400000D02*
X147350000Y-82000000D01*
X147349995Y-82000000D02*
G75*
G03*
X147050000Y-81700000I-300004J-4D01*
G01*
X147050000Y-81700000D02*
X133650000Y-81700000D01*
X133650000Y-81700000D02*
G75*
G03*
X133350000Y-82000000I0J-300000D01*
G01*
X133885692Y-79346704D02*
G75*
G03*
X133885692Y-79346704I-2200000J0D01*
G01*
X144046591Y-38103505D02*
G75*
G03*
X144046591Y-38103505I-1200000J0D01*
G01*
X108464652Y-128041309D02*
X101764652Y-116436569D01*
X104364008Y-92938785D02*
X111064008Y-104543525D01*
X98939652Y-111543525D02*
X92239652Y-99938785D01*
X103907417Y-131538199D02*
X94432186Y-122062968D01*
X84532691Y-131962463D02*
X94007922Y-141437694D01*
X80961802Y-108592584D02*
X90437033Y-118067815D01*
X80537538Y-127967309D02*
X71062307Y-118492079D01*
X101874460Y-116026761D02*
X113479200Y-109326761D01*
X113889008Y-109436569D02*
X120589008Y-121041309D01*
X120479200Y-121451117D02*
X108874460Y-128151117D01*
X92349460Y-99528977D02*
X103954200Y-92828977D01*
X110954200Y-104953333D02*
X99349460Y-111653333D01*
X71062307Y-118067815D02*
X80537538Y-108592584D01*
X80961802Y-127967309D02*
X90437033Y-118492079D01*
X94007922Y-122062968D02*
X84532691Y-131538199D01*
X94432186Y-141437694D02*
X103907417Y-131962463D01*
X80537539Y-127967308D02*
G75*
G03*
X80961801Y-127967308I212131J212131D01*
G01*
X80961801Y-108592585D02*
G75*
G03*
X80537539Y-108592585I-212131J-212131D01*
G01*
X71062308Y-118067816D02*
G75*
G03*
X71062308Y-118492078I212131J-212131D01*
G01*
X90437032Y-118492078D02*
G75*
G03*
X90437032Y-118067816I-212131J212131D01*
G01*
X103907416Y-131962462D02*
G75*
G03*
X103907416Y-131538200I-212131J212131D01*
G01*
X84532692Y-131538200D02*
G75*
G03*
X84532692Y-131962462I212131J-212131D01*
G01*
X94007923Y-141437693D02*
G75*
G03*
X94432185Y-141437693I212131J212131D01*
G01*
X94432185Y-122062969D02*
G75*
G03*
X94007923Y-122062969I-212131J-212131D01*
G01*
X101874460Y-116026761D02*
G75*
G03*
X101764652Y-116436569I150000J-259808D01*
G01*
X108464652Y-128041309D02*
G75*
G03*
X108874460Y-128151117I259808J150000D01*
G01*
X120479200Y-121451117D02*
G75*
G03*
X120589008Y-121041309I-150000J259808D01*
G01*
X113889008Y-109436569D02*
G75*
G03*
X113479200Y-109326761I-259808J-150000D01*
G01*
X98939652Y-111543525D02*
G75*
G03*
X99349460Y-111653333I259808J150000D01*
G01*
X110954200Y-104953333D02*
G75*
G03*
X111064008Y-104543525I-150000J259808D01*
G01*
X104364008Y-92938785D02*
G75*
G03*
X103954200Y-92828977I-259808J-150000D01*
G01*
X92349460Y-99528977D02*
G75*
G03*
X92239652Y-99938785I150000J-259808D01*
G01*
X152400000Y-56450000D02*
X152400000Y-58201791D01*
X152400000Y-69850000D02*
X152400000Y-62391617D01*
X151936283Y-58453180D02*
G75*
G03*
X151936283Y-62140228I-1200592J-1843524D01*
G01*
X152399974Y-62391617D02*
G75*
G03*
X151936283Y-62140229I-299983J13D01*
G01*
X151936269Y-58453201D02*
G75*
G03*
X152400000Y-58201791I163722J251397D01*
G01*
X152132888Y-100769828D02*
X158814109Y-100769828D01*
X149338496Y-100769828D02*
X145414109Y-100769828D01*
X151965225Y-100221053D02*
G75*
G03*
X149506159Y-100221053I-1229533J1824349D01*
G01*
X171362132Y-82172792D02*
X170717950Y-81528610D01*
X171866258Y-80555598D02*
X172422793Y-81112132D01*
X171803266Y-80223854D02*
G75*
G03*
X170419403Y-81453457I-2017575J877150D01*
G01*
X171450000Y-82384924D02*
X171450000Y-94900000D01*
X172634925Y-81200000D02*
X185150000Y-81200000D01*
X170717924Y-81528636D02*
G75*
G03*
X170419403Y-81453458I-212133J-212068D01*
G01*
X171803306Y-80223871D02*
G75*
G03*
X171866259Y-80555597I275085J-119633D01*
G01*
X172422777Y-81112148D02*
G75*
G03*
X172634925Y-81200000I212114J212144D01*
G01*
X171449983Y-82384924D02*
G75*
G03*
X171362132Y-82172792I-299992J20D01*
G01*
X151965222Y-100221048D02*
G75*
G03*
X152132888Y-100769828I167669J-248776D01*
G01*
X149338496Y-100769786D02*
G75*
G03*
X149506159Y-100221054I-5J299982D01*
G01*
M02*
