%TF.GenerationSoftware,KiCad,Pcbnew,7.0.1*%
%TF.CreationDate,2023-04-13T19:44:34+02:00*%
%TF.ProjectId,untitled,756e7469-746c-4656-942e-6b696361645f,rev?*%
%TF.SameCoordinates,Original*%
%TF.FileFunction,Legend,Bot*%
%TF.FilePolarity,Positive*%
%FSLAX46Y46*%
G04 Gerber Fmt 4.6, Leading zero omitted, Abs format (unit mm)*
G04 Created by KiCad (PCBNEW 7.0.1) date 2023-04-13 19:44:34*
%MOMM*%
%LPD*%
G01*
G04 APERTURE LIST*
%ADD10C,0.039687*%
G04 APERTURE END LIST*
D10*
X203846933Y-54109956D02*
X203877616Y-54114210D01*
X203906343Y-54120620D01*
X203933185Y-54129108D01*
X203958215Y-54139593D01*
X203981506Y-54151997D01*
X204003130Y-54166241D01*
X204023160Y-54182245D01*
X204041668Y-54199929D01*
X204058727Y-54219215D01*
X204074410Y-54240024D01*
X204088788Y-54262275D01*
X204101935Y-54285891D01*
X204124824Y-54336896D01*
X204143658Y-54392406D01*
X204159016Y-54451785D01*
X204171478Y-54514401D01*
X204181626Y-54579618D01*
X204197298Y-54715322D01*
X204210674Y-54853825D01*
X204230922Y-55040919D01*
X204252850Y-55214658D01*
X204276477Y-55378089D01*
X204301820Y-55534260D01*
X204328899Y-55686217D01*
X204357733Y-55837007D01*
X204420736Y-56147279D01*
X204430520Y-56203673D01*
X204435944Y-56256435D01*
X204437275Y-56305833D01*
X204434778Y-56352134D01*
X204428718Y-56395604D01*
X204419361Y-56436511D01*
X204406973Y-56475123D01*
X204391818Y-56511706D01*
X204374162Y-56546527D01*
X204354272Y-56579853D01*
X204332412Y-56611953D01*
X204308847Y-56643092D01*
X204257668Y-56703558D01*
X204202859Y-56763388D01*
X204146542Y-56824720D01*
X204090844Y-56889691D01*
X204063890Y-56924209D01*
X204037887Y-56960438D01*
X204013100Y-56998646D01*
X203989796Y-57039098D01*
X203968238Y-57082063D01*
X203948694Y-57127808D01*
X203931428Y-57176599D01*
X203916706Y-57228704D01*
X203904793Y-57284391D01*
X203895955Y-57343925D01*
X203890458Y-57407575D01*
X203888566Y-57475607D01*
X203891029Y-57576899D01*
X203897989Y-57669082D01*
X203908803Y-57753837D01*
X203922829Y-57832843D01*
X203939425Y-57907780D01*
X203957948Y-57980329D01*
X203998206Y-58124981D01*
X204038464Y-58280239D01*
X204056987Y-58366045D01*
X204073583Y-58459542D01*
X204087609Y-58562411D01*
X204098423Y-58676330D01*
X204105383Y-58802982D01*
X204107846Y-58944044D01*
X204103118Y-59087117D01*
X204089337Y-59219492D01*
X204067107Y-59342126D01*
X204037032Y-59455972D01*
X203999714Y-59561986D01*
X203955757Y-59661122D01*
X203905765Y-59754335D01*
X203850341Y-59842580D01*
X203725612Y-60007984D01*
X203586399Y-60164974D01*
X203283831Y-60484261D01*
X203130133Y-60661835D01*
X202981263Y-60861548D01*
X202910147Y-60972093D01*
X202842050Y-61091038D01*
X202777573Y-61219336D01*
X202717321Y-61357942D01*
X202661897Y-61507813D01*
X202611905Y-61669901D01*
X202567948Y-61845162D01*
X202530630Y-62034551D01*
X202500554Y-62239023D01*
X202478324Y-62459532D01*
X202464544Y-62697033D01*
X202459816Y-62952481D01*
X202463942Y-63139290D01*
X202475901Y-63313106D01*
X202495068Y-63474558D01*
X202520816Y-63624276D01*
X202552521Y-63762892D01*
X202589555Y-63891035D01*
X202631294Y-64009335D01*
X202677110Y-64118423D01*
X202726378Y-64218930D01*
X202778473Y-64311484D01*
X202832767Y-64396717D01*
X202888636Y-64475259D01*
X202945453Y-64547740D01*
X203002593Y-64614791D01*
X203115334Y-64735120D01*
X203317143Y-64938343D01*
X203359012Y-64985026D01*
X203396195Y-65031320D01*
X203428067Y-65077856D01*
X203454002Y-65125264D01*
X203473374Y-65174174D01*
X203485557Y-65225216D01*
X203489924Y-65279021D01*
X203485851Y-65336219D01*
X203472710Y-65397440D01*
X203449877Y-65463314D01*
X203416725Y-65534473D01*
X203372628Y-65611545D01*
X203336044Y-65659657D01*
X203293411Y-65696616D01*
X203245202Y-65722883D01*
X203191890Y-65738918D01*
X203133947Y-65745184D01*
X203071847Y-65742140D01*
X203006062Y-65730247D01*
X202937066Y-65709966D01*
X202865330Y-65681758D01*
X202791328Y-65646084D01*
X202715533Y-65603404D01*
X202638418Y-65554180D01*
X202482117Y-65437941D01*
X202326208Y-65301053D01*
X202174475Y-65147203D01*
X202030700Y-64980077D01*
X201898665Y-64803362D01*
X201782154Y-64620745D01*
X201730902Y-64528375D01*
X201684950Y-64435912D01*
X201644770Y-64343816D01*
X201610835Y-64252549D01*
X201583618Y-64162571D01*
X201563592Y-64074344D01*
X201551229Y-63988327D01*
X201547003Y-63904982D01*
X201545840Y-63835056D01*
X201542405Y-63769394D01*
X201536786Y-63707862D01*
X201529067Y-63650325D01*
X201519334Y-63596649D01*
X201507673Y-63546701D01*
X201494168Y-63500346D01*
X201478907Y-63457451D01*
X201461973Y-63417881D01*
X201443454Y-63381502D01*
X201423433Y-63348181D01*
X201401998Y-63317783D01*
X201379232Y-63290175D01*
X201355223Y-63265221D01*
X201330055Y-63242789D01*
X201303814Y-63222745D01*
X201276585Y-63204953D01*
X201248455Y-63189280D01*
X201219508Y-63175593D01*
X201189830Y-63163757D01*
X201159507Y-63153638D01*
X201128624Y-63145102D01*
X201065521Y-63132243D01*
X201001205Y-63124108D01*
X200936361Y-63119624D01*
X200871672Y-63117721D01*
X200807824Y-63117324D01*
X200771238Y-63120852D01*
X200733019Y-63131196D01*
X200693315Y-63148003D01*
X200652277Y-63170916D01*
X200610057Y-63199579D01*
X200566804Y-63233637D01*
X200477801Y-63316515D01*
X200386472Y-63416704D01*
X200294022Y-63531360D01*
X200201652Y-63657635D01*
X200110567Y-63792686D01*
X200021971Y-63933667D01*
X199937066Y-64077733D01*
X199857056Y-64222037D01*
X199783144Y-64363735D01*
X199716534Y-64499982D01*
X199658430Y-64627932D01*
X199610035Y-64744740D01*
X199572551Y-64847560D01*
X199758912Y-64849136D01*
X199923007Y-64854239D01*
X200066249Y-64863433D01*
X200130493Y-64869740D01*
X200190053Y-64877281D01*
X200245107Y-64886126D01*
X200295831Y-64896346D01*
X200342402Y-64908011D01*
X200384997Y-64921192D01*
X200423791Y-64935959D01*
X200458963Y-64952383D01*
X200490688Y-64970533D01*
X200519143Y-64990481D01*
X200544505Y-65012296D01*
X200566951Y-65036050D01*
X200586656Y-65061812D01*
X200603799Y-65089653D01*
X200618555Y-65119644D01*
X200631101Y-65151854D01*
X200641613Y-65186355D01*
X200650269Y-65223217D01*
X200657245Y-65262509D01*
X200662718Y-65304303D01*
X200669861Y-65395678D01*
X200673110Y-65497904D01*
X200673879Y-65611545D01*
X196189192Y-65611545D01*
X196089771Y-65524444D01*
X195996544Y-65452489D01*
X195906533Y-65395562D01*
X195816763Y-65353542D01*
X195724256Y-65326311D01*
X195626037Y-65313750D01*
X195519130Y-65315739D01*
X195400556Y-65332159D01*
X195267341Y-65362891D01*
X195116508Y-65407815D01*
X194945080Y-65466813D01*
X194750082Y-65539765D01*
X193674848Y-65968732D01*
X193488674Y-66046931D01*
X193324785Y-66124312D01*
X193182070Y-66200815D01*
X193059414Y-66276375D01*
X192955705Y-66350929D01*
X192869832Y-66424416D01*
X192800681Y-66496773D01*
X192747140Y-66567936D01*
X192708095Y-66637843D01*
X192682436Y-66706431D01*
X192669048Y-66773637D01*
X192666819Y-66839399D01*
X192674638Y-66903654D01*
X192691390Y-66966339D01*
X192715964Y-67027391D01*
X192747247Y-67086748D01*
X192784126Y-67144347D01*
X192825489Y-67200125D01*
X192917217Y-67305966D01*
X193105522Y-67493037D01*
X193184299Y-67573262D01*
X193240958Y-67643943D01*
X193258211Y-67675549D01*
X193266597Y-67704580D01*
X193265003Y-67730974D01*
X193252317Y-67754669D01*
X193230700Y-67774756D01*
X193203336Y-67790435D01*
X193170648Y-67801811D01*
X193133057Y-67808985D01*
X193090985Y-67812062D01*
X193044854Y-67811144D01*
X192995086Y-67806335D01*
X192942103Y-67797737D01*
X192886326Y-67785454D01*
X192828178Y-67769588D01*
X192768080Y-67750242D01*
X192706454Y-67727521D01*
X192643721Y-67701526D01*
X192580305Y-67672361D01*
X192516627Y-67640129D01*
X192453108Y-67604933D01*
X192390170Y-67566876D01*
X192328235Y-67526061D01*
X192267726Y-67482591D01*
X192209063Y-67436570D01*
X192152670Y-67388100D01*
X192098967Y-67337284D01*
X192048376Y-67284226D01*
X192001319Y-67229028D01*
X191958219Y-67171794D01*
X191919497Y-67112627D01*
X191885575Y-67051629D01*
X191856874Y-66988904D01*
X191833817Y-66924555D01*
X191816826Y-66858685D01*
X191806321Y-66791397D01*
X191802726Y-66722795D01*
X191807531Y-66575225D01*
X191821737Y-66441125D01*
X191845034Y-66319532D01*
X191877111Y-66209484D01*
X191917658Y-66110017D01*
X191966363Y-66020168D01*
X192022915Y-65938973D01*
X192087004Y-65865471D01*
X192158319Y-65798698D01*
X192236549Y-65737690D01*
X192321383Y-65681485D01*
X192412510Y-65629119D01*
X192612401Y-65532054D01*
X192833735Y-65438791D01*
X193330785Y-65232850D01*
X193601527Y-65104763D01*
X193883766Y-64949659D01*
X194028419Y-64859569D01*
X194175013Y-64759834D01*
X194323238Y-64649493D01*
X194472783Y-64527582D01*
X194623336Y-64393139D01*
X194774588Y-64245200D01*
X194926226Y-64082802D01*
X195077942Y-63904982D01*
X195162573Y-63779164D01*
X195237484Y-63624778D01*
X195305317Y-63444171D01*
X195368714Y-63239689D01*
X195630755Y-62229921D01*
X195711586Y-61941248D01*
X195803827Y-61642775D01*
X195910121Y-61336846D01*
X196033108Y-61025808D01*
X196175430Y-60712007D01*
X196339728Y-60397789D01*
X196528643Y-60085498D01*
X196744817Y-59777482D01*
X196861518Y-59629190D01*
X196980791Y-59489234D01*
X197102419Y-59357344D01*
X197226183Y-59233251D01*
X197351866Y-59116688D01*
X197479249Y-59007383D01*
X197608115Y-58905070D01*
X197738245Y-58809479D01*
X197869421Y-58720341D01*
X198001426Y-58637387D01*
X198267050Y-58488956D01*
X198533371Y-58362035D01*
X198798645Y-58254474D01*
X199061129Y-58164121D01*
X199319078Y-58088825D01*
X199570749Y-58026436D01*
X199814397Y-57974801D01*
X200270648Y-57895194D01*
X200673879Y-57832794D01*
X200762451Y-57815322D01*
X200842356Y-57792811D01*
X200913929Y-57765469D01*
X200977505Y-57733504D01*
X201033420Y-57697126D01*
X201082009Y-57656543D01*
X201123608Y-57611963D01*
X201158551Y-57563595D01*
X201187173Y-57511648D01*
X201209811Y-57456331D01*
X201226800Y-57397851D01*
X201238474Y-57336418D01*
X201245169Y-57272239D01*
X201247220Y-57205525D01*
X201244963Y-57136482D01*
X201238733Y-57065321D01*
X201215695Y-56917474D01*
X201180789Y-56763654D01*
X201136695Y-56605529D01*
X201086098Y-56444767D01*
X200872316Y-55808732D01*
X200843491Y-55709733D01*
X200816820Y-55607039D01*
X200792709Y-55501887D01*
X200771564Y-55395514D01*
X200753791Y-55289158D01*
X200739798Y-55184056D01*
X200729990Y-55081446D01*
X200724773Y-54982564D01*
X200724555Y-54888649D01*
X200729742Y-54800937D01*
X200734489Y-54759794D01*
X200740740Y-54720667D01*
X200748545Y-54683708D01*
X200757955Y-54649075D01*
X200769022Y-54616920D01*
X200781795Y-54587398D01*
X200796325Y-54560666D01*
X200812665Y-54536876D01*
X200830863Y-54516184D01*
X200850971Y-54498744D01*
X200873040Y-54484711D01*
X200897121Y-54474240D01*
X200923383Y-54467662D01*
X200951507Y-54465175D01*
X200981454Y-54466514D01*
X201013183Y-54471412D01*
X201081822Y-54490826D01*
X201157100Y-54521292D01*
X201238691Y-54560683D01*
X201326269Y-54606876D01*
X201518088Y-54711163D01*
X201621678Y-54765007D01*
X201729955Y-54817151D01*
X201842593Y-54865469D01*
X201959267Y-54907836D01*
X202079651Y-54942128D01*
X202141134Y-54955581D01*
X202203421Y-54966218D01*
X202266474Y-54973774D01*
X202330251Y-54977982D01*
X202394712Y-54978578D01*
X202459816Y-54975294D01*
X202523838Y-54967865D01*
X202584911Y-54956406D01*
X202643183Y-54941192D01*
X202698802Y-54922501D01*
X202751916Y-54900607D01*
X202802672Y-54875788D01*
X202851219Y-54848319D01*
X202897704Y-54818477D01*
X202942276Y-54786538D01*
X202985082Y-54752778D01*
X203026270Y-54717472D01*
X203065988Y-54680898D01*
X203141606Y-54605048D01*
X203213119Y-54527436D01*
X203348561Y-54375766D01*
X203414857Y-54306125D01*
X203448166Y-54273820D01*
X203481780Y-54243559D01*
X203515846Y-54215620D01*
X203550513Y-54190279D01*
X203585928Y-54167810D01*
X203622240Y-54148491D01*
X203659595Y-54132598D01*
X203698143Y-54120407D01*
X203738030Y-54112194D01*
X203779406Y-54108235D01*
X203814220Y-54107938D01*
X203846933Y-54109956D01*
G36*
X203846933Y-54109956D02*
G01*
X203877616Y-54114210D01*
X203906343Y-54120620D01*
X203933185Y-54129108D01*
X203958215Y-54139593D01*
X203981506Y-54151997D01*
X204003130Y-54166241D01*
X204023160Y-54182245D01*
X204041668Y-54199929D01*
X204058727Y-54219215D01*
X204074410Y-54240024D01*
X204088788Y-54262275D01*
X204101935Y-54285891D01*
X204124824Y-54336896D01*
X204143658Y-54392406D01*
X204159016Y-54451785D01*
X204171478Y-54514401D01*
X204181626Y-54579618D01*
X204197298Y-54715322D01*
X204210674Y-54853825D01*
X204230922Y-55040919D01*
X204252850Y-55214658D01*
X204276477Y-55378089D01*
X204301820Y-55534260D01*
X204328899Y-55686217D01*
X204357733Y-55837007D01*
X204420736Y-56147279D01*
X204430520Y-56203673D01*
X204435944Y-56256435D01*
X204437275Y-56305833D01*
X204434778Y-56352134D01*
X204428718Y-56395604D01*
X204419361Y-56436511D01*
X204406973Y-56475123D01*
X204391818Y-56511706D01*
X204374162Y-56546527D01*
X204354272Y-56579853D01*
X204332412Y-56611953D01*
X204308847Y-56643092D01*
X204257668Y-56703558D01*
X204202859Y-56763388D01*
X204146542Y-56824720D01*
X204090844Y-56889691D01*
X204063890Y-56924209D01*
X204037887Y-56960438D01*
X204013100Y-56998646D01*
X203989796Y-57039098D01*
X203968238Y-57082063D01*
X203948694Y-57127808D01*
X203931428Y-57176599D01*
X203916706Y-57228704D01*
X203904793Y-57284391D01*
X203895955Y-57343925D01*
X203890458Y-57407575D01*
X203888566Y-57475607D01*
X203891029Y-57576899D01*
X203897989Y-57669082D01*
X203908803Y-57753837D01*
X203922829Y-57832843D01*
X203939425Y-57907780D01*
X203957948Y-57980329D01*
X203998206Y-58124981D01*
X204038464Y-58280239D01*
X204056987Y-58366045D01*
X204073583Y-58459542D01*
X204087609Y-58562411D01*
X204098423Y-58676330D01*
X204105383Y-58802982D01*
X204107846Y-58944044D01*
X204103118Y-59087117D01*
X204089337Y-59219492D01*
X204067107Y-59342126D01*
X204037032Y-59455972D01*
X203999714Y-59561986D01*
X203955757Y-59661122D01*
X203905765Y-59754335D01*
X203850341Y-59842580D01*
X203725612Y-60007984D01*
X203586399Y-60164974D01*
X203283831Y-60484261D01*
X203130133Y-60661835D01*
X202981263Y-60861548D01*
X202910147Y-60972093D01*
X202842050Y-61091038D01*
X202777573Y-61219336D01*
X202717321Y-61357942D01*
X202661897Y-61507813D01*
X202611905Y-61669901D01*
X202567948Y-61845162D01*
X202530630Y-62034551D01*
X202500554Y-62239023D01*
X202478324Y-62459532D01*
X202464544Y-62697033D01*
X202459816Y-62952481D01*
X202463942Y-63139290D01*
X202475901Y-63313106D01*
X202495068Y-63474558D01*
X202520816Y-63624276D01*
X202552521Y-63762892D01*
X202589555Y-63891035D01*
X202631294Y-64009335D01*
X202677110Y-64118423D01*
X202726378Y-64218930D01*
X202778473Y-64311484D01*
X202832767Y-64396717D01*
X202888636Y-64475259D01*
X202945453Y-64547740D01*
X203002593Y-64614791D01*
X203115334Y-64735120D01*
X203317143Y-64938343D01*
X203359012Y-64985026D01*
X203396195Y-65031320D01*
X203428067Y-65077856D01*
X203454002Y-65125264D01*
X203473374Y-65174174D01*
X203485557Y-65225216D01*
X203489924Y-65279021D01*
X203485851Y-65336219D01*
X203472710Y-65397440D01*
X203449877Y-65463314D01*
X203416725Y-65534473D01*
X203372628Y-65611545D01*
X203336044Y-65659657D01*
X203293411Y-65696616D01*
X203245202Y-65722883D01*
X203191890Y-65738918D01*
X203133947Y-65745184D01*
X203071847Y-65742140D01*
X203006062Y-65730247D01*
X202937066Y-65709966D01*
X202865330Y-65681758D01*
X202791328Y-65646084D01*
X202715533Y-65603404D01*
X202638418Y-65554180D01*
X202482117Y-65437941D01*
X202326208Y-65301053D01*
X202174475Y-65147203D01*
X202030700Y-64980077D01*
X201898665Y-64803362D01*
X201782154Y-64620745D01*
X201730902Y-64528375D01*
X201684950Y-64435912D01*
X201644770Y-64343816D01*
X201610835Y-64252549D01*
X201583618Y-64162571D01*
X201563592Y-64074344D01*
X201551229Y-63988327D01*
X201547003Y-63904982D01*
X201545840Y-63835056D01*
X201542405Y-63769394D01*
X201536786Y-63707862D01*
X201529067Y-63650325D01*
X201519334Y-63596649D01*
X201507673Y-63546701D01*
X201494168Y-63500346D01*
X201478907Y-63457451D01*
X201461973Y-63417881D01*
X201443454Y-63381502D01*
X201423433Y-63348181D01*
X201401998Y-63317783D01*
X201379232Y-63290175D01*
X201355223Y-63265221D01*
X201330055Y-63242789D01*
X201303814Y-63222745D01*
X201276585Y-63204953D01*
X201248455Y-63189280D01*
X201219508Y-63175593D01*
X201189830Y-63163757D01*
X201159507Y-63153638D01*
X201128624Y-63145102D01*
X201065521Y-63132243D01*
X201001205Y-63124108D01*
X200936361Y-63119624D01*
X200871672Y-63117721D01*
X200807824Y-63117324D01*
X200771238Y-63120852D01*
X200733019Y-63131196D01*
X200693315Y-63148003D01*
X200652277Y-63170916D01*
X200610057Y-63199579D01*
X200566804Y-63233637D01*
X200477801Y-63316515D01*
X200386472Y-63416704D01*
X200294022Y-63531360D01*
X200201652Y-63657635D01*
X200110567Y-63792686D01*
X200021971Y-63933667D01*
X199937066Y-64077733D01*
X199857056Y-64222037D01*
X199783144Y-64363735D01*
X199716534Y-64499982D01*
X199658430Y-64627932D01*
X199610035Y-64744740D01*
X199572551Y-64847560D01*
X199758912Y-64849136D01*
X199923007Y-64854239D01*
X200066249Y-64863433D01*
X200130493Y-64869740D01*
X200190053Y-64877281D01*
X200245107Y-64886126D01*
X200295831Y-64896346D01*
X200342402Y-64908011D01*
X200384997Y-64921192D01*
X200423791Y-64935959D01*
X200458963Y-64952383D01*
X200490688Y-64970533D01*
X200519143Y-64990481D01*
X200544505Y-65012296D01*
X200566951Y-65036050D01*
X200586656Y-65061812D01*
X200603799Y-65089653D01*
X200618555Y-65119644D01*
X200631101Y-65151854D01*
X200641613Y-65186355D01*
X200650269Y-65223217D01*
X200657245Y-65262509D01*
X200662718Y-65304303D01*
X200669861Y-65395678D01*
X200673110Y-65497904D01*
X200673879Y-65611545D01*
X196189192Y-65611545D01*
X196089771Y-65524444D01*
X195996544Y-65452489D01*
X195906533Y-65395562D01*
X195816763Y-65353542D01*
X195724256Y-65326311D01*
X195626037Y-65313750D01*
X195519130Y-65315739D01*
X195400556Y-65332159D01*
X195267341Y-65362891D01*
X195116508Y-65407815D01*
X194945080Y-65466813D01*
X194750082Y-65539765D01*
X193674848Y-65968732D01*
X193488674Y-66046931D01*
X193324785Y-66124312D01*
X193182070Y-66200815D01*
X193059414Y-66276375D01*
X192955705Y-66350929D01*
X192869832Y-66424416D01*
X192800681Y-66496773D01*
X192747140Y-66567936D01*
X192708095Y-66637843D01*
X192682436Y-66706431D01*
X192669048Y-66773637D01*
X192666819Y-66839399D01*
X192674638Y-66903654D01*
X192691390Y-66966339D01*
X192715964Y-67027391D01*
X192747247Y-67086748D01*
X192784126Y-67144347D01*
X192825489Y-67200125D01*
X192917217Y-67305966D01*
X193105522Y-67493037D01*
X193184299Y-67573262D01*
X193240958Y-67643943D01*
X193258211Y-67675549D01*
X193266597Y-67704580D01*
X193265003Y-67730974D01*
X193252317Y-67754669D01*
X193230700Y-67774756D01*
X193203336Y-67790435D01*
X193170648Y-67801811D01*
X193133057Y-67808985D01*
X193090985Y-67812062D01*
X193044854Y-67811144D01*
X192995086Y-67806335D01*
X192942103Y-67797737D01*
X192886326Y-67785454D01*
X192828178Y-67769588D01*
X192768080Y-67750242D01*
X192706454Y-67727521D01*
X192643721Y-67701526D01*
X192580305Y-67672361D01*
X192516627Y-67640129D01*
X192453108Y-67604933D01*
X192390170Y-67566876D01*
X192328235Y-67526061D01*
X192267726Y-67482591D01*
X192209063Y-67436570D01*
X192152670Y-67388100D01*
X192098967Y-67337284D01*
X192048376Y-67284226D01*
X192001319Y-67229028D01*
X191958219Y-67171794D01*
X191919497Y-67112627D01*
X191885575Y-67051629D01*
X191856874Y-66988904D01*
X191833817Y-66924555D01*
X191816826Y-66858685D01*
X191806321Y-66791397D01*
X191802726Y-66722795D01*
X191807531Y-66575225D01*
X191821737Y-66441125D01*
X191845034Y-66319532D01*
X191877111Y-66209484D01*
X191917658Y-66110017D01*
X191966363Y-66020168D01*
X192022915Y-65938973D01*
X192087004Y-65865471D01*
X192158319Y-65798698D01*
X192236549Y-65737690D01*
X192321383Y-65681485D01*
X192412510Y-65629119D01*
X192612401Y-65532054D01*
X192833735Y-65438791D01*
X193330785Y-65232850D01*
X193601527Y-65104763D01*
X193883766Y-64949659D01*
X194028419Y-64859569D01*
X194175013Y-64759834D01*
X194323238Y-64649493D01*
X194472783Y-64527582D01*
X194623336Y-64393139D01*
X194774588Y-64245200D01*
X194926226Y-64082802D01*
X195077942Y-63904982D01*
X195162573Y-63779164D01*
X195237484Y-63624778D01*
X195305317Y-63444171D01*
X195368714Y-63239689D01*
X195630755Y-62229921D01*
X195711586Y-61941248D01*
X195803827Y-61642775D01*
X195910121Y-61336846D01*
X196033108Y-61025808D01*
X196175430Y-60712007D01*
X196339728Y-60397789D01*
X196528643Y-60085498D01*
X196744817Y-59777482D01*
X196861518Y-59629190D01*
X196980791Y-59489234D01*
X197102419Y-59357344D01*
X197226183Y-59233251D01*
X197351866Y-59116688D01*
X197479249Y-59007383D01*
X197608115Y-58905070D01*
X197738245Y-58809479D01*
X197869421Y-58720341D01*
X198001426Y-58637387D01*
X198267050Y-58488956D01*
X198533371Y-58362035D01*
X198798645Y-58254474D01*
X199061129Y-58164121D01*
X199319078Y-58088825D01*
X199570749Y-58026436D01*
X199814397Y-57974801D01*
X200270648Y-57895194D01*
X200673879Y-57832794D01*
X200762451Y-57815322D01*
X200842356Y-57792811D01*
X200913929Y-57765469D01*
X200977505Y-57733504D01*
X201033420Y-57697126D01*
X201082009Y-57656543D01*
X201123608Y-57611963D01*
X201158551Y-57563595D01*
X201187173Y-57511648D01*
X201209811Y-57456331D01*
X201226800Y-57397851D01*
X201238474Y-57336418D01*
X201245169Y-57272239D01*
X201247220Y-57205525D01*
X201244963Y-57136482D01*
X201238733Y-57065321D01*
X201215695Y-56917474D01*
X201180789Y-56763654D01*
X201136695Y-56605529D01*
X201086098Y-56444767D01*
X200872316Y-55808732D01*
X200843491Y-55709733D01*
X200816820Y-55607039D01*
X200792709Y-55501887D01*
X200771564Y-55395514D01*
X200753791Y-55289158D01*
X200739798Y-55184056D01*
X200729990Y-55081446D01*
X200724773Y-54982564D01*
X200724555Y-54888649D01*
X200729742Y-54800937D01*
X200734489Y-54759794D01*
X200740740Y-54720667D01*
X200748545Y-54683708D01*
X200757955Y-54649075D01*
X200769022Y-54616920D01*
X200781795Y-54587398D01*
X200796325Y-54560666D01*
X200812665Y-54536876D01*
X200830863Y-54516184D01*
X200850971Y-54498744D01*
X200873040Y-54484711D01*
X200897121Y-54474240D01*
X200923383Y-54467662D01*
X200951507Y-54465175D01*
X200981454Y-54466514D01*
X201013183Y-54471412D01*
X201081822Y-54490826D01*
X201157100Y-54521292D01*
X201238691Y-54560683D01*
X201326269Y-54606876D01*
X201518088Y-54711163D01*
X201621678Y-54765007D01*
X201729955Y-54817151D01*
X201842593Y-54865469D01*
X201959267Y-54907836D01*
X202079651Y-54942128D01*
X202141134Y-54955581D01*
X202203421Y-54966218D01*
X202266474Y-54973774D01*
X202330251Y-54977982D01*
X202394712Y-54978578D01*
X202459816Y-54975294D01*
X202523838Y-54967865D01*
X202584911Y-54956406D01*
X202643183Y-54941192D01*
X202698802Y-54922501D01*
X202751916Y-54900607D01*
X202802672Y-54875788D01*
X202851219Y-54848319D01*
X202897704Y-54818477D01*
X202942276Y-54786538D01*
X202985082Y-54752778D01*
X203026270Y-54717472D01*
X203065988Y-54680898D01*
X203141606Y-54605048D01*
X203213119Y-54527436D01*
X203348561Y-54375766D01*
X203414857Y-54306125D01*
X203448166Y-54273820D01*
X203481780Y-54243559D01*
X203515846Y-54215620D01*
X203550513Y-54190279D01*
X203585928Y-54167810D01*
X203622240Y-54148491D01*
X203659595Y-54132598D01*
X203698143Y-54120407D01*
X203738030Y-54112194D01*
X203779406Y-54108235D01*
X203814220Y-54107938D01*
X203846933Y-54109956D01*
G37*
M02*
