%TF.GenerationSoftware,KiCad,Pcbnew,7.0.1*%
%TF.CreationDate,2023-04-13T23:26:46+02:00*%
%TF.ProjectId,kicad,6b696361-642e-46b6-9963-61645f706362,rev?*%
%TF.SameCoordinates,Original*%
%TF.FileFunction,Profile,NP*%
%FSLAX46Y46*%
G04 Gerber Fmt 4.6, Leading zero omitted, Abs format (unit mm)*
G04 Created by KiCad (PCBNEW 7.0.1) date 2023-04-13 23:26:46*
%MOMM*%
%LPD*%
G01*
G04 APERTURE LIST*
%TA.AperFunction,Profile*%
%ADD10C,0.200000*%
%TD*%
G04 APERTURE END LIST*
D10*
X217937806Y-86417170D02*
G75*
G03*
X217637821Y-86117170I-299994J6D01*
G01*
X217937821Y-99817170D02*
X217937821Y-86417170D01*
X217637821Y-100117173D02*
G75*
G03*
X217937821Y-99817170I-9J300009D01*
G01*
X204237821Y-100117170D02*
X217637821Y-100117170D01*
X203937806Y-99817170D02*
G75*
G03*
X204237821Y-100117170I300006J6D01*
G01*
X203937821Y-86417170D02*
X203937821Y-99817170D01*
X165837816Y-87817160D02*
G75*
G03*
X166137821Y-88117160I299996J-4D01*
G01*
X165837821Y-74417160D02*
X165837821Y-87817160D01*
X166137821Y-74117173D02*
G75*
G03*
X165837821Y-74417160I-9J-299991D01*
G01*
X179537821Y-74117160D02*
X166137821Y-74117160D01*
X122387821Y-110167160D02*
G75*
G03*
X122687821Y-109867160I0J300000D01*
G01*
X86737281Y-111496137D02*
G75*
G03*
X86627473Y-111905945I150000J-259808D01*
G01*
X108987821Y-110167160D02*
X122387821Y-110167160D01*
X108687821Y-109867160D02*
G75*
G03*
X108987821Y-110167160I300000J0D01*
G01*
X108687821Y-96467160D02*
X108687821Y-109867160D01*
X160487821Y-63067173D02*
G75*
G03*
X160787821Y-62767160I-9J300009D01*
G01*
X147087821Y-63067160D02*
X160487821Y-63067160D01*
X146787816Y-62767160D02*
G75*
G03*
X147087821Y-63067160I299996J-4D01*
G01*
X146787821Y-49367160D02*
X146787821Y-62767160D01*
X147087821Y-49067173D02*
G75*
G03*
X146787821Y-49367160I-9J-299991D01*
G01*
X160487821Y-49067160D02*
X147087821Y-49067160D01*
X160787816Y-49367160D02*
G75*
G03*
X160487821Y-49067160I-300004J-4D01*
G01*
X160787821Y-62767160D02*
X160787821Y-49367160D01*
X147087821Y-87167173D02*
G75*
G03*
X146787821Y-87467160I-9J-299991D01*
G01*
X160487821Y-87167160D02*
X147087821Y-87167160D01*
X160787816Y-87467160D02*
G75*
G03*
X160487821Y-87167160I-300004J-4D01*
G01*
X160787821Y-100867160D02*
X160787821Y-87467160D01*
X160487821Y-101167173D02*
G75*
G03*
X160787821Y-100867160I-9J300009D01*
G01*
X147087821Y-101167160D02*
X160487821Y-101167160D01*
X146787816Y-100867160D02*
G75*
G03*
X147087821Y-101167160I299996J-4D01*
G01*
X146787821Y-87467160D02*
X146787821Y-100867160D01*
X172251930Y-126736988D02*
X158851930Y-126736988D01*
X172251930Y-126736982D02*
G75*
G03*
X172551930Y-126436988I-18J300018D01*
G01*
X172551930Y-113036988D02*
X172551930Y-126436988D01*
X172551888Y-113036988D02*
G75*
G03*
X172251930Y-112736988I-299976J24D01*
G01*
X158851930Y-112736988D02*
X172251930Y-112736988D01*
X158851930Y-112736982D02*
G75*
G03*
X158551930Y-113036988I-18J-299982D01*
G01*
X158551930Y-126436988D02*
X158551930Y-113036988D01*
X176076930Y-123692160D02*
X176076930Y-129261988D01*
X175076930Y-130261982D02*
G75*
G03*
X176076930Y-129261988I-18J1000018D01*
G01*
X175076930Y-130261988D02*
X146501930Y-130261988D01*
X146501930Y-130261989D02*
G75*
G03*
X96050175Y-151159791I0J-71349556D01*
G01*
X96050174Y-151159790D02*
X89314982Y-157894982D01*
X87900768Y-157894982D02*
G75*
G03*
X89314982Y-157894982I707107J707108D01*
G01*
X87900768Y-157894982D02*
X60960000Y-130954213D01*
X217937806Y-67367170D02*
G75*
G03*
X217637821Y-67067170I-299994J6D01*
G01*
X60960001Y-129540001D02*
G75*
G03*
X60960000Y-130954213I707106J-707106D01*
G01*
X217637821Y-67067170D02*
X204237821Y-67067170D01*
X60960000Y-129540000D02*
X67695192Y-122804808D01*
X204237821Y-67067173D02*
G75*
G03*
X203937821Y-67367170I-9J-299991D01*
G01*
X104787115Y-98263212D02*
G75*
G03*
X67695192Y-122804808I41714817J-103348332D01*
G01*
X203937821Y-67367170D02*
X203937821Y-80767170D01*
X104787115Y-98263212D02*
G75*
G03*
X105412821Y-97335902I-374293J927309D01*
G01*
X203937806Y-80767170D02*
G75*
G03*
X204237821Y-81067170I300006J6D01*
G01*
X105412821Y-97335902D02*
X105412821Y-50740942D01*
X204237821Y-81067170D02*
X217637821Y-81067170D01*
X106156014Y-49774479D02*
G75*
G03*
X105412821Y-50740942I256808J-966464D01*
G01*
X217637821Y-119167173D02*
G75*
G03*
X217937821Y-118867170I-9J300009D01*
G01*
X199960559Y-53880497D02*
G75*
G03*
X106156014Y-49774479I-53458629J-147731059D01*
G01*
X217937821Y-118867170D02*
X217937821Y-105467170D01*
X203480161Y-55201953D02*
G75*
G03*
X199960559Y-53880498I-56979249J-146412311D01*
G01*
X217937806Y-105467170D02*
G75*
G03*
X217637821Y-105167170I-299994J6D01*
G01*
X220936610Y-63257770D02*
G75*
G03*
X203480161Y-55201954I-74434698J-138353894D01*
G01*
X217637821Y-105167170D02*
X204237821Y-105167170D01*
X221462773Y-64138413D02*
G75*
G03*
X220936608Y-63257774I-999961J49D01*
G01*
X204237821Y-105167173D02*
G75*
G03*
X203937821Y-105467170I-9J-299991D01*
G01*
X221462821Y-64138413D02*
X221462821Y-121692160D01*
X203937821Y-105467170D02*
X203937821Y-118867170D01*
X220462821Y-122692173D02*
G75*
G03*
X221462821Y-121692160I-9J1000009D01*
G01*
X203937806Y-118867170D02*
G75*
G03*
X204237821Y-119167170I300006J6D01*
G01*
X217637821Y-81067173D02*
G75*
G03*
X217937821Y-80767170I-9J300009D01*
G01*
X204237821Y-119167170D02*
X217637821Y-119167170D01*
X217937821Y-80767170D02*
X217937821Y-67367170D01*
X158551888Y-126436988D02*
G75*
G03*
X158851930Y-126736988I300024J24D01*
G01*
X122687821Y-109867160D02*
X122687821Y-96467160D01*
X122687821Y-96467160D02*
G75*
G03*
X122387821Y-96167160I-300000J0D01*
G01*
X108987821Y-96167160D02*
G75*
G03*
X108687821Y-96467160I0J-300000D01*
G01*
X139501930Y-113036988D02*
X139501930Y-126436988D01*
X139501928Y-126436988D02*
G75*
G03*
X139801930Y-126736988I300004J4D01*
G01*
X139801930Y-126736988D02*
X153201930Y-126736988D01*
X153201930Y-126736982D02*
G75*
G03*
X153501930Y-126436988I-18J300018D01*
G01*
X153501930Y-126436988D02*
X153501930Y-113036988D01*
X153501888Y-113036988D02*
G75*
G03*
X153201930Y-112736988I-299976J24D01*
G01*
X153201930Y-112736988D02*
X139801930Y-112736988D01*
X139801930Y-112736982D02*
G75*
G03*
X139501930Y-113036988I-18J-299982D01*
G01*
X166137821Y-69067160D02*
X179537821Y-69067160D01*
X179537821Y-69067173D02*
G75*
G03*
X179837821Y-68767160I-9J300009D01*
G01*
X179837821Y-68767160D02*
X179837821Y-55367160D01*
X128037821Y-74617160D02*
G75*
G03*
X127737821Y-74917160I0J-300000D01*
G01*
X127737821Y-74917160D02*
X127737821Y-88317160D01*
X127737821Y-88317160D02*
G75*
G03*
X128037821Y-88617160I300000J0D01*
G01*
X160787821Y-81817160D02*
X160787821Y-68417160D01*
X160787816Y-68417160D02*
G75*
G03*
X160487821Y-68117160I-300004J-4D01*
G01*
X160487821Y-68117160D02*
X147087821Y-68117160D01*
X147087821Y-68117173D02*
G75*
G03*
X146787821Y-68417160I-9J-299991D01*
G01*
X146787816Y-81817160D02*
G75*
G03*
X147087821Y-82117160I299996J-4D01*
G01*
X122387821Y-96167160D02*
X108987821Y-96167160D01*
X202612821Y-64542170D02*
G75*
G03*
X202612821Y-64542170I-1200000J0D01*
G01*
X147087821Y-82117160D02*
X160487821Y-82117160D01*
X160487821Y-82117173D02*
G75*
G03*
X160787821Y-81817160I-9J300009D01*
G01*
X108687821Y-77417160D02*
X108687821Y-90817160D01*
X108687821Y-90817160D02*
G75*
G03*
X108987821Y-91117160I300000J0D01*
G01*
X108987821Y-91117160D02*
X122387821Y-91117160D01*
X122387821Y-91117160D02*
G75*
G03*
X122687821Y-90817160I0J300000D01*
G01*
X122687821Y-90817160D02*
X122687821Y-77417160D01*
X122687821Y-77417160D02*
G75*
G03*
X122387821Y-77117160I-300000J0D01*
G01*
X122387821Y-77117160D02*
X108987821Y-77117160D01*
X108987821Y-77117160D02*
G75*
G03*
X108687821Y-77417160I0J-300000D01*
G01*
X133806804Y-127186766D02*
X130338628Y-114243360D01*
X179837816Y-74417160D02*
G75*
G03*
X179537821Y-74117160I-300004J-4D01*
G01*
X146787821Y-68417160D02*
X146787821Y-81817160D01*
X184887821Y-105467160D02*
X184887821Y-118867160D01*
X179537821Y-88117173D02*
G75*
G03*
X179837821Y-87817160I-9J300009D01*
G01*
X117027799Y-117499404D02*
G75*
G03*
X116815667Y-117866826I77644J-289776D01*
G01*
X179837821Y-87817160D02*
X179837821Y-74417160D01*
X177076930Y-122692182D02*
G75*
G03*
X176076930Y-123692160I-18J-999982D01*
G01*
X179837816Y-55367160D02*
G75*
G03*
X179537821Y-55067160I-300004J-4D01*
G01*
X166137821Y-88117160D02*
X179537821Y-88117160D01*
X220462821Y-122692160D02*
X177076930Y-122692160D01*
X133594672Y-127554188D02*
G75*
G03*
X133806803Y-127186766I-77648J289778D01*
G01*
X120651265Y-131022364D02*
X133594672Y-127554189D01*
X120283842Y-130810232D02*
G75*
G03*
X120651265Y-131022364I289778J77646D01*
G01*
X116815667Y-117866826D02*
X120283842Y-130810232D01*
X202612821Y-102642170D02*
G75*
G03*
X202612821Y-102642170I-1200000J0D01*
G01*
X129971205Y-114031227D02*
X117027799Y-117499403D01*
X130338628Y-114243360D02*
G75*
G03*
X129971205Y-114031227I-289778J-77645D01*
G01*
X141437821Y-74617160D02*
X128037821Y-74617160D01*
X141737816Y-74917160D02*
G75*
G03*
X141437821Y-74617160I-300004J-4D01*
G01*
X141737821Y-88317160D02*
X141737821Y-74917160D01*
X141437821Y-88617173D02*
G75*
G03*
X141737821Y-88317160I-9J300009D01*
G01*
X162451412Y-108760663D02*
G75*
G03*
X162451412Y-108760663I-1200000J0D01*
G01*
X128037821Y-88617160D02*
X141437821Y-88617160D01*
X127737821Y-69267160D02*
G75*
G03*
X128037821Y-69567160I300000J0D01*
G01*
X127737821Y-55867160D02*
X127737821Y-69267160D01*
X128037821Y-55567160D02*
G75*
G03*
X127737821Y-55867160I0J-300000D01*
G01*
X141437821Y-55567160D02*
X128037821Y-55567160D01*
X141737816Y-55867160D02*
G75*
G03*
X141437821Y-55567160I-300004J-4D01*
G01*
X141737821Y-69267160D02*
X141737821Y-55867160D01*
X141437821Y-69567173D02*
G75*
G03*
X141737821Y-69267160I-9J300009D01*
G01*
X128037821Y-69567160D02*
X141437821Y-69567160D01*
X198887816Y-67367160D02*
G75*
G03*
X198587821Y-67067160I-300004J-4D01*
G01*
X198887821Y-80767160D02*
X198887821Y-67367160D01*
X198587821Y-81067173D02*
G75*
G03*
X198887821Y-80767160I-9J300009D01*
G01*
X91780567Y-128733407D02*
G75*
G03*
X91780567Y-128733407I-1200000J0D01*
G01*
X198887821Y-99817160D02*
X198887821Y-86417160D01*
X185187821Y-81067160D02*
X198587821Y-81067160D01*
X184887816Y-80767160D02*
G75*
G03*
X185187821Y-81067160I299996J-4D01*
G01*
X184887821Y-67367160D02*
X184887821Y-80767160D01*
X185187821Y-67067173D02*
G75*
G03*
X184887821Y-67367160I-9J-299991D01*
G01*
X198587821Y-67067160D02*
X185187821Y-67067160D01*
X185187821Y-105167173D02*
G75*
G03*
X184887821Y-105467160I-9J-299991D01*
G01*
X198587821Y-105167160D02*
X185187821Y-105167160D01*
X198887816Y-105467160D02*
G75*
G03*
X198587821Y-105167160I-300004J-4D01*
G01*
X198887821Y-118867160D02*
X198887821Y-105467160D01*
X198587821Y-119167173D02*
G75*
G03*
X198887821Y-118867160I-9J300009D01*
G01*
X185187821Y-119167160D02*
X198587821Y-119167160D01*
X184887816Y-118867160D02*
G75*
G03*
X185187821Y-119167160I299996J-4D01*
G01*
X198887816Y-86417160D02*
G75*
G03*
X198587821Y-86117160I-300004J-4D01*
G01*
X198587821Y-100117173D02*
G75*
G03*
X198887821Y-99817160I-9J300009D01*
G01*
X185187821Y-100117160D02*
X198587821Y-100117160D01*
X184887816Y-99817160D02*
G75*
G03*
X185187821Y-100117160I299996J-4D01*
G01*
X184887821Y-86417160D02*
X184887821Y-99817160D01*
X185187821Y-86117173D02*
G75*
G03*
X184887821Y-86417160I-9J-299991D01*
G01*
X198587821Y-86117160D02*
X185187821Y-86117160D01*
X165837816Y-68767160D02*
G75*
G03*
X166137821Y-69067160I299996J-4D01*
G01*
X165837821Y-55367160D02*
X165837821Y-68767160D01*
X166137821Y-55067173D02*
G75*
G03*
X165837821Y-55367160I-9J-299991D01*
G01*
X179537821Y-55067160D02*
X166137821Y-55067160D01*
X217637821Y-86117170D02*
X204237821Y-86117170D01*
X204237821Y-86117173D02*
G75*
G03*
X203937821Y-86417170I-9J-299991D01*
G01*
X165837821Y-93467160D02*
X165837821Y-106867160D01*
X165837816Y-106867160D02*
G75*
G03*
X166137821Y-107167160I299996J-4D01*
G01*
X166137821Y-107167160D02*
X179537821Y-107167160D01*
X179537821Y-107167173D02*
G75*
G03*
X179837821Y-106867160I-9J300009D01*
G01*
X179837821Y-106867160D02*
X179837821Y-93467160D01*
X179837816Y-93467160D02*
G75*
G03*
X179537821Y-93167160I-300004J-4D01*
G01*
X179537821Y-93167160D02*
X166137821Y-93167160D01*
X166137821Y-93167173D02*
G75*
G03*
X165837821Y-93467160I-9J-299991D01*
G01*
X108687821Y-58367160D02*
X108687821Y-71767160D01*
X108687821Y-71767160D02*
G75*
G03*
X108987821Y-72067160I300000J0D01*
G01*
X108987821Y-72067160D02*
X122387821Y-72067160D01*
X122387821Y-72067160D02*
G75*
G03*
X122687821Y-71767160I0J300000D01*
G01*
X122687821Y-71767160D02*
X122687821Y-58367160D01*
X122687821Y-58367160D02*
G75*
G03*
X122387821Y-58067160I-300000J0D01*
G01*
X122387821Y-58067160D02*
X108987821Y-58067160D01*
X108987821Y-58067160D02*
G75*
G03*
X108687821Y-58367160I0J-300000D01*
G01*
X127737821Y-93967160D02*
X127737821Y-107367160D01*
X127737821Y-107367160D02*
G75*
G03*
X128037821Y-107667160I300000J0D01*
G01*
X128037821Y-107667160D02*
X141437821Y-107667160D01*
X141437821Y-107667173D02*
G75*
G03*
X141737821Y-107367160I-9J300009D01*
G01*
X141737821Y-107367160D02*
X141737821Y-93967160D01*
X141737816Y-93967160D02*
G75*
G03*
X141437821Y-93667160I-300004J-4D01*
G01*
X141437821Y-93667160D02*
X128037821Y-93667160D01*
X128037821Y-93667160D02*
G75*
G03*
X127737821Y-93967160I0J-300000D01*
G01*
X138434412Y-50070665D02*
G75*
G03*
X138434412Y-50070665I-1200000J0D01*
G01*
X102852473Y-140008469D02*
X96152473Y-128403729D01*
X98751829Y-104905945D02*
X105451829Y-116510685D01*
X93327473Y-123510685D02*
X86627473Y-111905945D01*
X98295238Y-143505359D02*
X88820007Y-134030128D01*
X78920512Y-143929623D02*
X88395743Y-153404854D01*
X75349623Y-120559744D02*
X84824854Y-130034975D01*
X74925359Y-139934469D02*
X65450128Y-130459239D01*
X96262281Y-127993921D02*
X107867021Y-121293921D01*
X108276829Y-121403729D02*
X114976829Y-133008469D01*
X114867021Y-133418277D02*
X103262281Y-140118277D01*
X86737281Y-111496137D02*
X98342021Y-104796137D01*
X105342021Y-116920493D02*
X93737281Y-123620493D01*
X65450128Y-130034975D02*
X74925359Y-120559744D01*
X75349623Y-139934469D02*
X84824854Y-130459239D01*
X88395743Y-134030128D02*
X78920512Y-143505359D01*
X88820007Y-153404854D02*
X98295238Y-143929623D01*
X74925360Y-139934468D02*
G75*
G03*
X75349622Y-139934468I212131J212131D01*
G01*
X75349622Y-120559745D02*
G75*
G03*
X74925360Y-120559745I-212131J-212131D01*
G01*
X65450129Y-130034976D02*
G75*
G03*
X65450129Y-130459238I212131J-212131D01*
G01*
X84824853Y-130459238D02*
G75*
G03*
X84824853Y-130034976I-212131J212131D01*
G01*
X98295237Y-143929622D02*
G75*
G03*
X98295237Y-143505360I-212131J212131D01*
G01*
X78920513Y-143505360D02*
G75*
G03*
X78920513Y-143929622I212131J-212131D01*
G01*
X88395744Y-153404853D02*
G75*
G03*
X88820006Y-153404853I212131J212131D01*
G01*
X88820006Y-134030129D02*
G75*
G03*
X88395744Y-134030129I-212131J-212131D01*
G01*
X96262281Y-127993921D02*
G75*
G03*
X96152473Y-128403729I150000J-259808D01*
G01*
X102852473Y-140008469D02*
G75*
G03*
X103262281Y-140118277I259808J150000D01*
G01*
X114867021Y-133418277D02*
G75*
G03*
X114976829Y-133008469I-150000J259808D01*
G01*
X108276829Y-121403729D02*
G75*
G03*
X107867021Y-121293921I-259808J-150000D01*
G01*
X93327473Y-123510685D02*
G75*
G03*
X93737281Y-123620493I259808J150000D01*
G01*
X105342021Y-116920493D02*
G75*
G03*
X105451829Y-116510685I-150000J259808D01*
G01*
X98751829Y-104905945D02*
G75*
G03*
X98342021Y-104796137I-259808J-150000D01*
G01*
M02*
