%TF.GenerationSoftware,KiCad,Pcbnew,7.0.1*%
%TF.CreationDate,2023-04-13T23:26:45+02:00*%
%TF.ProjectId,kicad,6b696361-642e-46b6-9963-61645f706362,rev?*%
%TF.SameCoordinates,Original*%
%TF.FileFunction,Legend,Top*%
%TF.FilePolarity,Positive*%
%FSLAX46Y46*%
G04 Gerber Fmt 4.6, Leading zero omitted, Abs format (unit mm)*
G04 Created by KiCad (PCBNEW 7.0.1) date 2023-04-13 23:26:45*
%MOMM*%
%LPD*%
G01*
G04 APERTURE LIST*
%ADD10C,0.039687*%
G04 APERTURE END LIST*
D10*
X193686933Y-54109956D02*
X193717616Y-54114210D01*
X193746343Y-54120620D01*
X193773185Y-54129108D01*
X193798215Y-54139593D01*
X193821506Y-54151997D01*
X193843130Y-54166241D01*
X193863160Y-54182245D01*
X193881668Y-54199929D01*
X193898727Y-54219215D01*
X193914410Y-54240024D01*
X193928788Y-54262275D01*
X193941935Y-54285891D01*
X193964824Y-54336896D01*
X193983658Y-54392406D01*
X193999016Y-54451785D01*
X194011478Y-54514401D01*
X194021626Y-54579618D01*
X194037298Y-54715322D01*
X194050674Y-54853825D01*
X194070922Y-55040919D01*
X194092850Y-55214658D01*
X194116477Y-55378089D01*
X194141820Y-55534260D01*
X194168899Y-55686217D01*
X194197733Y-55837007D01*
X194260736Y-56147279D01*
X194270520Y-56203673D01*
X194275944Y-56256435D01*
X194277275Y-56305833D01*
X194274778Y-56352134D01*
X194268718Y-56395604D01*
X194259361Y-56436511D01*
X194246973Y-56475123D01*
X194231818Y-56511706D01*
X194214162Y-56546527D01*
X194194272Y-56579853D01*
X194172412Y-56611953D01*
X194148847Y-56643092D01*
X194097668Y-56703558D01*
X194042859Y-56763388D01*
X193986542Y-56824720D01*
X193930844Y-56889691D01*
X193903890Y-56924209D01*
X193877887Y-56960438D01*
X193853100Y-56998646D01*
X193829796Y-57039098D01*
X193808238Y-57082063D01*
X193788694Y-57127808D01*
X193771428Y-57176599D01*
X193756706Y-57228704D01*
X193744793Y-57284391D01*
X193735955Y-57343925D01*
X193730458Y-57407575D01*
X193728566Y-57475607D01*
X193731029Y-57576899D01*
X193737989Y-57669082D01*
X193748803Y-57753837D01*
X193762829Y-57832843D01*
X193779425Y-57907780D01*
X193797948Y-57980329D01*
X193838206Y-58124981D01*
X193878464Y-58280239D01*
X193896987Y-58366045D01*
X193913583Y-58459542D01*
X193927609Y-58562411D01*
X193938423Y-58676330D01*
X193945383Y-58802982D01*
X193947846Y-58944044D01*
X193943118Y-59087117D01*
X193929337Y-59219492D01*
X193907107Y-59342126D01*
X193877032Y-59455972D01*
X193839714Y-59561986D01*
X193795757Y-59661122D01*
X193745765Y-59754335D01*
X193690341Y-59842580D01*
X193565612Y-60007984D01*
X193426399Y-60164974D01*
X193123831Y-60484261D01*
X192970133Y-60661835D01*
X192821263Y-60861548D01*
X192750147Y-60972093D01*
X192682050Y-61091038D01*
X192617573Y-61219336D01*
X192557321Y-61357942D01*
X192501897Y-61507813D01*
X192451905Y-61669901D01*
X192407948Y-61845162D01*
X192370630Y-62034551D01*
X192340554Y-62239023D01*
X192318324Y-62459532D01*
X192304544Y-62697033D01*
X192299816Y-62952481D01*
X192303942Y-63139290D01*
X192315901Y-63313106D01*
X192335068Y-63474558D01*
X192360816Y-63624276D01*
X192392521Y-63762892D01*
X192429555Y-63891035D01*
X192471294Y-64009335D01*
X192517110Y-64118423D01*
X192566378Y-64218930D01*
X192618473Y-64311484D01*
X192672767Y-64396717D01*
X192728636Y-64475259D01*
X192785453Y-64547740D01*
X192842593Y-64614791D01*
X192955334Y-64735120D01*
X193157143Y-64938343D01*
X193199012Y-64985026D01*
X193236195Y-65031320D01*
X193268067Y-65077856D01*
X193294002Y-65125264D01*
X193313374Y-65174174D01*
X193325557Y-65225216D01*
X193329924Y-65279021D01*
X193325851Y-65336219D01*
X193312710Y-65397440D01*
X193289877Y-65463314D01*
X193256725Y-65534473D01*
X193212628Y-65611545D01*
X193176044Y-65659657D01*
X193133411Y-65696616D01*
X193085202Y-65722883D01*
X193031890Y-65738918D01*
X192973947Y-65745184D01*
X192911847Y-65742140D01*
X192846062Y-65730247D01*
X192777066Y-65709966D01*
X192705330Y-65681758D01*
X192631328Y-65646084D01*
X192555533Y-65603404D01*
X192478418Y-65554180D01*
X192322117Y-65437941D01*
X192166208Y-65301053D01*
X192014475Y-65147203D01*
X191870700Y-64980077D01*
X191738665Y-64803362D01*
X191622154Y-64620745D01*
X191570902Y-64528375D01*
X191524950Y-64435912D01*
X191484770Y-64343816D01*
X191450835Y-64252549D01*
X191423618Y-64162571D01*
X191403592Y-64074344D01*
X191391229Y-63988327D01*
X191387003Y-63904982D01*
X191385840Y-63835056D01*
X191382405Y-63769394D01*
X191376786Y-63707862D01*
X191369067Y-63650325D01*
X191359334Y-63596649D01*
X191347673Y-63546701D01*
X191334168Y-63500346D01*
X191318907Y-63457451D01*
X191301973Y-63417881D01*
X191283454Y-63381502D01*
X191263433Y-63348181D01*
X191241998Y-63317783D01*
X191219232Y-63290175D01*
X191195223Y-63265221D01*
X191170055Y-63242789D01*
X191143814Y-63222745D01*
X191116585Y-63204953D01*
X191088455Y-63189280D01*
X191059508Y-63175593D01*
X191029830Y-63163757D01*
X190999507Y-63153638D01*
X190968624Y-63145102D01*
X190905521Y-63132243D01*
X190841205Y-63124108D01*
X190776361Y-63119624D01*
X190711672Y-63117721D01*
X190647824Y-63117324D01*
X190611238Y-63120852D01*
X190573019Y-63131196D01*
X190533315Y-63148003D01*
X190492277Y-63170916D01*
X190450057Y-63199579D01*
X190406804Y-63233637D01*
X190317801Y-63316515D01*
X190226472Y-63416704D01*
X190134022Y-63531360D01*
X190041652Y-63657635D01*
X189950567Y-63792686D01*
X189861971Y-63933667D01*
X189777066Y-64077733D01*
X189697056Y-64222037D01*
X189623144Y-64363735D01*
X189556534Y-64499982D01*
X189498430Y-64627932D01*
X189450035Y-64744740D01*
X189412551Y-64847560D01*
X189598912Y-64849136D01*
X189763007Y-64854239D01*
X189906249Y-64863433D01*
X189970493Y-64869740D01*
X190030053Y-64877281D01*
X190085107Y-64886126D01*
X190135831Y-64896346D01*
X190182402Y-64908011D01*
X190224997Y-64921192D01*
X190263791Y-64935959D01*
X190298963Y-64952383D01*
X190330688Y-64970533D01*
X190359143Y-64990481D01*
X190384505Y-65012296D01*
X190406951Y-65036050D01*
X190426656Y-65061812D01*
X190443799Y-65089653D01*
X190458555Y-65119644D01*
X190471101Y-65151854D01*
X190481613Y-65186355D01*
X190490269Y-65223217D01*
X190497245Y-65262509D01*
X190502718Y-65304303D01*
X190509861Y-65395678D01*
X190513110Y-65497904D01*
X190513879Y-65611545D01*
X186029192Y-65611545D01*
X185929771Y-65524444D01*
X185836544Y-65452489D01*
X185746533Y-65395562D01*
X185656763Y-65353542D01*
X185564256Y-65326311D01*
X185466037Y-65313750D01*
X185359130Y-65315739D01*
X185240556Y-65332159D01*
X185107341Y-65362891D01*
X184956508Y-65407815D01*
X184785080Y-65466813D01*
X184590082Y-65539765D01*
X183514848Y-65968732D01*
X183328674Y-66046931D01*
X183164785Y-66124312D01*
X183022070Y-66200815D01*
X182899414Y-66276375D01*
X182795705Y-66350929D01*
X182709832Y-66424416D01*
X182640681Y-66496773D01*
X182587140Y-66567936D01*
X182548095Y-66637843D01*
X182522436Y-66706431D01*
X182509048Y-66773637D01*
X182506819Y-66839399D01*
X182514638Y-66903654D01*
X182531390Y-66966339D01*
X182555964Y-67027391D01*
X182587247Y-67086748D01*
X182624126Y-67144347D01*
X182665489Y-67200125D01*
X182757217Y-67305966D01*
X182945522Y-67493037D01*
X183024299Y-67573262D01*
X183080958Y-67643943D01*
X183098211Y-67675549D01*
X183106597Y-67704580D01*
X183105003Y-67730974D01*
X183092317Y-67754669D01*
X183070700Y-67774756D01*
X183043336Y-67790435D01*
X183010648Y-67801811D01*
X182973057Y-67808985D01*
X182930985Y-67812062D01*
X182884854Y-67811144D01*
X182835086Y-67806335D01*
X182782103Y-67797737D01*
X182726326Y-67785454D01*
X182668178Y-67769588D01*
X182608080Y-67750242D01*
X182546454Y-67727521D01*
X182483721Y-67701526D01*
X182420305Y-67672361D01*
X182356627Y-67640129D01*
X182293108Y-67604933D01*
X182230170Y-67566876D01*
X182168235Y-67526061D01*
X182107726Y-67482591D01*
X182049063Y-67436570D01*
X181992670Y-67388100D01*
X181938967Y-67337284D01*
X181888376Y-67284226D01*
X181841319Y-67229028D01*
X181798219Y-67171794D01*
X181759497Y-67112627D01*
X181725575Y-67051629D01*
X181696874Y-66988904D01*
X181673817Y-66924555D01*
X181656826Y-66858685D01*
X181646321Y-66791397D01*
X181642726Y-66722795D01*
X181647531Y-66575225D01*
X181661737Y-66441125D01*
X181685034Y-66319532D01*
X181717111Y-66209484D01*
X181757658Y-66110017D01*
X181806363Y-66020168D01*
X181862915Y-65938973D01*
X181927004Y-65865471D01*
X181998319Y-65798698D01*
X182076549Y-65737690D01*
X182161383Y-65681485D01*
X182252510Y-65629119D01*
X182452401Y-65532054D01*
X182673735Y-65438791D01*
X183170785Y-65232850D01*
X183441527Y-65104763D01*
X183723766Y-64949659D01*
X183868419Y-64859569D01*
X184015013Y-64759834D01*
X184163238Y-64649493D01*
X184312783Y-64527582D01*
X184463336Y-64393139D01*
X184614588Y-64245200D01*
X184766226Y-64082802D01*
X184917942Y-63904982D01*
X185002573Y-63779164D01*
X185077484Y-63624778D01*
X185145317Y-63444171D01*
X185208714Y-63239689D01*
X185470755Y-62229921D01*
X185551586Y-61941248D01*
X185643827Y-61642775D01*
X185750121Y-61336846D01*
X185873108Y-61025808D01*
X186015430Y-60712007D01*
X186179728Y-60397789D01*
X186368643Y-60085498D01*
X186584817Y-59777482D01*
X186701518Y-59629190D01*
X186820791Y-59489234D01*
X186942419Y-59357344D01*
X187066183Y-59233251D01*
X187191866Y-59116688D01*
X187319249Y-59007383D01*
X187448115Y-58905070D01*
X187578245Y-58809479D01*
X187709421Y-58720341D01*
X187841426Y-58637387D01*
X188107050Y-58488956D01*
X188373371Y-58362035D01*
X188638645Y-58254474D01*
X188901129Y-58164121D01*
X189159078Y-58088825D01*
X189410749Y-58026436D01*
X189654397Y-57974801D01*
X190110648Y-57895194D01*
X190513879Y-57832794D01*
X190602451Y-57815322D01*
X190682356Y-57792811D01*
X190753929Y-57765469D01*
X190817505Y-57733504D01*
X190873420Y-57697126D01*
X190922009Y-57656543D01*
X190963608Y-57611963D01*
X190998551Y-57563595D01*
X191027173Y-57511648D01*
X191049811Y-57456331D01*
X191066800Y-57397851D01*
X191078474Y-57336418D01*
X191085169Y-57272239D01*
X191087220Y-57205525D01*
X191084963Y-57136482D01*
X191078733Y-57065321D01*
X191055695Y-56917474D01*
X191020789Y-56763654D01*
X190976695Y-56605529D01*
X190926098Y-56444767D01*
X190712316Y-55808732D01*
X190683491Y-55709733D01*
X190656820Y-55607039D01*
X190632709Y-55501887D01*
X190611564Y-55395514D01*
X190593791Y-55289158D01*
X190579798Y-55184056D01*
X190569990Y-55081446D01*
X190564773Y-54982564D01*
X190564555Y-54888649D01*
X190569742Y-54800937D01*
X190574489Y-54759794D01*
X190580740Y-54720667D01*
X190588545Y-54683708D01*
X190597955Y-54649075D01*
X190609022Y-54616920D01*
X190621795Y-54587398D01*
X190636325Y-54560666D01*
X190652665Y-54536876D01*
X190670863Y-54516184D01*
X190690971Y-54498744D01*
X190713040Y-54484711D01*
X190737121Y-54474240D01*
X190763383Y-54467662D01*
X190791507Y-54465175D01*
X190821454Y-54466514D01*
X190853183Y-54471412D01*
X190921822Y-54490826D01*
X190997100Y-54521292D01*
X191078691Y-54560683D01*
X191166269Y-54606876D01*
X191358088Y-54711163D01*
X191461678Y-54765007D01*
X191569955Y-54817151D01*
X191682593Y-54865469D01*
X191799267Y-54907836D01*
X191919651Y-54942128D01*
X191981134Y-54955581D01*
X192043421Y-54966218D01*
X192106474Y-54973774D01*
X192170251Y-54977982D01*
X192234712Y-54978578D01*
X192299816Y-54975294D01*
X192363838Y-54967865D01*
X192424911Y-54956406D01*
X192483183Y-54941192D01*
X192538802Y-54922501D01*
X192591916Y-54900607D01*
X192642672Y-54875788D01*
X192691219Y-54848319D01*
X192737704Y-54818477D01*
X192782276Y-54786538D01*
X192825082Y-54752778D01*
X192866270Y-54717472D01*
X192905988Y-54680898D01*
X192981606Y-54605048D01*
X193053119Y-54527436D01*
X193188561Y-54375766D01*
X193254857Y-54306125D01*
X193288166Y-54273820D01*
X193321780Y-54243559D01*
X193355846Y-54215620D01*
X193390513Y-54190279D01*
X193425928Y-54167810D01*
X193462240Y-54148491D01*
X193499595Y-54132598D01*
X193538143Y-54120407D01*
X193578030Y-54112194D01*
X193619406Y-54108235D01*
X193654220Y-54107938D01*
X193686933Y-54109956D01*
G36*
X193686933Y-54109956D02*
G01*
X193717616Y-54114210D01*
X193746343Y-54120620D01*
X193773185Y-54129108D01*
X193798215Y-54139593D01*
X193821506Y-54151997D01*
X193843130Y-54166241D01*
X193863160Y-54182245D01*
X193881668Y-54199929D01*
X193898727Y-54219215D01*
X193914410Y-54240024D01*
X193928788Y-54262275D01*
X193941935Y-54285891D01*
X193964824Y-54336896D01*
X193983658Y-54392406D01*
X193999016Y-54451785D01*
X194011478Y-54514401D01*
X194021626Y-54579618D01*
X194037298Y-54715322D01*
X194050674Y-54853825D01*
X194070922Y-55040919D01*
X194092850Y-55214658D01*
X194116477Y-55378089D01*
X194141820Y-55534260D01*
X194168899Y-55686217D01*
X194197733Y-55837007D01*
X194260736Y-56147279D01*
X194270520Y-56203673D01*
X194275944Y-56256435D01*
X194277275Y-56305833D01*
X194274778Y-56352134D01*
X194268718Y-56395604D01*
X194259361Y-56436511D01*
X194246973Y-56475123D01*
X194231818Y-56511706D01*
X194214162Y-56546527D01*
X194194272Y-56579853D01*
X194172412Y-56611953D01*
X194148847Y-56643092D01*
X194097668Y-56703558D01*
X194042859Y-56763388D01*
X193986542Y-56824720D01*
X193930844Y-56889691D01*
X193903890Y-56924209D01*
X193877887Y-56960438D01*
X193853100Y-56998646D01*
X193829796Y-57039098D01*
X193808238Y-57082063D01*
X193788694Y-57127808D01*
X193771428Y-57176599D01*
X193756706Y-57228704D01*
X193744793Y-57284391D01*
X193735955Y-57343925D01*
X193730458Y-57407575D01*
X193728566Y-57475607D01*
X193731029Y-57576899D01*
X193737989Y-57669082D01*
X193748803Y-57753837D01*
X193762829Y-57832843D01*
X193779425Y-57907780D01*
X193797948Y-57980329D01*
X193838206Y-58124981D01*
X193878464Y-58280239D01*
X193896987Y-58366045D01*
X193913583Y-58459542D01*
X193927609Y-58562411D01*
X193938423Y-58676330D01*
X193945383Y-58802982D01*
X193947846Y-58944044D01*
X193943118Y-59087117D01*
X193929337Y-59219492D01*
X193907107Y-59342126D01*
X193877032Y-59455972D01*
X193839714Y-59561986D01*
X193795757Y-59661122D01*
X193745765Y-59754335D01*
X193690341Y-59842580D01*
X193565612Y-60007984D01*
X193426399Y-60164974D01*
X193123831Y-60484261D01*
X192970133Y-60661835D01*
X192821263Y-60861548D01*
X192750147Y-60972093D01*
X192682050Y-61091038D01*
X192617573Y-61219336D01*
X192557321Y-61357942D01*
X192501897Y-61507813D01*
X192451905Y-61669901D01*
X192407948Y-61845162D01*
X192370630Y-62034551D01*
X192340554Y-62239023D01*
X192318324Y-62459532D01*
X192304544Y-62697033D01*
X192299816Y-62952481D01*
X192303942Y-63139290D01*
X192315901Y-63313106D01*
X192335068Y-63474558D01*
X192360816Y-63624276D01*
X192392521Y-63762892D01*
X192429555Y-63891035D01*
X192471294Y-64009335D01*
X192517110Y-64118423D01*
X192566378Y-64218930D01*
X192618473Y-64311484D01*
X192672767Y-64396717D01*
X192728636Y-64475259D01*
X192785453Y-64547740D01*
X192842593Y-64614791D01*
X192955334Y-64735120D01*
X193157143Y-64938343D01*
X193199012Y-64985026D01*
X193236195Y-65031320D01*
X193268067Y-65077856D01*
X193294002Y-65125264D01*
X193313374Y-65174174D01*
X193325557Y-65225216D01*
X193329924Y-65279021D01*
X193325851Y-65336219D01*
X193312710Y-65397440D01*
X193289877Y-65463314D01*
X193256725Y-65534473D01*
X193212628Y-65611545D01*
X193176044Y-65659657D01*
X193133411Y-65696616D01*
X193085202Y-65722883D01*
X193031890Y-65738918D01*
X192973947Y-65745184D01*
X192911847Y-65742140D01*
X192846062Y-65730247D01*
X192777066Y-65709966D01*
X192705330Y-65681758D01*
X192631328Y-65646084D01*
X192555533Y-65603404D01*
X192478418Y-65554180D01*
X192322117Y-65437941D01*
X192166208Y-65301053D01*
X192014475Y-65147203D01*
X191870700Y-64980077D01*
X191738665Y-64803362D01*
X191622154Y-64620745D01*
X191570902Y-64528375D01*
X191524950Y-64435912D01*
X191484770Y-64343816D01*
X191450835Y-64252549D01*
X191423618Y-64162571D01*
X191403592Y-64074344D01*
X191391229Y-63988327D01*
X191387003Y-63904982D01*
X191385840Y-63835056D01*
X191382405Y-63769394D01*
X191376786Y-63707862D01*
X191369067Y-63650325D01*
X191359334Y-63596649D01*
X191347673Y-63546701D01*
X191334168Y-63500346D01*
X191318907Y-63457451D01*
X191301973Y-63417881D01*
X191283454Y-63381502D01*
X191263433Y-63348181D01*
X191241998Y-63317783D01*
X191219232Y-63290175D01*
X191195223Y-63265221D01*
X191170055Y-63242789D01*
X191143814Y-63222745D01*
X191116585Y-63204953D01*
X191088455Y-63189280D01*
X191059508Y-63175593D01*
X191029830Y-63163757D01*
X190999507Y-63153638D01*
X190968624Y-63145102D01*
X190905521Y-63132243D01*
X190841205Y-63124108D01*
X190776361Y-63119624D01*
X190711672Y-63117721D01*
X190647824Y-63117324D01*
X190611238Y-63120852D01*
X190573019Y-63131196D01*
X190533315Y-63148003D01*
X190492277Y-63170916D01*
X190450057Y-63199579D01*
X190406804Y-63233637D01*
X190317801Y-63316515D01*
X190226472Y-63416704D01*
X190134022Y-63531360D01*
X190041652Y-63657635D01*
X189950567Y-63792686D01*
X189861971Y-63933667D01*
X189777066Y-64077733D01*
X189697056Y-64222037D01*
X189623144Y-64363735D01*
X189556534Y-64499982D01*
X189498430Y-64627932D01*
X189450035Y-64744740D01*
X189412551Y-64847560D01*
X189598912Y-64849136D01*
X189763007Y-64854239D01*
X189906249Y-64863433D01*
X189970493Y-64869740D01*
X190030053Y-64877281D01*
X190085107Y-64886126D01*
X190135831Y-64896346D01*
X190182402Y-64908011D01*
X190224997Y-64921192D01*
X190263791Y-64935959D01*
X190298963Y-64952383D01*
X190330688Y-64970533D01*
X190359143Y-64990481D01*
X190384505Y-65012296D01*
X190406951Y-65036050D01*
X190426656Y-65061812D01*
X190443799Y-65089653D01*
X190458555Y-65119644D01*
X190471101Y-65151854D01*
X190481613Y-65186355D01*
X190490269Y-65223217D01*
X190497245Y-65262509D01*
X190502718Y-65304303D01*
X190509861Y-65395678D01*
X190513110Y-65497904D01*
X190513879Y-65611545D01*
X186029192Y-65611545D01*
X185929771Y-65524444D01*
X185836544Y-65452489D01*
X185746533Y-65395562D01*
X185656763Y-65353542D01*
X185564256Y-65326311D01*
X185466037Y-65313750D01*
X185359130Y-65315739D01*
X185240556Y-65332159D01*
X185107341Y-65362891D01*
X184956508Y-65407815D01*
X184785080Y-65466813D01*
X184590082Y-65539765D01*
X183514848Y-65968732D01*
X183328674Y-66046931D01*
X183164785Y-66124312D01*
X183022070Y-66200815D01*
X182899414Y-66276375D01*
X182795705Y-66350929D01*
X182709832Y-66424416D01*
X182640681Y-66496773D01*
X182587140Y-66567936D01*
X182548095Y-66637843D01*
X182522436Y-66706431D01*
X182509048Y-66773637D01*
X182506819Y-66839399D01*
X182514638Y-66903654D01*
X182531390Y-66966339D01*
X182555964Y-67027391D01*
X182587247Y-67086748D01*
X182624126Y-67144347D01*
X182665489Y-67200125D01*
X182757217Y-67305966D01*
X182945522Y-67493037D01*
X183024299Y-67573262D01*
X183080958Y-67643943D01*
X183098211Y-67675549D01*
X183106597Y-67704580D01*
X183105003Y-67730974D01*
X183092317Y-67754669D01*
X183070700Y-67774756D01*
X183043336Y-67790435D01*
X183010648Y-67801811D01*
X182973057Y-67808985D01*
X182930985Y-67812062D01*
X182884854Y-67811144D01*
X182835086Y-67806335D01*
X182782103Y-67797737D01*
X182726326Y-67785454D01*
X182668178Y-67769588D01*
X182608080Y-67750242D01*
X182546454Y-67727521D01*
X182483721Y-67701526D01*
X182420305Y-67672361D01*
X182356627Y-67640129D01*
X182293108Y-67604933D01*
X182230170Y-67566876D01*
X182168235Y-67526061D01*
X182107726Y-67482591D01*
X182049063Y-67436570D01*
X181992670Y-67388100D01*
X181938967Y-67337284D01*
X181888376Y-67284226D01*
X181841319Y-67229028D01*
X181798219Y-67171794D01*
X181759497Y-67112627D01*
X181725575Y-67051629D01*
X181696874Y-66988904D01*
X181673817Y-66924555D01*
X181656826Y-66858685D01*
X181646321Y-66791397D01*
X181642726Y-66722795D01*
X181647531Y-66575225D01*
X181661737Y-66441125D01*
X181685034Y-66319532D01*
X181717111Y-66209484D01*
X181757658Y-66110017D01*
X181806363Y-66020168D01*
X181862915Y-65938973D01*
X181927004Y-65865471D01*
X181998319Y-65798698D01*
X182076549Y-65737690D01*
X182161383Y-65681485D01*
X182252510Y-65629119D01*
X182452401Y-65532054D01*
X182673735Y-65438791D01*
X183170785Y-65232850D01*
X183441527Y-65104763D01*
X183723766Y-64949659D01*
X183868419Y-64859569D01*
X184015013Y-64759834D01*
X184163238Y-64649493D01*
X184312783Y-64527582D01*
X184463336Y-64393139D01*
X184614588Y-64245200D01*
X184766226Y-64082802D01*
X184917942Y-63904982D01*
X185002573Y-63779164D01*
X185077484Y-63624778D01*
X185145317Y-63444171D01*
X185208714Y-63239689D01*
X185470755Y-62229921D01*
X185551586Y-61941248D01*
X185643827Y-61642775D01*
X185750121Y-61336846D01*
X185873108Y-61025808D01*
X186015430Y-60712007D01*
X186179728Y-60397789D01*
X186368643Y-60085498D01*
X186584817Y-59777482D01*
X186701518Y-59629190D01*
X186820791Y-59489234D01*
X186942419Y-59357344D01*
X187066183Y-59233251D01*
X187191866Y-59116688D01*
X187319249Y-59007383D01*
X187448115Y-58905070D01*
X187578245Y-58809479D01*
X187709421Y-58720341D01*
X187841426Y-58637387D01*
X188107050Y-58488956D01*
X188373371Y-58362035D01*
X188638645Y-58254474D01*
X188901129Y-58164121D01*
X189159078Y-58088825D01*
X189410749Y-58026436D01*
X189654397Y-57974801D01*
X190110648Y-57895194D01*
X190513879Y-57832794D01*
X190602451Y-57815322D01*
X190682356Y-57792811D01*
X190753929Y-57765469D01*
X190817505Y-57733504D01*
X190873420Y-57697126D01*
X190922009Y-57656543D01*
X190963608Y-57611963D01*
X190998551Y-57563595D01*
X191027173Y-57511648D01*
X191049811Y-57456331D01*
X191066800Y-57397851D01*
X191078474Y-57336418D01*
X191085169Y-57272239D01*
X191087220Y-57205525D01*
X191084963Y-57136482D01*
X191078733Y-57065321D01*
X191055695Y-56917474D01*
X191020789Y-56763654D01*
X190976695Y-56605529D01*
X190926098Y-56444767D01*
X190712316Y-55808732D01*
X190683491Y-55709733D01*
X190656820Y-55607039D01*
X190632709Y-55501887D01*
X190611564Y-55395514D01*
X190593791Y-55289158D01*
X190579798Y-55184056D01*
X190569990Y-55081446D01*
X190564773Y-54982564D01*
X190564555Y-54888649D01*
X190569742Y-54800937D01*
X190574489Y-54759794D01*
X190580740Y-54720667D01*
X190588545Y-54683708D01*
X190597955Y-54649075D01*
X190609022Y-54616920D01*
X190621795Y-54587398D01*
X190636325Y-54560666D01*
X190652665Y-54536876D01*
X190670863Y-54516184D01*
X190690971Y-54498744D01*
X190713040Y-54484711D01*
X190737121Y-54474240D01*
X190763383Y-54467662D01*
X190791507Y-54465175D01*
X190821454Y-54466514D01*
X190853183Y-54471412D01*
X190921822Y-54490826D01*
X190997100Y-54521292D01*
X191078691Y-54560683D01*
X191166269Y-54606876D01*
X191358088Y-54711163D01*
X191461678Y-54765007D01*
X191569955Y-54817151D01*
X191682593Y-54865469D01*
X191799267Y-54907836D01*
X191919651Y-54942128D01*
X191981134Y-54955581D01*
X192043421Y-54966218D01*
X192106474Y-54973774D01*
X192170251Y-54977982D01*
X192234712Y-54978578D01*
X192299816Y-54975294D01*
X192363838Y-54967865D01*
X192424911Y-54956406D01*
X192483183Y-54941192D01*
X192538802Y-54922501D01*
X192591916Y-54900607D01*
X192642672Y-54875788D01*
X192691219Y-54848319D01*
X192737704Y-54818477D01*
X192782276Y-54786538D01*
X192825082Y-54752778D01*
X192866270Y-54717472D01*
X192905988Y-54680898D01*
X192981606Y-54605048D01*
X193053119Y-54527436D01*
X193188561Y-54375766D01*
X193254857Y-54306125D01*
X193288166Y-54273820D01*
X193321780Y-54243559D01*
X193355846Y-54215620D01*
X193390513Y-54190279D01*
X193425928Y-54167810D01*
X193462240Y-54148491D01*
X193499595Y-54132598D01*
X193538143Y-54120407D01*
X193578030Y-54112194D01*
X193619406Y-54108235D01*
X193654220Y-54107938D01*
X193686933Y-54109956D01*
G37*
M02*
