%TF.GenerationSoftware,KiCad,Pcbnew,7.0.1*%
%TF.CreationDate,2023-04-13T17:31:44+02:00*%
%TF.ProjectId,kicad,6b696361-642e-46b6-9963-61645f706362,rev?*%
%TF.SameCoordinates,Original*%
%TF.FileFunction,Legend,Top*%
%TF.FilePolarity,Positive*%
%FSLAX46Y46*%
G04 Gerber Fmt 4.6, Leading zero omitted, Abs format (unit mm)*
G04 Created by KiCad (PCBNEW 7.0.1) date 2023-04-13 17:31:44*
%MOMM*%
%LPD*%
G01*
G04 APERTURE LIST*
%ADD10C,0.039687*%
G04 APERTURE END LIST*
D10*
X201306933Y-41409956D02*
X201337616Y-41414210D01*
X201366343Y-41420620D01*
X201393185Y-41429108D01*
X201418215Y-41439593D01*
X201441506Y-41451997D01*
X201463130Y-41466241D01*
X201483160Y-41482245D01*
X201501668Y-41499929D01*
X201518727Y-41519215D01*
X201534410Y-41540024D01*
X201548788Y-41562275D01*
X201561935Y-41585891D01*
X201584824Y-41636896D01*
X201603658Y-41692406D01*
X201619016Y-41751785D01*
X201631478Y-41814401D01*
X201641626Y-41879618D01*
X201657298Y-42015322D01*
X201670674Y-42153825D01*
X201690922Y-42340919D01*
X201712850Y-42514658D01*
X201736477Y-42678089D01*
X201761820Y-42834260D01*
X201788899Y-42986217D01*
X201817733Y-43137007D01*
X201880736Y-43447279D01*
X201890520Y-43503673D01*
X201895944Y-43556435D01*
X201897275Y-43605833D01*
X201894778Y-43652134D01*
X201888718Y-43695604D01*
X201879361Y-43736511D01*
X201866973Y-43775123D01*
X201851818Y-43811706D01*
X201834162Y-43846527D01*
X201814272Y-43879853D01*
X201792412Y-43911953D01*
X201768847Y-43943092D01*
X201717668Y-44003558D01*
X201662859Y-44063388D01*
X201606542Y-44124720D01*
X201550844Y-44189691D01*
X201523890Y-44224209D01*
X201497887Y-44260438D01*
X201473100Y-44298646D01*
X201449796Y-44339098D01*
X201428238Y-44382063D01*
X201408694Y-44427808D01*
X201391428Y-44476599D01*
X201376706Y-44528704D01*
X201364793Y-44584391D01*
X201355955Y-44643925D01*
X201350458Y-44707575D01*
X201348566Y-44775607D01*
X201351029Y-44876899D01*
X201357989Y-44969082D01*
X201368803Y-45053837D01*
X201382829Y-45132843D01*
X201399425Y-45207780D01*
X201417948Y-45280329D01*
X201458206Y-45424981D01*
X201498464Y-45580239D01*
X201516987Y-45666045D01*
X201533583Y-45759542D01*
X201547609Y-45862411D01*
X201558423Y-45976330D01*
X201565383Y-46102982D01*
X201567846Y-46244044D01*
X201563118Y-46387117D01*
X201549337Y-46519492D01*
X201527107Y-46642126D01*
X201497032Y-46755972D01*
X201459714Y-46861986D01*
X201415757Y-46961122D01*
X201365765Y-47054335D01*
X201310341Y-47142580D01*
X201185612Y-47307984D01*
X201046399Y-47464974D01*
X200743831Y-47784261D01*
X200590133Y-47961835D01*
X200441263Y-48161548D01*
X200370147Y-48272093D01*
X200302050Y-48391038D01*
X200237573Y-48519336D01*
X200177321Y-48657942D01*
X200121897Y-48807813D01*
X200071905Y-48969901D01*
X200027948Y-49145162D01*
X199990630Y-49334551D01*
X199960554Y-49539023D01*
X199938324Y-49759532D01*
X199924544Y-49997033D01*
X199919816Y-50252481D01*
X199923942Y-50439290D01*
X199935901Y-50613106D01*
X199955068Y-50774558D01*
X199980816Y-50924276D01*
X200012521Y-51062892D01*
X200049555Y-51191035D01*
X200091294Y-51309335D01*
X200137110Y-51418423D01*
X200186378Y-51518930D01*
X200238473Y-51611484D01*
X200292767Y-51696717D01*
X200348636Y-51775259D01*
X200405453Y-51847740D01*
X200462593Y-51914791D01*
X200575334Y-52035120D01*
X200777143Y-52238343D01*
X200819012Y-52285026D01*
X200856195Y-52331320D01*
X200888067Y-52377856D01*
X200914002Y-52425264D01*
X200933374Y-52474174D01*
X200945557Y-52525216D01*
X200949924Y-52579021D01*
X200945851Y-52636219D01*
X200932710Y-52697440D01*
X200909877Y-52763314D01*
X200876725Y-52834473D01*
X200832628Y-52911545D01*
X200796044Y-52959657D01*
X200753411Y-52996616D01*
X200705202Y-53022883D01*
X200651890Y-53038918D01*
X200593947Y-53045184D01*
X200531847Y-53042140D01*
X200466062Y-53030247D01*
X200397066Y-53009966D01*
X200325330Y-52981758D01*
X200251328Y-52946084D01*
X200175533Y-52903404D01*
X200098418Y-52854180D01*
X199942117Y-52737941D01*
X199786208Y-52601053D01*
X199634475Y-52447203D01*
X199490700Y-52280077D01*
X199358665Y-52103362D01*
X199242154Y-51920745D01*
X199190902Y-51828375D01*
X199144950Y-51735912D01*
X199104770Y-51643816D01*
X199070835Y-51552549D01*
X199043618Y-51462571D01*
X199023592Y-51374344D01*
X199011229Y-51288327D01*
X199007003Y-51204982D01*
X199005840Y-51135056D01*
X199002405Y-51069394D01*
X198996786Y-51007862D01*
X198989067Y-50950325D01*
X198979334Y-50896649D01*
X198967673Y-50846701D01*
X198954168Y-50800346D01*
X198938907Y-50757451D01*
X198921973Y-50717881D01*
X198903454Y-50681502D01*
X198883433Y-50648181D01*
X198861998Y-50617783D01*
X198839232Y-50590175D01*
X198815223Y-50565221D01*
X198790055Y-50542789D01*
X198763814Y-50522745D01*
X198736585Y-50504953D01*
X198708455Y-50489280D01*
X198679508Y-50475593D01*
X198649830Y-50463757D01*
X198619507Y-50453638D01*
X198588624Y-50445102D01*
X198525521Y-50432243D01*
X198461205Y-50424108D01*
X198396361Y-50419624D01*
X198331672Y-50417721D01*
X198267824Y-50417324D01*
X198231238Y-50420852D01*
X198193019Y-50431196D01*
X198153315Y-50448003D01*
X198112277Y-50470916D01*
X198070057Y-50499579D01*
X198026804Y-50533637D01*
X197937801Y-50616515D01*
X197846472Y-50716704D01*
X197754022Y-50831360D01*
X197661652Y-50957635D01*
X197570567Y-51092686D01*
X197481971Y-51233667D01*
X197397066Y-51377733D01*
X197317056Y-51522037D01*
X197243144Y-51663735D01*
X197176534Y-51799982D01*
X197118430Y-51927932D01*
X197070035Y-52044740D01*
X197032551Y-52147560D01*
X197218912Y-52149136D01*
X197383007Y-52154239D01*
X197526249Y-52163433D01*
X197590493Y-52169740D01*
X197650053Y-52177281D01*
X197705107Y-52186126D01*
X197755831Y-52196346D01*
X197802402Y-52208011D01*
X197844997Y-52221192D01*
X197883791Y-52235959D01*
X197918963Y-52252383D01*
X197950688Y-52270533D01*
X197979143Y-52290481D01*
X198004505Y-52312296D01*
X198026951Y-52336050D01*
X198046656Y-52361812D01*
X198063799Y-52389653D01*
X198078555Y-52419644D01*
X198091101Y-52451854D01*
X198101613Y-52486355D01*
X198110269Y-52523217D01*
X198117245Y-52562509D01*
X198122718Y-52604303D01*
X198129861Y-52695678D01*
X198133110Y-52797904D01*
X198133879Y-52911545D01*
X193649192Y-52911545D01*
X193549771Y-52824444D01*
X193456544Y-52752489D01*
X193366533Y-52695562D01*
X193276763Y-52653542D01*
X193184256Y-52626311D01*
X193086037Y-52613750D01*
X192979130Y-52615739D01*
X192860556Y-52632159D01*
X192727341Y-52662891D01*
X192576508Y-52707815D01*
X192405080Y-52766813D01*
X192210082Y-52839765D01*
X191134848Y-53268732D01*
X190948674Y-53346931D01*
X190784785Y-53424312D01*
X190642070Y-53500815D01*
X190519414Y-53576375D01*
X190415705Y-53650929D01*
X190329832Y-53724416D01*
X190260681Y-53796773D01*
X190207140Y-53867936D01*
X190168095Y-53937843D01*
X190142436Y-54006431D01*
X190129048Y-54073637D01*
X190126819Y-54139399D01*
X190134638Y-54203654D01*
X190151390Y-54266339D01*
X190175964Y-54327391D01*
X190207247Y-54386748D01*
X190244126Y-54444347D01*
X190285489Y-54500125D01*
X190377217Y-54605966D01*
X190565522Y-54793037D01*
X190644299Y-54873262D01*
X190700958Y-54943943D01*
X190718211Y-54975549D01*
X190726597Y-55004580D01*
X190725003Y-55030974D01*
X190712317Y-55054669D01*
X190690700Y-55074756D01*
X190663336Y-55090435D01*
X190630648Y-55101811D01*
X190593057Y-55108985D01*
X190550985Y-55112062D01*
X190504854Y-55111144D01*
X190455086Y-55106335D01*
X190402103Y-55097737D01*
X190346326Y-55085454D01*
X190288178Y-55069588D01*
X190228080Y-55050242D01*
X190166454Y-55027521D01*
X190103721Y-55001526D01*
X190040305Y-54972361D01*
X189976627Y-54940129D01*
X189913108Y-54904933D01*
X189850170Y-54866876D01*
X189788235Y-54826061D01*
X189727726Y-54782591D01*
X189669063Y-54736570D01*
X189612670Y-54688100D01*
X189558967Y-54637284D01*
X189508376Y-54584226D01*
X189461319Y-54529028D01*
X189418219Y-54471794D01*
X189379497Y-54412627D01*
X189345575Y-54351629D01*
X189316874Y-54288904D01*
X189293817Y-54224555D01*
X189276826Y-54158685D01*
X189266321Y-54091397D01*
X189262726Y-54022795D01*
X189267531Y-53875225D01*
X189281737Y-53741125D01*
X189305034Y-53619532D01*
X189337111Y-53509484D01*
X189377658Y-53410017D01*
X189426363Y-53320168D01*
X189482915Y-53238973D01*
X189547004Y-53165471D01*
X189618319Y-53098698D01*
X189696549Y-53037690D01*
X189781383Y-52981485D01*
X189872510Y-52929119D01*
X190072401Y-52832054D01*
X190293735Y-52738791D01*
X190790785Y-52532850D01*
X191061527Y-52404763D01*
X191343766Y-52249659D01*
X191488419Y-52159569D01*
X191635013Y-52059834D01*
X191783238Y-51949493D01*
X191932783Y-51827582D01*
X192083336Y-51693139D01*
X192234588Y-51545200D01*
X192386226Y-51382802D01*
X192537942Y-51204982D01*
X192622573Y-51079164D01*
X192697484Y-50924778D01*
X192765317Y-50744171D01*
X192828714Y-50539689D01*
X193090755Y-49529921D01*
X193171586Y-49241248D01*
X193263827Y-48942775D01*
X193370121Y-48636846D01*
X193493108Y-48325808D01*
X193635430Y-48012007D01*
X193799728Y-47697789D01*
X193988643Y-47385498D01*
X194204817Y-47077482D01*
X194321518Y-46929190D01*
X194440791Y-46789234D01*
X194562419Y-46657344D01*
X194686183Y-46533251D01*
X194811866Y-46416688D01*
X194939249Y-46307383D01*
X195068115Y-46205070D01*
X195198245Y-46109479D01*
X195329421Y-46020341D01*
X195461426Y-45937387D01*
X195727050Y-45788956D01*
X195993371Y-45662035D01*
X196258645Y-45554474D01*
X196521129Y-45464121D01*
X196779078Y-45388825D01*
X197030749Y-45326436D01*
X197274397Y-45274801D01*
X197730648Y-45195194D01*
X198133879Y-45132794D01*
X198222451Y-45115322D01*
X198302356Y-45092811D01*
X198373929Y-45065469D01*
X198437505Y-45033504D01*
X198493420Y-44997126D01*
X198542009Y-44956543D01*
X198583608Y-44911963D01*
X198618551Y-44863595D01*
X198647173Y-44811648D01*
X198669811Y-44756331D01*
X198686800Y-44697851D01*
X198698474Y-44636418D01*
X198705169Y-44572239D01*
X198707220Y-44505525D01*
X198704963Y-44436482D01*
X198698733Y-44365321D01*
X198675695Y-44217474D01*
X198640789Y-44063654D01*
X198596695Y-43905529D01*
X198546098Y-43744767D01*
X198332316Y-43108732D01*
X198303491Y-43009733D01*
X198276820Y-42907039D01*
X198252709Y-42801887D01*
X198231564Y-42695514D01*
X198213791Y-42589158D01*
X198199798Y-42484056D01*
X198189990Y-42381446D01*
X198184773Y-42282564D01*
X198184555Y-42188649D01*
X198189742Y-42100937D01*
X198194489Y-42059794D01*
X198200740Y-42020667D01*
X198208545Y-41983708D01*
X198217955Y-41949075D01*
X198229022Y-41916920D01*
X198241795Y-41887398D01*
X198256325Y-41860666D01*
X198272665Y-41836876D01*
X198290863Y-41816184D01*
X198310971Y-41798744D01*
X198333040Y-41784711D01*
X198357121Y-41774240D01*
X198383383Y-41767662D01*
X198411507Y-41765175D01*
X198441454Y-41766514D01*
X198473183Y-41771412D01*
X198541822Y-41790826D01*
X198617100Y-41821292D01*
X198698691Y-41860683D01*
X198786269Y-41906876D01*
X198978088Y-42011163D01*
X199081678Y-42065007D01*
X199189955Y-42117151D01*
X199302593Y-42165469D01*
X199419267Y-42207836D01*
X199539651Y-42242128D01*
X199601134Y-42255581D01*
X199663421Y-42266218D01*
X199726474Y-42273774D01*
X199790251Y-42277982D01*
X199854712Y-42278578D01*
X199919816Y-42275294D01*
X199983838Y-42267865D01*
X200044911Y-42256406D01*
X200103183Y-42241192D01*
X200158802Y-42222501D01*
X200211916Y-42200607D01*
X200262672Y-42175788D01*
X200311219Y-42148319D01*
X200357704Y-42118477D01*
X200402276Y-42086538D01*
X200445082Y-42052778D01*
X200486270Y-42017472D01*
X200525988Y-41980898D01*
X200601606Y-41905048D01*
X200673119Y-41827436D01*
X200808561Y-41675766D01*
X200874857Y-41606125D01*
X200908166Y-41573820D01*
X200941780Y-41543559D01*
X200975846Y-41515620D01*
X201010513Y-41490279D01*
X201045928Y-41467810D01*
X201082240Y-41448491D01*
X201119595Y-41432598D01*
X201158143Y-41420407D01*
X201198030Y-41412194D01*
X201239406Y-41408235D01*
X201274220Y-41407938D01*
X201306933Y-41409956D01*
G36*
X201306933Y-41409956D02*
G01*
X201337616Y-41414210D01*
X201366343Y-41420620D01*
X201393185Y-41429108D01*
X201418215Y-41439593D01*
X201441506Y-41451997D01*
X201463130Y-41466241D01*
X201483160Y-41482245D01*
X201501668Y-41499929D01*
X201518727Y-41519215D01*
X201534410Y-41540024D01*
X201548788Y-41562275D01*
X201561935Y-41585891D01*
X201584824Y-41636896D01*
X201603658Y-41692406D01*
X201619016Y-41751785D01*
X201631478Y-41814401D01*
X201641626Y-41879618D01*
X201657298Y-42015322D01*
X201670674Y-42153825D01*
X201690922Y-42340919D01*
X201712850Y-42514658D01*
X201736477Y-42678089D01*
X201761820Y-42834260D01*
X201788899Y-42986217D01*
X201817733Y-43137007D01*
X201880736Y-43447279D01*
X201890520Y-43503673D01*
X201895944Y-43556435D01*
X201897275Y-43605833D01*
X201894778Y-43652134D01*
X201888718Y-43695604D01*
X201879361Y-43736511D01*
X201866973Y-43775123D01*
X201851818Y-43811706D01*
X201834162Y-43846527D01*
X201814272Y-43879853D01*
X201792412Y-43911953D01*
X201768847Y-43943092D01*
X201717668Y-44003558D01*
X201662859Y-44063388D01*
X201606542Y-44124720D01*
X201550844Y-44189691D01*
X201523890Y-44224209D01*
X201497887Y-44260438D01*
X201473100Y-44298646D01*
X201449796Y-44339098D01*
X201428238Y-44382063D01*
X201408694Y-44427808D01*
X201391428Y-44476599D01*
X201376706Y-44528704D01*
X201364793Y-44584391D01*
X201355955Y-44643925D01*
X201350458Y-44707575D01*
X201348566Y-44775607D01*
X201351029Y-44876899D01*
X201357989Y-44969082D01*
X201368803Y-45053837D01*
X201382829Y-45132843D01*
X201399425Y-45207780D01*
X201417948Y-45280329D01*
X201458206Y-45424981D01*
X201498464Y-45580239D01*
X201516987Y-45666045D01*
X201533583Y-45759542D01*
X201547609Y-45862411D01*
X201558423Y-45976330D01*
X201565383Y-46102982D01*
X201567846Y-46244044D01*
X201563118Y-46387117D01*
X201549337Y-46519492D01*
X201527107Y-46642126D01*
X201497032Y-46755972D01*
X201459714Y-46861986D01*
X201415757Y-46961122D01*
X201365765Y-47054335D01*
X201310341Y-47142580D01*
X201185612Y-47307984D01*
X201046399Y-47464974D01*
X200743831Y-47784261D01*
X200590133Y-47961835D01*
X200441263Y-48161548D01*
X200370147Y-48272093D01*
X200302050Y-48391038D01*
X200237573Y-48519336D01*
X200177321Y-48657942D01*
X200121897Y-48807813D01*
X200071905Y-48969901D01*
X200027948Y-49145162D01*
X199990630Y-49334551D01*
X199960554Y-49539023D01*
X199938324Y-49759532D01*
X199924544Y-49997033D01*
X199919816Y-50252481D01*
X199923942Y-50439290D01*
X199935901Y-50613106D01*
X199955068Y-50774558D01*
X199980816Y-50924276D01*
X200012521Y-51062892D01*
X200049555Y-51191035D01*
X200091294Y-51309335D01*
X200137110Y-51418423D01*
X200186378Y-51518930D01*
X200238473Y-51611484D01*
X200292767Y-51696717D01*
X200348636Y-51775259D01*
X200405453Y-51847740D01*
X200462593Y-51914791D01*
X200575334Y-52035120D01*
X200777143Y-52238343D01*
X200819012Y-52285026D01*
X200856195Y-52331320D01*
X200888067Y-52377856D01*
X200914002Y-52425264D01*
X200933374Y-52474174D01*
X200945557Y-52525216D01*
X200949924Y-52579021D01*
X200945851Y-52636219D01*
X200932710Y-52697440D01*
X200909877Y-52763314D01*
X200876725Y-52834473D01*
X200832628Y-52911545D01*
X200796044Y-52959657D01*
X200753411Y-52996616D01*
X200705202Y-53022883D01*
X200651890Y-53038918D01*
X200593947Y-53045184D01*
X200531847Y-53042140D01*
X200466062Y-53030247D01*
X200397066Y-53009966D01*
X200325330Y-52981758D01*
X200251328Y-52946084D01*
X200175533Y-52903404D01*
X200098418Y-52854180D01*
X199942117Y-52737941D01*
X199786208Y-52601053D01*
X199634475Y-52447203D01*
X199490700Y-52280077D01*
X199358665Y-52103362D01*
X199242154Y-51920745D01*
X199190902Y-51828375D01*
X199144950Y-51735912D01*
X199104770Y-51643816D01*
X199070835Y-51552549D01*
X199043618Y-51462571D01*
X199023592Y-51374344D01*
X199011229Y-51288327D01*
X199007003Y-51204982D01*
X199005840Y-51135056D01*
X199002405Y-51069394D01*
X198996786Y-51007862D01*
X198989067Y-50950325D01*
X198979334Y-50896649D01*
X198967673Y-50846701D01*
X198954168Y-50800346D01*
X198938907Y-50757451D01*
X198921973Y-50717881D01*
X198903454Y-50681502D01*
X198883433Y-50648181D01*
X198861998Y-50617783D01*
X198839232Y-50590175D01*
X198815223Y-50565221D01*
X198790055Y-50542789D01*
X198763814Y-50522745D01*
X198736585Y-50504953D01*
X198708455Y-50489280D01*
X198679508Y-50475593D01*
X198649830Y-50463757D01*
X198619507Y-50453638D01*
X198588624Y-50445102D01*
X198525521Y-50432243D01*
X198461205Y-50424108D01*
X198396361Y-50419624D01*
X198331672Y-50417721D01*
X198267824Y-50417324D01*
X198231238Y-50420852D01*
X198193019Y-50431196D01*
X198153315Y-50448003D01*
X198112277Y-50470916D01*
X198070057Y-50499579D01*
X198026804Y-50533637D01*
X197937801Y-50616515D01*
X197846472Y-50716704D01*
X197754022Y-50831360D01*
X197661652Y-50957635D01*
X197570567Y-51092686D01*
X197481971Y-51233667D01*
X197397066Y-51377733D01*
X197317056Y-51522037D01*
X197243144Y-51663735D01*
X197176534Y-51799982D01*
X197118430Y-51927932D01*
X197070035Y-52044740D01*
X197032551Y-52147560D01*
X197218912Y-52149136D01*
X197383007Y-52154239D01*
X197526249Y-52163433D01*
X197590493Y-52169740D01*
X197650053Y-52177281D01*
X197705107Y-52186126D01*
X197755831Y-52196346D01*
X197802402Y-52208011D01*
X197844997Y-52221192D01*
X197883791Y-52235959D01*
X197918963Y-52252383D01*
X197950688Y-52270533D01*
X197979143Y-52290481D01*
X198004505Y-52312296D01*
X198026951Y-52336050D01*
X198046656Y-52361812D01*
X198063799Y-52389653D01*
X198078555Y-52419644D01*
X198091101Y-52451854D01*
X198101613Y-52486355D01*
X198110269Y-52523217D01*
X198117245Y-52562509D01*
X198122718Y-52604303D01*
X198129861Y-52695678D01*
X198133110Y-52797904D01*
X198133879Y-52911545D01*
X193649192Y-52911545D01*
X193549771Y-52824444D01*
X193456544Y-52752489D01*
X193366533Y-52695562D01*
X193276763Y-52653542D01*
X193184256Y-52626311D01*
X193086037Y-52613750D01*
X192979130Y-52615739D01*
X192860556Y-52632159D01*
X192727341Y-52662891D01*
X192576508Y-52707815D01*
X192405080Y-52766813D01*
X192210082Y-52839765D01*
X191134848Y-53268732D01*
X190948674Y-53346931D01*
X190784785Y-53424312D01*
X190642070Y-53500815D01*
X190519414Y-53576375D01*
X190415705Y-53650929D01*
X190329832Y-53724416D01*
X190260681Y-53796773D01*
X190207140Y-53867936D01*
X190168095Y-53937843D01*
X190142436Y-54006431D01*
X190129048Y-54073637D01*
X190126819Y-54139399D01*
X190134638Y-54203654D01*
X190151390Y-54266339D01*
X190175964Y-54327391D01*
X190207247Y-54386748D01*
X190244126Y-54444347D01*
X190285489Y-54500125D01*
X190377217Y-54605966D01*
X190565522Y-54793037D01*
X190644299Y-54873262D01*
X190700958Y-54943943D01*
X190718211Y-54975549D01*
X190726597Y-55004580D01*
X190725003Y-55030974D01*
X190712317Y-55054669D01*
X190690700Y-55074756D01*
X190663336Y-55090435D01*
X190630648Y-55101811D01*
X190593057Y-55108985D01*
X190550985Y-55112062D01*
X190504854Y-55111144D01*
X190455086Y-55106335D01*
X190402103Y-55097737D01*
X190346326Y-55085454D01*
X190288178Y-55069588D01*
X190228080Y-55050242D01*
X190166454Y-55027521D01*
X190103721Y-55001526D01*
X190040305Y-54972361D01*
X189976627Y-54940129D01*
X189913108Y-54904933D01*
X189850170Y-54866876D01*
X189788235Y-54826061D01*
X189727726Y-54782591D01*
X189669063Y-54736570D01*
X189612670Y-54688100D01*
X189558967Y-54637284D01*
X189508376Y-54584226D01*
X189461319Y-54529028D01*
X189418219Y-54471794D01*
X189379497Y-54412627D01*
X189345575Y-54351629D01*
X189316874Y-54288904D01*
X189293817Y-54224555D01*
X189276826Y-54158685D01*
X189266321Y-54091397D01*
X189262726Y-54022795D01*
X189267531Y-53875225D01*
X189281737Y-53741125D01*
X189305034Y-53619532D01*
X189337111Y-53509484D01*
X189377658Y-53410017D01*
X189426363Y-53320168D01*
X189482915Y-53238973D01*
X189547004Y-53165471D01*
X189618319Y-53098698D01*
X189696549Y-53037690D01*
X189781383Y-52981485D01*
X189872510Y-52929119D01*
X190072401Y-52832054D01*
X190293735Y-52738791D01*
X190790785Y-52532850D01*
X191061527Y-52404763D01*
X191343766Y-52249659D01*
X191488419Y-52159569D01*
X191635013Y-52059834D01*
X191783238Y-51949493D01*
X191932783Y-51827582D01*
X192083336Y-51693139D01*
X192234588Y-51545200D01*
X192386226Y-51382802D01*
X192537942Y-51204982D01*
X192622573Y-51079164D01*
X192697484Y-50924778D01*
X192765317Y-50744171D01*
X192828714Y-50539689D01*
X193090755Y-49529921D01*
X193171586Y-49241248D01*
X193263827Y-48942775D01*
X193370121Y-48636846D01*
X193493108Y-48325808D01*
X193635430Y-48012007D01*
X193799728Y-47697789D01*
X193988643Y-47385498D01*
X194204817Y-47077482D01*
X194321518Y-46929190D01*
X194440791Y-46789234D01*
X194562419Y-46657344D01*
X194686183Y-46533251D01*
X194811866Y-46416688D01*
X194939249Y-46307383D01*
X195068115Y-46205070D01*
X195198245Y-46109479D01*
X195329421Y-46020341D01*
X195461426Y-45937387D01*
X195727050Y-45788956D01*
X195993371Y-45662035D01*
X196258645Y-45554474D01*
X196521129Y-45464121D01*
X196779078Y-45388825D01*
X197030749Y-45326436D01*
X197274397Y-45274801D01*
X197730648Y-45195194D01*
X198133879Y-45132794D01*
X198222451Y-45115322D01*
X198302356Y-45092811D01*
X198373929Y-45065469D01*
X198437505Y-45033504D01*
X198493420Y-44997126D01*
X198542009Y-44956543D01*
X198583608Y-44911963D01*
X198618551Y-44863595D01*
X198647173Y-44811648D01*
X198669811Y-44756331D01*
X198686800Y-44697851D01*
X198698474Y-44636418D01*
X198705169Y-44572239D01*
X198707220Y-44505525D01*
X198704963Y-44436482D01*
X198698733Y-44365321D01*
X198675695Y-44217474D01*
X198640789Y-44063654D01*
X198596695Y-43905529D01*
X198546098Y-43744767D01*
X198332316Y-43108732D01*
X198303491Y-43009733D01*
X198276820Y-42907039D01*
X198252709Y-42801887D01*
X198231564Y-42695514D01*
X198213791Y-42589158D01*
X198199798Y-42484056D01*
X198189990Y-42381446D01*
X198184773Y-42282564D01*
X198184555Y-42188649D01*
X198189742Y-42100937D01*
X198194489Y-42059794D01*
X198200740Y-42020667D01*
X198208545Y-41983708D01*
X198217955Y-41949075D01*
X198229022Y-41916920D01*
X198241795Y-41887398D01*
X198256325Y-41860666D01*
X198272665Y-41836876D01*
X198290863Y-41816184D01*
X198310971Y-41798744D01*
X198333040Y-41784711D01*
X198357121Y-41774240D01*
X198383383Y-41767662D01*
X198411507Y-41765175D01*
X198441454Y-41766514D01*
X198473183Y-41771412D01*
X198541822Y-41790826D01*
X198617100Y-41821292D01*
X198698691Y-41860683D01*
X198786269Y-41906876D01*
X198978088Y-42011163D01*
X199081678Y-42065007D01*
X199189955Y-42117151D01*
X199302593Y-42165469D01*
X199419267Y-42207836D01*
X199539651Y-42242128D01*
X199601134Y-42255581D01*
X199663421Y-42266218D01*
X199726474Y-42273774D01*
X199790251Y-42277982D01*
X199854712Y-42278578D01*
X199919816Y-42275294D01*
X199983838Y-42267865D01*
X200044911Y-42256406D01*
X200103183Y-42241192D01*
X200158802Y-42222501D01*
X200211916Y-42200607D01*
X200262672Y-42175788D01*
X200311219Y-42148319D01*
X200357704Y-42118477D01*
X200402276Y-42086538D01*
X200445082Y-42052778D01*
X200486270Y-42017472D01*
X200525988Y-41980898D01*
X200601606Y-41905048D01*
X200673119Y-41827436D01*
X200808561Y-41675766D01*
X200874857Y-41606125D01*
X200908166Y-41573820D01*
X200941780Y-41543559D01*
X200975846Y-41515620D01*
X201010513Y-41490279D01*
X201045928Y-41467810D01*
X201082240Y-41448491D01*
X201119595Y-41432598D01*
X201158143Y-41420407D01*
X201198030Y-41412194D01*
X201239406Y-41408235D01*
X201274220Y-41407938D01*
X201306933Y-41409956D01*
G37*
X201306933Y-41409956D02*
X201337616Y-41414210D01*
X201366343Y-41420620D01*
X201393185Y-41429108D01*
X201418215Y-41439593D01*
X201441506Y-41451997D01*
X201463130Y-41466241D01*
X201483160Y-41482245D01*
X201501668Y-41499929D01*
X201518727Y-41519215D01*
X201534410Y-41540024D01*
X201548788Y-41562275D01*
X201561935Y-41585891D01*
X201584824Y-41636896D01*
X201603658Y-41692406D01*
X201619016Y-41751785D01*
X201631478Y-41814401D01*
X201641626Y-41879618D01*
X201657298Y-42015322D01*
X201670674Y-42153825D01*
X201690922Y-42340919D01*
X201712850Y-42514658D01*
X201736477Y-42678089D01*
X201761820Y-42834260D01*
X201788899Y-42986217D01*
X201817733Y-43137007D01*
X201880736Y-43447279D01*
X201890520Y-43503673D01*
X201895944Y-43556435D01*
X201897275Y-43605833D01*
X201894778Y-43652134D01*
X201888718Y-43695604D01*
X201879361Y-43736511D01*
X201866973Y-43775123D01*
X201851818Y-43811706D01*
X201834162Y-43846527D01*
X201814272Y-43879853D01*
X201792412Y-43911953D01*
X201768847Y-43943092D01*
X201717668Y-44003558D01*
X201662859Y-44063388D01*
X201606542Y-44124720D01*
X201550844Y-44189691D01*
X201523890Y-44224209D01*
X201497887Y-44260438D01*
X201473100Y-44298646D01*
X201449796Y-44339098D01*
X201428238Y-44382063D01*
X201408694Y-44427808D01*
X201391428Y-44476599D01*
X201376706Y-44528704D01*
X201364793Y-44584391D01*
X201355955Y-44643925D01*
X201350458Y-44707575D01*
X201348566Y-44775607D01*
X201351029Y-44876899D01*
X201357989Y-44969082D01*
X201368803Y-45053837D01*
X201382829Y-45132843D01*
X201399425Y-45207780D01*
X201417948Y-45280329D01*
X201458206Y-45424981D01*
X201498464Y-45580239D01*
X201516987Y-45666045D01*
X201533583Y-45759542D01*
X201547609Y-45862411D01*
X201558423Y-45976330D01*
X201565383Y-46102982D01*
X201567846Y-46244044D01*
X201563118Y-46387117D01*
X201549337Y-46519492D01*
X201527107Y-46642126D01*
X201497032Y-46755972D01*
X201459714Y-46861986D01*
X201415757Y-46961122D01*
X201365765Y-47054335D01*
X201310341Y-47142580D01*
X201185612Y-47307984D01*
X201046399Y-47464974D01*
X200743831Y-47784261D01*
X200590133Y-47961835D01*
X200441263Y-48161548D01*
X200370147Y-48272093D01*
X200302050Y-48391038D01*
X200237573Y-48519336D01*
X200177321Y-48657942D01*
X200121897Y-48807813D01*
X200071905Y-48969901D01*
X200027948Y-49145162D01*
X199990630Y-49334551D01*
X199960554Y-49539023D01*
X199938324Y-49759532D01*
X199924544Y-49997033D01*
X199919816Y-50252481D01*
X199923942Y-50439290D01*
X199935901Y-50613106D01*
X199955068Y-50774558D01*
X199980816Y-50924276D01*
X200012521Y-51062892D01*
X200049555Y-51191035D01*
X200091294Y-51309335D01*
X200137110Y-51418423D01*
X200186378Y-51518930D01*
X200238473Y-51611484D01*
X200292767Y-51696717D01*
X200348636Y-51775259D01*
X200405453Y-51847740D01*
X200462593Y-51914791D01*
X200575334Y-52035120D01*
X200777143Y-52238343D01*
X200819012Y-52285026D01*
X200856195Y-52331320D01*
X200888067Y-52377856D01*
X200914002Y-52425264D01*
X200933374Y-52474174D01*
X200945557Y-52525216D01*
X200949924Y-52579021D01*
X200945851Y-52636219D01*
X200932710Y-52697440D01*
X200909877Y-52763314D01*
X200876725Y-52834473D01*
X200832628Y-52911545D01*
X200796044Y-52959657D01*
X200753411Y-52996616D01*
X200705202Y-53022883D01*
X200651890Y-53038918D01*
X200593947Y-53045184D01*
X200531847Y-53042140D01*
X200466062Y-53030247D01*
X200397066Y-53009966D01*
X200325330Y-52981758D01*
X200251328Y-52946084D01*
X200175533Y-52903404D01*
X200098418Y-52854180D01*
X199942117Y-52737941D01*
X199786208Y-52601053D01*
X199634475Y-52447203D01*
X199490700Y-52280077D01*
X199358665Y-52103362D01*
X199242154Y-51920745D01*
X199190902Y-51828375D01*
X199144950Y-51735912D01*
X199104770Y-51643816D01*
X199070835Y-51552549D01*
X199043618Y-51462571D01*
X199023592Y-51374344D01*
X199011229Y-51288327D01*
X199007003Y-51204982D01*
X199005840Y-51135056D01*
X199002405Y-51069394D01*
X198996786Y-51007862D01*
X198989067Y-50950325D01*
X198979334Y-50896649D01*
X198967673Y-50846701D01*
X198954168Y-50800346D01*
X198938907Y-50757451D01*
X198921973Y-50717881D01*
X198903454Y-50681502D01*
X198883433Y-50648181D01*
X198861998Y-50617783D01*
X198839232Y-50590175D01*
X198815223Y-50565221D01*
X198790055Y-50542789D01*
X198763814Y-50522745D01*
X198736585Y-50504953D01*
X198708455Y-50489280D01*
X198679508Y-50475593D01*
X198649830Y-50463757D01*
X198619507Y-50453638D01*
X198588624Y-50445102D01*
X198525521Y-50432243D01*
X198461205Y-50424108D01*
X198396361Y-50419624D01*
X198331672Y-50417721D01*
X198267824Y-50417324D01*
X198231238Y-50420852D01*
X198193019Y-50431196D01*
X198153315Y-50448003D01*
X198112277Y-50470916D01*
X198070057Y-50499579D01*
X198026804Y-50533637D01*
X197937801Y-50616515D01*
X197846472Y-50716704D01*
X197754022Y-50831360D01*
X197661652Y-50957635D01*
X197570567Y-51092686D01*
X197481971Y-51233667D01*
X197397066Y-51377733D01*
X197317056Y-51522037D01*
X197243144Y-51663735D01*
X197176534Y-51799982D01*
X197118430Y-51927932D01*
X197070035Y-52044740D01*
X197032551Y-52147560D01*
X197218912Y-52149136D01*
X197383007Y-52154239D01*
X197526249Y-52163433D01*
X197590493Y-52169740D01*
X197650053Y-52177281D01*
X197705107Y-52186126D01*
X197755831Y-52196346D01*
X197802402Y-52208011D01*
X197844997Y-52221192D01*
X197883791Y-52235959D01*
X197918963Y-52252383D01*
X197950688Y-52270533D01*
X197979143Y-52290481D01*
X198004505Y-52312296D01*
X198026951Y-52336050D01*
X198046656Y-52361812D01*
X198063799Y-52389653D01*
X198078555Y-52419644D01*
X198091101Y-52451854D01*
X198101613Y-52486355D01*
X198110269Y-52523217D01*
X198117245Y-52562509D01*
X198122718Y-52604303D01*
X198129861Y-52695678D01*
X198133110Y-52797904D01*
X198133879Y-52911545D01*
X193649192Y-52911545D01*
X193549771Y-52824444D01*
X193456544Y-52752489D01*
X193366533Y-52695562D01*
X193276763Y-52653542D01*
X193184256Y-52626311D01*
X193086037Y-52613750D01*
X192979130Y-52615739D01*
X192860556Y-52632159D01*
X192727341Y-52662891D01*
X192576508Y-52707815D01*
X192405080Y-52766813D01*
X192210082Y-52839765D01*
X191134848Y-53268732D01*
X190948674Y-53346931D01*
X190784785Y-53424312D01*
X190642070Y-53500815D01*
X190519414Y-53576375D01*
X190415705Y-53650929D01*
X190329832Y-53724416D01*
X190260681Y-53796773D01*
X190207140Y-53867936D01*
X190168095Y-53937843D01*
X190142436Y-54006431D01*
X190129048Y-54073637D01*
X190126819Y-54139399D01*
X190134638Y-54203654D01*
X190151390Y-54266339D01*
X190175964Y-54327391D01*
X190207247Y-54386748D01*
X190244126Y-54444347D01*
X190285489Y-54500125D01*
X190377217Y-54605966D01*
X190565522Y-54793037D01*
X190644299Y-54873262D01*
X190700958Y-54943943D01*
X190718211Y-54975549D01*
X190726597Y-55004580D01*
X190725003Y-55030974D01*
X190712317Y-55054669D01*
X190690700Y-55074756D01*
X190663336Y-55090435D01*
X190630648Y-55101811D01*
X190593057Y-55108985D01*
X190550985Y-55112062D01*
X190504854Y-55111144D01*
X190455086Y-55106335D01*
X190402103Y-55097737D01*
X190346326Y-55085454D01*
X190288178Y-55069588D01*
X190228080Y-55050242D01*
X190166454Y-55027521D01*
X190103721Y-55001526D01*
X190040305Y-54972361D01*
X189976627Y-54940129D01*
X189913108Y-54904933D01*
X189850170Y-54866876D01*
X189788235Y-54826061D01*
X189727726Y-54782591D01*
X189669063Y-54736570D01*
X189612670Y-54688100D01*
X189558967Y-54637284D01*
X189508376Y-54584226D01*
X189461319Y-54529028D01*
X189418219Y-54471794D01*
X189379497Y-54412627D01*
X189345575Y-54351629D01*
X189316874Y-54288904D01*
X189293817Y-54224555D01*
X189276826Y-54158685D01*
X189266321Y-54091397D01*
X189262726Y-54022795D01*
X189267531Y-53875225D01*
X189281737Y-53741125D01*
X189305034Y-53619532D01*
X189337111Y-53509484D01*
X189377658Y-53410017D01*
X189426363Y-53320168D01*
X189482915Y-53238973D01*
X189547004Y-53165471D01*
X189618319Y-53098698D01*
X189696549Y-53037690D01*
X189781383Y-52981485D01*
X189872510Y-52929119D01*
X190072401Y-52832054D01*
X190293735Y-52738791D01*
X190790785Y-52532850D01*
X191061527Y-52404763D01*
X191343766Y-52249659D01*
X191488419Y-52159569D01*
X191635013Y-52059834D01*
X191783238Y-51949493D01*
X191932783Y-51827582D01*
X192083336Y-51693139D01*
X192234588Y-51545200D01*
X192386226Y-51382802D01*
X192537942Y-51204982D01*
X192622573Y-51079164D01*
X192697484Y-50924778D01*
X192765317Y-50744171D01*
X192828714Y-50539689D01*
X193090755Y-49529921D01*
X193171586Y-49241248D01*
X193263827Y-48942775D01*
X193370121Y-48636846D01*
X193493108Y-48325808D01*
X193635430Y-48012007D01*
X193799728Y-47697789D01*
X193988643Y-47385498D01*
X194204817Y-47077482D01*
X194321518Y-46929190D01*
X194440791Y-46789234D01*
X194562419Y-46657344D01*
X194686183Y-46533251D01*
X194811866Y-46416688D01*
X194939249Y-46307383D01*
X195068115Y-46205070D01*
X195198245Y-46109479D01*
X195329421Y-46020341D01*
X195461426Y-45937387D01*
X195727050Y-45788956D01*
X195993371Y-45662035D01*
X196258645Y-45554474D01*
X196521129Y-45464121D01*
X196779078Y-45388825D01*
X197030749Y-45326436D01*
X197274397Y-45274801D01*
X197730648Y-45195194D01*
X198133879Y-45132794D01*
X198222451Y-45115322D01*
X198302356Y-45092811D01*
X198373929Y-45065469D01*
X198437505Y-45033504D01*
X198493420Y-44997126D01*
X198542009Y-44956543D01*
X198583608Y-44911963D01*
X198618551Y-44863595D01*
X198647173Y-44811648D01*
X198669811Y-44756331D01*
X198686800Y-44697851D01*
X198698474Y-44636418D01*
X198705169Y-44572239D01*
X198707220Y-44505525D01*
X198704963Y-44436482D01*
X198698733Y-44365321D01*
X198675695Y-44217474D01*
X198640789Y-44063654D01*
X198596695Y-43905529D01*
X198546098Y-43744767D01*
X198332316Y-43108732D01*
X198303491Y-43009733D01*
X198276820Y-42907039D01*
X198252709Y-42801887D01*
X198231564Y-42695514D01*
X198213791Y-42589158D01*
X198199798Y-42484056D01*
X198189990Y-42381446D01*
X198184773Y-42282564D01*
X198184555Y-42188649D01*
X198189742Y-42100937D01*
X198194489Y-42059794D01*
X198200740Y-42020667D01*
X198208545Y-41983708D01*
X198217955Y-41949075D01*
X198229022Y-41916920D01*
X198241795Y-41887398D01*
X198256325Y-41860666D01*
X198272665Y-41836876D01*
X198290863Y-41816184D01*
X198310971Y-41798744D01*
X198333040Y-41784711D01*
X198357121Y-41774240D01*
X198383383Y-41767662D01*
X198411507Y-41765175D01*
X198441454Y-41766514D01*
X198473183Y-41771412D01*
X198541822Y-41790826D01*
X198617100Y-41821292D01*
X198698691Y-41860683D01*
X198786269Y-41906876D01*
X198978088Y-42011163D01*
X199081678Y-42065007D01*
X199189955Y-42117151D01*
X199302593Y-42165469D01*
X199419267Y-42207836D01*
X199539651Y-42242128D01*
X199601134Y-42255581D01*
X199663421Y-42266218D01*
X199726474Y-42273774D01*
X199790251Y-42277982D01*
X199854712Y-42278578D01*
X199919816Y-42275294D01*
X199983838Y-42267865D01*
X200044911Y-42256406D01*
X200103183Y-42241192D01*
X200158802Y-42222501D01*
X200211916Y-42200607D01*
X200262672Y-42175788D01*
X200311219Y-42148319D01*
X200357704Y-42118477D01*
X200402276Y-42086538D01*
X200445082Y-42052778D01*
X200486270Y-42017472D01*
X200525988Y-41980898D01*
X200601606Y-41905048D01*
X200673119Y-41827436D01*
X200808561Y-41675766D01*
X200874857Y-41606125D01*
X200908166Y-41573820D01*
X200941780Y-41543559D01*
X200975846Y-41515620D01*
X201010513Y-41490279D01*
X201045928Y-41467810D01*
X201082240Y-41448491D01*
X201119595Y-41432598D01*
X201158143Y-41420407D01*
X201198030Y-41412194D01*
X201239406Y-41408235D01*
X201274220Y-41407938D01*
X201306933Y-41409956D01*
G36*
X201306933Y-41409956D02*
G01*
X201337616Y-41414210D01*
X201366343Y-41420620D01*
X201393185Y-41429108D01*
X201418215Y-41439593D01*
X201441506Y-41451997D01*
X201463130Y-41466241D01*
X201483160Y-41482245D01*
X201501668Y-41499929D01*
X201518727Y-41519215D01*
X201534410Y-41540024D01*
X201548788Y-41562275D01*
X201561935Y-41585891D01*
X201584824Y-41636896D01*
X201603658Y-41692406D01*
X201619016Y-41751785D01*
X201631478Y-41814401D01*
X201641626Y-41879618D01*
X201657298Y-42015322D01*
X201670674Y-42153825D01*
X201690922Y-42340919D01*
X201712850Y-42514658D01*
X201736477Y-42678089D01*
X201761820Y-42834260D01*
X201788899Y-42986217D01*
X201817733Y-43137007D01*
X201880736Y-43447279D01*
X201890520Y-43503673D01*
X201895944Y-43556435D01*
X201897275Y-43605833D01*
X201894778Y-43652134D01*
X201888718Y-43695604D01*
X201879361Y-43736511D01*
X201866973Y-43775123D01*
X201851818Y-43811706D01*
X201834162Y-43846527D01*
X201814272Y-43879853D01*
X201792412Y-43911953D01*
X201768847Y-43943092D01*
X201717668Y-44003558D01*
X201662859Y-44063388D01*
X201606542Y-44124720D01*
X201550844Y-44189691D01*
X201523890Y-44224209D01*
X201497887Y-44260438D01*
X201473100Y-44298646D01*
X201449796Y-44339098D01*
X201428238Y-44382063D01*
X201408694Y-44427808D01*
X201391428Y-44476599D01*
X201376706Y-44528704D01*
X201364793Y-44584391D01*
X201355955Y-44643925D01*
X201350458Y-44707575D01*
X201348566Y-44775607D01*
X201351029Y-44876899D01*
X201357989Y-44969082D01*
X201368803Y-45053837D01*
X201382829Y-45132843D01*
X201399425Y-45207780D01*
X201417948Y-45280329D01*
X201458206Y-45424981D01*
X201498464Y-45580239D01*
X201516987Y-45666045D01*
X201533583Y-45759542D01*
X201547609Y-45862411D01*
X201558423Y-45976330D01*
X201565383Y-46102982D01*
X201567846Y-46244044D01*
X201563118Y-46387117D01*
X201549337Y-46519492D01*
X201527107Y-46642126D01*
X201497032Y-46755972D01*
X201459714Y-46861986D01*
X201415757Y-46961122D01*
X201365765Y-47054335D01*
X201310341Y-47142580D01*
X201185612Y-47307984D01*
X201046399Y-47464974D01*
X200743831Y-47784261D01*
X200590133Y-47961835D01*
X200441263Y-48161548D01*
X200370147Y-48272093D01*
X200302050Y-48391038D01*
X200237573Y-48519336D01*
X200177321Y-48657942D01*
X200121897Y-48807813D01*
X200071905Y-48969901D01*
X200027948Y-49145162D01*
X199990630Y-49334551D01*
X199960554Y-49539023D01*
X199938324Y-49759532D01*
X199924544Y-49997033D01*
X199919816Y-50252481D01*
X199923942Y-50439290D01*
X199935901Y-50613106D01*
X199955068Y-50774558D01*
X199980816Y-50924276D01*
X200012521Y-51062892D01*
X200049555Y-51191035D01*
X200091294Y-51309335D01*
X200137110Y-51418423D01*
X200186378Y-51518930D01*
X200238473Y-51611484D01*
X200292767Y-51696717D01*
X200348636Y-51775259D01*
X200405453Y-51847740D01*
X200462593Y-51914791D01*
X200575334Y-52035120D01*
X200777143Y-52238343D01*
X200819012Y-52285026D01*
X200856195Y-52331320D01*
X200888067Y-52377856D01*
X200914002Y-52425264D01*
X200933374Y-52474174D01*
X200945557Y-52525216D01*
X200949924Y-52579021D01*
X200945851Y-52636219D01*
X200932710Y-52697440D01*
X200909877Y-52763314D01*
X200876725Y-52834473D01*
X200832628Y-52911545D01*
X200796044Y-52959657D01*
X200753411Y-52996616D01*
X200705202Y-53022883D01*
X200651890Y-53038918D01*
X200593947Y-53045184D01*
X200531847Y-53042140D01*
X200466062Y-53030247D01*
X200397066Y-53009966D01*
X200325330Y-52981758D01*
X200251328Y-52946084D01*
X200175533Y-52903404D01*
X200098418Y-52854180D01*
X199942117Y-52737941D01*
X199786208Y-52601053D01*
X199634475Y-52447203D01*
X199490700Y-52280077D01*
X199358665Y-52103362D01*
X199242154Y-51920745D01*
X199190902Y-51828375D01*
X199144950Y-51735912D01*
X199104770Y-51643816D01*
X199070835Y-51552549D01*
X199043618Y-51462571D01*
X199023592Y-51374344D01*
X199011229Y-51288327D01*
X199007003Y-51204982D01*
X199005840Y-51135056D01*
X199002405Y-51069394D01*
X198996786Y-51007862D01*
X198989067Y-50950325D01*
X198979334Y-50896649D01*
X198967673Y-50846701D01*
X198954168Y-50800346D01*
X198938907Y-50757451D01*
X198921973Y-50717881D01*
X198903454Y-50681502D01*
X198883433Y-50648181D01*
X198861998Y-50617783D01*
X198839232Y-50590175D01*
X198815223Y-50565221D01*
X198790055Y-50542789D01*
X198763814Y-50522745D01*
X198736585Y-50504953D01*
X198708455Y-50489280D01*
X198679508Y-50475593D01*
X198649830Y-50463757D01*
X198619507Y-50453638D01*
X198588624Y-50445102D01*
X198525521Y-50432243D01*
X198461205Y-50424108D01*
X198396361Y-50419624D01*
X198331672Y-50417721D01*
X198267824Y-50417324D01*
X198231238Y-50420852D01*
X198193019Y-50431196D01*
X198153315Y-50448003D01*
X198112277Y-50470916D01*
X198070057Y-50499579D01*
X198026804Y-50533637D01*
X197937801Y-50616515D01*
X197846472Y-50716704D01*
X197754022Y-50831360D01*
X197661652Y-50957635D01*
X197570567Y-51092686D01*
X197481971Y-51233667D01*
X197397066Y-51377733D01*
X197317056Y-51522037D01*
X197243144Y-51663735D01*
X197176534Y-51799982D01*
X197118430Y-51927932D01*
X197070035Y-52044740D01*
X197032551Y-52147560D01*
X197218912Y-52149136D01*
X197383007Y-52154239D01*
X197526249Y-52163433D01*
X197590493Y-52169740D01*
X197650053Y-52177281D01*
X197705107Y-52186126D01*
X197755831Y-52196346D01*
X197802402Y-52208011D01*
X197844997Y-52221192D01*
X197883791Y-52235959D01*
X197918963Y-52252383D01*
X197950688Y-52270533D01*
X197979143Y-52290481D01*
X198004505Y-52312296D01*
X198026951Y-52336050D01*
X198046656Y-52361812D01*
X198063799Y-52389653D01*
X198078555Y-52419644D01*
X198091101Y-52451854D01*
X198101613Y-52486355D01*
X198110269Y-52523217D01*
X198117245Y-52562509D01*
X198122718Y-52604303D01*
X198129861Y-52695678D01*
X198133110Y-52797904D01*
X198133879Y-52911545D01*
X193649192Y-52911545D01*
X193549771Y-52824444D01*
X193456544Y-52752489D01*
X193366533Y-52695562D01*
X193276763Y-52653542D01*
X193184256Y-52626311D01*
X193086037Y-52613750D01*
X192979130Y-52615739D01*
X192860556Y-52632159D01*
X192727341Y-52662891D01*
X192576508Y-52707815D01*
X192405080Y-52766813D01*
X192210082Y-52839765D01*
X191134848Y-53268732D01*
X190948674Y-53346931D01*
X190784785Y-53424312D01*
X190642070Y-53500815D01*
X190519414Y-53576375D01*
X190415705Y-53650929D01*
X190329832Y-53724416D01*
X190260681Y-53796773D01*
X190207140Y-53867936D01*
X190168095Y-53937843D01*
X190142436Y-54006431D01*
X190129048Y-54073637D01*
X190126819Y-54139399D01*
X190134638Y-54203654D01*
X190151390Y-54266339D01*
X190175964Y-54327391D01*
X190207247Y-54386748D01*
X190244126Y-54444347D01*
X190285489Y-54500125D01*
X190377217Y-54605966D01*
X190565522Y-54793037D01*
X190644299Y-54873262D01*
X190700958Y-54943943D01*
X190718211Y-54975549D01*
X190726597Y-55004580D01*
X190725003Y-55030974D01*
X190712317Y-55054669D01*
X190690700Y-55074756D01*
X190663336Y-55090435D01*
X190630648Y-55101811D01*
X190593057Y-55108985D01*
X190550985Y-55112062D01*
X190504854Y-55111144D01*
X190455086Y-55106335D01*
X190402103Y-55097737D01*
X190346326Y-55085454D01*
X190288178Y-55069588D01*
X190228080Y-55050242D01*
X190166454Y-55027521D01*
X190103721Y-55001526D01*
X190040305Y-54972361D01*
X189976627Y-54940129D01*
X189913108Y-54904933D01*
X189850170Y-54866876D01*
X189788235Y-54826061D01*
X189727726Y-54782591D01*
X189669063Y-54736570D01*
X189612670Y-54688100D01*
X189558967Y-54637284D01*
X189508376Y-54584226D01*
X189461319Y-54529028D01*
X189418219Y-54471794D01*
X189379497Y-54412627D01*
X189345575Y-54351629D01*
X189316874Y-54288904D01*
X189293817Y-54224555D01*
X189276826Y-54158685D01*
X189266321Y-54091397D01*
X189262726Y-54022795D01*
X189267531Y-53875225D01*
X189281737Y-53741125D01*
X189305034Y-53619532D01*
X189337111Y-53509484D01*
X189377658Y-53410017D01*
X189426363Y-53320168D01*
X189482915Y-53238973D01*
X189547004Y-53165471D01*
X189618319Y-53098698D01*
X189696549Y-53037690D01*
X189781383Y-52981485D01*
X189872510Y-52929119D01*
X190072401Y-52832054D01*
X190293735Y-52738791D01*
X190790785Y-52532850D01*
X191061527Y-52404763D01*
X191343766Y-52249659D01*
X191488419Y-52159569D01*
X191635013Y-52059834D01*
X191783238Y-51949493D01*
X191932783Y-51827582D01*
X192083336Y-51693139D01*
X192234588Y-51545200D01*
X192386226Y-51382802D01*
X192537942Y-51204982D01*
X192622573Y-51079164D01*
X192697484Y-50924778D01*
X192765317Y-50744171D01*
X192828714Y-50539689D01*
X193090755Y-49529921D01*
X193171586Y-49241248D01*
X193263827Y-48942775D01*
X193370121Y-48636846D01*
X193493108Y-48325808D01*
X193635430Y-48012007D01*
X193799728Y-47697789D01*
X193988643Y-47385498D01*
X194204817Y-47077482D01*
X194321518Y-46929190D01*
X194440791Y-46789234D01*
X194562419Y-46657344D01*
X194686183Y-46533251D01*
X194811866Y-46416688D01*
X194939249Y-46307383D01*
X195068115Y-46205070D01*
X195198245Y-46109479D01*
X195329421Y-46020341D01*
X195461426Y-45937387D01*
X195727050Y-45788956D01*
X195993371Y-45662035D01*
X196258645Y-45554474D01*
X196521129Y-45464121D01*
X196779078Y-45388825D01*
X197030749Y-45326436D01*
X197274397Y-45274801D01*
X197730648Y-45195194D01*
X198133879Y-45132794D01*
X198222451Y-45115322D01*
X198302356Y-45092811D01*
X198373929Y-45065469D01*
X198437505Y-45033504D01*
X198493420Y-44997126D01*
X198542009Y-44956543D01*
X198583608Y-44911963D01*
X198618551Y-44863595D01*
X198647173Y-44811648D01*
X198669811Y-44756331D01*
X198686800Y-44697851D01*
X198698474Y-44636418D01*
X198705169Y-44572239D01*
X198707220Y-44505525D01*
X198704963Y-44436482D01*
X198698733Y-44365321D01*
X198675695Y-44217474D01*
X198640789Y-44063654D01*
X198596695Y-43905529D01*
X198546098Y-43744767D01*
X198332316Y-43108732D01*
X198303491Y-43009733D01*
X198276820Y-42907039D01*
X198252709Y-42801887D01*
X198231564Y-42695514D01*
X198213791Y-42589158D01*
X198199798Y-42484056D01*
X198189990Y-42381446D01*
X198184773Y-42282564D01*
X198184555Y-42188649D01*
X198189742Y-42100937D01*
X198194489Y-42059794D01*
X198200740Y-42020667D01*
X198208545Y-41983708D01*
X198217955Y-41949075D01*
X198229022Y-41916920D01*
X198241795Y-41887398D01*
X198256325Y-41860666D01*
X198272665Y-41836876D01*
X198290863Y-41816184D01*
X198310971Y-41798744D01*
X198333040Y-41784711D01*
X198357121Y-41774240D01*
X198383383Y-41767662D01*
X198411507Y-41765175D01*
X198441454Y-41766514D01*
X198473183Y-41771412D01*
X198541822Y-41790826D01*
X198617100Y-41821292D01*
X198698691Y-41860683D01*
X198786269Y-41906876D01*
X198978088Y-42011163D01*
X199081678Y-42065007D01*
X199189955Y-42117151D01*
X199302593Y-42165469D01*
X199419267Y-42207836D01*
X199539651Y-42242128D01*
X199601134Y-42255581D01*
X199663421Y-42266218D01*
X199726474Y-42273774D01*
X199790251Y-42277982D01*
X199854712Y-42278578D01*
X199919816Y-42275294D01*
X199983838Y-42267865D01*
X200044911Y-42256406D01*
X200103183Y-42241192D01*
X200158802Y-42222501D01*
X200211916Y-42200607D01*
X200262672Y-42175788D01*
X200311219Y-42148319D01*
X200357704Y-42118477D01*
X200402276Y-42086538D01*
X200445082Y-42052778D01*
X200486270Y-42017472D01*
X200525988Y-41980898D01*
X200601606Y-41905048D01*
X200673119Y-41827436D01*
X200808561Y-41675766D01*
X200874857Y-41606125D01*
X200908166Y-41573820D01*
X200941780Y-41543559D01*
X200975846Y-41515620D01*
X201010513Y-41490279D01*
X201045928Y-41467810D01*
X201082240Y-41448491D01*
X201119595Y-41432598D01*
X201158143Y-41420407D01*
X201198030Y-41412194D01*
X201239406Y-41408235D01*
X201274220Y-41407938D01*
X201306933Y-41409956D01*
G37*
M02*
