%TF.GenerationSoftware,KiCad,Pcbnew,7.0.1*%
%TF.CreationDate,2023-04-13T17:31:44+02:00*%
%TF.ProjectId,kicad,6b696361-642e-46b6-9963-61645f706362,rev?*%
%TF.SameCoordinates,Original*%
%TF.FileFunction,Profile,NP*%
%FSLAX46Y46*%
G04 Gerber Fmt 4.6, Leading zero omitted, Abs format (unit mm)*
G04 Created by KiCad (PCBNEW 7.0.1) date 2023-04-13 17:31:44*
%MOMM*%
%LPD*%
G01*
G04 APERTURE LIST*
%TA.AperFunction,Profile*%
%ADD10C,0.200000*%
%TD*%
G04 APERTURE END LIST*
D10*
X152132888Y-100769828D02*
X158814109Y-100769828D01*
X180689109Y-118294809D02*
G75*
G03*
X181689109Y-117294828I-9J1000009D01*
G01*
X128000000Y-65150000D02*
X114600000Y-65150000D01*
X128300000Y-59800000D02*
X128300000Y-46400000D01*
X208225000Y-52575010D02*
G75*
G03*
X208225000Y-52575010I-1200000J0D01*
G01*
X223550000Y-106900010D02*
X223550000Y-93500010D01*
X139206836Y-115586971D02*
G75*
G03*
X139418982Y-115219606I-77636J289771D01*
G01*
X103907386Y-131962432D02*
G75*
G03*
X103907417Y-131538199I-212086J212132D01*
G01*
X71062307Y-118067815D02*
X80537538Y-108592584D01*
X101662353Y-139192630D02*
X94927161Y-145927822D01*
X204500000Y-106900000D02*
X204500000Y-93500000D01*
X172634925Y-81200000D02*
X185150000Y-81200000D01*
X147050000Y-81700000D02*
X133650000Y-81700000D01*
X166400000Y-88900000D02*
X166400000Y-75500000D01*
X94432186Y-141437694D02*
X103907417Y-131962463D01*
X94007923Y-141437693D02*
G75*
G03*
X94432185Y-141437693I212131J212131D01*
G01*
X190800000Y-88150000D02*
X204200000Y-88150000D01*
X93512947Y-145927822D02*
G75*
G03*
X94927161Y-145927822I707107J707108D01*
G01*
X114300000Y-97900000D02*
G75*
G03*
X114600000Y-98200000I300000J0D01*
G01*
X209549990Y-68800010D02*
G75*
G03*
X209850000Y-69100010I300010J10D01*
G01*
X92349463Y-99528982D02*
G75*
G03*
X92239652Y-99938785I150037J-259818D01*
G01*
X166400000Y-37400000D02*
G75*
G03*
X166100000Y-37100000I-300000J0D01*
G01*
X152114109Y-118294839D02*
G75*
G03*
X101662353Y-139192630I-9J-71349561D01*
G01*
X92349460Y-99528977D02*
X103954200Y-92828977D01*
X114300000Y-46400000D02*
X114300000Y-59800000D01*
X152700000Y-89200000D02*
X166100000Y-89200000D01*
X125896006Y-118843076D02*
G75*
G03*
X126263444Y-119055203I289794J77676D01*
G01*
X209850000Y-107200010D02*
X223250000Y-107200010D01*
X190800000Y-107200000D02*
X204200000Y-107200000D01*
X171362132Y-82172792D02*
X170717950Y-81528610D01*
X84532660Y-131538168D02*
G75*
G03*
X84532691Y-131962463I212140J-212132D01*
G01*
X149338496Y-100769774D02*
G75*
G03*
X149506159Y-100221053I4J299974D01*
G01*
X204200000Y-69100000D02*
G75*
G03*
X204500000Y-68800000I0J300000D01*
G01*
X166100000Y-89200000D02*
G75*
G03*
X166400000Y-88900000I0J300000D01*
G01*
X114600000Y-60100000D02*
X128000000Y-60100000D01*
X166100000Y-56150000D02*
X152700000Y-56150000D01*
X185450000Y-62450000D02*
G75*
G03*
X185150000Y-62150000I-300000J0D01*
G01*
X66572133Y-117572794D02*
G75*
G03*
X66572180Y-118987052I707167J-707106D01*
G01*
X223250000Y-93200010D02*
X209850000Y-93200010D01*
X97392746Y-116766247D02*
G75*
G03*
X97392746Y-116766247I-1200000J0D01*
G01*
X209092340Y-43234793D02*
G75*
G03*
X205572738Y-41913338I-56979240J-146412307D01*
G01*
X128000000Y-98200000D02*
G75*
G03*
X128300000Y-97900000I0J300000D01*
G01*
X113889008Y-109436569D02*
X120589008Y-121041309D01*
X204200000Y-74150000D02*
X190800000Y-74150000D01*
X145114072Y-114469828D02*
G75*
G03*
X145414109Y-114769828I300028J28D01*
G01*
X171450024Y-82384924D02*
G75*
G03*
X171362132Y-82172792I-300124J-76D01*
G01*
X152400000Y-69850000D02*
X152400000Y-62391617D01*
X103907417Y-131538199D02*
X94432186Y-122062968D01*
X147050000Y-43600000D02*
X133650000Y-43600000D01*
X133350000Y-62950000D02*
X133350000Y-76350000D01*
X120479200Y-121451117D02*
X108874460Y-128151117D01*
X147350000Y-62950000D02*
G75*
G03*
X147050000Y-62650000I-300000J0D01*
G01*
X114600000Y-46100000D02*
G75*
G03*
X114300000Y-46400000I0J-300000D01*
G01*
X185150000Y-95200000D02*
G75*
G03*
X185450000Y-94900000I0J300000D01*
G01*
X223549990Y-55400010D02*
G75*
G03*
X223250000Y-55100010I-299990J10D01*
G01*
X185450000Y-81500000D02*
G75*
G03*
X185150000Y-81200000I-300000J0D01*
G01*
X190500000Y-106900000D02*
G75*
G03*
X190800000Y-107200000I300000J0D01*
G01*
X98939652Y-111543525D02*
X92239652Y-99938785D01*
X166400000Y-69850000D02*
X166400000Y-56450000D01*
X185150000Y-62150000D02*
X171750000Y-62150000D01*
X135583384Y-102064067D02*
X122639978Y-105532243D01*
X151965225Y-100221053D02*
G75*
G03*
X149506159Y-100221053I-1229533J1824349D01*
G01*
X223250000Y-69100000D02*
G75*
G03*
X223550000Y-68800010I0J300000D01*
G01*
X147350000Y-57300000D02*
X147350000Y-43900000D01*
X152700000Y-70150000D02*
X166100000Y-70150000D01*
X147350000Y-76350000D02*
X147350000Y-62950000D01*
X133350000Y-57300000D02*
G75*
G03*
X133650000Y-57600000I300000J0D01*
G01*
X152399985Y-62391617D02*
G75*
G03*
X151936283Y-62140228I-299985J17D01*
G01*
X223250000Y-74150010D02*
X209850000Y-74150010D01*
X147350000Y-43900000D02*
G75*
G03*
X147050000Y-43600000I-300000J0D01*
G01*
X114300000Y-59800000D02*
G75*
G03*
X114600000Y-60100000I300000J0D01*
G01*
X133350000Y-76350000D02*
G75*
G03*
X133650000Y-76650000I300000J0D01*
G01*
X164464109Y-100769828D02*
X177864109Y-100769828D01*
X164164109Y-114469828D02*
X164164109Y-101069828D01*
X114300000Y-84500000D02*
X114300000Y-97900000D01*
X223250000Y-107200000D02*
G75*
G03*
X223550000Y-106900010I0J300000D01*
G01*
X226075000Y-110725000D02*
X182689109Y-110725000D01*
X209850000Y-74150000D02*
G75*
G03*
X209550000Y-74450010I0J-300000D01*
G01*
X171866258Y-80555598D02*
X172422793Y-81112132D01*
X204200000Y-55100000D02*
X190800000Y-55100000D01*
X152400000Y-88900000D02*
G75*
G03*
X152700000Y-89200000I300000J0D01*
G01*
X133350000Y-82000000D02*
X133350000Y-95400000D01*
X114300000Y-65450000D02*
X114300000Y-78850000D01*
X166400000Y-56450000D02*
G75*
G03*
X166100000Y-56150000I-300000J0D01*
G01*
X144046591Y-38103505D02*
G75*
G03*
X144046591Y-38103505I-1200000J0D01*
G01*
X204200000Y-93200000D02*
X190800000Y-93200000D01*
X108464697Y-128041283D02*
G75*
G03*
X108874460Y-128151117I259803J149983D01*
G01*
X128300000Y-46400000D02*
G75*
G03*
X128000000Y-46100000I-300000J0D01*
G01*
X185150000Y-57100000D02*
G75*
G03*
X185450000Y-56800000I0J300000D01*
G01*
X171450000Y-82384924D02*
X171450000Y-94900000D01*
X223550000Y-87850010D02*
X223550000Y-74450010D01*
X128000000Y-79150000D02*
G75*
G03*
X128300000Y-78850000I0J300000D01*
G01*
X185450000Y-94900000D02*
X185450000Y-81500000D01*
X166100000Y-70150000D02*
G75*
G03*
X166400000Y-69850000I0J300000D01*
G01*
X147050000Y-57600000D02*
G75*
G03*
X147350000Y-57300000I0J300000D01*
G01*
X177864109Y-114769809D02*
G75*
G03*
X178164109Y-114469828I-9J300009D01*
G01*
X128300000Y-65450000D02*
G75*
G03*
X128000000Y-65150000I-300000J0D01*
G01*
X190500000Y-93500000D02*
X190500000Y-106900000D01*
X190800000Y-55100000D02*
G75*
G03*
X190500000Y-55400000I0J-300000D01*
G01*
X152400000Y-69850000D02*
G75*
G03*
X152700000Y-70150000I300000J0D01*
G01*
X152400000Y-50800000D02*
G75*
G03*
X152700000Y-51100000I300000J0D01*
G01*
X147350000Y-95400000D02*
X147350000Y-82000000D01*
X111768198Y-37807336D02*
G75*
G03*
X111025000Y-38773782I256802J-966464D01*
G01*
X152700000Y-37100000D02*
G75*
G03*
X152400000Y-37400000I0J-300000D01*
G01*
X128000000Y-84200000D02*
X114600000Y-84200000D01*
X101874460Y-116026761D02*
X113479200Y-109326761D01*
X182689109Y-110725009D02*
G75*
G03*
X181689109Y-111725000I-9J-999991D01*
G01*
X190500000Y-55400000D02*
X190500000Y-68800000D01*
X209850000Y-88150010D02*
X223250000Y-88150010D01*
X110399296Y-86296058D02*
G75*
G03*
X73307371Y-110837648I41714804J-103348342D01*
G01*
X133350000Y-95400000D02*
G75*
G03*
X133650000Y-95700000I300000J0D01*
G01*
X128000000Y-60100000D02*
G75*
G03*
X128300000Y-59800000I0J300000D01*
G01*
X185150000Y-76150000D02*
G75*
G03*
X185450000Y-75850000I0J300000D01*
G01*
X159114172Y-101069828D02*
G75*
G03*
X158814109Y-100769828I-300072J-72D01*
G01*
X178164172Y-101069828D02*
G75*
G03*
X177864109Y-100769828I-300072J-72D01*
G01*
X110399279Y-86296016D02*
G75*
G03*
X111025000Y-85368742I-374279J927316D01*
G01*
X80961802Y-127967309D02*
X90437033Y-118492079D01*
X164464109Y-100769809D02*
G75*
G03*
X164164109Y-101069828I-9J-299991D01*
G01*
X171450000Y-56800000D02*
G75*
G03*
X171750000Y-57100000I300000J0D01*
G01*
X171450000Y-75850000D02*
G75*
G03*
X171750000Y-76150000I300000J0D01*
G01*
X111025000Y-85368742D02*
X111025000Y-38773782D01*
X171750000Y-76150000D02*
X185150000Y-76150000D01*
X151965200Y-100221016D02*
G75*
G03*
X152132888Y-100769828I167700J-248784D01*
G01*
X166100000Y-75200000D02*
X152700000Y-75200000D01*
X205572736Y-41913342D02*
G75*
G03*
X111768193Y-37807320I-53458636J-147731058D01*
G01*
X122639976Y-105532235D02*
G75*
G03*
X122427846Y-105899666I77624J-289765D01*
G01*
X170717947Y-81528613D02*
G75*
G03*
X170419403Y-81453459I-212147J-212187D01*
G01*
X209550000Y-74450010D02*
X209550000Y-87850010D01*
X171450000Y-62450000D02*
X171450000Y-75850000D01*
X152700000Y-56150000D02*
G75*
G03*
X152400000Y-56450000I0J-300000D01*
G01*
X152400000Y-56450000D02*
X152400000Y-58201791D01*
X133350000Y-43900000D02*
X133350000Y-57300000D01*
X90436986Y-118492032D02*
G75*
G03*
X90437033Y-118067815I-212086J212132D01*
G01*
X180689109Y-118294828D02*
X152114109Y-118294828D01*
X164164172Y-114469828D02*
G75*
G03*
X164464109Y-114769828I299928J-72D01*
G01*
X113889018Y-109436563D02*
G75*
G03*
X113479200Y-109326761I-259818J-150037D01*
G01*
X151936279Y-58453187D02*
G75*
G03*
X152400000Y-58201791I163721J251387D01*
G01*
X204200000Y-107200000D02*
G75*
G03*
X204500000Y-106900000I0J300000D01*
G01*
X133885692Y-79346704D02*
G75*
G03*
X133885692Y-79346704I-2200000J0D01*
G01*
X209850000Y-55100000D02*
G75*
G03*
X209550000Y-55400010I0J-300000D01*
G01*
X133650000Y-81700000D02*
G75*
G03*
X133350000Y-82000000I0J-300000D01*
G01*
X152400000Y-75500000D02*
X152400000Y-88900000D01*
X208225000Y-90675010D02*
G75*
G03*
X208225000Y-90675010I-1200000J0D01*
G01*
X80537538Y-127967309D02*
X71062307Y-118492079D01*
X114600000Y-98200000D02*
X128000000Y-98200000D01*
X204500000Y-87850000D02*
X204500000Y-74450000D01*
X110954200Y-104953333D02*
X99349460Y-111653333D01*
X94007922Y-122062968D02*
X84532691Y-131538199D01*
X204500000Y-55400000D02*
G75*
G03*
X204200000Y-55100000I-300000J0D01*
G01*
X223250000Y-55100010D02*
X209850000Y-55100010D01*
X209550000Y-93500010D02*
X209550000Y-106900010D01*
X204200000Y-88150000D02*
G75*
G03*
X204500000Y-87850000I0J300000D01*
G01*
X152400000Y-37400000D02*
X152400000Y-50800000D01*
X166100000Y-51100000D02*
G75*
G03*
X166400000Y-50800000I0J300000D01*
G01*
X185150000Y-43100000D02*
X171750000Y-43100000D01*
X101874474Y-116026785D02*
G75*
G03*
X101764652Y-116436569I150026J-259815D01*
G01*
X147350000Y-82000000D02*
G75*
G03*
X147050000Y-81700000I-300000J0D01*
G01*
X226075000Y-110725000D02*
G75*
G03*
X227075000Y-109725000I0J1000000D01*
G01*
X185450000Y-75850000D02*
X185450000Y-62450000D01*
X190500000Y-74450000D02*
X190500000Y-87850000D01*
X166400000Y-75500000D02*
G75*
G03*
X166100000Y-75200000I-300000J0D01*
G01*
X135950742Y-102276217D02*
G75*
G03*
X135583384Y-102064067I-289742J-77583D01*
G01*
X114600000Y-79150000D02*
X128000000Y-79150000D01*
X133650000Y-43600000D02*
G75*
G03*
X133350000Y-43900000I0J-300000D01*
G01*
X223549990Y-74450010D02*
G75*
G03*
X223250000Y-74150010I-299990J10D01*
G01*
X93512947Y-145927822D02*
X66572179Y-118987053D01*
X171750000Y-57100000D02*
X185150000Y-57100000D01*
X172422822Y-81112103D02*
G75*
G03*
X172634925Y-81200000I212078J211903D01*
G01*
X114600000Y-65150000D02*
G75*
G03*
X114300000Y-65450000I0J-300000D01*
G01*
X209549990Y-106900010D02*
G75*
G03*
X209850000Y-107200010I300010J10D01*
G01*
X171803273Y-80223857D02*
G75*
G03*
X170419403Y-81453457I-2017573J877157D01*
G01*
X190800000Y-69100000D02*
X204200000Y-69100000D01*
X190500000Y-68800000D02*
G75*
G03*
X190800000Y-69100000I300000J0D01*
G01*
X166400000Y-50800000D02*
X166400000Y-37400000D01*
X108464652Y-128041309D02*
X101764652Y-116436569D01*
X171803221Y-80223834D02*
G75*
G03*
X171866258Y-80555598I275279J-119566D01*
G01*
X128000000Y-46100000D02*
X114600000Y-46100000D01*
X181689109Y-111725000D02*
X181689109Y-117294828D01*
X209550000Y-55400010D02*
X209550000Y-68800010D01*
X128300000Y-84500000D02*
G75*
G03*
X128000000Y-84200000I-300000J0D01*
G01*
X171750000Y-95200000D02*
X185150000Y-95200000D01*
X110954183Y-104953303D02*
G75*
G03*
X111064007Y-104543525I-149983J259803D01*
G01*
X80961802Y-108592584D02*
X90437033Y-118067815D01*
X159114109Y-114469828D02*
X159114109Y-101069828D01*
X114300000Y-78850000D02*
G75*
G03*
X114600000Y-79150000I300000J0D01*
G01*
X104364008Y-92938785D02*
X111064008Y-104543525D01*
X158814109Y-114769809D02*
G75*
G03*
X159114109Y-114469828I-9J300009D01*
G01*
X151936286Y-58453175D02*
G75*
G03*
X151936283Y-62140227I-1200586J-1843525D01*
G01*
X227075000Y-52171253D02*
X227075000Y-109725000D01*
X177864109Y-114769828D02*
X164464109Y-114769828D01*
X133650000Y-95700000D02*
X147050000Y-95700000D01*
X147050000Y-76650000D02*
G75*
G03*
X147350000Y-76350000I0J300000D01*
G01*
X166100000Y-37100000D02*
X152700000Y-37100000D01*
X120479193Y-121451106D02*
G75*
G03*
X120589007Y-121041309I-149993J259806D01*
G01*
X126263444Y-119055204D02*
X139206851Y-115587029D01*
X133650000Y-62650000D02*
G75*
G03*
X133350000Y-62950000I0J-300000D01*
G01*
X149338496Y-100769828D02*
X145414109Y-100769828D01*
X145414109Y-100769809D02*
G75*
G03*
X145114109Y-101069828I-9J-299991D01*
G01*
X171750000Y-43100000D02*
G75*
G03*
X171450000Y-43400000I0J-300000D01*
G01*
X133650000Y-57600000D02*
X147050000Y-57600000D01*
X178164109Y-101069828D02*
X178164109Y-114469828D01*
X147050000Y-95700000D02*
G75*
G03*
X147350000Y-95400000I0J300000D01*
G01*
X190500000Y-87850000D02*
G75*
G03*
X190800000Y-88150000I300000J0D01*
G01*
X209549990Y-87850010D02*
G75*
G03*
X209850000Y-88150010I300010J10D01*
G01*
X223550000Y-68800010D02*
X223550000Y-55400010D01*
X98939692Y-111543502D02*
G75*
G03*
X99349460Y-111653332I259808J150002D01*
G01*
X139418983Y-115219606D02*
X135950807Y-102276200D01*
X204500000Y-68800000D02*
X204500000Y-55400000D01*
X171450000Y-43400000D02*
X171450000Y-56800000D01*
X152700000Y-51100000D02*
X166100000Y-51100000D01*
X84532691Y-131962463D02*
X94007922Y-141437694D01*
X147050000Y-62650000D02*
X133650000Y-62650000D01*
X223250000Y-88150000D02*
G75*
G03*
X223550000Y-87850010I0J300000D01*
G01*
X171750000Y-62150000D02*
G75*
G03*
X171450000Y-62450000I0J-300000D01*
G01*
X152700000Y-75200000D02*
G75*
G03*
X152400000Y-75500000I0J-300000D01*
G01*
X122427846Y-105899666D02*
X125896021Y-118843072D01*
X227074989Y-52171253D02*
G75*
G03*
X226548787Y-51290613I-1000089J-47D01*
G01*
X204500000Y-74450000D02*
G75*
G03*
X204200000Y-74150000I-300000J0D01*
G01*
X128300000Y-97900000D02*
X128300000Y-84500000D01*
X80537539Y-127967308D02*
G75*
G03*
X80961801Y-127967308I212131J212131D01*
G01*
X114600000Y-84200000D02*
G75*
G03*
X114300000Y-84500000I0J-300000D01*
G01*
X80961801Y-108592585D02*
G75*
G03*
X80537539Y-108592585I-212131J-212131D01*
G01*
X209850000Y-93200000D02*
G75*
G03*
X209550000Y-93500010I0J-300000D01*
G01*
X104364012Y-92938782D02*
G75*
G03*
X103954200Y-92828977I-259812J-150018D01*
G01*
X168063591Y-96793503D02*
G75*
G03*
X168063591Y-96793503I-1200000J0D01*
G01*
X171450000Y-94900000D02*
G75*
G03*
X171750000Y-95200000I300000J0D01*
G01*
X71062260Y-118067768D02*
G75*
G03*
X71062307Y-118492079I212140J-212132D01*
G01*
X145414109Y-114769828D02*
X158814109Y-114769828D01*
X204500000Y-93500000D02*
G75*
G03*
X204200000Y-93200000I-300000J0D01*
G01*
X185450000Y-56800000D02*
X185450000Y-43400000D01*
X145114109Y-101069828D02*
X145114109Y-114469828D01*
X226548789Y-51290610D02*
G75*
G03*
X209092340Y-43234793I-74434189J-138352790D01*
G01*
X133650000Y-76650000D02*
X147050000Y-76650000D01*
X190800000Y-74150000D02*
G75*
G03*
X190500000Y-74450000I0J-300000D01*
G01*
X209850000Y-69100010D02*
X223250000Y-69100010D01*
X185450000Y-43400000D02*
G75*
G03*
X185150000Y-43100000I-300000J0D01*
G01*
X190800000Y-93200000D02*
G75*
G03*
X190500000Y-93500000I0J-300000D01*
G01*
X128300000Y-78850000D02*
X128300000Y-65450000D01*
X223549990Y-93500010D02*
G75*
G03*
X223250000Y-93200010I-299990J10D01*
G01*
X66572179Y-117572840D02*
X73307371Y-110837648D01*
X94432185Y-122062969D02*
G75*
G03*
X94007923Y-122062969I-212131J-212131D01*
G01*
M02*
