%TF.GenerationSoftware,KiCad,Pcbnew,7.0.1*%
%TF.CreationDate,2023-04-13T19:44:34+02:00*%
%TF.ProjectId,untitled,756e7469-746c-4656-942e-6b696361645f,rev?*%
%TF.SameCoordinates,Original*%
%TF.FileFunction,Profile,NP*%
%FSLAX46Y46*%
G04 Gerber Fmt 4.6, Leading zero omitted, Abs format (unit mm)*
G04 Created by KiCad (PCBNEW 7.0.1) date 2023-04-13 19:44:34*
%MOMM*%
%LPD*%
G01*
G04 APERTURE LIST*
%TA.AperFunction,Profile*%
%ADD10C,0.200000*%
%TD*%
G04 APERTURE END LIST*
D10*
X228097806Y-86417170D02*
G75*
G03*
X227797821Y-86117170I-299994J6D01*
G01*
X228097821Y-99817170D02*
X228097821Y-86417170D01*
X227797821Y-100117173D02*
G75*
G03*
X228097821Y-99817170I-9J300009D01*
G01*
X214397821Y-100117170D02*
X227797821Y-100117170D01*
X214097806Y-99817170D02*
G75*
G03*
X214397821Y-100117170I300006J6D01*
G01*
X214097821Y-86417170D02*
X214097821Y-99817170D01*
X175997816Y-87817160D02*
G75*
G03*
X176297821Y-88117160I299996J-4D01*
G01*
X175997821Y-74417160D02*
X175997821Y-87817160D01*
X176297821Y-74117173D02*
G75*
G03*
X175997821Y-74417160I-9J-299991D01*
G01*
X189697821Y-74117160D02*
X176297821Y-74117160D01*
X132547821Y-110167160D02*
G75*
G03*
X132847821Y-109867160I0J300000D01*
G01*
X96897281Y-111496137D02*
G75*
G03*
X96787473Y-111905945I150000J-259808D01*
G01*
X119147821Y-110167160D02*
X132547821Y-110167160D01*
X118847821Y-109867160D02*
G75*
G03*
X119147821Y-110167160I300000J0D01*
G01*
X118847821Y-96467160D02*
X118847821Y-109867160D01*
X170647821Y-63067173D02*
G75*
G03*
X170947821Y-62767160I-9J300009D01*
G01*
X157247821Y-63067160D02*
X170647821Y-63067160D01*
X156947816Y-62767160D02*
G75*
G03*
X157247821Y-63067160I299996J-4D01*
G01*
X156947821Y-49367160D02*
X156947821Y-62767160D01*
X157247821Y-49067173D02*
G75*
G03*
X156947821Y-49367160I-9J-299991D01*
G01*
X170647821Y-49067160D02*
X157247821Y-49067160D01*
X170947816Y-49367160D02*
G75*
G03*
X170647821Y-49067160I-300004J-4D01*
G01*
X170947821Y-62767160D02*
X170947821Y-49367160D01*
X157247821Y-87167173D02*
G75*
G03*
X156947821Y-87467160I-9J-299991D01*
G01*
X170647821Y-87167160D02*
X157247821Y-87167160D01*
X170947816Y-87467160D02*
G75*
G03*
X170647821Y-87167160I-300004J-4D01*
G01*
X170947821Y-100867160D02*
X170947821Y-87467160D01*
X170647821Y-101167173D02*
G75*
G03*
X170947821Y-100867160I-9J300009D01*
G01*
X157247821Y-101167160D02*
X170647821Y-101167160D01*
X156947816Y-100867160D02*
G75*
G03*
X157247821Y-101167160I299996J-4D01*
G01*
X156947821Y-87467160D02*
X156947821Y-100867160D01*
X182411930Y-126736988D02*
X169011930Y-126736988D01*
X182411930Y-126736982D02*
G75*
G03*
X182711930Y-126436988I-18J300018D01*
G01*
X182711930Y-113036988D02*
X182711930Y-126436988D01*
X182711888Y-113036988D02*
G75*
G03*
X182411930Y-112736988I-299976J24D01*
G01*
X169011930Y-112736988D02*
X182411930Y-112736988D01*
X169011930Y-112736982D02*
G75*
G03*
X168711930Y-113036988I-18J-299982D01*
G01*
X168711930Y-126436988D02*
X168711930Y-113036988D01*
X186236930Y-123692160D02*
X186236930Y-129261988D01*
X185236930Y-130261982D02*
G75*
G03*
X186236930Y-129261988I-18J1000018D01*
G01*
X185236930Y-130261988D02*
X156661930Y-130261988D01*
X156661930Y-130261989D02*
G75*
G03*
X106210175Y-151159791I0J-71349556D01*
G01*
X106210174Y-151159790D02*
X99474982Y-157894982D01*
X98060768Y-157894982D02*
G75*
G03*
X99474982Y-157894982I707107J707108D01*
G01*
X98060768Y-157894982D02*
X71120000Y-130954213D01*
X228097806Y-67367170D02*
G75*
G03*
X227797821Y-67067170I-299994J6D01*
G01*
X71120001Y-129540001D02*
G75*
G03*
X71120000Y-130954213I707106J-707106D01*
G01*
X227797821Y-67067170D02*
X214397821Y-67067170D01*
X71120000Y-129540000D02*
X77855192Y-122804808D01*
X214397821Y-67067173D02*
G75*
G03*
X214097821Y-67367170I-9J-299991D01*
G01*
X114947115Y-98263212D02*
G75*
G03*
X77855192Y-122804808I41714817J-103348332D01*
G01*
X214097821Y-67367170D02*
X214097821Y-80767170D01*
X114947115Y-98263212D02*
G75*
G03*
X115572821Y-97335902I-374293J927309D01*
G01*
X214097806Y-80767170D02*
G75*
G03*
X214397821Y-81067170I300006J6D01*
G01*
X115572821Y-97335902D02*
X115572821Y-50740942D01*
X214397821Y-81067170D02*
X227797821Y-81067170D01*
X116316014Y-49774479D02*
G75*
G03*
X115572821Y-50740942I256808J-966464D01*
G01*
X227797821Y-119167173D02*
G75*
G03*
X228097821Y-118867170I-9J300009D01*
G01*
X210120559Y-53880497D02*
G75*
G03*
X116316014Y-49774479I-53458629J-147731059D01*
G01*
X228097821Y-118867170D02*
X228097821Y-105467170D01*
X213640161Y-55201953D02*
G75*
G03*
X210120559Y-53880498I-56979249J-146412311D01*
G01*
X228097806Y-105467170D02*
G75*
G03*
X227797821Y-105167170I-299994J6D01*
G01*
X231096610Y-63257770D02*
G75*
G03*
X213640161Y-55201954I-74434698J-138353894D01*
G01*
X227797821Y-105167170D02*
X214397821Y-105167170D01*
X231622773Y-64138413D02*
G75*
G03*
X231096608Y-63257774I-999961J49D01*
G01*
X214397821Y-105167173D02*
G75*
G03*
X214097821Y-105467170I-9J-299991D01*
G01*
X231622821Y-64138413D02*
X231622821Y-121692160D01*
X214097821Y-105467170D02*
X214097821Y-118867170D01*
X230622821Y-122692173D02*
G75*
G03*
X231622821Y-121692160I-9J1000009D01*
G01*
X214097806Y-118867170D02*
G75*
G03*
X214397821Y-119167170I300006J6D01*
G01*
X227797821Y-81067173D02*
G75*
G03*
X228097821Y-80767170I-9J300009D01*
G01*
X214397821Y-119167170D02*
X227797821Y-119167170D01*
X228097821Y-80767170D02*
X228097821Y-67367170D01*
X168711888Y-126436988D02*
G75*
G03*
X169011930Y-126736988I300024J24D01*
G01*
X132847821Y-109867160D02*
X132847821Y-96467160D01*
X132847821Y-96467160D02*
G75*
G03*
X132547821Y-96167160I-300000J0D01*
G01*
X119147821Y-96167160D02*
G75*
G03*
X118847821Y-96467160I0J-300000D01*
G01*
X149661930Y-113036988D02*
X149661930Y-126436988D01*
X149661928Y-126436988D02*
G75*
G03*
X149961930Y-126736988I300004J4D01*
G01*
X149961930Y-126736988D02*
X163361930Y-126736988D01*
X163361930Y-126736982D02*
G75*
G03*
X163661930Y-126436988I-18J300018D01*
G01*
X163661930Y-126436988D02*
X163661930Y-113036988D01*
X163661888Y-113036988D02*
G75*
G03*
X163361930Y-112736988I-299976J24D01*
G01*
X163361930Y-112736988D02*
X149961930Y-112736988D01*
X149961930Y-112736982D02*
G75*
G03*
X149661930Y-113036988I-18J-299982D01*
G01*
X176297821Y-69067160D02*
X189697821Y-69067160D01*
X189697821Y-69067173D02*
G75*
G03*
X189997821Y-68767160I-9J300009D01*
G01*
X189997821Y-68767160D02*
X189997821Y-55367160D01*
X138197821Y-74617160D02*
G75*
G03*
X137897821Y-74917160I0J-300000D01*
G01*
X137897821Y-74917160D02*
X137897821Y-88317160D01*
X137897821Y-88317160D02*
G75*
G03*
X138197821Y-88617160I300000J0D01*
G01*
X170947821Y-81817160D02*
X170947821Y-68417160D01*
X170947816Y-68417160D02*
G75*
G03*
X170647821Y-68117160I-300004J-4D01*
G01*
X170647821Y-68117160D02*
X157247821Y-68117160D01*
X157247821Y-68117173D02*
G75*
G03*
X156947821Y-68417160I-9J-299991D01*
G01*
X156947816Y-81817160D02*
G75*
G03*
X157247821Y-82117160I299996J-4D01*
G01*
X132547821Y-96167160D02*
X119147821Y-96167160D01*
X212772821Y-64542170D02*
G75*
G03*
X212772821Y-64542170I-1200000J0D01*
G01*
X157247821Y-82117160D02*
X170647821Y-82117160D01*
X170647821Y-82117173D02*
G75*
G03*
X170947821Y-81817160I-9J300009D01*
G01*
X118847821Y-77417160D02*
X118847821Y-90817160D01*
X118847821Y-90817160D02*
G75*
G03*
X119147821Y-91117160I300000J0D01*
G01*
X119147821Y-91117160D02*
X132547821Y-91117160D01*
X132547821Y-91117160D02*
G75*
G03*
X132847821Y-90817160I0J300000D01*
G01*
X132847821Y-90817160D02*
X132847821Y-77417160D01*
X132847821Y-77417160D02*
G75*
G03*
X132547821Y-77117160I-300000J0D01*
G01*
X132547821Y-77117160D02*
X119147821Y-77117160D01*
X119147821Y-77117160D02*
G75*
G03*
X118847821Y-77417160I0J-300000D01*
G01*
X143966804Y-127186766D02*
X140498628Y-114243360D01*
X189997816Y-74417160D02*
G75*
G03*
X189697821Y-74117160I-300004J-4D01*
G01*
X156947821Y-68417160D02*
X156947821Y-81817160D01*
X195047821Y-105467160D02*
X195047821Y-118867160D01*
X189697821Y-88117173D02*
G75*
G03*
X189997821Y-87817160I-9J300009D01*
G01*
X127187799Y-117499404D02*
G75*
G03*
X126975667Y-117866826I77644J-289776D01*
G01*
X189997821Y-87817160D02*
X189997821Y-74417160D01*
X187236930Y-122692182D02*
G75*
G03*
X186236930Y-123692160I-18J-999982D01*
G01*
X189997816Y-55367160D02*
G75*
G03*
X189697821Y-55067160I-300004J-4D01*
G01*
X176297821Y-88117160D02*
X189697821Y-88117160D01*
X230622821Y-122692160D02*
X187236930Y-122692160D01*
X143754672Y-127554188D02*
G75*
G03*
X143966803Y-127186766I-77648J289778D01*
G01*
X130811265Y-131022364D02*
X143754672Y-127554189D01*
X130443842Y-130810232D02*
G75*
G03*
X130811265Y-131022364I289778J77646D01*
G01*
X126975667Y-117866826D02*
X130443842Y-130810232D01*
X212772821Y-102642170D02*
G75*
G03*
X212772821Y-102642170I-1200000J0D01*
G01*
X140131205Y-114031227D02*
X127187799Y-117499403D01*
X140498628Y-114243360D02*
G75*
G03*
X140131205Y-114031227I-289778J-77645D01*
G01*
X151597821Y-74617160D02*
X138197821Y-74617160D01*
X151897816Y-74917160D02*
G75*
G03*
X151597821Y-74617160I-300004J-4D01*
G01*
X151897821Y-88317160D02*
X151897821Y-74917160D01*
X151597821Y-88617173D02*
G75*
G03*
X151897821Y-88317160I-9J300009D01*
G01*
X172611412Y-108760663D02*
G75*
G03*
X172611412Y-108760663I-1200000J0D01*
G01*
X138197821Y-88617160D02*
X151597821Y-88617160D01*
X137897821Y-69267160D02*
G75*
G03*
X138197821Y-69567160I300000J0D01*
G01*
X137897821Y-55867160D02*
X137897821Y-69267160D01*
X138197821Y-55567160D02*
G75*
G03*
X137897821Y-55867160I0J-300000D01*
G01*
X151597821Y-55567160D02*
X138197821Y-55567160D01*
X151897816Y-55867160D02*
G75*
G03*
X151597821Y-55567160I-300004J-4D01*
G01*
X151897821Y-69267160D02*
X151897821Y-55867160D01*
X151597821Y-69567173D02*
G75*
G03*
X151897821Y-69267160I-9J300009D01*
G01*
X138197821Y-69567160D02*
X151597821Y-69567160D01*
X209047816Y-67367160D02*
G75*
G03*
X208747821Y-67067160I-300004J-4D01*
G01*
X209047821Y-80767160D02*
X209047821Y-67367160D01*
X208747821Y-81067173D02*
G75*
G03*
X209047821Y-80767160I-9J300009D01*
G01*
X101940567Y-128733407D02*
G75*
G03*
X101940567Y-128733407I-1200000J0D01*
G01*
X209047821Y-99817160D02*
X209047821Y-86417160D01*
X195347821Y-81067160D02*
X208747821Y-81067160D01*
X195047816Y-80767160D02*
G75*
G03*
X195347821Y-81067160I299996J-4D01*
G01*
X195047821Y-67367160D02*
X195047821Y-80767160D01*
X195347821Y-67067173D02*
G75*
G03*
X195047821Y-67367160I-9J-299991D01*
G01*
X208747821Y-67067160D02*
X195347821Y-67067160D01*
X195347821Y-105167173D02*
G75*
G03*
X195047821Y-105467160I-9J-299991D01*
G01*
X208747821Y-105167160D02*
X195347821Y-105167160D01*
X209047816Y-105467160D02*
G75*
G03*
X208747821Y-105167160I-300004J-4D01*
G01*
X209047821Y-118867160D02*
X209047821Y-105467160D01*
X208747821Y-119167173D02*
G75*
G03*
X209047821Y-118867160I-9J300009D01*
G01*
X195347821Y-119167160D02*
X208747821Y-119167160D01*
X195047816Y-118867160D02*
G75*
G03*
X195347821Y-119167160I299996J-4D01*
G01*
X209047816Y-86417160D02*
G75*
G03*
X208747821Y-86117160I-300004J-4D01*
G01*
X208747821Y-100117173D02*
G75*
G03*
X209047821Y-99817160I-9J300009D01*
G01*
X195347821Y-100117160D02*
X208747821Y-100117160D01*
X195047816Y-99817160D02*
G75*
G03*
X195347821Y-100117160I299996J-4D01*
G01*
X195047821Y-86417160D02*
X195047821Y-99817160D01*
X195347821Y-86117173D02*
G75*
G03*
X195047821Y-86417160I-9J-299991D01*
G01*
X208747821Y-86117160D02*
X195347821Y-86117160D01*
X175997816Y-68767160D02*
G75*
G03*
X176297821Y-69067160I299996J-4D01*
G01*
X175997821Y-55367160D02*
X175997821Y-68767160D01*
X176297821Y-55067173D02*
G75*
G03*
X175997821Y-55367160I-9J-299991D01*
G01*
X189697821Y-55067160D02*
X176297821Y-55067160D01*
X227797821Y-86117170D02*
X214397821Y-86117170D01*
X214397821Y-86117173D02*
G75*
G03*
X214097821Y-86417170I-9J-299991D01*
G01*
X175997821Y-93467160D02*
X175997821Y-106867160D01*
X175997816Y-106867160D02*
G75*
G03*
X176297821Y-107167160I299996J-4D01*
G01*
X176297821Y-107167160D02*
X189697821Y-107167160D01*
X189697821Y-107167173D02*
G75*
G03*
X189997821Y-106867160I-9J300009D01*
G01*
X189997821Y-106867160D02*
X189997821Y-93467160D01*
X189997816Y-93467160D02*
G75*
G03*
X189697821Y-93167160I-300004J-4D01*
G01*
X189697821Y-93167160D02*
X176297821Y-93167160D01*
X176297821Y-93167173D02*
G75*
G03*
X175997821Y-93467160I-9J-299991D01*
G01*
X118847821Y-58367160D02*
X118847821Y-71767160D01*
X118847821Y-71767160D02*
G75*
G03*
X119147821Y-72067160I300000J0D01*
G01*
X119147821Y-72067160D02*
X132547821Y-72067160D01*
X132547821Y-72067160D02*
G75*
G03*
X132847821Y-71767160I0J300000D01*
G01*
X132847821Y-71767160D02*
X132847821Y-58367160D01*
X132847821Y-58367160D02*
G75*
G03*
X132547821Y-58067160I-300000J0D01*
G01*
X132547821Y-58067160D02*
X119147821Y-58067160D01*
X119147821Y-58067160D02*
G75*
G03*
X118847821Y-58367160I0J-300000D01*
G01*
X137897821Y-93967160D02*
X137897821Y-107367160D01*
X137897821Y-107367160D02*
G75*
G03*
X138197821Y-107667160I300000J0D01*
G01*
X138197821Y-107667160D02*
X151597821Y-107667160D01*
X151597821Y-107667173D02*
G75*
G03*
X151897821Y-107367160I-9J300009D01*
G01*
X151897821Y-107367160D02*
X151897821Y-93967160D01*
X151897816Y-93967160D02*
G75*
G03*
X151597821Y-93667160I-300004J-4D01*
G01*
X151597821Y-93667160D02*
X138197821Y-93667160D01*
X138197821Y-93667160D02*
G75*
G03*
X137897821Y-93967160I0J-300000D01*
G01*
X148594412Y-50070665D02*
G75*
G03*
X148594412Y-50070665I-1200000J0D01*
G01*
X113012473Y-140008469D02*
X106312473Y-128403729D01*
X108911829Y-104905945D02*
X115611829Y-116510685D01*
X103487473Y-123510685D02*
X96787473Y-111905945D01*
X108455238Y-143505359D02*
X98980007Y-134030128D01*
X89080512Y-143929623D02*
X98555743Y-153404854D01*
X85509623Y-120559744D02*
X94984854Y-130034975D01*
X85085359Y-139934469D02*
X75610128Y-130459239D01*
X106422281Y-127993921D02*
X118027021Y-121293921D01*
X118436829Y-121403729D02*
X125136829Y-133008469D01*
X125027021Y-133418277D02*
X113422281Y-140118277D01*
X96897281Y-111496137D02*
X108502021Y-104796137D01*
X115502021Y-116920493D02*
X103897281Y-123620493D01*
X75610128Y-130034975D02*
X85085359Y-120559744D01*
X85509623Y-139934469D02*
X94984854Y-130459239D01*
X98555743Y-134030128D02*
X89080512Y-143505359D01*
X98980007Y-153404854D02*
X108455238Y-143929623D01*
X85085360Y-139934468D02*
G75*
G03*
X85509622Y-139934468I212131J212131D01*
G01*
X85509622Y-120559745D02*
G75*
G03*
X85085360Y-120559745I-212131J-212131D01*
G01*
X75610129Y-130034976D02*
G75*
G03*
X75610129Y-130459238I212131J-212131D01*
G01*
X94984853Y-130459238D02*
G75*
G03*
X94984853Y-130034976I-212131J212131D01*
G01*
X108455237Y-143929622D02*
G75*
G03*
X108455237Y-143505360I-212131J212131D01*
G01*
X89080513Y-143505360D02*
G75*
G03*
X89080513Y-143929622I212131J-212131D01*
G01*
X98555744Y-153404853D02*
G75*
G03*
X98980006Y-153404853I212131J212131D01*
G01*
X98980006Y-134030129D02*
G75*
G03*
X98555744Y-134030129I-212131J-212131D01*
G01*
X106422281Y-127993921D02*
G75*
G03*
X106312473Y-128403729I150000J-259808D01*
G01*
X113012473Y-140008469D02*
G75*
G03*
X113422281Y-140118277I259808J150000D01*
G01*
X125027021Y-133418277D02*
G75*
G03*
X125136829Y-133008469I-150000J259808D01*
G01*
X118436829Y-121403729D02*
G75*
G03*
X118027021Y-121293921I-259808J-150000D01*
G01*
X103487473Y-123510685D02*
G75*
G03*
X103897281Y-123620493I259808J150000D01*
G01*
X115502021Y-116920493D02*
G75*
G03*
X115611829Y-116510685I-150000J259808D01*
G01*
X108911829Y-104905945D02*
G75*
G03*
X108502021Y-104796137I-259808J-150000D01*
G01*
M02*
